%TF.GenerationSoftware,KiCad,Pcbnew,8.0.6*%
%TF.CreationDate,2024-11-04T10:18:01-07:00*%
%TF.ProjectId,TMS9918-9928,544d5339-3931-4382-9d39-3932382e6b69,rev?*%
%TF.SameCoordinates,Original*%
%TF.FileFunction,Copper,L2,Bot*%
%TF.FilePolarity,Positive*%
%FSLAX46Y46*%
G04 Gerber Fmt 4.6, Leading zero omitted, Abs format (unit mm)*
G04 Created by KiCad (PCBNEW 8.0.6) date 2024-11-04 10:18:01*
%MOMM*%
%LPD*%
G01*
G04 APERTURE LIST*
G04 Aperture macros list*
%AMRoundRect*
0 Rectangle with rounded corners*
0 $1 Rounding radius*
0 $2 $3 $4 $5 $6 $7 $8 $9 X,Y pos of 4 corners*
0 Add a 4 corners polygon primitive as box body*
4,1,4,$2,$3,$4,$5,$6,$7,$8,$9,$2,$3,0*
0 Add four circle primitives for the rounded corners*
1,1,$1+$1,$2,$3*
1,1,$1+$1,$4,$5*
1,1,$1+$1,$6,$7*
1,1,$1+$1,$8,$9*
0 Add four rect primitives between the rounded corners*
20,1,$1+$1,$2,$3,$4,$5,0*
20,1,$1+$1,$4,$5,$6,$7,0*
20,1,$1+$1,$6,$7,$8,$9,0*
20,1,$1+$1,$8,$9,$2,$3,0*%
G04 Aperture macros list end*
%TA.AperFunction,ComponentPad*%
%ADD10R,1.600000X1.600000*%
%TD*%
%TA.AperFunction,ComponentPad*%
%ADD11O,1.600000X1.600000*%
%TD*%
%TA.AperFunction,SMDPad,CuDef*%
%ADD12RoundRect,0.200000X0.275000X-0.200000X0.275000X0.200000X-0.275000X0.200000X-0.275000X-0.200000X0*%
%TD*%
%TA.AperFunction,SMDPad,CuDef*%
%ADD13RoundRect,0.200000X-0.275000X0.200000X-0.275000X-0.200000X0.275000X-0.200000X0.275000X0.200000X0*%
%TD*%
%TA.AperFunction,SMDPad,CuDef*%
%ADD14R,0.700000X0.510000*%
%TD*%
%TA.AperFunction,SMDPad,CuDef*%
%ADD15RoundRect,0.225000X-0.225000X-0.250000X0.225000X-0.250000X0.225000X0.250000X-0.225000X0.250000X0*%
%TD*%
%TA.AperFunction,SMDPad,CuDef*%
%ADD16RoundRect,0.200000X0.200000X0.275000X-0.200000X0.275000X-0.200000X-0.275000X0.200000X-0.275000X0*%
%TD*%
%TA.AperFunction,SMDPad,CuDef*%
%ADD17RoundRect,0.225000X0.250000X-0.225000X0.250000X0.225000X-0.250000X0.225000X-0.250000X-0.225000X0*%
%TD*%
%TA.AperFunction,SMDPad,CuDef*%
%ADD18RoundRect,0.100000X0.637500X0.100000X-0.637500X0.100000X-0.637500X-0.100000X0.637500X-0.100000X0*%
%TD*%
%TA.AperFunction,ViaPad*%
%ADD19C,0.800000*%
%TD*%
%TA.AperFunction,Conductor*%
%ADD20C,0.330000*%
%TD*%
%TA.AperFunction,Conductor*%
%ADD21C,0.250000*%
%TD*%
%TA.AperFunction,Conductor*%
%ADD22C,1.000000*%
%TD*%
G04 APERTURE END LIST*
D10*
%TO.P,U4,1,~{RAS}*%
%TO.N,/~{RAS}*%
X124460000Y-66040000D03*
D11*
%TO.P,U4,2,~{CAS}*%
%TO.N,/~{CAS}*%
X124460000Y-68580000D03*
%TO.P,U4,3,AD7*%
%TO.N,/AD7*%
X124460000Y-71120000D03*
%TO.P,U4,4,AD6*%
%TO.N,/AD6*%
X124460000Y-73660000D03*
%TO.P,U4,5,AD5*%
%TO.N,/AD5*%
X124460000Y-76200000D03*
%TO.P,U4,6,AD4*%
%TO.N,/AD4*%
X124460000Y-78740000D03*
%TO.P,U4,7,AD3*%
%TO.N,/AD3*%
X124460000Y-81280000D03*
%TO.P,U4,8,AD2*%
%TO.N,/AD2*%
X124460000Y-83820000D03*
%TO.P,U4,9,AD1*%
%TO.N,/AD1*%
X124460000Y-86360000D03*
%TO.P,U4,10,AD0*%
%TO.N,/AD0*%
X124460000Y-88900000D03*
%TO.P,U4,11,R/~{W}*%
%TO.N,/R{slash}~{W}*%
X124460000Y-91440000D03*
%TO.P,U4,12,VSS*%
%TO.N,GND*%
X124460000Y-93980000D03*
%TO.P,U4,13,MODE*%
%TO.N,/MODE*%
X124460000Y-96520000D03*
%TO.P,U4,14,~{CSW}*%
%TO.N,/~{CSW}*%
X124460000Y-99060000D03*
%TO.P,U4,15,~{CSR}*%
%TO.N,/~{CSR}*%
X124460000Y-101600000D03*
%TO.P,U4,16,~{INT}*%
%TO.N,/~{INT}*%
X124460000Y-104140000D03*
%TO.P,U4,17,CD7*%
%TO.N,/CD7*%
X124460000Y-106680000D03*
%TO.P,U4,18,CD6*%
%TO.N,/CD6*%
X124460000Y-109220000D03*
%TO.P,U4,19,CD5*%
%TO.N,/CD5*%
X124460000Y-111760000D03*
%TO.P,U4,20,CD4*%
%TO.N,/CD4*%
X124460000Y-114300000D03*
%TO.P,U4,21,CD3*%
%TO.N,/CD3*%
X139700000Y-114300000D03*
%TO.P,U4,22,CD2*%
%TO.N,/CD2*%
X139700000Y-111760000D03*
%TO.P,U4,23,CD1*%
%TO.N,/CD1*%
X139700000Y-109220000D03*
%TO.P,U4,24,CD0*%
%TO.N,/CD0*%
X139700000Y-106680000D03*
%TO.P,U4,25,RD7*%
%TO.N,/RD7*%
X139700000Y-104140000D03*
%TO.P,U4,26,RD6*%
%TO.N,/RD6*%
X139700000Y-101600000D03*
%TO.P,U4,27,RD5*%
%TO.N,/RD5*%
X139700000Y-99060000D03*
%TO.P,U4,28,RD4*%
%TO.N,/RD4*%
X139700000Y-96520000D03*
%TO.P,U4,29,RD3*%
%TO.N,/RD3*%
X139700000Y-93980000D03*
%TO.P,U4,30,RD2*%
%TO.N,/RD2*%
X139700000Y-91440000D03*
%TO.P,U4,31,RD1*%
%TO.N,/RD1*%
X139700000Y-88900000D03*
%TO.P,U4,32,RD0*%
%TO.N,/RD0*%
X139700000Y-86360000D03*
%TO.P,U4,33,VCC*%
%TO.N,VCC*%
X139700000Y-83820000D03*
%TO.P,U4,34,~{RESET}/SYNC*%
%TO.N,/~{RESET}{slash}SYNC*%
X139700000Y-81280000D03*
%TO.P,U4,35,EXTVDP*%
%TO.N,unconnected-(U4-EXTVDP-Pad35)*%
X139700000Y-78740000D03*
%TO.P,U4,36,COMVID*%
%TO.N,unconnected-(U4-COMVID-Pad36)*%
X139700000Y-76200000D03*
%TO.P,U4,37,GROMCLK*%
%TO.N,/GROMCLK*%
X139700000Y-73660000D03*
%TO.P,U4,38,CPUCLK*%
%TO.N,CLK{slash}3*%
X139700000Y-71120000D03*
%TO.P,U4,39,XTAL1*%
%TO.N,XTAL1*%
X139700000Y-68580000D03*
%TO.P,U4,40,XTAL2*%
%TO.N,XTAL2*%
X139700000Y-66040000D03*
%TD*%
D10*
%TO.P,U5,1,~{RAS}*%
%TO.N,/~{RAS}*%
X121920000Y-66040000D03*
D11*
%TO.P,U5,2,~{CAS}*%
%TO.N,/~{CAS}*%
X121920000Y-68580000D03*
%TO.P,U5,3,AD7*%
%TO.N,/AD7*%
X121920000Y-71120000D03*
%TO.P,U5,4,AD6*%
%TO.N,/AD6*%
X121920000Y-73660000D03*
%TO.P,U5,5,AD5*%
%TO.N,/AD5*%
X121920000Y-76200000D03*
%TO.P,U5,6,AD4*%
%TO.N,/AD4*%
X121920000Y-78740000D03*
%TO.P,U5,7,AD3*%
%TO.N,/AD3*%
X121920000Y-81280000D03*
%TO.P,U5,8,AD2*%
%TO.N,/AD2*%
X121920000Y-83820000D03*
%TO.P,U5,9,AD1*%
%TO.N,/AD1*%
X121920000Y-86360000D03*
%TO.P,U5,10,AD0*%
%TO.N,/AD0*%
X121920000Y-88900000D03*
%TO.P,U5,11,R/~{W}*%
%TO.N,/R{slash}~{W}*%
X121920000Y-91440000D03*
%TO.P,U5,12,VSS*%
%TO.N,GND*%
X121920000Y-93980000D03*
%TO.P,U5,13,MODE*%
%TO.N,/MODE*%
X121920000Y-96520000D03*
%TO.P,U5,14,~{CSW}*%
%TO.N,/~{CSW}*%
X121920000Y-99060000D03*
%TO.P,U5,15,~{CSR}*%
%TO.N,/~{CSR}*%
X121920000Y-101600000D03*
%TO.P,U5,16,~{INT}*%
%TO.N,/~{INT}*%
X121920000Y-104140000D03*
%TO.P,U5,17,CD7*%
%TO.N,/CD7*%
X121920000Y-106680000D03*
%TO.P,U5,18,CD6*%
%TO.N,/CD6*%
X121920000Y-109220000D03*
%TO.P,U5,19,CD5*%
%TO.N,/CD5*%
X121920000Y-111760000D03*
%TO.P,U5,20,CD4*%
%TO.N,/CD4*%
X121920000Y-114300000D03*
%TO.P,U5,21,CD3*%
%TO.N,/CD3*%
X137160000Y-114300000D03*
%TO.P,U5,22,CD2*%
%TO.N,/CD2*%
X137160000Y-111760000D03*
%TO.P,U5,23,CD1*%
%TO.N,/CD1*%
X137160000Y-109220000D03*
%TO.P,U5,24,CD0*%
%TO.N,/CD0*%
X137160000Y-106680000D03*
%TO.P,U5,25,RD7*%
%TO.N,/RD7*%
X137160000Y-104140000D03*
%TO.P,U5,26,RD6*%
%TO.N,/RD6*%
X137160000Y-101600000D03*
%TO.P,U5,27,RD5*%
%TO.N,/RD5*%
X137160000Y-99060000D03*
%TO.P,U5,28,RD4*%
%TO.N,/RD4*%
X137160000Y-96520000D03*
%TO.P,U5,29,RD3*%
%TO.N,/RD3*%
X137160000Y-93980000D03*
%TO.P,U5,30,RD2*%
%TO.N,/RD2*%
X137160000Y-91440000D03*
%TO.P,U5,31,RD1*%
%TO.N,/RD1*%
X137160000Y-88900000D03*
%TO.P,U5,32,RD0*%
%TO.N,/RD0*%
X137160000Y-86360000D03*
%TO.P,U5,33,VCC*%
%TO.N,VCC*%
X137160000Y-83820000D03*
%TO.P,U5,34,~{RESET}/SYNC*%
%TO.N,/~{RESET}{slash}SYNC*%
X137160000Y-81280000D03*
%TO.P,U5,35,B-Y*%
%TO.N,B-Y*%
X137160000Y-78740000D03*
%TO.P,U5,36,Y*%
%TO.N,Y*%
X137160000Y-76200000D03*
%TO.P,U5,37,GROMCLK*%
%TO.N,/GROMCLK*%
X137160000Y-73660000D03*
%TO.P,U5,38,R-Y*%
%TO.N,R-Y*%
X137160000Y-71120000D03*
%TO.P,U5,39,XTAL1*%
%TO.N,CLK*%
X137160000Y-68580000D03*
%TO.P,U5,40,XTAL2*%
%TO.N,~{CLK}*%
X137160000Y-66040000D03*
%TD*%
D12*
%TO.P,R1,1*%
%TO.N,GND*%
X134874000Y-80327000D03*
%TO.P,R1,2*%
%TO.N,B-Y*%
X134874000Y-78677000D03*
%TD*%
D13*
%TO.P,R2,1*%
%TO.N,GND*%
X134874000Y-74105000D03*
%TO.P,R2,2*%
%TO.N,Y*%
X134874000Y-75755000D03*
%TD*%
D14*
%TO.P,U3,1*%
%TO.N,XTAL1*%
X132986000Y-67630000D03*
%TO.P,U3,2,GND*%
%TO.N,GND*%
X132986000Y-68580000D03*
%TO.P,U3,3*%
%TO.N,~{CLK}*%
X132986000Y-69530000D03*
%TO.P,U3,4*%
%TO.N,CLK*%
X130666000Y-69530000D03*
%TO.P,U3,5,VCC*%
%TO.N,VCC*%
X130666000Y-68580000D03*
%TO.P,U3,6*%
%TO.N,~{CLK}*%
X130666000Y-67630000D03*
%TD*%
D15*
%TO.P,C1,1*%
%TO.N,VCC*%
X126974000Y-69850000D03*
%TO.P,C1,2*%
%TO.N,GND*%
X128524000Y-69850000D03*
%TD*%
D16*
%TO.P,R4,1*%
%TO.N,~{CLK}*%
X134937000Y-65786000D03*
%TO.P,R4,2*%
%TO.N,XTAL2*%
X133287000Y-65786000D03*
%TD*%
D17*
%TO.P,C3,1*%
%TO.N,VCC*%
X129032000Y-68085000D03*
%TO.P,C3,2*%
%TO.N,GND*%
X129032000Y-66535000D03*
%TD*%
D12*
%TO.P,R3,1*%
%TO.N,GND*%
X134874000Y-72453000D03*
%TO.P,R3,2*%
%TO.N,R-Y*%
X134874000Y-70803000D03*
%TD*%
D18*
%TO.P,U1,1,~{R}*%
%TO.N,VCC*%
X132668500Y-78556000D03*
%TO.P,U1,2,D*%
%TO.N,Net-(U1A-D)*%
X132668500Y-79206000D03*
%TO.P,U1,3,C*%
%TO.N,CLK*%
X132668500Y-79856000D03*
%TO.P,U1,4,~{S}*%
%TO.N,VCC*%
X132668500Y-80506000D03*
%TO.P,U1,5,Q*%
%TO.N,Net-(U1A-Q)*%
X132668500Y-81156000D03*
%TO.P,U1,6,~{Q}*%
%TO.N,unconnected-(U1A-~{Q}-Pad6)*%
X132668500Y-81806000D03*
%TO.P,U1,7,GND*%
%TO.N,GND*%
X132668500Y-82456000D03*
%TO.P,U1,8,~{Q}*%
%TO.N,Net-(U1B-~{Q})*%
X126943500Y-82456000D03*
%TO.P,U1,9,Q*%
%TO.N,Net-(U1B-Q)*%
X126943500Y-81806000D03*
%TO.P,U1,10,~{S}*%
%TO.N,VCC*%
X126943500Y-81156000D03*
%TO.P,U1,11,C*%
%TO.N,CLK*%
X126943500Y-80506000D03*
%TO.P,U1,12,D*%
%TO.N,Net-(U1A-Q)*%
X126943500Y-79856000D03*
%TO.P,U1,13,~{R}*%
%TO.N,VCC*%
X126943500Y-79206000D03*
%TO.P,U1,14,VCC*%
X126943500Y-78556000D03*
%TD*%
%TO.P,U2,1*%
%TO.N,Net-(U2-Pad1)*%
X132668500Y-71456000D03*
%TO.P,U2,2*%
%TO.N,Net-(U1B-~{Q})*%
X132668500Y-72106000D03*
%TO.P,U2,3*%
%TO.N,Net-(U2-Pad10)*%
X132668500Y-72756000D03*
%TO.P,U2,4*%
%TO.N,CLK{slash}3*%
X132668500Y-73406000D03*
%TO.P,U2,5*%
%TO.N,Net-(U1A-Q)*%
X132668500Y-74056000D03*
%TO.P,U2,6*%
%TO.N,Net-(U2-Pad1)*%
X132668500Y-74706000D03*
%TO.P,U2,7,GND*%
%TO.N,GND*%
X132668500Y-75356000D03*
%TO.P,U2,8*%
%TO.N,CLK*%
X126943500Y-75356000D03*
%TO.P,U2,9*%
X126943500Y-74706000D03*
%TO.P,U2,10*%
%TO.N,Net-(U2-Pad10)*%
X126943500Y-74056000D03*
%TO.P,U2,11*%
%TO.N,Net-(U1A-Q)*%
X126943500Y-73406000D03*
%TO.P,U2,12*%
%TO.N,Net-(U1B-Q)*%
X126943500Y-72756000D03*
%TO.P,U2,13*%
%TO.N,Net-(U1A-D)*%
X126943500Y-72106000D03*
%TO.P,U2,14,VCC*%
%TO.N,VCC*%
X126943500Y-71456000D03*
%TD*%
D15*
%TO.P,C2,1*%
%TO.N,VCC*%
X126987000Y-76962000D03*
%TO.P,C2,2*%
%TO.N,GND*%
X128537000Y-76962000D03*
%TD*%
D12*
%TO.P,R5,1*%
%TO.N,XTAL1*%
X134874000Y-69151000D03*
%TO.P,R5,2*%
%TO.N,~{CLK}*%
X134874000Y-67501000D03*
%TD*%
D19*
%TO.N,VCC*%
X128270000Y-81156000D03*
X129540000Y-69088000D03*
X128270000Y-78556000D03*
X128016000Y-71120000D03*
%TO.N,GND*%
X132207000Y-68580000D03*
X127000000Y-68199000D03*
X132715000Y-84201000D03*
X126873000Y-84201000D03*
X131064000Y-65659000D03*
X135890000Y-72136000D03*
X134874000Y-77216000D03*
X127000000Y-66421000D03*
X132588000Y-77724000D03*
%TO.N,Net-(U1A-D)*%
X130801048Y-77097952D03*
X129413000Y-72136000D03*
%TO.N,CLK*%
X129886688Y-70958688D03*
X129667000Y-79375000D03*
X128524000Y-75565000D03*
X129413000Y-81280000D03*
%TO.N,Net-(U1A-Q)*%
X130810000Y-81026000D03*
X129286000Y-74780500D03*
X128905000Y-73279000D03*
%TO.N,Net-(U1B-~{Q})*%
X130683000Y-71882000D03*
X130810000Y-82296000D03*
%TO.N,Net-(U2-Pad1)*%
X131318000Y-70866000D03*
X131953000Y-76200000D03*
%TD*%
D20*
%TO.N,VCC*%
X126943500Y-71456000D02*
X126943500Y-69880500D01*
X130048000Y-68580000D02*
X129540000Y-69088000D01*
D21*
X128270000Y-81156000D02*
X126943500Y-81156000D01*
X126943500Y-79206000D02*
X126943500Y-78556000D01*
X132668500Y-80506000D02*
X133357041Y-80506000D01*
D20*
X130666000Y-68580000D02*
X130048000Y-68580000D01*
X129032000Y-68085000D02*
X129032000Y-68580000D01*
D22*
X137160000Y-83820000D02*
X139700000Y-83820000D01*
D20*
X129032000Y-68580000D02*
X129540000Y-69088000D01*
X128016000Y-71120000D02*
X127680000Y-71456000D01*
X128270000Y-78556000D02*
X126943500Y-78556000D01*
X126943500Y-78556000D02*
X126943500Y-76777500D01*
X127680000Y-71456000D02*
X126943500Y-71456000D01*
D21*
X128270000Y-78556000D02*
X132668500Y-78556000D01*
X133357041Y-80506000D02*
X136671041Y-83820000D01*
D22*
%TO.N,GND*%
X124460000Y-93980000D02*
X127190500Y-93980000D01*
D20*
X132207000Y-68580000D02*
X132986000Y-68580000D01*
D21*
%TO.N,B-Y*%
X134874000Y-78677000D02*
X137097000Y-78677000D01*
%TO.N,Y*%
X134874000Y-75755000D02*
X136715000Y-75755000D01*
%TO.N,R-Y*%
X134874000Y-70803000D02*
X136843000Y-70803000D01*
%TO.N,~{CLK}*%
X132986000Y-69530000D02*
X132014000Y-69530000D01*
X131482000Y-68998000D02*
X131482000Y-68279695D01*
X137160000Y-66040000D02*
X135191000Y-66040000D01*
X131482000Y-68279695D02*
X130832305Y-67630000D01*
X130666000Y-67630000D02*
X131246000Y-67050000D01*
X131246000Y-67050000D02*
X134372000Y-67050000D01*
X134372000Y-67050000D02*
X134874000Y-66548000D01*
X132014000Y-69530000D02*
X131482000Y-68998000D01*
X134874000Y-67501000D02*
X134874000Y-66548000D01*
X134874000Y-66548000D02*
X134874000Y-65849000D01*
%TO.N,XTAL2*%
X138575000Y-64915000D02*
X139700000Y-66040000D01*
X134158000Y-64915000D02*
X138575000Y-64915000D01*
X133287000Y-65786000D02*
X134158000Y-64915000D01*
%TO.N,XTAL1*%
X134874000Y-69151000D02*
X133353000Y-67630000D01*
X133353000Y-67630000D02*
X132986000Y-67630000D01*
X135189009Y-68960000D02*
X136694009Y-67455000D01*
X136694009Y-67455000D02*
X138575000Y-67455000D01*
X138575000Y-67455000D02*
X139700000Y-68580000D01*
%TO.N,Net-(U1A-D)*%
X130937000Y-76962000D02*
X133223000Y-76962000D01*
X133357041Y-79206000D02*
X132668500Y-79206000D01*
X126943500Y-72106000D02*
X129383000Y-72106000D01*
X133858000Y-77597000D02*
X133858000Y-78705041D01*
X133223000Y-76962000D02*
X133858000Y-77597000D01*
X130801048Y-77097952D02*
X130937000Y-76962000D01*
X129383000Y-72106000D02*
X129413000Y-72136000D01*
X133858000Y-78705041D02*
X133357041Y-79206000D01*
%TO.N,CLK*%
X126943500Y-75356000D02*
X128315000Y-75356000D01*
X130666000Y-69530000D02*
X131246000Y-70110000D01*
X129413000Y-81273695D02*
X128570305Y-80431000D01*
X128315000Y-75356000D02*
X128524000Y-75565000D01*
X134381538Y-70078000D02*
X135662000Y-70078000D01*
X130200007Y-70958688D02*
X131048695Y-70110000D01*
X134349538Y-70110000D02*
X134381538Y-70078000D01*
X128570305Y-80431000D02*
X127018500Y-80431000D01*
X131048695Y-70110000D02*
X131246000Y-70110000D01*
X129413000Y-81280000D02*
X129413000Y-81273695D01*
X129667000Y-79375000D02*
X130148000Y-79856000D01*
X126943500Y-75356000D02*
X126943500Y-74706000D01*
X131246000Y-70110000D02*
X134349538Y-70110000D01*
X129886688Y-70958688D02*
X130200007Y-70958688D01*
X130148000Y-79856000D02*
X132668500Y-79856000D01*
X135662000Y-70078000D02*
X137160000Y-68580000D01*
%TO.N,Net-(U1A-Q)*%
X130138000Y-80979695D02*
X130138000Y-80989000D01*
X131316355Y-74056000D02*
X132668500Y-74056000D01*
X130591855Y-74780500D02*
X131316355Y-74056000D01*
X128905000Y-73279000D02*
X128778000Y-73406000D01*
X130305000Y-81156000D02*
X132668500Y-81156000D01*
X128778000Y-73406000D02*
X126943500Y-73406000D01*
X130138000Y-80989000D02*
X130305000Y-81156000D01*
X126943500Y-79856000D02*
X129005000Y-79856000D01*
X129704000Y-80555000D02*
X129713305Y-80555000D01*
X129005000Y-79856000D02*
X129704000Y-80555000D01*
X129713305Y-80555000D02*
X130138000Y-80979695D01*
X129286000Y-74780500D02*
X130591855Y-74780500D01*
%TO.N,Net-(U1B-~{Q})*%
X130650000Y-82456000D02*
X130810000Y-82296000D01*
X126943500Y-82456000D02*
X130650000Y-82456000D01*
X130810000Y-82296000D02*
X130716000Y-82456000D01*
X130683000Y-71882000D02*
X130907000Y-72106000D01*
X132668500Y-72106000D02*
X130907000Y-72106000D01*
%TO.N,Net-(U1B-Q)*%
X125881000Y-73129959D02*
X126254959Y-72756000D01*
X126254959Y-81806000D02*
X125881000Y-81432041D01*
X125881000Y-81432041D02*
X125881000Y-73129959D01*
X126254959Y-72756000D02*
X126943500Y-72756000D01*
X126943500Y-81806000D02*
X126254959Y-81806000D01*
%TO.N,Net-(U2-Pad1)*%
X131979959Y-74706000D02*
X132668500Y-74706000D01*
X131318000Y-70866000D02*
X131908000Y-71456000D01*
X131953000Y-76200000D02*
X131606000Y-75853000D01*
X131908000Y-71456000D02*
X132668500Y-71456000D01*
X131606000Y-75079959D02*
X131979959Y-74706000D01*
X131606000Y-75853000D02*
X131606000Y-75079959D01*
%TO.N,Net-(U2-Pad10)*%
X126943500Y-74056000D02*
X130679959Y-74056000D01*
X131979959Y-72756000D02*
X132668500Y-72756000D01*
X130679959Y-74056000D02*
X131979959Y-72756000D01*
%TO.N,CLK{slash}3*%
X138575000Y-72245000D02*
X139700000Y-71120000D01*
X136984009Y-72245000D02*
X138575000Y-72245000D01*
X132694500Y-73380000D02*
X135849009Y-73380000D01*
X135849009Y-73380000D02*
X136984009Y-72245000D01*
%TD*%
%TA.AperFunction,Conductor*%
%TO.N,GND*%
G36*
X133657236Y-64663002D02*
G01*
X133703729Y-64716658D01*
X133713833Y-64786932D01*
X133684339Y-64851512D01*
X133678223Y-64858081D01*
X133555907Y-64980398D01*
X133516709Y-65019596D01*
X133454397Y-65053621D01*
X133427614Y-65056500D01*
X133032259Y-65056500D01*
X133032244Y-65056501D01*
X133001547Y-65059379D01*
X133001544Y-65059380D01*
X132872232Y-65104628D01*
X132872225Y-65104631D01*
X132761989Y-65185989D01*
X132680631Y-65296225D01*
X132680628Y-65296232D01*
X132635379Y-65425545D01*
X132632500Y-65456248D01*
X132632500Y-66115740D01*
X132632501Y-66115755D01*
X132635379Y-66146452D01*
X132635380Y-66146455D01*
X132680628Y-66275767D01*
X132680631Y-66275774D01*
X132761989Y-66386010D01*
X132839372Y-66443121D01*
X132882304Y-66499666D01*
X132887851Y-66570445D01*
X132854250Y-66632987D01*
X132792171Y-66667436D01*
X132764551Y-66670500D01*
X131303696Y-66670500D01*
X131303680Y-66670499D01*
X131295962Y-66670499D01*
X131196038Y-66670499D01*
X131163866Y-66679119D01*
X131119916Y-66690895D01*
X131119915Y-66690896D01*
X131099518Y-66696362D01*
X131099517Y-66696362D01*
X131099515Y-66696363D01*
X131099514Y-66696363D01*
X131012984Y-66746321D01*
X131012979Y-66746325D01*
X130992662Y-66766643D01*
X130942324Y-66816981D01*
X130942322Y-66816983D01*
X130797297Y-66962008D01*
X130675709Y-67083596D01*
X130613397Y-67117621D01*
X130586614Y-67120500D01*
X130290936Y-67120500D01*
X130290926Y-67120501D01*
X130216699Y-67135265D01*
X130132515Y-67191516D01*
X130076266Y-67275697D01*
X130061500Y-67349930D01*
X130061500Y-67910063D01*
X130061501Y-67910073D01*
X130076266Y-67984304D01*
X130078636Y-67990025D01*
X130086223Y-68060615D01*
X130054442Y-68124101D01*
X129994838Y-68159946D01*
X129950679Y-68171778D01*
X129936787Y-68175501D01*
X129920112Y-68179969D01*
X129849135Y-68178279D01*
X129790339Y-68138485D01*
X129762391Y-68073221D01*
X129761500Y-68058262D01*
X129761500Y-67814140D01*
X129761499Y-67814128D01*
X129757844Y-67780133D01*
X129755360Y-67757027D01*
X129707175Y-67627837D01*
X129707173Y-67627835D01*
X129707173Y-67627833D01*
X129707172Y-67627832D01*
X129624545Y-67517458D01*
X129624546Y-67517458D01*
X129624544Y-67517456D01*
X129601165Y-67499955D01*
X129558622Y-67443122D01*
X129553558Y-67372306D01*
X129587583Y-67309994D01*
X129612539Y-67290636D01*
X129668115Y-67257768D01*
X129779767Y-67146116D01*
X129779773Y-67146109D01*
X129860153Y-67010194D01*
X129901465Y-66868000D01*
X128162535Y-66868000D01*
X128203846Y-67010194D01*
X128284226Y-67146109D01*
X128284232Y-67146116D01*
X128395883Y-67257767D01*
X128395887Y-67257770D01*
X128451461Y-67290637D01*
X128499913Y-67342530D01*
X128512618Y-67412380D01*
X128485542Y-67478011D01*
X128462832Y-67499956D01*
X128439456Y-67517455D01*
X128356827Y-67627832D01*
X128356826Y-67627833D01*
X128308640Y-67757027D01*
X128302500Y-67814128D01*
X128302500Y-68355871D01*
X128304373Y-68373288D01*
X128308640Y-68412973D01*
X128338720Y-68493620D01*
X128356826Y-68542166D01*
X128356827Y-68542167D01*
X128403967Y-68605137D01*
X128439456Y-68652544D01*
X128502580Y-68699799D01*
X128549836Y-68735175D01*
X128618726Y-68760869D01*
X128675562Y-68803415D01*
X128683814Y-68815925D01*
X128696313Y-68837575D01*
X128696321Y-68837585D01*
X128781596Y-68922860D01*
X128781610Y-68922872D01*
X128820095Y-68961357D01*
X128854121Y-69023669D01*
X128857000Y-69050452D01*
X128857000Y-69517000D01*
X128989459Y-69517000D01*
X129057580Y-69537002D01*
X129073013Y-69548688D01*
X129079163Y-69554136D01*
X129165471Y-69630599D01*
X129165472Y-69630599D01*
X129165474Y-69630601D01*
X129215473Y-69656842D01*
X129306207Y-69704463D01*
X129460529Y-69742500D01*
X129460530Y-69742500D01*
X129619470Y-69742500D01*
X129619471Y-69742500D01*
X129773793Y-69704463D01*
X129876947Y-69650323D01*
X129946557Y-69636377D01*
X130012660Y-69662280D01*
X130054265Y-69719809D01*
X130061500Y-69761889D01*
X130061500Y-69810062D01*
X130061501Y-69810073D01*
X130076265Y-69884300D01*
X130132516Y-69968484D01*
X130216697Y-70024733D01*
X130216699Y-70024734D01*
X130272499Y-70035833D01*
X130290932Y-70039500D01*
X130291226Y-70039529D01*
X130291369Y-70039587D01*
X130297005Y-70040708D01*
X130296792Y-70041776D01*
X130357060Y-70066106D01*
X130398075Y-70124057D01*
X130401248Y-70194982D01*
X130367981Y-70254018D01*
X130290504Y-70331495D01*
X130228192Y-70365521D01*
X130157377Y-70360456D01*
X130142854Y-70353967D01*
X130120485Y-70342227D01*
X130120483Y-70342226D01*
X130120481Y-70342225D01*
X130120479Y-70342224D01*
X130120478Y-70342224D01*
X129966160Y-70304188D01*
X129966159Y-70304188D01*
X129807217Y-70304188D01*
X129807215Y-70304188D01*
X129652897Y-70342224D01*
X129652896Y-70342224D01*
X129608508Y-70365521D01*
X129533429Y-70404925D01*
X129463818Y-70418871D01*
X129397715Y-70392967D01*
X129356111Y-70335438D01*
X129352214Y-70264549D01*
X129353879Y-70258203D01*
X129371211Y-70198547D01*
X129371211Y-70198544D01*
X129372435Y-70183000D01*
X128317000Y-70183000D01*
X128248879Y-70162998D01*
X128202386Y-70109342D01*
X128191000Y-70057000D01*
X128191000Y-68980534D01*
X128048805Y-69021846D01*
X127912890Y-69102226D01*
X127912883Y-69102232D01*
X127801231Y-69213884D01*
X127768362Y-69269462D01*
X127716468Y-69317914D01*
X127646617Y-69330618D01*
X127580987Y-69303541D01*
X127559044Y-69280833D01*
X127541544Y-69257456D01*
X127525950Y-69245782D01*
X127431167Y-69174827D01*
X127431166Y-69174826D01*
X127388040Y-69158741D01*
X127301973Y-69126640D01*
X127294834Y-69125872D01*
X127244871Y-69120500D01*
X127244864Y-69120500D01*
X126703136Y-69120500D01*
X126703128Y-69120500D01*
X126646027Y-69126640D01*
X126516833Y-69174826D01*
X126516832Y-69174827D01*
X126406456Y-69257456D01*
X126323827Y-69367832D01*
X126323826Y-69367833D01*
X126275640Y-69497027D01*
X126269500Y-69554128D01*
X126269500Y-70145871D01*
X126274781Y-70194982D01*
X126275640Y-70202973D01*
X126304208Y-70279568D01*
X126323826Y-70332166D01*
X126323827Y-70332167D01*
X126406455Y-70442543D01*
X126406456Y-70442544D01*
X126473510Y-70492740D01*
X126516056Y-70549575D01*
X126524000Y-70593607D01*
X126524000Y-70875500D01*
X126503998Y-70943621D01*
X126450342Y-70990114D01*
X126398000Y-71001500D01*
X126272352Y-71001500D01*
X126203449Y-71011539D01*
X126203447Y-71011540D01*
X126097160Y-71063500D01*
X126097158Y-71063501D01*
X126013501Y-71147158D01*
X126013500Y-71147160D01*
X125961540Y-71253447D01*
X125961539Y-71253449D01*
X125951500Y-71322352D01*
X125951500Y-71589647D01*
X125961539Y-71658550D01*
X125961540Y-71658555D01*
X125994347Y-71725662D01*
X126006296Y-71795645D01*
X125994347Y-71836338D01*
X125961540Y-71903444D01*
X125961539Y-71903449D01*
X125951500Y-71972352D01*
X125951500Y-72239647D01*
X125961539Y-72308550D01*
X125961539Y-72308552D01*
X125989068Y-72364862D01*
X126001017Y-72434846D01*
X125973233Y-72500180D01*
X125964970Y-72509293D01*
X125951286Y-72522978D01*
X125951285Y-72522977D01*
X125951281Y-72522983D01*
X125647983Y-72826281D01*
X125647981Y-72826283D01*
X125626364Y-72847900D01*
X125577325Y-72896938D01*
X125577321Y-72896943D01*
X125527360Y-72983479D01*
X125527239Y-72983934D01*
X125527030Y-72984275D01*
X125524200Y-72991109D01*
X125523133Y-72990667D01*
X125490279Y-73044552D01*
X125426415Y-73075565D01*
X125355921Y-73067128D01*
X125308138Y-73031241D01*
X125209252Y-72910748D01*
X125209251Y-72910747D01*
X125209249Y-72910744D01*
X125048686Y-72778975D01*
X125048686Y-72778974D01*
X124865492Y-72681055D01*
X124804446Y-72662537D01*
X124666718Y-72620758D01*
X124666717Y-72620757D01*
X124666711Y-72620756D01*
X124460003Y-72600398D01*
X124459997Y-72600398D01*
X124253288Y-72620756D01*
X124054507Y-72681055D01*
X123871313Y-72778974D01*
X123871313Y-72778975D01*
X123710747Y-72910747D01*
X123578975Y-73071313D01*
X123578974Y-73071313D01*
X123481055Y-73254507D01*
X123420756Y-73453288D01*
X123400398Y-73659996D01*
X123400398Y-73660003D01*
X123420756Y-73866711D01*
X123481055Y-74065492D01*
X123578974Y-74248686D01*
X123710747Y-74409252D01*
X123871313Y-74541024D01*
X123871313Y-74541025D01*
X123871317Y-74541027D01*
X124054508Y-74638945D01*
X124253282Y-74699242D01*
X124253286Y-74699242D01*
X124253288Y-74699243D01*
X124459997Y-74719602D01*
X124460000Y-74719602D01*
X124460003Y-74719602D01*
X124666711Y-74699243D01*
X124666712Y-74699242D01*
X124666718Y-74699242D01*
X124865492Y-74638945D01*
X125048683Y-74541027D01*
X125048684Y-74541025D01*
X125048686Y-74541025D01*
X125048686Y-74541024D01*
X125158421Y-74450968D01*
X125209249Y-74409255D01*
X125209250Y-74409253D01*
X125209252Y-74409252D01*
X125278102Y-74325357D01*
X125336777Y-74285390D01*
X125407748Y-74283489D01*
X125468481Y-74320259D01*
X125499693Y-74384027D01*
X125501500Y-74405292D01*
X125501500Y-75454707D01*
X125481498Y-75522828D01*
X125427842Y-75569321D01*
X125357568Y-75579425D01*
X125292988Y-75549931D01*
X125278101Y-75534640D01*
X125209252Y-75450747D01*
X125048686Y-75318975D01*
X125048686Y-75318974D01*
X124865492Y-75221055D01*
X124835915Y-75212083D01*
X124666718Y-75160758D01*
X124666717Y-75160757D01*
X124666711Y-75160756D01*
X124460003Y-75140398D01*
X124459997Y-75140398D01*
X124253288Y-75160756D01*
X124054507Y-75221055D01*
X123871313Y-75318974D01*
X123871313Y-75318975D01*
X123710747Y-75450747D01*
X123578975Y-75611313D01*
X123578974Y-75611313D01*
X123481055Y-75794507D01*
X123420756Y-75993288D01*
X123400398Y-76199996D01*
X123400398Y-76200003D01*
X123420756Y-76406711D01*
X123420757Y-76406717D01*
X123420758Y-76406718D01*
X123461190Y-76540006D01*
X123481055Y-76605492D01*
X123578974Y-76788686D01*
X123710747Y-76949252D01*
X123871313Y-77081024D01*
X123871313Y-77081025D01*
X123871317Y-77081027D01*
X124054508Y-77178945D01*
X124253282Y-77239242D01*
X124253286Y-77239242D01*
X124253288Y-77239243D01*
X124459997Y-77259602D01*
X124460000Y-77259602D01*
X124460003Y-77259602D01*
X124666711Y-77239243D01*
X124666712Y-77239242D01*
X124666718Y-77239242D01*
X124865492Y-77178945D01*
X125048683Y-77081027D01*
X125048684Y-77081025D01*
X125048686Y-77081025D01*
X125048686Y-77081024D01*
X125128967Y-77015139D01*
X125209249Y-76949255D01*
X125209250Y-76949253D01*
X125209252Y-76949252D01*
X125278102Y-76865357D01*
X125336777Y-76825390D01*
X125407748Y-76823489D01*
X125468481Y-76860259D01*
X125499693Y-76924027D01*
X125501500Y-76945292D01*
X125501500Y-77994707D01*
X125481498Y-78062828D01*
X125427842Y-78109321D01*
X125357568Y-78119425D01*
X125292988Y-78089931D01*
X125278101Y-78074640D01*
X125209252Y-77990747D01*
X125048686Y-77858975D01*
X125048686Y-77858974D01*
X124865492Y-77761055D01*
X124842874Y-77754194D01*
X124666718Y-77700758D01*
X124666717Y-77700757D01*
X124666711Y-77700756D01*
X124460003Y-77680398D01*
X124459997Y-77680398D01*
X124253288Y-77700756D01*
X124054507Y-77761055D01*
X123871313Y-77858974D01*
X123871313Y-77858975D01*
X123710747Y-77990747D01*
X123578975Y-78151313D01*
X123578974Y-78151313D01*
X123481055Y-78334507D01*
X123420756Y-78533288D01*
X123400398Y-78739996D01*
X123400398Y-78740003D01*
X123420756Y-78946711D01*
X123481055Y-79145492D01*
X123578974Y-79328686D01*
X123710747Y-79489252D01*
X123871313Y-79621024D01*
X123871313Y-79621025D01*
X123871317Y-79621027D01*
X124054508Y-79718945D01*
X124253282Y-79779242D01*
X124253286Y-79779242D01*
X124253288Y-79779243D01*
X124459997Y-79799602D01*
X124460000Y-79799602D01*
X124460003Y-79799602D01*
X124666711Y-79779243D01*
X124666712Y-79779242D01*
X124666718Y-79779242D01*
X124865492Y-79718945D01*
X125048683Y-79621027D01*
X125048684Y-79621025D01*
X125048686Y-79621025D01*
X125048686Y-79621024D01*
X125138691Y-79547160D01*
X125209249Y-79489255D01*
X125209250Y-79489253D01*
X125209252Y-79489252D01*
X125278102Y-79405357D01*
X125336777Y-79365390D01*
X125407748Y-79363489D01*
X125468481Y-79400259D01*
X125499693Y-79464027D01*
X125501500Y-79485292D01*
X125501500Y-80534707D01*
X125481498Y-80602828D01*
X125427842Y-80649321D01*
X125357568Y-80659425D01*
X125292988Y-80629931D01*
X125278101Y-80614640D01*
X125209252Y-80530747D01*
X125048686Y-80398975D01*
X125048686Y-80398974D01*
X124865492Y-80301055D01*
X124727843Y-80259300D01*
X124666718Y-80240758D01*
X124666717Y-80240757D01*
X124666711Y-80240756D01*
X124460003Y-80220398D01*
X124459997Y-80220398D01*
X124253288Y-80240756D01*
X124054507Y-80301055D01*
X123871313Y-80398974D01*
X123871313Y-80398975D01*
X123710747Y-80530747D01*
X123578975Y-80691313D01*
X123578974Y-80691313D01*
X123481055Y-80874507D01*
X123420756Y-81073288D01*
X123400398Y-81279996D01*
X123400398Y-81280003D01*
X123420756Y-81486711D01*
X123420757Y-81486717D01*
X123420758Y-81486718D01*
X123474857Y-81665060D01*
X123481055Y-81685492D01*
X123578974Y-81868686D01*
X123710747Y-82029252D01*
X123871313Y-82161024D01*
X123871313Y-82161025D01*
X123871317Y-82161027D01*
X124054508Y-82258945D01*
X124253282Y-82319242D01*
X124253286Y-82319242D01*
X124253288Y-82319243D01*
X124459997Y-82339602D01*
X124460000Y-82339602D01*
X124460003Y-82339602D01*
X124666711Y-82319243D01*
X124666712Y-82319242D01*
X124666718Y-82319242D01*
X124865492Y-82258945D01*
X125048683Y-82161027D01*
X125048684Y-82161025D01*
X125048686Y-82161025D01*
X125048686Y-82161024D01*
X125209252Y-82029252D01*
X125341027Y-81868683D01*
X125414177Y-81731828D01*
X125463928Y-81681181D01*
X125533164Y-81665471D01*
X125599903Y-81689687D01*
X125614393Y-81702130D01*
X125655156Y-81742893D01*
X125655170Y-81742905D01*
X125946872Y-82034607D01*
X125946880Y-82034616D01*
X125951282Y-82039018D01*
X125951283Y-82039019D01*
X125964965Y-82052701D01*
X125998991Y-82115010D01*
X125993928Y-82185826D01*
X125989069Y-82197135D01*
X125961539Y-82253449D01*
X125951500Y-82322352D01*
X125951500Y-82589647D01*
X125961539Y-82658550D01*
X125961540Y-82658552D01*
X126013500Y-82764839D01*
X126013501Y-82764841D01*
X126097158Y-82848498D01*
X126097160Y-82848499D01*
X126203450Y-82900461D01*
X126272354Y-82910500D01*
X126272360Y-82910500D01*
X127614640Y-82910500D01*
X127614646Y-82910500D01*
X127683550Y-82900461D01*
X127754006Y-82866017D01*
X127790242Y-82848303D01*
X127845581Y-82835500D01*
X130398511Y-82835500D01*
X130457066Y-82849933D01*
X130576207Y-82912463D01*
X130730529Y-82950500D01*
X130730530Y-82950500D01*
X130889470Y-82950500D01*
X130889471Y-82950500D01*
X131043793Y-82912463D01*
X131184529Y-82838599D01*
X131303498Y-82733201D01*
X131334965Y-82687613D01*
X131390122Y-82642914D01*
X131460690Y-82635131D01*
X131524265Y-82666735D01*
X131556716Y-82715158D01*
X131587647Y-82798089D01*
X131673810Y-82913189D01*
X131788910Y-82999352D01*
X131923628Y-83049599D01*
X131983159Y-83055999D01*
X131983176Y-83056000D01*
X132468500Y-83056000D01*
X132868500Y-83056000D01*
X133353824Y-83056000D01*
X133353840Y-83055999D01*
X133413371Y-83049599D01*
X133548089Y-82999352D01*
X133663189Y-82913189D01*
X133749352Y-82798089D01*
X133799599Y-82663371D01*
X133800391Y-82656001D01*
X133800390Y-82656000D01*
X132868500Y-82656000D01*
X132868500Y-83056000D01*
X132468500Y-83056000D01*
X132468500Y-82386500D01*
X132488502Y-82318379D01*
X132542158Y-82271886D01*
X132594500Y-82260500D01*
X133339640Y-82260500D01*
X133339646Y-82260500D01*
X133361500Y-82257316D01*
X133379665Y-82256000D01*
X133800391Y-82256000D01*
X133800391Y-82255998D01*
X133799599Y-82248628D01*
X133749352Y-82113910D01*
X133685032Y-82027989D01*
X133660221Y-81961469D01*
X133660230Y-81943368D01*
X133660500Y-81939644D01*
X133660500Y-81672360D01*
X133660500Y-81672356D01*
X133660500Y-81672354D01*
X133659620Y-81666314D01*
X133669590Y-81596023D01*
X133715980Y-81542278D01*
X133784063Y-81522146D01*
X133852221Y-81542018D01*
X133873398Y-81559051D01*
X136064809Y-83750462D01*
X136098835Y-83812774D01*
X136101107Y-83827207D01*
X136120756Y-84026711D01*
X136181055Y-84225492D01*
X136278974Y-84408686D01*
X136410747Y-84569252D01*
X136571313Y-84701024D01*
X136571313Y-84701025D01*
X136571317Y-84701027D01*
X136754508Y-84798945D01*
X136953282Y-84859242D01*
X136953286Y-84859242D01*
X136953288Y-84859243D01*
X137159997Y-84879602D01*
X137160000Y-84879602D01*
X137160003Y-84879602D01*
X137366711Y-84859243D01*
X137366712Y-84859242D01*
X137366718Y-84859242D01*
X137565492Y-84798945D01*
X137748683Y-84701027D01*
X137868007Y-84603100D01*
X137933354Y-84575347D01*
X137947940Y-84574500D01*
X138912060Y-84574500D01*
X138980181Y-84594502D01*
X138991989Y-84603097D01*
X139111317Y-84701027D01*
X139294508Y-84798945D01*
X139493282Y-84859242D01*
X139493286Y-84859242D01*
X139493288Y-84859243D01*
X139699997Y-84879602D01*
X139700000Y-84879602D01*
X139700003Y-84879602D01*
X139906711Y-84859243D01*
X139906712Y-84859242D01*
X139906718Y-84859242D01*
X140105492Y-84798945D01*
X140288683Y-84701027D01*
X140288684Y-84701025D01*
X140288686Y-84701025D01*
X140288686Y-84701024D01*
X140449252Y-84569252D01*
X140581027Y-84408683D01*
X140678945Y-84225492D01*
X140723426Y-84078856D01*
X140762340Y-84019476D01*
X140827181Y-83990561D01*
X140897362Y-84001291D01*
X140950601Y-84048260D01*
X140970000Y-84115433D01*
X140970000Y-86064566D01*
X140949998Y-86132687D01*
X140896342Y-86179180D01*
X140826068Y-86189284D01*
X140761488Y-86159790D01*
X140723425Y-86101141D01*
X140712330Y-86064566D01*
X140678945Y-85954508D01*
X140581027Y-85771317D01*
X140581025Y-85771313D01*
X140449252Y-85610747D01*
X140288686Y-85478975D01*
X140288686Y-85478974D01*
X140105492Y-85381055D01*
X139906711Y-85320756D01*
X139700003Y-85300398D01*
X139699997Y-85300398D01*
X139493288Y-85320756D01*
X139294507Y-85381055D01*
X139111313Y-85478974D01*
X139111313Y-85478975D01*
X138950747Y-85610747D01*
X138818975Y-85771313D01*
X138818974Y-85771313D01*
X138721055Y-85954507D01*
X138660756Y-86153288D01*
X138640398Y-86359996D01*
X138640398Y-86360003D01*
X138660756Y-86566711D01*
X138721055Y-86765492D01*
X138818974Y-86948686D01*
X138950747Y-87109252D01*
X139111313Y-87241024D01*
X139111313Y-87241025D01*
X139111317Y-87241027D01*
X139294508Y-87338945D01*
X139493282Y-87399242D01*
X139493286Y-87399242D01*
X139493288Y-87399243D01*
X139699997Y-87419602D01*
X139700000Y-87419602D01*
X139700003Y-87419602D01*
X139906711Y-87399243D01*
X139906712Y-87399242D01*
X139906718Y-87399242D01*
X140105492Y-87338945D01*
X140288683Y-87241027D01*
X140288684Y-87241025D01*
X140288686Y-87241025D01*
X140288686Y-87241024D01*
X140449252Y-87109252D01*
X140581027Y-86948683D01*
X140678945Y-86765492D01*
X140723426Y-86618856D01*
X140762340Y-86559476D01*
X140827181Y-86530561D01*
X140897362Y-86541291D01*
X140950601Y-86588260D01*
X140970000Y-86655433D01*
X140970000Y-88604566D01*
X140949998Y-88672687D01*
X140896342Y-88719180D01*
X140826068Y-88729284D01*
X140761488Y-88699790D01*
X140723425Y-88641141D01*
X140712330Y-88604566D01*
X140678945Y-88494508D01*
X140581027Y-88311317D01*
X140581025Y-88311313D01*
X140449252Y-88150747D01*
X140288686Y-88018975D01*
X140288686Y-88018974D01*
X140105492Y-87921055D01*
X139906711Y-87860756D01*
X139700003Y-87840398D01*
X139699997Y-87840398D01*
X139493288Y-87860756D01*
X139294507Y-87921055D01*
X139111313Y-88018974D01*
X139111313Y-88018975D01*
X138950747Y-88150747D01*
X138818975Y-88311313D01*
X138818974Y-88311313D01*
X138721055Y-88494507D01*
X138660756Y-88693288D01*
X138640398Y-88899996D01*
X138640398Y-88900003D01*
X138660756Y-89106711D01*
X138721055Y-89305492D01*
X138818974Y-89488686D01*
X138950747Y-89649252D01*
X139111313Y-89781024D01*
X139111313Y-89781025D01*
X139111317Y-89781027D01*
X139294508Y-89878945D01*
X139493282Y-89939242D01*
X139493286Y-89939242D01*
X139493288Y-89939243D01*
X139699997Y-89959602D01*
X139700000Y-89959602D01*
X139700003Y-89959602D01*
X139906711Y-89939243D01*
X139906712Y-89939242D01*
X139906718Y-89939242D01*
X140105492Y-89878945D01*
X140288683Y-89781027D01*
X140288684Y-89781025D01*
X140288686Y-89781025D01*
X140288686Y-89781024D01*
X140449252Y-89649252D01*
X140581027Y-89488683D01*
X140678945Y-89305492D01*
X140723426Y-89158856D01*
X140762340Y-89099476D01*
X140827181Y-89070561D01*
X140897362Y-89081291D01*
X140950601Y-89128260D01*
X140970000Y-89195433D01*
X140970000Y-91144566D01*
X140949998Y-91212687D01*
X140896342Y-91259180D01*
X140826068Y-91269284D01*
X140761488Y-91239790D01*
X140723425Y-91181141D01*
X140712330Y-91144566D01*
X140678945Y-91034508D01*
X140581027Y-90851317D01*
X140581025Y-90851313D01*
X140449252Y-90690747D01*
X140288686Y-90558975D01*
X140288686Y-90558974D01*
X140105492Y-90461055D01*
X139906711Y-90400756D01*
X139700003Y-90380398D01*
X139699997Y-90380398D01*
X139493288Y-90400756D01*
X139294507Y-90461055D01*
X139111313Y-90558974D01*
X139111313Y-90558975D01*
X138950747Y-90690747D01*
X138818975Y-90851313D01*
X138818974Y-90851313D01*
X138721055Y-91034507D01*
X138660756Y-91233288D01*
X138640398Y-91439996D01*
X138640398Y-91440003D01*
X138660756Y-91646711D01*
X138721055Y-91845492D01*
X138818974Y-92028686D01*
X138950747Y-92189252D01*
X139111313Y-92321024D01*
X139111313Y-92321025D01*
X139111317Y-92321027D01*
X139294508Y-92418945D01*
X139493282Y-92479242D01*
X139493286Y-92479242D01*
X139493288Y-92479243D01*
X139699997Y-92499602D01*
X139700000Y-92499602D01*
X139700003Y-92499602D01*
X139906711Y-92479243D01*
X139906712Y-92479242D01*
X139906718Y-92479242D01*
X140105492Y-92418945D01*
X140288683Y-92321027D01*
X140288684Y-92321025D01*
X140288686Y-92321025D01*
X140288686Y-92321024D01*
X140449252Y-92189252D01*
X140581027Y-92028683D01*
X140678945Y-91845492D01*
X140723426Y-91698856D01*
X140762340Y-91639476D01*
X140827181Y-91610561D01*
X140897362Y-91621291D01*
X140950601Y-91668260D01*
X140970000Y-91735433D01*
X140970000Y-93684566D01*
X140949998Y-93752687D01*
X140896342Y-93799180D01*
X140826068Y-93809284D01*
X140761488Y-93779790D01*
X140723425Y-93721141D01*
X140700935Y-93647000D01*
X140678945Y-93574508D01*
X140581027Y-93391317D01*
X140581025Y-93391313D01*
X140449252Y-93230747D01*
X140288686Y-93098975D01*
X140288686Y-93098974D01*
X140105492Y-93001055D01*
X139906711Y-92940756D01*
X139700003Y-92920398D01*
X139699997Y-92920398D01*
X139493288Y-92940756D01*
X139294507Y-93001055D01*
X139111313Y-93098974D01*
X139111313Y-93098975D01*
X138950747Y-93230747D01*
X138818975Y-93391313D01*
X138818974Y-93391313D01*
X138721055Y-93574507D01*
X138660756Y-93773288D01*
X138640398Y-93979996D01*
X138640398Y-93980003D01*
X138660756Y-94186711D01*
X138660757Y-94186717D01*
X138660758Y-94186718D01*
X138676080Y-94237227D01*
X138721055Y-94385492D01*
X138818974Y-94568686D01*
X138950747Y-94729252D01*
X139111313Y-94861024D01*
X139111313Y-94861025D01*
X139111317Y-94861027D01*
X139294508Y-94958945D01*
X139493282Y-95019242D01*
X139493286Y-95019242D01*
X139493288Y-95019243D01*
X139699997Y-95039602D01*
X139700000Y-95039602D01*
X139700003Y-95039602D01*
X139906711Y-95019243D01*
X139906712Y-95019242D01*
X139906718Y-95019242D01*
X140105492Y-94958945D01*
X140288683Y-94861027D01*
X140288684Y-94861025D01*
X140288686Y-94861025D01*
X140288686Y-94861024D01*
X140449252Y-94729252D01*
X140581027Y-94568683D01*
X140678945Y-94385492D01*
X140723426Y-94238856D01*
X140762340Y-94179476D01*
X140827181Y-94150561D01*
X140897362Y-94161291D01*
X140950601Y-94208260D01*
X140970000Y-94275433D01*
X140970000Y-96224566D01*
X140949998Y-96292687D01*
X140896342Y-96339180D01*
X140826068Y-96349284D01*
X140761488Y-96319790D01*
X140723425Y-96261141D01*
X140712330Y-96224566D01*
X140678945Y-96114508D01*
X140581027Y-95931317D01*
X140581025Y-95931313D01*
X140449252Y-95770747D01*
X140288686Y-95638975D01*
X140288686Y-95638974D01*
X140105492Y-95541055D01*
X139906711Y-95480756D01*
X139700003Y-95460398D01*
X139699997Y-95460398D01*
X139493288Y-95480756D01*
X139294507Y-95541055D01*
X139111313Y-95638974D01*
X139111313Y-95638975D01*
X138950747Y-95770747D01*
X138818975Y-95931313D01*
X138818974Y-95931313D01*
X138721055Y-96114507D01*
X138660756Y-96313288D01*
X138640398Y-96519996D01*
X138640398Y-96520003D01*
X138660756Y-96726711D01*
X138721055Y-96925492D01*
X138818974Y-97108686D01*
X138950747Y-97269252D01*
X139111313Y-97401024D01*
X139111313Y-97401025D01*
X139111317Y-97401027D01*
X139294508Y-97498945D01*
X139493282Y-97559242D01*
X139493286Y-97559242D01*
X139493288Y-97559243D01*
X139699997Y-97579602D01*
X139700000Y-97579602D01*
X139700003Y-97579602D01*
X139906711Y-97559243D01*
X139906712Y-97559242D01*
X139906718Y-97559242D01*
X140105492Y-97498945D01*
X140288683Y-97401027D01*
X140288684Y-97401025D01*
X140288686Y-97401025D01*
X140288686Y-97401024D01*
X140449252Y-97269252D01*
X140581027Y-97108683D01*
X140678945Y-96925492D01*
X140723426Y-96778856D01*
X140762340Y-96719476D01*
X140827181Y-96690561D01*
X140897362Y-96701291D01*
X140950601Y-96748260D01*
X140970000Y-96815433D01*
X140970000Y-98764566D01*
X140949998Y-98832687D01*
X140896342Y-98879180D01*
X140826068Y-98889284D01*
X140761488Y-98859790D01*
X140723425Y-98801141D01*
X140712330Y-98764566D01*
X140678945Y-98654508D01*
X140581027Y-98471317D01*
X140581025Y-98471313D01*
X140449252Y-98310747D01*
X140288686Y-98178975D01*
X140288686Y-98178974D01*
X140105492Y-98081055D01*
X139906711Y-98020756D01*
X139700003Y-98000398D01*
X139699997Y-98000398D01*
X139493288Y-98020756D01*
X139294507Y-98081055D01*
X139111313Y-98178974D01*
X139111313Y-98178975D01*
X138950747Y-98310747D01*
X138818975Y-98471313D01*
X138818974Y-98471313D01*
X138721055Y-98654507D01*
X138660756Y-98853288D01*
X138640398Y-99059996D01*
X138640398Y-99060003D01*
X138660756Y-99266711D01*
X138721055Y-99465492D01*
X138818974Y-99648686D01*
X138950747Y-99809252D01*
X139111313Y-99941024D01*
X139111313Y-99941025D01*
X139111317Y-99941027D01*
X139294508Y-100038945D01*
X139493282Y-100099242D01*
X139493286Y-100099242D01*
X139493288Y-100099243D01*
X139699997Y-100119602D01*
X139700000Y-100119602D01*
X139700003Y-100119602D01*
X139906711Y-100099243D01*
X139906712Y-100099242D01*
X139906718Y-100099242D01*
X140105492Y-100038945D01*
X140288683Y-99941027D01*
X140288684Y-99941025D01*
X140288686Y-99941025D01*
X140288686Y-99941024D01*
X140449252Y-99809252D01*
X140581027Y-99648683D01*
X140678945Y-99465492D01*
X140723426Y-99318856D01*
X140762340Y-99259476D01*
X140827181Y-99230561D01*
X140897362Y-99241291D01*
X140950601Y-99288260D01*
X140970000Y-99355433D01*
X140970000Y-101304566D01*
X140949998Y-101372687D01*
X140896342Y-101419180D01*
X140826068Y-101429284D01*
X140761488Y-101399790D01*
X140723425Y-101341141D01*
X140712330Y-101304566D01*
X140678945Y-101194508D01*
X140581027Y-101011317D01*
X140581025Y-101011313D01*
X140449252Y-100850747D01*
X140288686Y-100718975D01*
X140288686Y-100718974D01*
X140105492Y-100621055D01*
X139906711Y-100560756D01*
X139700003Y-100540398D01*
X139699997Y-100540398D01*
X139493288Y-100560756D01*
X139294507Y-100621055D01*
X139111313Y-100718974D01*
X139111313Y-100718975D01*
X138950747Y-100850747D01*
X138818975Y-101011313D01*
X138818974Y-101011313D01*
X138721055Y-101194507D01*
X138660756Y-101393288D01*
X138640398Y-101599996D01*
X138640398Y-101600003D01*
X138660756Y-101806711D01*
X138721055Y-102005492D01*
X138818974Y-102188686D01*
X138950747Y-102349252D01*
X139111313Y-102481024D01*
X139111313Y-102481025D01*
X139111317Y-102481027D01*
X139294508Y-102578945D01*
X139493282Y-102639242D01*
X139493286Y-102639242D01*
X139493288Y-102639243D01*
X139699997Y-102659602D01*
X139700000Y-102659602D01*
X139700003Y-102659602D01*
X139906711Y-102639243D01*
X139906712Y-102639242D01*
X139906718Y-102639242D01*
X140105492Y-102578945D01*
X140288683Y-102481027D01*
X140288684Y-102481025D01*
X140288686Y-102481025D01*
X140288686Y-102481024D01*
X140449252Y-102349252D01*
X140581027Y-102188683D01*
X140678945Y-102005492D01*
X140723426Y-101858856D01*
X140762340Y-101799476D01*
X140827181Y-101770561D01*
X140897362Y-101781291D01*
X140950601Y-101828260D01*
X140970000Y-101895433D01*
X140970000Y-103844566D01*
X140949998Y-103912687D01*
X140896342Y-103959180D01*
X140826068Y-103969284D01*
X140761488Y-103939790D01*
X140723425Y-103881141D01*
X140712330Y-103844566D01*
X140678945Y-103734508D01*
X140581027Y-103551317D01*
X140581025Y-103551313D01*
X140449252Y-103390747D01*
X140288686Y-103258975D01*
X140288686Y-103258974D01*
X140105492Y-103161055D01*
X139906711Y-103100756D01*
X139700003Y-103080398D01*
X139699997Y-103080398D01*
X139493288Y-103100756D01*
X139294507Y-103161055D01*
X139111313Y-103258974D01*
X139111313Y-103258975D01*
X138950747Y-103390747D01*
X138818975Y-103551313D01*
X138818974Y-103551313D01*
X138721055Y-103734507D01*
X138660756Y-103933288D01*
X138640398Y-104139996D01*
X138640398Y-104140003D01*
X138660756Y-104346711D01*
X138721055Y-104545492D01*
X138818974Y-104728686D01*
X138950747Y-104889252D01*
X139111313Y-105021024D01*
X139111313Y-105021025D01*
X139111317Y-105021027D01*
X139294508Y-105118945D01*
X139493282Y-105179242D01*
X139493286Y-105179242D01*
X139493288Y-105179243D01*
X139699997Y-105199602D01*
X139700000Y-105199602D01*
X139700003Y-105199602D01*
X139906711Y-105179243D01*
X139906712Y-105179242D01*
X139906718Y-105179242D01*
X140105492Y-105118945D01*
X140288683Y-105021027D01*
X140288684Y-105021025D01*
X140288686Y-105021025D01*
X140288686Y-105021024D01*
X140449252Y-104889252D01*
X140581027Y-104728683D01*
X140678945Y-104545492D01*
X140723426Y-104398856D01*
X140762340Y-104339476D01*
X140827181Y-104310561D01*
X140897362Y-104321291D01*
X140950601Y-104368260D01*
X140970000Y-104435433D01*
X140970000Y-106384566D01*
X140949998Y-106452687D01*
X140896342Y-106499180D01*
X140826068Y-106509284D01*
X140761488Y-106479790D01*
X140723425Y-106421141D01*
X140712330Y-106384566D01*
X140678945Y-106274508D01*
X140581027Y-106091317D01*
X140581025Y-106091313D01*
X140449252Y-105930747D01*
X140288686Y-105798975D01*
X140288686Y-105798974D01*
X140105492Y-105701055D01*
X139906711Y-105640756D01*
X139700003Y-105620398D01*
X139699997Y-105620398D01*
X139493288Y-105640756D01*
X139294507Y-105701055D01*
X139111313Y-105798974D01*
X139111313Y-105798975D01*
X138950747Y-105930747D01*
X138818975Y-106091313D01*
X138818974Y-106091313D01*
X138721055Y-106274507D01*
X138660756Y-106473288D01*
X138640398Y-106679996D01*
X138640398Y-106680003D01*
X138660756Y-106886711D01*
X138721055Y-107085492D01*
X138818974Y-107268686D01*
X138950747Y-107429252D01*
X139111313Y-107561024D01*
X139111313Y-107561025D01*
X139111317Y-107561027D01*
X139294508Y-107658945D01*
X139493282Y-107719242D01*
X139493286Y-107719242D01*
X139493288Y-107719243D01*
X139699997Y-107739602D01*
X139700000Y-107739602D01*
X139700003Y-107739602D01*
X139906711Y-107719243D01*
X139906712Y-107719242D01*
X139906718Y-107719242D01*
X140105492Y-107658945D01*
X140288683Y-107561027D01*
X140288684Y-107561025D01*
X140288686Y-107561025D01*
X140288686Y-107561024D01*
X140449252Y-107429252D01*
X140581027Y-107268683D01*
X140678945Y-107085492D01*
X140723426Y-106938856D01*
X140762340Y-106879476D01*
X140827181Y-106850561D01*
X140897362Y-106861291D01*
X140950601Y-106908260D01*
X140970000Y-106975433D01*
X140970000Y-108924566D01*
X140949998Y-108992687D01*
X140896342Y-109039180D01*
X140826068Y-109049284D01*
X140761488Y-109019790D01*
X140723425Y-108961141D01*
X140712330Y-108924566D01*
X140678945Y-108814508D01*
X140581027Y-108631317D01*
X140581025Y-108631313D01*
X140449252Y-108470747D01*
X140288686Y-108338975D01*
X140288686Y-108338974D01*
X140105492Y-108241055D01*
X139906711Y-108180756D01*
X139700003Y-108160398D01*
X139699997Y-108160398D01*
X139493288Y-108180756D01*
X139294507Y-108241055D01*
X139111313Y-108338974D01*
X139111313Y-108338975D01*
X138950747Y-108470747D01*
X138818975Y-108631313D01*
X138818974Y-108631313D01*
X138721055Y-108814507D01*
X138660756Y-109013288D01*
X138640398Y-109219996D01*
X138640398Y-109220003D01*
X138660756Y-109426711D01*
X138721055Y-109625492D01*
X138818974Y-109808686D01*
X138950747Y-109969252D01*
X139111313Y-110101024D01*
X139111313Y-110101025D01*
X139111317Y-110101027D01*
X139294508Y-110198945D01*
X139493282Y-110259242D01*
X139493286Y-110259242D01*
X139493288Y-110259243D01*
X139699997Y-110279602D01*
X139700000Y-110279602D01*
X139700003Y-110279602D01*
X139906711Y-110259243D01*
X139906712Y-110259242D01*
X139906718Y-110259242D01*
X140105492Y-110198945D01*
X140288683Y-110101027D01*
X140288684Y-110101025D01*
X140288686Y-110101025D01*
X140288686Y-110101024D01*
X140449252Y-109969252D01*
X140581027Y-109808683D01*
X140678945Y-109625492D01*
X140723426Y-109478856D01*
X140762340Y-109419476D01*
X140827181Y-109390561D01*
X140897362Y-109401291D01*
X140950601Y-109448260D01*
X140970000Y-109515433D01*
X140970000Y-111464566D01*
X140949998Y-111532687D01*
X140896342Y-111579180D01*
X140826068Y-111589284D01*
X140761488Y-111559790D01*
X140723425Y-111501141D01*
X140712330Y-111464566D01*
X140678945Y-111354508D01*
X140581027Y-111171317D01*
X140581025Y-111171313D01*
X140449252Y-111010747D01*
X140288686Y-110878975D01*
X140288686Y-110878974D01*
X140105492Y-110781055D01*
X139906711Y-110720756D01*
X139700003Y-110700398D01*
X139699997Y-110700398D01*
X139493288Y-110720756D01*
X139294507Y-110781055D01*
X139111313Y-110878974D01*
X139111313Y-110878975D01*
X138950747Y-111010747D01*
X138818975Y-111171313D01*
X138818974Y-111171313D01*
X138721055Y-111354507D01*
X138660756Y-111553288D01*
X138640398Y-111759996D01*
X138640398Y-111760003D01*
X138660756Y-111966711D01*
X138721055Y-112165492D01*
X138818974Y-112348686D01*
X138950747Y-112509252D01*
X139111313Y-112641024D01*
X139111313Y-112641025D01*
X139111317Y-112641027D01*
X139294508Y-112738945D01*
X139493282Y-112799242D01*
X139493286Y-112799242D01*
X139493288Y-112799243D01*
X139699997Y-112819602D01*
X139700000Y-112819602D01*
X139700003Y-112819602D01*
X139906711Y-112799243D01*
X139906712Y-112799242D01*
X139906718Y-112799242D01*
X140105492Y-112738945D01*
X140288683Y-112641027D01*
X140288684Y-112641025D01*
X140288686Y-112641025D01*
X140288686Y-112641024D01*
X140449252Y-112509252D01*
X140581027Y-112348683D01*
X140678945Y-112165492D01*
X140723426Y-112018856D01*
X140762340Y-111959476D01*
X140827181Y-111930561D01*
X140897362Y-111941291D01*
X140950601Y-111988260D01*
X140970000Y-112055433D01*
X140970000Y-114004566D01*
X140949998Y-114072687D01*
X140896342Y-114119180D01*
X140826068Y-114129284D01*
X140761488Y-114099790D01*
X140723425Y-114041141D01*
X140712330Y-114004566D01*
X140678945Y-113894508D01*
X140581027Y-113711317D01*
X140581025Y-113711313D01*
X140449252Y-113550747D01*
X140288686Y-113418975D01*
X140288686Y-113418974D01*
X140105492Y-113321055D01*
X139906711Y-113260756D01*
X139700003Y-113240398D01*
X139699997Y-113240398D01*
X139493288Y-113260756D01*
X139294507Y-113321055D01*
X139111313Y-113418974D01*
X139111313Y-113418975D01*
X138950747Y-113550747D01*
X138818975Y-113711313D01*
X138818974Y-113711313D01*
X138721055Y-113894507D01*
X138660756Y-114093288D01*
X138640398Y-114299996D01*
X138640398Y-114300003D01*
X138660756Y-114506711D01*
X138721055Y-114705492D01*
X138818974Y-114888686D01*
X138950747Y-115049252D01*
X139111313Y-115181024D01*
X139111313Y-115181025D01*
X139157810Y-115205878D01*
X139208458Y-115255630D01*
X139224168Y-115324867D01*
X139199952Y-115391606D01*
X139143498Y-115434658D01*
X139098414Y-115443000D01*
X137761586Y-115443000D01*
X137693465Y-115422998D01*
X137646972Y-115369342D01*
X137636868Y-115299068D01*
X137666362Y-115234488D01*
X137702190Y-115205878D01*
X137748683Y-115181027D01*
X137748684Y-115181025D01*
X137748686Y-115181025D01*
X137748686Y-115181024D01*
X137909252Y-115049252D01*
X138041027Y-114888683D01*
X138138945Y-114705492D01*
X138199242Y-114506718D01*
X138199956Y-114499476D01*
X138219602Y-114300003D01*
X138219602Y-114299996D01*
X138199243Y-114093288D01*
X138199242Y-114093286D01*
X138199242Y-114093282D01*
X138138945Y-113894508D01*
X138041027Y-113711317D01*
X138041025Y-113711313D01*
X137909252Y-113550747D01*
X137748686Y-113418975D01*
X137748686Y-113418974D01*
X137565492Y-113321055D01*
X137366711Y-113260756D01*
X137160003Y-113240398D01*
X137159997Y-113240398D01*
X136953288Y-113260756D01*
X136754507Y-113321055D01*
X136571313Y-113418974D01*
X136571313Y-113418975D01*
X136410747Y-113550747D01*
X136278975Y-113711313D01*
X136278974Y-113711313D01*
X136181055Y-113894507D01*
X136120756Y-114093288D01*
X136100398Y-114299996D01*
X136100398Y-114300003D01*
X136120756Y-114506711D01*
X136181055Y-114705492D01*
X136278974Y-114888686D01*
X136410747Y-115049252D01*
X136571313Y-115181024D01*
X136571313Y-115181025D01*
X136617810Y-115205878D01*
X136668458Y-115255630D01*
X136684168Y-115324867D01*
X136659952Y-115391606D01*
X136603498Y-115434658D01*
X136558414Y-115443000D01*
X125061586Y-115443000D01*
X124993465Y-115422998D01*
X124946972Y-115369342D01*
X124936868Y-115299068D01*
X124966362Y-115234488D01*
X125002190Y-115205878D01*
X125048683Y-115181027D01*
X125048684Y-115181025D01*
X125048686Y-115181025D01*
X125048686Y-115181024D01*
X125209252Y-115049252D01*
X125341027Y-114888683D01*
X125438945Y-114705492D01*
X125499242Y-114506718D01*
X125499956Y-114499476D01*
X125519602Y-114300003D01*
X125519602Y-114299996D01*
X125499243Y-114093288D01*
X125499242Y-114093286D01*
X125499242Y-114093282D01*
X125438945Y-113894508D01*
X125341027Y-113711317D01*
X125341025Y-113711313D01*
X125209252Y-113550747D01*
X125048686Y-113418975D01*
X125048686Y-113418974D01*
X124865492Y-113321055D01*
X124666711Y-113260756D01*
X124460003Y-113240398D01*
X124459997Y-113240398D01*
X124253288Y-113260756D01*
X124054507Y-113321055D01*
X123871313Y-113418974D01*
X123871313Y-113418975D01*
X123710747Y-113550747D01*
X123578975Y-113711313D01*
X123578974Y-113711313D01*
X123481055Y-113894507D01*
X123420756Y-114093288D01*
X123400398Y-114299996D01*
X123400398Y-114300003D01*
X123420756Y-114506711D01*
X123481055Y-114705492D01*
X123578974Y-114888686D01*
X123710747Y-115049252D01*
X123871313Y-115181024D01*
X123871313Y-115181025D01*
X123917810Y-115205878D01*
X123968458Y-115255630D01*
X123984168Y-115324867D01*
X123959952Y-115391606D01*
X123903498Y-115434658D01*
X123858414Y-115443000D01*
X122521586Y-115443000D01*
X122453465Y-115422998D01*
X122406972Y-115369342D01*
X122396868Y-115299068D01*
X122426362Y-115234488D01*
X122462190Y-115205878D01*
X122508683Y-115181027D01*
X122508684Y-115181025D01*
X122508686Y-115181025D01*
X122508686Y-115181024D01*
X122669252Y-115049252D01*
X122801027Y-114888683D01*
X122898945Y-114705492D01*
X122959242Y-114506718D01*
X122959956Y-114499476D01*
X122979602Y-114300003D01*
X122979602Y-114299996D01*
X122959243Y-114093288D01*
X122959242Y-114093286D01*
X122959242Y-114093282D01*
X122898945Y-113894508D01*
X122801027Y-113711317D01*
X122801025Y-113711313D01*
X122669252Y-113550747D01*
X122508686Y-113418975D01*
X122508686Y-113418974D01*
X122325492Y-113321055D01*
X122126711Y-113260756D01*
X121920003Y-113240398D01*
X121919997Y-113240398D01*
X121713288Y-113260756D01*
X121514507Y-113321055D01*
X121331313Y-113418974D01*
X121331313Y-113418975D01*
X121170747Y-113550747D01*
X121038975Y-113711313D01*
X121038974Y-113711313D01*
X120941055Y-113894507D01*
X120896575Y-114041141D01*
X120857660Y-114100523D01*
X120792818Y-114129439D01*
X120722637Y-114118708D01*
X120669399Y-114071738D01*
X120650000Y-114004566D01*
X120650000Y-112055433D01*
X120670002Y-111987312D01*
X120723658Y-111940819D01*
X120793932Y-111930715D01*
X120858512Y-111960209D01*
X120896573Y-112018856D01*
X120941055Y-112165492D01*
X121038974Y-112348686D01*
X121170747Y-112509252D01*
X121331313Y-112641024D01*
X121331313Y-112641025D01*
X121331317Y-112641027D01*
X121514508Y-112738945D01*
X121713282Y-112799242D01*
X121713286Y-112799242D01*
X121713288Y-112799243D01*
X121919997Y-112819602D01*
X121920000Y-112819602D01*
X121920003Y-112819602D01*
X122126711Y-112799243D01*
X122126712Y-112799242D01*
X122126718Y-112799242D01*
X122325492Y-112738945D01*
X122508683Y-112641027D01*
X122508684Y-112641025D01*
X122508686Y-112641025D01*
X122508686Y-112641024D01*
X122669252Y-112509252D01*
X122801027Y-112348683D01*
X122898945Y-112165492D01*
X122959242Y-111966718D01*
X122959956Y-111959476D01*
X122979602Y-111760003D01*
X122979602Y-111759996D01*
X123400398Y-111759996D01*
X123400398Y-111760003D01*
X123420756Y-111966711D01*
X123481055Y-112165492D01*
X123578974Y-112348686D01*
X123710747Y-112509252D01*
X123871313Y-112641024D01*
X123871313Y-112641025D01*
X123871317Y-112641027D01*
X124054508Y-112738945D01*
X124253282Y-112799242D01*
X124253286Y-112799242D01*
X124253288Y-112799243D01*
X124459997Y-112819602D01*
X124460000Y-112819602D01*
X124460003Y-112819602D01*
X124666711Y-112799243D01*
X124666712Y-112799242D01*
X124666718Y-112799242D01*
X124865492Y-112738945D01*
X125048683Y-112641027D01*
X125048684Y-112641025D01*
X125048686Y-112641025D01*
X125048686Y-112641024D01*
X125209252Y-112509252D01*
X125341027Y-112348683D01*
X125438945Y-112165492D01*
X125499242Y-111966718D01*
X125499956Y-111959476D01*
X125519602Y-111760003D01*
X125519602Y-111759996D01*
X136100398Y-111759996D01*
X136100398Y-111760003D01*
X136120756Y-111966711D01*
X136181055Y-112165492D01*
X136278974Y-112348686D01*
X136410747Y-112509252D01*
X136571313Y-112641024D01*
X136571313Y-112641025D01*
X136571317Y-112641027D01*
X136754508Y-112738945D01*
X136953282Y-112799242D01*
X136953286Y-112799242D01*
X136953288Y-112799243D01*
X137159997Y-112819602D01*
X137160000Y-112819602D01*
X137160003Y-112819602D01*
X137366711Y-112799243D01*
X137366712Y-112799242D01*
X137366718Y-112799242D01*
X137565492Y-112738945D01*
X137748683Y-112641027D01*
X137748684Y-112641025D01*
X137748686Y-112641025D01*
X137748686Y-112641024D01*
X137909252Y-112509252D01*
X138041027Y-112348683D01*
X138138945Y-112165492D01*
X138199242Y-111966718D01*
X138199956Y-111959476D01*
X138219602Y-111760003D01*
X138219602Y-111759996D01*
X138199243Y-111553288D01*
X138199242Y-111553286D01*
X138199242Y-111553282D01*
X138138945Y-111354508D01*
X138041027Y-111171317D01*
X138041025Y-111171313D01*
X137909252Y-111010747D01*
X137748686Y-110878975D01*
X137748686Y-110878974D01*
X137565492Y-110781055D01*
X137366711Y-110720756D01*
X137160003Y-110700398D01*
X137159997Y-110700398D01*
X136953288Y-110720756D01*
X136754507Y-110781055D01*
X136571313Y-110878974D01*
X136571313Y-110878975D01*
X136410747Y-111010747D01*
X136278975Y-111171313D01*
X136278974Y-111171313D01*
X136181055Y-111354507D01*
X136120756Y-111553288D01*
X136100398Y-111759996D01*
X125519602Y-111759996D01*
X125499243Y-111553288D01*
X125499242Y-111553286D01*
X125499242Y-111553282D01*
X125438945Y-111354508D01*
X125341027Y-111171317D01*
X125341025Y-111171313D01*
X125209252Y-111010747D01*
X125048686Y-110878975D01*
X125048686Y-110878974D01*
X124865492Y-110781055D01*
X124666711Y-110720756D01*
X124460003Y-110700398D01*
X124459997Y-110700398D01*
X124253288Y-110720756D01*
X124054507Y-110781055D01*
X123871313Y-110878974D01*
X123871313Y-110878975D01*
X123710747Y-111010747D01*
X123578975Y-111171313D01*
X123578974Y-111171313D01*
X123481055Y-111354507D01*
X123420756Y-111553288D01*
X123400398Y-111759996D01*
X122979602Y-111759996D01*
X122959243Y-111553288D01*
X122959242Y-111553286D01*
X122959242Y-111553282D01*
X122898945Y-111354508D01*
X122801027Y-111171317D01*
X122801025Y-111171313D01*
X122669252Y-111010747D01*
X122508686Y-110878975D01*
X122508686Y-110878974D01*
X122325492Y-110781055D01*
X122126711Y-110720756D01*
X121920003Y-110700398D01*
X121919997Y-110700398D01*
X121713288Y-110720756D01*
X121514507Y-110781055D01*
X121331313Y-110878974D01*
X121331313Y-110878975D01*
X121170747Y-111010747D01*
X121038975Y-111171313D01*
X121038974Y-111171313D01*
X120941055Y-111354507D01*
X120896575Y-111501141D01*
X120857660Y-111560523D01*
X120792818Y-111589439D01*
X120722637Y-111578708D01*
X120669399Y-111531738D01*
X120650000Y-111464566D01*
X120650000Y-109515433D01*
X120670002Y-109447312D01*
X120723658Y-109400819D01*
X120793932Y-109390715D01*
X120858512Y-109420209D01*
X120896573Y-109478856D01*
X120941055Y-109625492D01*
X121038974Y-109808686D01*
X121170747Y-109969252D01*
X121331313Y-110101024D01*
X121331313Y-110101025D01*
X121331317Y-110101027D01*
X121514508Y-110198945D01*
X121713282Y-110259242D01*
X121713286Y-110259242D01*
X121713288Y-110259243D01*
X121919997Y-110279602D01*
X121920000Y-110279602D01*
X121920003Y-110279602D01*
X122126711Y-110259243D01*
X122126712Y-110259242D01*
X122126718Y-110259242D01*
X122325492Y-110198945D01*
X122508683Y-110101027D01*
X122508684Y-110101025D01*
X122508686Y-110101025D01*
X122508686Y-110101024D01*
X122669252Y-109969252D01*
X122801027Y-109808683D01*
X122898945Y-109625492D01*
X122959242Y-109426718D01*
X122959956Y-109419476D01*
X122979602Y-109220003D01*
X122979602Y-109219996D01*
X123400398Y-109219996D01*
X123400398Y-109220003D01*
X123420756Y-109426711D01*
X123481055Y-109625492D01*
X123578974Y-109808686D01*
X123710747Y-109969252D01*
X123871313Y-110101024D01*
X123871313Y-110101025D01*
X123871317Y-110101027D01*
X124054508Y-110198945D01*
X124253282Y-110259242D01*
X124253286Y-110259242D01*
X124253288Y-110259243D01*
X124459997Y-110279602D01*
X124460000Y-110279602D01*
X124460003Y-110279602D01*
X124666711Y-110259243D01*
X124666712Y-110259242D01*
X124666718Y-110259242D01*
X124865492Y-110198945D01*
X125048683Y-110101027D01*
X125048684Y-110101025D01*
X125048686Y-110101025D01*
X125048686Y-110101024D01*
X125209252Y-109969252D01*
X125341027Y-109808683D01*
X125438945Y-109625492D01*
X125499242Y-109426718D01*
X125499956Y-109419476D01*
X125519602Y-109220003D01*
X125519602Y-109219996D01*
X136100398Y-109219996D01*
X136100398Y-109220003D01*
X136120756Y-109426711D01*
X136181055Y-109625492D01*
X136278974Y-109808686D01*
X136410747Y-109969252D01*
X136571313Y-110101024D01*
X136571313Y-110101025D01*
X136571317Y-110101027D01*
X136754508Y-110198945D01*
X136953282Y-110259242D01*
X136953286Y-110259242D01*
X136953288Y-110259243D01*
X137159997Y-110279602D01*
X137160000Y-110279602D01*
X137160003Y-110279602D01*
X137366711Y-110259243D01*
X137366712Y-110259242D01*
X137366718Y-110259242D01*
X137565492Y-110198945D01*
X137748683Y-110101027D01*
X137748684Y-110101025D01*
X137748686Y-110101025D01*
X137748686Y-110101024D01*
X137909252Y-109969252D01*
X138041027Y-109808683D01*
X138138945Y-109625492D01*
X138199242Y-109426718D01*
X138199956Y-109419476D01*
X138219602Y-109220003D01*
X138219602Y-109219996D01*
X138199243Y-109013288D01*
X138199242Y-109013286D01*
X138199242Y-109013282D01*
X138138945Y-108814508D01*
X138041027Y-108631317D01*
X138041025Y-108631313D01*
X137909252Y-108470747D01*
X137748686Y-108338975D01*
X137748686Y-108338974D01*
X137565492Y-108241055D01*
X137366711Y-108180756D01*
X137160003Y-108160398D01*
X137159997Y-108160398D01*
X136953288Y-108180756D01*
X136754507Y-108241055D01*
X136571313Y-108338974D01*
X136571313Y-108338975D01*
X136410747Y-108470747D01*
X136278975Y-108631313D01*
X136278974Y-108631313D01*
X136181055Y-108814507D01*
X136120756Y-109013288D01*
X136100398Y-109219996D01*
X125519602Y-109219996D01*
X125499243Y-109013288D01*
X125499242Y-109013286D01*
X125499242Y-109013282D01*
X125438945Y-108814508D01*
X125341027Y-108631317D01*
X125341025Y-108631313D01*
X125209252Y-108470747D01*
X125048686Y-108338975D01*
X125048686Y-108338974D01*
X124865492Y-108241055D01*
X124666711Y-108180756D01*
X124460003Y-108160398D01*
X124459997Y-108160398D01*
X124253288Y-108180756D01*
X124054507Y-108241055D01*
X123871313Y-108338974D01*
X123871313Y-108338975D01*
X123710747Y-108470747D01*
X123578975Y-108631313D01*
X123578974Y-108631313D01*
X123481055Y-108814507D01*
X123420756Y-109013288D01*
X123400398Y-109219996D01*
X122979602Y-109219996D01*
X122959243Y-109013288D01*
X122959242Y-109013286D01*
X122959242Y-109013282D01*
X122898945Y-108814508D01*
X122801027Y-108631317D01*
X122801025Y-108631313D01*
X122669252Y-108470747D01*
X122508686Y-108338975D01*
X122508686Y-108338974D01*
X122325492Y-108241055D01*
X122126711Y-108180756D01*
X121920003Y-108160398D01*
X121919997Y-108160398D01*
X121713288Y-108180756D01*
X121514507Y-108241055D01*
X121331313Y-108338974D01*
X121331313Y-108338975D01*
X121170747Y-108470747D01*
X121038975Y-108631313D01*
X121038974Y-108631313D01*
X120941055Y-108814507D01*
X120896575Y-108961141D01*
X120857660Y-109020523D01*
X120792818Y-109049439D01*
X120722637Y-109038708D01*
X120669399Y-108991738D01*
X120650000Y-108924566D01*
X120650000Y-106975433D01*
X120670002Y-106907312D01*
X120723658Y-106860819D01*
X120793932Y-106850715D01*
X120858512Y-106880209D01*
X120896573Y-106938856D01*
X120941055Y-107085492D01*
X121038974Y-107268686D01*
X121170747Y-107429252D01*
X121331313Y-107561024D01*
X121331313Y-107561025D01*
X121331317Y-107561027D01*
X121514508Y-107658945D01*
X121713282Y-107719242D01*
X121713286Y-107719242D01*
X121713288Y-107719243D01*
X121919997Y-107739602D01*
X121920000Y-107739602D01*
X121920003Y-107739602D01*
X122126711Y-107719243D01*
X122126712Y-107719242D01*
X122126718Y-107719242D01*
X122325492Y-107658945D01*
X122508683Y-107561027D01*
X122508684Y-107561025D01*
X122508686Y-107561025D01*
X122508686Y-107561024D01*
X122669252Y-107429252D01*
X122801027Y-107268683D01*
X122898945Y-107085492D01*
X122959242Y-106886718D01*
X122959956Y-106879476D01*
X122979602Y-106680003D01*
X122979602Y-106679996D01*
X123400398Y-106679996D01*
X123400398Y-106680003D01*
X123420756Y-106886711D01*
X123481055Y-107085492D01*
X123578974Y-107268686D01*
X123710747Y-107429252D01*
X123871313Y-107561024D01*
X123871313Y-107561025D01*
X123871317Y-107561027D01*
X124054508Y-107658945D01*
X124253282Y-107719242D01*
X124253286Y-107719242D01*
X124253288Y-107719243D01*
X124459997Y-107739602D01*
X124460000Y-107739602D01*
X124460003Y-107739602D01*
X124666711Y-107719243D01*
X124666712Y-107719242D01*
X124666718Y-107719242D01*
X124865492Y-107658945D01*
X125048683Y-107561027D01*
X125048684Y-107561025D01*
X125048686Y-107561025D01*
X125048686Y-107561024D01*
X125209252Y-107429252D01*
X125341027Y-107268683D01*
X125438945Y-107085492D01*
X125499242Y-106886718D01*
X125499956Y-106879476D01*
X125519602Y-106680003D01*
X125519602Y-106679996D01*
X136100398Y-106679996D01*
X136100398Y-106680003D01*
X136120756Y-106886711D01*
X136181055Y-107085492D01*
X136278974Y-107268686D01*
X136410747Y-107429252D01*
X136571313Y-107561024D01*
X136571313Y-107561025D01*
X136571317Y-107561027D01*
X136754508Y-107658945D01*
X136953282Y-107719242D01*
X136953286Y-107719242D01*
X136953288Y-107719243D01*
X137159997Y-107739602D01*
X137160000Y-107739602D01*
X137160003Y-107739602D01*
X137366711Y-107719243D01*
X137366712Y-107719242D01*
X137366718Y-107719242D01*
X137565492Y-107658945D01*
X137748683Y-107561027D01*
X137748684Y-107561025D01*
X137748686Y-107561025D01*
X137748686Y-107561024D01*
X137909252Y-107429252D01*
X138041027Y-107268683D01*
X138138945Y-107085492D01*
X138199242Y-106886718D01*
X138199956Y-106879476D01*
X138219602Y-106680003D01*
X138219602Y-106679996D01*
X138199243Y-106473288D01*
X138199242Y-106473286D01*
X138199242Y-106473282D01*
X138138945Y-106274508D01*
X138041027Y-106091317D01*
X138041025Y-106091313D01*
X137909252Y-105930747D01*
X137748686Y-105798975D01*
X137748686Y-105798974D01*
X137565492Y-105701055D01*
X137366711Y-105640756D01*
X137160003Y-105620398D01*
X137159997Y-105620398D01*
X136953288Y-105640756D01*
X136754507Y-105701055D01*
X136571313Y-105798974D01*
X136571313Y-105798975D01*
X136410747Y-105930747D01*
X136278975Y-106091313D01*
X136278974Y-106091313D01*
X136181055Y-106274507D01*
X136120756Y-106473288D01*
X136100398Y-106679996D01*
X125519602Y-106679996D01*
X125499243Y-106473288D01*
X125499242Y-106473286D01*
X125499242Y-106473282D01*
X125438945Y-106274508D01*
X125341027Y-106091317D01*
X125341025Y-106091313D01*
X125209252Y-105930747D01*
X125048686Y-105798975D01*
X125048686Y-105798974D01*
X124865492Y-105701055D01*
X124666711Y-105640756D01*
X124460003Y-105620398D01*
X124459997Y-105620398D01*
X124253288Y-105640756D01*
X124054507Y-105701055D01*
X123871313Y-105798974D01*
X123871313Y-105798975D01*
X123710747Y-105930747D01*
X123578975Y-106091313D01*
X123578974Y-106091313D01*
X123481055Y-106274507D01*
X123420756Y-106473288D01*
X123400398Y-106679996D01*
X122979602Y-106679996D01*
X122959243Y-106473288D01*
X122959242Y-106473286D01*
X122959242Y-106473282D01*
X122898945Y-106274508D01*
X122801027Y-106091317D01*
X122801025Y-106091313D01*
X122669252Y-105930747D01*
X122508686Y-105798975D01*
X122508686Y-105798974D01*
X122325492Y-105701055D01*
X122126711Y-105640756D01*
X121920003Y-105620398D01*
X121919997Y-105620398D01*
X121713288Y-105640756D01*
X121514507Y-105701055D01*
X121331313Y-105798974D01*
X121331313Y-105798975D01*
X121170747Y-105930747D01*
X121038975Y-106091313D01*
X121038974Y-106091313D01*
X120941055Y-106274507D01*
X120896575Y-106421141D01*
X120857660Y-106480523D01*
X120792818Y-106509439D01*
X120722637Y-106498708D01*
X120669399Y-106451738D01*
X120650000Y-106384566D01*
X120650000Y-104435433D01*
X120670002Y-104367312D01*
X120723658Y-104320819D01*
X120793932Y-104310715D01*
X120858512Y-104340209D01*
X120896573Y-104398856D01*
X120941055Y-104545492D01*
X121038974Y-104728686D01*
X121170747Y-104889252D01*
X121331313Y-105021024D01*
X121331313Y-105021025D01*
X121331317Y-105021027D01*
X121514508Y-105118945D01*
X121713282Y-105179242D01*
X121713286Y-105179242D01*
X121713288Y-105179243D01*
X121919997Y-105199602D01*
X121920000Y-105199602D01*
X121920003Y-105199602D01*
X122126711Y-105179243D01*
X122126712Y-105179242D01*
X122126718Y-105179242D01*
X122325492Y-105118945D01*
X122508683Y-105021027D01*
X122508684Y-105021025D01*
X122508686Y-105021025D01*
X122508686Y-105021024D01*
X122669252Y-104889252D01*
X122801027Y-104728683D01*
X122898945Y-104545492D01*
X122959242Y-104346718D01*
X122959956Y-104339476D01*
X122979602Y-104140003D01*
X122979602Y-104139996D01*
X123400398Y-104139996D01*
X123400398Y-104140003D01*
X123420756Y-104346711D01*
X123481055Y-104545492D01*
X123578974Y-104728686D01*
X123710747Y-104889252D01*
X123871313Y-105021024D01*
X123871313Y-105021025D01*
X123871317Y-105021027D01*
X124054508Y-105118945D01*
X124253282Y-105179242D01*
X124253286Y-105179242D01*
X124253288Y-105179243D01*
X124459997Y-105199602D01*
X124460000Y-105199602D01*
X124460003Y-105199602D01*
X124666711Y-105179243D01*
X124666712Y-105179242D01*
X124666718Y-105179242D01*
X124865492Y-105118945D01*
X125048683Y-105021027D01*
X125048684Y-105021025D01*
X125048686Y-105021025D01*
X125048686Y-105021024D01*
X125209252Y-104889252D01*
X125341027Y-104728683D01*
X125438945Y-104545492D01*
X125499242Y-104346718D01*
X125499956Y-104339476D01*
X125519602Y-104140003D01*
X125519602Y-104139996D01*
X136100398Y-104139996D01*
X136100398Y-104140003D01*
X136120756Y-104346711D01*
X136181055Y-104545492D01*
X136278974Y-104728686D01*
X136410747Y-104889252D01*
X136571313Y-105021024D01*
X136571313Y-105021025D01*
X136571317Y-105021027D01*
X136754508Y-105118945D01*
X136953282Y-105179242D01*
X136953286Y-105179242D01*
X136953288Y-105179243D01*
X137159997Y-105199602D01*
X137160000Y-105199602D01*
X137160003Y-105199602D01*
X137366711Y-105179243D01*
X137366712Y-105179242D01*
X137366718Y-105179242D01*
X137565492Y-105118945D01*
X137748683Y-105021027D01*
X137748684Y-105021025D01*
X137748686Y-105021025D01*
X137748686Y-105021024D01*
X137909252Y-104889252D01*
X138041027Y-104728683D01*
X138138945Y-104545492D01*
X138199242Y-104346718D01*
X138199956Y-104339476D01*
X138219602Y-104140003D01*
X138219602Y-104139996D01*
X138199243Y-103933288D01*
X138199242Y-103933286D01*
X138199242Y-103933282D01*
X138138945Y-103734508D01*
X138041027Y-103551317D01*
X138041025Y-103551313D01*
X137909252Y-103390747D01*
X137748686Y-103258975D01*
X137748686Y-103258974D01*
X137565492Y-103161055D01*
X137366711Y-103100756D01*
X137160003Y-103080398D01*
X137159997Y-103080398D01*
X136953288Y-103100756D01*
X136754507Y-103161055D01*
X136571313Y-103258974D01*
X136571313Y-103258975D01*
X136410747Y-103390747D01*
X136278975Y-103551313D01*
X136278974Y-103551313D01*
X136181055Y-103734507D01*
X136120756Y-103933288D01*
X136100398Y-104139996D01*
X125519602Y-104139996D01*
X125499243Y-103933288D01*
X125499242Y-103933286D01*
X125499242Y-103933282D01*
X125438945Y-103734508D01*
X125341027Y-103551317D01*
X125341025Y-103551313D01*
X125209252Y-103390747D01*
X125048686Y-103258975D01*
X125048686Y-103258974D01*
X124865492Y-103161055D01*
X124666711Y-103100756D01*
X124460003Y-103080398D01*
X124459997Y-103080398D01*
X124253288Y-103100756D01*
X124054507Y-103161055D01*
X123871313Y-103258974D01*
X123871313Y-103258975D01*
X123710747Y-103390747D01*
X123578975Y-103551313D01*
X123578974Y-103551313D01*
X123481055Y-103734507D01*
X123420756Y-103933288D01*
X123400398Y-104139996D01*
X122979602Y-104139996D01*
X122959243Y-103933288D01*
X122959242Y-103933286D01*
X122959242Y-103933282D01*
X122898945Y-103734508D01*
X122801027Y-103551317D01*
X122801025Y-103551313D01*
X122669252Y-103390747D01*
X122508686Y-103258975D01*
X122508686Y-103258974D01*
X122325492Y-103161055D01*
X122126711Y-103100756D01*
X121920003Y-103080398D01*
X121919997Y-103080398D01*
X121713288Y-103100756D01*
X121514507Y-103161055D01*
X121331313Y-103258974D01*
X121331313Y-103258975D01*
X121170747Y-103390747D01*
X121038975Y-103551313D01*
X121038974Y-103551313D01*
X120941055Y-103734507D01*
X120896575Y-103881141D01*
X120857660Y-103940523D01*
X120792818Y-103969439D01*
X120722637Y-103958708D01*
X120669399Y-103911738D01*
X120650000Y-103844566D01*
X120650000Y-101895433D01*
X120670002Y-101827312D01*
X120723658Y-101780819D01*
X120793932Y-101770715D01*
X120858512Y-101800209D01*
X120896573Y-101858856D01*
X120941055Y-102005492D01*
X121038974Y-102188686D01*
X121170747Y-102349252D01*
X121331313Y-102481024D01*
X121331313Y-102481025D01*
X121331317Y-102481027D01*
X121514508Y-102578945D01*
X121713282Y-102639242D01*
X121713286Y-102639242D01*
X121713288Y-102639243D01*
X121919997Y-102659602D01*
X121920000Y-102659602D01*
X121920003Y-102659602D01*
X122126711Y-102639243D01*
X122126712Y-102639242D01*
X122126718Y-102639242D01*
X122325492Y-102578945D01*
X122508683Y-102481027D01*
X122508684Y-102481025D01*
X122508686Y-102481025D01*
X122508686Y-102481024D01*
X122669252Y-102349252D01*
X122801027Y-102188683D01*
X122898945Y-102005492D01*
X122959242Y-101806718D01*
X122959956Y-101799476D01*
X122979602Y-101600003D01*
X122979602Y-101599996D01*
X123400398Y-101599996D01*
X123400398Y-101600003D01*
X123420756Y-101806711D01*
X123481055Y-102005492D01*
X123578974Y-102188686D01*
X123710747Y-102349252D01*
X123871313Y-102481024D01*
X123871313Y-102481025D01*
X123871317Y-102481027D01*
X124054508Y-102578945D01*
X124253282Y-102639242D01*
X124253286Y-102639242D01*
X124253288Y-102639243D01*
X124459997Y-102659602D01*
X124460000Y-102659602D01*
X124460003Y-102659602D01*
X124666711Y-102639243D01*
X124666712Y-102639242D01*
X124666718Y-102639242D01*
X124865492Y-102578945D01*
X125048683Y-102481027D01*
X125048684Y-102481025D01*
X125048686Y-102481025D01*
X125048686Y-102481024D01*
X125209252Y-102349252D01*
X125341027Y-102188683D01*
X125438945Y-102005492D01*
X125499242Y-101806718D01*
X125499956Y-101799476D01*
X125519602Y-101600003D01*
X125519602Y-101599996D01*
X136100398Y-101599996D01*
X136100398Y-101600003D01*
X136120756Y-101806711D01*
X136181055Y-102005492D01*
X136278974Y-102188686D01*
X136410747Y-102349252D01*
X136571313Y-102481024D01*
X136571313Y-102481025D01*
X136571317Y-102481027D01*
X136754508Y-102578945D01*
X136953282Y-102639242D01*
X136953286Y-102639242D01*
X136953288Y-102639243D01*
X137159997Y-102659602D01*
X137160000Y-102659602D01*
X137160003Y-102659602D01*
X137366711Y-102639243D01*
X137366712Y-102639242D01*
X137366718Y-102639242D01*
X137565492Y-102578945D01*
X137748683Y-102481027D01*
X137748684Y-102481025D01*
X137748686Y-102481025D01*
X137748686Y-102481024D01*
X137909252Y-102349252D01*
X138041027Y-102188683D01*
X138138945Y-102005492D01*
X138199242Y-101806718D01*
X138199956Y-101799476D01*
X138219602Y-101600003D01*
X138219602Y-101599996D01*
X138199243Y-101393288D01*
X138199242Y-101393286D01*
X138199242Y-101393282D01*
X138138945Y-101194508D01*
X138041027Y-101011317D01*
X138041025Y-101011313D01*
X137909252Y-100850747D01*
X137748686Y-100718975D01*
X137748686Y-100718974D01*
X137565492Y-100621055D01*
X137366711Y-100560756D01*
X137160003Y-100540398D01*
X137159997Y-100540398D01*
X136953288Y-100560756D01*
X136754507Y-100621055D01*
X136571313Y-100718974D01*
X136571313Y-100718975D01*
X136410747Y-100850747D01*
X136278975Y-101011313D01*
X136278974Y-101011313D01*
X136181055Y-101194507D01*
X136120756Y-101393288D01*
X136100398Y-101599996D01*
X125519602Y-101599996D01*
X125499243Y-101393288D01*
X125499242Y-101393286D01*
X125499242Y-101393282D01*
X125438945Y-101194508D01*
X125341027Y-101011317D01*
X125341025Y-101011313D01*
X125209252Y-100850747D01*
X125048686Y-100718975D01*
X125048686Y-100718974D01*
X124865492Y-100621055D01*
X124666711Y-100560756D01*
X124460003Y-100540398D01*
X124459997Y-100540398D01*
X124253288Y-100560756D01*
X124054507Y-100621055D01*
X123871313Y-100718974D01*
X123871313Y-100718975D01*
X123710747Y-100850747D01*
X123578975Y-101011313D01*
X123578974Y-101011313D01*
X123481055Y-101194507D01*
X123420756Y-101393288D01*
X123400398Y-101599996D01*
X122979602Y-101599996D01*
X122959243Y-101393288D01*
X122959242Y-101393286D01*
X122959242Y-101393282D01*
X122898945Y-101194508D01*
X122801027Y-101011317D01*
X122801025Y-101011313D01*
X122669252Y-100850747D01*
X122508686Y-100718975D01*
X122508686Y-100718974D01*
X122325492Y-100621055D01*
X122126711Y-100560756D01*
X121920003Y-100540398D01*
X121919997Y-100540398D01*
X121713288Y-100560756D01*
X121514507Y-100621055D01*
X121331313Y-100718974D01*
X121331313Y-100718975D01*
X121170747Y-100850747D01*
X121038975Y-101011313D01*
X121038974Y-101011313D01*
X120941055Y-101194507D01*
X120896575Y-101341141D01*
X120857660Y-101400523D01*
X120792818Y-101429439D01*
X120722637Y-101418708D01*
X120669399Y-101371738D01*
X120650000Y-101304566D01*
X120650000Y-99355433D01*
X120670002Y-99287312D01*
X120723658Y-99240819D01*
X120793932Y-99230715D01*
X120858512Y-99260209D01*
X120896573Y-99318856D01*
X120941055Y-99465492D01*
X121038974Y-99648686D01*
X121170747Y-99809252D01*
X121331313Y-99941024D01*
X121331313Y-99941025D01*
X121331317Y-99941027D01*
X121514508Y-100038945D01*
X121713282Y-100099242D01*
X121713286Y-100099242D01*
X121713288Y-100099243D01*
X121919997Y-100119602D01*
X121920000Y-100119602D01*
X121920003Y-100119602D01*
X122126711Y-100099243D01*
X122126712Y-100099242D01*
X122126718Y-100099242D01*
X122325492Y-100038945D01*
X122508683Y-99941027D01*
X122508684Y-99941025D01*
X122508686Y-99941025D01*
X122508686Y-99941024D01*
X122669252Y-99809252D01*
X122801027Y-99648683D01*
X122898945Y-99465492D01*
X122959242Y-99266718D01*
X122959956Y-99259476D01*
X122979602Y-99060003D01*
X122979602Y-99059996D01*
X123400398Y-99059996D01*
X123400398Y-99060003D01*
X123420756Y-99266711D01*
X123481055Y-99465492D01*
X123578974Y-99648686D01*
X123710747Y-99809252D01*
X123871313Y-99941024D01*
X123871313Y-99941025D01*
X123871317Y-99941027D01*
X124054508Y-100038945D01*
X124253282Y-100099242D01*
X124253286Y-100099242D01*
X124253288Y-100099243D01*
X124459997Y-100119602D01*
X124460000Y-100119602D01*
X124460003Y-100119602D01*
X124666711Y-100099243D01*
X124666712Y-100099242D01*
X124666718Y-100099242D01*
X124865492Y-100038945D01*
X125048683Y-99941027D01*
X125048684Y-99941025D01*
X125048686Y-99941025D01*
X125048686Y-99941024D01*
X125209252Y-99809252D01*
X125341027Y-99648683D01*
X125438945Y-99465492D01*
X125499242Y-99266718D01*
X125499956Y-99259476D01*
X125519602Y-99060003D01*
X125519602Y-99059996D01*
X136100398Y-99059996D01*
X136100398Y-99060003D01*
X136120756Y-99266711D01*
X136181055Y-99465492D01*
X136278974Y-99648686D01*
X136410747Y-99809252D01*
X136571313Y-99941024D01*
X136571313Y-99941025D01*
X136571317Y-99941027D01*
X136754508Y-100038945D01*
X136953282Y-100099242D01*
X136953286Y-100099242D01*
X136953288Y-100099243D01*
X137159997Y-100119602D01*
X137160000Y-100119602D01*
X137160003Y-100119602D01*
X137366711Y-100099243D01*
X137366712Y-100099242D01*
X137366718Y-100099242D01*
X137565492Y-100038945D01*
X137748683Y-99941027D01*
X137748684Y-99941025D01*
X137748686Y-99941025D01*
X137748686Y-99941024D01*
X137909252Y-99809252D01*
X138041027Y-99648683D01*
X138138945Y-99465492D01*
X138199242Y-99266718D01*
X138199956Y-99259476D01*
X138219602Y-99060003D01*
X138219602Y-99059996D01*
X138199243Y-98853288D01*
X138199242Y-98853286D01*
X138199242Y-98853282D01*
X138138945Y-98654508D01*
X138041027Y-98471317D01*
X138041025Y-98471313D01*
X137909252Y-98310747D01*
X137748686Y-98178975D01*
X137748686Y-98178974D01*
X137565492Y-98081055D01*
X137366711Y-98020756D01*
X137160003Y-98000398D01*
X137159997Y-98000398D01*
X136953288Y-98020756D01*
X136754507Y-98081055D01*
X136571313Y-98178974D01*
X136571313Y-98178975D01*
X136410747Y-98310747D01*
X136278975Y-98471313D01*
X136278974Y-98471313D01*
X136181055Y-98654507D01*
X136120756Y-98853288D01*
X136100398Y-99059996D01*
X125519602Y-99059996D01*
X125499243Y-98853288D01*
X125499242Y-98853286D01*
X125499242Y-98853282D01*
X125438945Y-98654508D01*
X125341027Y-98471317D01*
X125341025Y-98471313D01*
X125209252Y-98310747D01*
X125048686Y-98178975D01*
X125048686Y-98178974D01*
X124865492Y-98081055D01*
X124666711Y-98020756D01*
X124460003Y-98000398D01*
X124459997Y-98000398D01*
X124253288Y-98020756D01*
X124054507Y-98081055D01*
X123871313Y-98178974D01*
X123871313Y-98178975D01*
X123710747Y-98310747D01*
X123578975Y-98471313D01*
X123578974Y-98471313D01*
X123481055Y-98654507D01*
X123420756Y-98853288D01*
X123400398Y-99059996D01*
X122979602Y-99059996D01*
X122959243Y-98853288D01*
X122959242Y-98853286D01*
X122959242Y-98853282D01*
X122898945Y-98654508D01*
X122801027Y-98471317D01*
X122801025Y-98471313D01*
X122669252Y-98310747D01*
X122508686Y-98178975D01*
X122508686Y-98178974D01*
X122325492Y-98081055D01*
X122126711Y-98020756D01*
X121920003Y-98000398D01*
X121919997Y-98000398D01*
X121713288Y-98020756D01*
X121514507Y-98081055D01*
X121331313Y-98178974D01*
X121331313Y-98178975D01*
X121170747Y-98310747D01*
X121038975Y-98471313D01*
X121038974Y-98471313D01*
X120941055Y-98654507D01*
X120896575Y-98801141D01*
X120857660Y-98860523D01*
X120792818Y-98889439D01*
X120722637Y-98878708D01*
X120669399Y-98831738D01*
X120650000Y-98764566D01*
X120650000Y-96815433D01*
X120670002Y-96747312D01*
X120723658Y-96700819D01*
X120793932Y-96690715D01*
X120858512Y-96720209D01*
X120896573Y-96778856D01*
X120941055Y-96925492D01*
X121038974Y-97108686D01*
X121170747Y-97269252D01*
X121331313Y-97401024D01*
X121331313Y-97401025D01*
X121331317Y-97401027D01*
X121514508Y-97498945D01*
X121713282Y-97559242D01*
X121713286Y-97559242D01*
X121713288Y-97559243D01*
X121919997Y-97579602D01*
X121920000Y-97579602D01*
X121920003Y-97579602D01*
X122126711Y-97559243D01*
X122126712Y-97559242D01*
X122126718Y-97559242D01*
X122325492Y-97498945D01*
X122508683Y-97401027D01*
X122508684Y-97401025D01*
X122508686Y-97401025D01*
X122508686Y-97401024D01*
X122669252Y-97269252D01*
X122801027Y-97108683D01*
X122898945Y-96925492D01*
X122959242Y-96726718D01*
X122959956Y-96719476D01*
X122979602Y-96520003D01*
X122979602Y-96519996D01*
X123400398Y-96519996D01*
X123400398Y-96520003D01*
X123420756Y-96726711D01*
X123481055Y-96925492D01*
X123578974Y-97108686D01*
X123710747Y-97269252D01*
X123871313Y-97401024D01*
X123871313Y-97401025D01*
X123871317Y-97401027D01*
X124054508Y-97498945D01*
X124253282Y-97559242D01*
X124253286Y-97559242D01*
X124253288Y-97559243D01*
X124459997Y-97579602D01*
X124460000Y-97579602D01*
X124460003Y-97579602D01*
X124666711Y-97559243D01*
X124666712Y-97559242D01*
X124666718Y-97559242D01*
X124865492Y-97498945D01*
X125048683Y-97401027D01*
X125048684Y-97401025D01*
X125048686Y-97401025D01*
X125048686Y-97401024D01*
X125209252Y-97269252D01*
X125341027Y-97108683D01*
X125438945Y-96925492D01*
X125499242Y-96726718D01*
X125499956Y-96719476D01*
X125519602Y-96520003D01*
X125519602Y-96519996D01*
X136100398Y-96519996D01*
X136100398Y-96520003D01*
X136120756Y-96726711D01*
X136181055Y-96925492D01*
X136278974Y-97108686D01*
X136410747Y-97269252D01*
X136571313Y-97401024D01*
X136571313Y-97401025D01*
X136571317Y-97401027D01*
X136754508Y-97498945D01*
X136953282Y-97559242D01*
X136953286Y-97559242D01*
X136953288Y-97559243D01*
X137159997Y-97579602D01*
X137160000Y-97579602D01*
X137160003Y-97579602D01*
X137366711Y-97559243D01*
X137366712Y-97559242D01*
X137366718Y-97559242D01*
X137565492Y-97498945D01*
X137748683Y-97401027D01*
X137748684Y-97401025D01*
X137748686Y-97401025D01*
X137748686Y-97401024D01*
X137909252Y-97269252D01*
X138041027Y-97108683D01*
X138138945Y-96925492D01*
X138199242Y-96726718D01*
X138199956Y-96719476D01*
X138219602Y-96520003D01*
X138219602Y-96519996D01*
X138199243Y-96313288D01*
X138199242Y-96313286D01*
X138199242Y-96313282D01*
X138138945Y-96114508D01*
X138041027Y-95931317D01*
X138041025Y-95931313D01*
X137909252Y-95770747D01*
X137748686Y-95638975D01*
X137748686Y-95638974D01*
X137565492Y-95541055D01*
X137366711Y-95480756D01*
X137160003Y-95460398D01*
X137159997Y-95460398D01*
X136953288Y-95480756D01*
X136754507Y-95541055D01*
X136571313Y-95638974D01*
X136571313Y-95638975D01*
X136410747Y-95770747D01*
X136278975Y-95931313D01*
X136278974Y-95931313D01*
X136181055Y-96114507D01*
X136120756Y-96313288D01*
X136100398Y-96519996D01*
X125519602Y-96519996D01*
X125499243Y-96313288D01*
X125499242Y-96313286D01*
X125499242Y-96313282D01*
X125438945Y-96114508D01*
X125341027Y-95931317D01*
X125341025Y-95931313D01*
X125209252Y-95770747D01*
X125048686Y-95638975D01*
X125048686Y-95638974D01*
X124865492Y-95541055D01*
X124666711Y-95480756D01*
X124460003Y-95460398D01*
X124459997Y-95460398D01*
X124253288Y-95480756D01*
X124054507Y-95541055D01*
X123871313Y-95638974D01*
X123871313Y-95638975D01*
X123710747Y-95770747D01*
X123578975Y-95931313D01*
X123578974Y-95931313D01*
X123481055Y-96114507D01*
X123420756Y-96313288D01*
X123400398Y-96519996D01*
X122979602Y-96519996D01*
X122959243Y-96313288D01*
X122959242Y-96313286D01*
X122959242Y-96313282D01*
X122898945Y-96114508D01*
X122801027Y-95931317D01*
X122801025Y-95931313D01*
X122669252Y-95770747D01*
X122508686Y-95638975D01*
X122508686Y-95638974D01*
X122325492Y-95541055D01*
X122126711Y-95480756D01*
X121920003Y-95460398D01*
X121919997Y-95460398D01*
X121713288Y-95480756D01*
X121514507Y-95541055D01*
X121331313Y-95638974D01*
X121331313Y-95638975D01*
X121170747Y-95770747D01*
X121038975Y-95931313D01*
X121038974Y-95931313D01*
X120941055Y-96114507D01*
X120896575Y-96261141D01*
X120857660Y-96320523D01*
X120792818Y-96349439D01*
X120722637Y-96338708D01*
X120669399Y-96291738D01*
X120650000Y-96224566D01*
X120650000Y-94657379D01*
X120670002Y-94589258D01*
X120723658Y-94542765D01*
X120793932Y-94532661D01*
X120858512Y-94562155D01*
X120888791Y-94601216D01*
X120895369Y-94614426D01*
X121029388Y-94791897D01*
X121193738Y-94941722D01*
X121382815Y-95058794D01*
X121382826Y-95058799D01*
X121586999Y-95137897D01*
X121587000Y-95137897D01*
X121587000Y-94203227D01*
X121599920Y-94225606D01*
X121674394Y-94300080D01*
X121765606Y-94352741D01*
X121867339Y-94380000D01*
X121972661Y-94380000D01*
X122074394Y-94352741D01*
X122165606Y-94300080D01*
X122240080Y-94225606D01*
X122253000Y-94203227D01*
X122253000Y-95137897D01*
X122457173Y-95058799D01*
X122457184Y-95058794D01*
X122646261Y-94941722D01*
X122810611Y-94791897D01*
X122944630Y-94614426D01*
X123043760Y-94415346D01*
X123043763Y-94415338D01*
X123068810Y-94327308D01*
X123106690Y-94267261D01*
X123171021Y-94237227D01*
X123241377Y-94246740D01*
X123295422Y-94292780D01*
X123311190Y-94327308D01*
X123336236Y-94415338D01*
X123336239Y-94415346D01*
X123435369Y-94614426D01*
X123569388Y-94791897D01*
X123733738Y-94941722D01*
X123922815Y-95058794D01*
X123922826Y-95058799D01*
X124126999Y-95137897D01*
X124127000Y-95137897D01*
X124793000Y-95137897D01*
X124997173Y-95058799D01*
X124997184Y-95058794D01*
X125186261Y-94941722D01*
X125350611Y-94791897D01*
X125484630Y-94614426D01*
X125583760Y-94415346D01*
X125583763Y-94415338D01*
X125612881Y-94313000D01*
X124793000Y-94313000D01*
X124793000Y-95137897D01*
X124127000Y-95137897D01*
X124127000Y-94203227D01*
X124139920Y-94225606D01*
X124214394Y-94300080D01*
X124305606Y-94352741D01*
X124407339Y-94380000D01*
X124512661Y-94380000D01*
X124614394Y-94352741D01*
X124705606Y-94300080D01*
X124780080Y-94225606D01*
X124832741Y-94134394D01*
X124860000Y-94032661D01*
X124860000Y-93979996D01*
X136100398Y-93979996D01*
X136100398Y-93980003D01*
X136120756Y-94186711D01*
X136120757Y-94186717D01*
X136120758Y-94186718D01*
X136136080Y-94237227D01*
X136181055Y-94385492D01*
X136278974Y-94568686D01*
X136410747Y-94729252D01*
X136571313Y-94861024D01*
X136571313Y-94861025D01*
X136571317Y-94861027D01*
X136754508Y-94958945D01*
X136953282Y-95019242D01*
X136953286Y-95019242D01*
X136953288Y-95019243D01*
X137159997Y-95039602D01*
X137160000Y-95039602D01*
X137160003Y-95039602D01*
X137366711Y-95019243D01*
X137366712Y-95019242D01*
X137366718Y-95019242D01*
X137565492Y-94958945D01*
X137748683Y-94861027D01*
X137748684Y-94861025D01*
X137748686Y-94861025D01*
X137748686Y-94861024D01*
X137909252Y-94729252D01*
X138041027Y-94568683D01*
X138138945Y-94385492D01*
X138199242Y-94186718D01*
X138199956Y-94179476D01*
X138219602Y-93980003D01*
X138219602Y-93979996D01*
X138199243Y-93773288D01*
X138199242Y-93773286D01*
X138199242Y-93773282D01*
X138138945Y-93574508D01*
X138041027Y-93391317D01*
X138041025Y-93391313D01*
X137909252Y-93230747D01*
X137748686Y-93098975D01*
X137748686Y-93098974D01*
X137565492Y-93001055D01*
X137366711Y-92940756D01*
X137160003Y-92920398D01*
X137159997Y-92920398D01*
X136953288Y-92940756D01*
X136754507Y-93001055D01*
X136571313Y-93098974D01*
X136571313Y-93098975D01*
X136410747Y-93230747D01*
X136278975Y-93391313D01*
X136278974Y-93391313D01*
X136181055Y-93574507D01*
X136120756Y-93773288D01*
X136100398Y-93979996D01*
X124860000Y-93979996D01*
X124860000Y-93927339D01*
X124832741Y-93825606D01*
X124780080Y-93734394D01*
X124705606Y-93659920D01*
X124683228Y-93647000D01*
X124793000Y-93647000D01*
X125612881Y-93647000D01*
X125612881Y-93646999D01*
X125583763Y-93544661D01*
X125583760Y-93544653D01*
X125484630Y-93345573D01*
X125350611Y-93168102D01*
X125186261Y-93018277D01*
X124997181Y-92901204D01*
X124997172Y-92901199D01*
X124793000Y-92822101D01*
X124793000Y-93647000D01*
X124683228Y-93647000D01*
X124614394Y-93607259D01*
X124512661Y-93580000D01*
X124407339Y-93580000D01*
X124305606Y-93607259D01*
X124214394Y-93659920D01*
X124139920Y-93734394D01*
X124127000Y-93756772D01*
X124127000Y-92822102D01*
X124126999Y-92822101D01*
X123922827Y-92901199D01*
X123922818Y-92901204D01*
X123733738Y-93018277D01*
X123569388Y-93168102D01*
X123435369Y-93345573D01*
X123336239Y-93544653D01*
X123336236Y-93544661D01*
X123311190Y-93632691D01*
X123273310Y-93692738D01*
X123208979Y-93722772D01*
X123138622Y-93713259D01*
X123084578Y-93667219D01*
X123068810Y-93632691D01*
X123043763Y-93544661D01*
X123043760Y-93544653D01*
X122944630Y-93345573D01*
X122810611Y-93168102D01*
X122646261Y-93018277D01*
X122457181Y-92901204D01*
X122457172Y-92901199D01*
X122253000Y-92822101D01*
X122253000Y-93756772D01*
X122240080Y-93734394D01*
X122165606Y-93659920D01*
X122074394Y-93607259D01*
X121972661Y-93580000D01*
X121867339Y-93580000D01*
X121765606Y-93607259D01*
X121674394Y-93659920D01*
X121599920Y-93734394D01*
X121587000Y-93756772D01*
X121587000Y-92822102D01*
X121586999Y-92822101D01*
X121382827Y-92901199D01*
X121382818Y-92901204D01*
X121193738Y-93018277D01*
X121029388Y-93168102D01*
X120895368Y-93345573D01*
X120888790Y-93358785D01*
X120840519Y-93410848D01*
X120771765Y-93428549D01*
X120704355Y-93406268D01*
X120659692Y-93351080D01*
X120650000Y-93302620D01*
X120650000Y-91735433D01*
X120670002Y-91667312D01*
X120723658Y-91620819D01*
X120793932Y-91610715D01*
X120858512Y-91640209D01*
X120896573Y-91698856D01*
X120941055Y-91845492D01*
X121038974Y-92028686D01*
X121170747Y-92189252D01*
X121331313Y-92321024D01*
X121331313Y-92321025D01*
X121331317Y-92321027D01*
X121514508Y-92418945D01*
X121713282Y-92479242D01*
X121713286Y-92479242D01*
X121713288Y-92479243D01*
X121919997Y-92499602D01*
X121920000Y-92499602D01*
X121920003Y-92499602D01*
X122126711Y-92479243D01*
X122126712Y-92479242D01*
X122126718Y-92479242D01*
X122325492Y-92418945D01*
X122508683Y-92321027D01*
X122508684Y-92321025D01*
X122508686Y-92321025D01*
X122508686Y-92321024D01*
X122669252Y-92189252D01*
X122801027Y-92028683D01*
X122898945Y-91845492D01*
X122959242Y-91646718D01*
X122959956Y-91639476D01*
X122979602Y-91440003D01*
X122979602Y-91439996D01*
X123400398Y-91439996D01*
X123400398Y-91440003D01*
X123420756Y-91646711D01*
X123481055Y-91845492D01*
X123578974Y-92028686D01*
X123710747Y-92189252D01*
X123871313Y-92321024D01*
X123871313Y-92321025D01*
X123871317Y-92321027D01*
X124054508Y-92418945D01*
X124253282Y-92479242D01*
X124253286Y-92479242D01*
X124253288Y-92479243D01*
X124459997Y-92499602D01*
X124460000Y-92499602D01*
X124460003Y-92499602D01*
X124666711Y-92479243D01*
X124666712Y-92479242D01*
X124666718Y-92479242D01*
X124865492Y-92418945D01*
X125048683Y-92321027D01*
X125048684Y-92321025D01*
X125048686Y-92321025D01*
X125048686Y-92321024D01*
X125209252Y-92189252D01*
X125341027Y-92028683D01*
X125438945Y-91845492D01*
X125499242Y-91646718D01*
X125499956Y-91639476D01*
X125519602Y-91440003D01*
X125519602Y-91439996D01*
X136100398Y-91439996D01*
X136100398Y-91440003D01*
X136120756Y-91646711D01*
X136181055Y-91845492D01*
X136278974Y-92028686D01*
X136410747Y-92189252D01*
X136571313Y-92321024D01*
X136571313Y-92321025D01*
X136571317Y-92321027D01*
X136754508Y-92418945D01*
X136953282Y-92479242D01*
X136953286Y-92479242D01*
X136953288Y-92479243D01*
X137159997Y-92499602D01*
X137160000Y-92499602D01*
X137160003Y-92499602D01*
X137366711Y-92479243D01*
X137366712Y-92479242D01*
X137366718Y-92479242D01*
X137565492Y-92418945D01*
X137748683Y-92321027D01*
X137748684Y-92321025D01*
X137748686Y-92321025D01*
X137748686Y-92321024D01*
X137909252Y-92189252D01*
X138041027Y-92028683D01*
X138138945Y-91845492D01*
X138199242Y-91646718D01*
X138199956Y-91639476D01*
X138219602Y-91440003D01*
X138219602Y-91439996D01*
X138199243Y-91233288D01*
X138199242Y-91233286D01*
X138199242Y-91233282D01*
X138138945Y-91034508D01*
X138041027Y-90851317D01*
X138041025Y-90851313D01*
X137909252Y-90690747D01*
X137748686Y-90558975D01*
X137748686Y-90558974D01*
X137565492Y-90461055D01*
X137366711Y-90400756D01*
X137160003Y-90380398D01*
X137159997Y-90380398D01*
X136953288Y-90400756D01*
X136754507Y-90461055D01*
X136571313Y-90558974D01*
X136571313Y-90558975D01*
X136410747Y-90690747D01*
X136278975Y-90851313D01*
X136278974Y-90851313D01*
X136181055Y-91034507D01*
X136120756Y-91233288D01*
X136100398Y-91439996D01*
X125519602Y-91439996D01*
X125499243Y-91233288D01*
X125499242Y-91233286D01*
X125499242Y-91233282D01*
X125438945Y-91034508D01*
X125341027Y-90851317D01*
X125341025Y-90851313D01*
X125209252Y-90690747D01*
X125048686Y-90558975D01*
X125048686Y-90558974D01*
X124865492Y-90461055D01*
X124666711Y-90400756D01*
X124460003Y-90380398D01*
X124459997Y-90380398D01*
X124253288Y-90400756D01*
X124054507Y-90461055D01*
X123871313Y-90558974D01*
X123871313Y-90558975D01*
X123710747Y-90690747D01*
X123578975Y-90851313D01*
X123578974Y-90851313D01*
X123481055Y-91034507D01*
X123420756Y-91233288D01*
X123400398Y-91439996D01*
X122979602Y-91439996D01*
X122959243Y-91233288D01*
X122959242Y-91233286D01*
X122959242Y-91233282D01*
X122898945Y-91034508D01*
X122801027Y-90851317D01*
X122801025Y-90851313D01*
X122669252Y-90690747D01*
X122508686Y-90558975D01*
X122508686Y-90558974D01*
X122325492Y-90461055D01*
X122126711Y-90400756D01*
X121920003Y-90380398D01*
X121919997Y-90380398D01*
X121713288Y-90400756D01*
X121514507Y-90461055D01*
X121331313Y-90558974D01*
X121331313Y-90558975D01*
X121170747Y-90690747D01*
X121038975Y-90851313D01*
X121038974Y-90851313D01*
X120941055Y-91034507D01*
X120896575Y-91181141D01*
X120857660Y-91240523D01*
X120792818Y-91269439D01*
X120722637Y-91258708D01*
X120669399Y-91211738D01*
X120650000Y-91144566D01*
X120650000Y-89195433D01*
X120670002Y-89127312D01*
X120723658Y-89080819D01*
X120793932Y-89070715D01*
X120858512Y-89100209D01*
X120896573Y-89158856D01*
X120941055Y-89305492D01*
X121038974Y-89488686D01*
X121170747Y-89649252D01*
X121331313Y-89781024D01*
X121331313Y-89781025D01*
X121331317Y-89781027D01*
X121514508Y-89878945D01*
X121713282Y-89939242D01*
X121713286Y-89939242D01*
X121713288Y-89939243D01*
X121919997Y-89959602D01*
X121920000Y-89959602D01*
X121920003Y-89959602D01*
X122126711Y-89939243D01*
X122126712Y-89939242D01*
X122126718Y-89939242D01*
X122325492Y-89878945D01*
X122508683Y-89781027D01*
X122508684Y-89781025D01*
X122508686Y-89781025D01*
X122508686Y-89781024D01*
X122669252Y-89649252D01*
X122801027Y-89488683D01*
X122898945Y-89305492D01*
X122959242Y-89106718D01*
X122959956Y-89099476D01*
X122979602Y-88900003D01*
X122979602Y-88899996D01*
X123400398Y-88899996D01*
X123400398Y-88900003D01*
X123420756Y-89106711D01*
X123481055Y-89305492D01*
X123578974Y-89488686D01*
X123710747Y-89649252D01*
X123871313Y-89781024D01*
X123871313Y-89781025D01*
X123871317Y-89781027D01*
X124054508Y-89878945D01*
X124253282Y-89939242D01*
X124253286Y-89939242D01*
X124253288Y-89939243D01*
X124459997Y-89959602D01*
X124460000Y-89959602D01*
X124460003Y-89959602D01*
X124666711Y-89939243D01*
X124666712Y-89939242D01*
X124666718Y-89939242D01*
X124865492Y-89878945D01*
X125048683Y-89781027D01*
X125048684Y-89781025D01*
X125048686Y-89781025D01*
X125048686Y-89781024D01*
X125209252Y-89649252D01*
X125341027Y-89488683D01*
X125438945Y-89305492D01*
X125499242Y-89106718D01*
X125499956Y-89099476D01*
X125519602Y-88900003D01*
X125519602Y-88899996D01*
X136100398Y-88899996D01*
X136100398Y-88900003D01*
X136120756Y-89106711D01*
X136181055Y-89305492D01*
X136278974Y-89488686D01*
X136410747Y-89649252D01*
X136571313Y-89781024D01*
X136571313Y-89781025D01*
X136571317Y-89781027D01*
X136754508Y-89878945D01*
X136953282Y-89939242D01*
X136953286Y-89939242D01*
X136953288Y-89939243D01*
X137159997Y-89959602D01*
X137160000Y-89959602D01*
X137160003Y-89959602D01*
X137366711Y-89939243D01*
X137366712Y-89939242D01*
X137366718Y-89939242D01*
X137565492Y-89878945D01*
X137748683Y-89781027D01*
X137748684Y-89781025D01*
X137748686Y-89781025D01*
X137748686Y-89781024D01*
X137909252Y-89649252D01*
X138041027Y-89488683D01*
X138138945Y-89305492D01*
X138199242Y-89106718D01*
X138199956Y-89099476D01*
X138219602Y-88900003D01*
X138219602Y-88899996D01*
X138199243Y-88693288D01*
X138199242Y-88693286D01*
X138199242Y-88693282D01*
X138138945Y-88494508D01*
X138041027Y-88311317D01*
X138041025Y-88311313D01*
X137909252Y-88150747D01*
X137748686Y-88018975D01*
X137748686Y-88018974D01*
X137565492Y-87921055D01*
X137366711Y-87860756D01*
X137160003Y-87840398D01*
X137159997Y-87840398D01*
X136953288Y-87860756D01*
X136754507Y-87921055D01*
X136571313Y-88018974D01*
X136571313Y-88018975D01*
X136410747Y-88150747D01*
X136278975Y-88311313D01*
X136278974Y-88311313D01*
X136181055Y-88494507D01*
X136120756Y-88693288D01*
X136100398Y-88899996D01*
X125519602Y-88899996D01*
X125499243Y-88693288D01*
X125499242Y-88693286D01*
X125499242Y-88693282D01*
X125438945Y-88494508D01*
X125341027Y-88311317D01*
X125341025Y-88311313D01*
X125209252Y-88150747D01*
X125048686Y-88018975D01*
X125048686Y-88018974D01*
X124865492Y-87921055D01*
X124666711Y-87860756D01*
X124460003Y-87840398D01*
X124459997Y-87840398D01*
X124253288Y-87860756D01*
X124054507Y-87921055D01*
X123871313Y-88018974D01*
X123871313Y-88018975D01*
X123710747Y-88150747D01*
X123578975Y-88311313D01*
X123578974Y-88311313D01*
X123481055Y-88494507D01*
X123420756Y-88693288D01*
X123400398Y-88899996D01*
X122979602Y-88899996D01*
X122959243Y-88693288D01*
X122959242Y-88693286D01*
X122959242Y-88693282D01*
X122898945Y-88494508D01*
X122801027Y-88311317D01*
X122801025Y-88311313D01*
X122669252Y-88150747D01*
X122508686Y-88018975D01*
X122508686Y-88018974D01*
X122325492Y-87921055D01*
X122126711Y-87860756D01*
X121920003Y-87840398D01*
X121919997Y-87840398D01*
X121713288Y-87860756D01*
X121514507Y-87921055D01*
X121331313Y-88018974D01*
X121331313Y-88018975D01*
X121170747Y-88150747D01*
X121038975Y-88311313D01*
X121038974Y-88311313D01*
X120941055Y-88494507D01*
X120896575Y-88641141D01*
X120857660Y-88700523D01*
X120792818Y-88729439D01*
X120722637Y-88718708D01*
X120669399Y-88671738D01*
X120650000Y-88604566D01*
X120650000Y-86655433D01*
X120670002Y-86587312D01*
X120723658Y-86540819D01*
X120793932Y-86530715D01*
X120858512Y-86560209D01*
X120896573Y-86618856D01*
X120941055Y-86765492D01*
X121038974Y-86948686D01*
X121170747Y-87109252D01*
X121331313Y-87241024D01*
X121331313Y-87241025D01*
X121331317Y-87241027D01*
X121514508Y-87338945D01*
X121713282Y-87399242D01*
X121713286Y-87399242D01*
X121713288Y-87399243D01*
X121919997Y-87419602D01*
X121920000Y-87419602D01*
X121920003Y-87419602D01*
X122126711Y-87399243D01*
X122126712Y-87399242D01*
X122126718Y-87399242D01*
X122325492Y-87338945D01*
X122508683Y-87241027D01*
X122508684Y-87241025D01*
X122508686Y-87241025D01*
X122508686Y-87241024D01*
X122669252Y-87109252D01*
X122801027Y-86948683D01*
X122898945Y-86765492D01*
X122959242Y-86566718D01*
X122959956Y-86559476D01*
X122979602Y-86360003D01*
X122979602Y-86359996D01*
X123400398Y-86359996D01*
X123400398Y-86360003D01*
X123420756Y-86566711D01*
X123481055Y-86765492D01*
X123578974Y-86948686D01*
X123710747Y-87109252D01*
X123871313Y-87241024D01*
X123871313Y-87241025D01*
X123871317Y-87241027D01*
X124054508Y-87338945D01*
X124253282Y-87399242D01*
X124253286Y-87399242D01*
X124253288Y-87399243D01*
X124459997Y-87419602D01*
X124460000Y-87419602D01*
X124460003Y-87419602D01*
X124666711Y-87399243D01*
X124666712Y-87399242D01*
X124666718Y-87399242D01*
X124865492Y-87338945D01*
X125048683Y-87241027D01*
X125048684Y-87241025D01*
X125048686Y-87241025D01*
X125048686Y-87241024D01*
X125209252Y-87109252D01*
X125341027Y-86948683D01*
X125438945Y-86765492D01*
X125499242Y-86566718D01*
X125499956Y-86559476D01*
X125519602Y-86360003D01*
X125519602Y-86359996D01*
X136100398Y-86359996D01*
X136100398Y-86360003D01*
X136120756Y-86566711D01*
X136181055Y-86765492D01*
X136278974Y-86948686D01*
X136410747Y-87109252D01*
X136571313Y-87241024D01*
X136571313Y-87241025D01*
X136571317Y-87241027D01*
X136754508Y-87338945D01*
X136953282Y-87399242D01*
X136953286Y-87399242D01*
X136953288Y-87399243D01*
X137159997Y-87419602D01*
X137160000Y-87419602D01*
X137160003Y-87419602D01*
X137366711Y-87399243D01*
X137366712Y-87399242D01*
X137366718Y-87399242D01*
X137565492Y-87338945D01*
X137748683Y-87241027D01*
X137748684Y-87241025D01*
X137748686Y-87241025D01*
X137748686Y-87241024D01*
X137909252Y-87109252D01*
X138041027Y-86948683D01*
X138138945Y-86765492D01*
X138199242Y-86566718D01*
X138199956Y-86559476D01*
X138219602Y-86360003D01*
X138219602Y-86359996D01*
X138199243Y-86153288D01*
X138199242Y-86153286D01*
X138199242Y-86153282D01*
X138138945Y-85954508D01*
X138041027Y-85771317D01*
X138041025Y-85771313D01*
X137909252Y-85610747D01*
X137748686Y-85478975D01*
X137748686Y-85478974D01*
X137565492Y-85381055D01*
X137366711Y-85320756D01*
X137160003Y-85300398D01*
X137159997Y-85300398D01*
X136953288Y-85320756D01*
X136754507Y-85381055D01*
X136571313Y-85478974D01*
X136571313Y-85478975D01*
X136410747Y-85610747D01*
X136278975Y-85771313D01*
X136278974Y-85771313D01*
X136181055Y-85954507D01*
X136120756Y-86153288D01*
X136100398Y-86359996D01*
X125519602Y-86359996D01*
X125499243Y-86153288D01*
X125499242Y-86153286D01*
X125499242Y-86153282D01*
X125438945Y-85954508D01*
X125341027Y-85771317D01*
X125341025Y-85771313D01*
X125209252Y-85610747D01*
X125048686Y-85478975D01*
X125048686Y-85478974D01*
X124865492Y-85381055D01*
X124666711Y-85320756D01*
X124460003Y-85300398D01*
X124459997Y-85300398D01*
X124253288Y-85320756D01*
X124054507Y-85381055D01*
X123871313Y-85478974D01*
X123871313Y-85478975D01*
X123710747Y-85610747D01*
X123578975Y-85771313D01*
X123578974Y-85771313D01*
X123481055Y-85954507D01*
X123420756Y-86153288D01*
X123400398Y-86359996D01*
X122979602Y-86359996D01*
X122959243Y-86153288D01*
X122959242Y-86153286D01*
X122959242Y-86153282D01*
X122898945Y-85954508D01*
X122801027Y-85771317D01*
X122801025Y-85771313D01*
X122669252Y-85610747D01*
X122508686Y-85478975D01*
X122508686Y-85478974D01*
X122325492Y-85381055D01*
X122126711Y-85320756D01*
X121920003Y-85300398D01*
X121919997Y-85300398D01*
X121713288Y-85320756D01*
X121514507Y-85381055D01*
X121331313Y-85478974D01*
X121331313Y-85478975D01*
X121170747Y-85610747D01*
X121038975Y-85771313D01*
X121038974Y-85771313D01*
X120941055Y-85954507D01*
X120896575Y-86101141D01*
X120857660Y-86160523D01*
X120792818Y-86189439D01*
X120722637Y-86178708D01*
X120669399Y-86131738D01*
X120650000Y-86064566D01*
X120650000Y-84115433D01*
X120670002Y-84047312D01*
X120723658Y-84000819D01*
X120793932Y-83990715D01*
X120858512Y-84020209D01*
X120896573Y-84078856D01*
X120941055Y-84225492D01*
X121038974Y-84408686D01*
X121170747Y-84569252D01*
X121331313Y-84701024D01*
X121331313Y-84701025D01*
X121331317Y-84701027D01*
X121514508Y-84798945D01*
X121713282Y-84859242D01*
X121713286Y-84859242D01*
X121713288Y-84859243D01*
X121919997Y-84879602D01*
X121920000Y-84879602D01*
X121920003Y-84879602D01*
X122126711Y-84859243D01*
X122126712Y-84859242D01*
X122126718Y-84859242D01*
X122325492Y-84798945D01*
X122508683Y-84701027D01*
X122508684Y-84701025D01*
X122508686Y-84701025D01*
X122508686Y-84701024D01*
X122669252Y-84569252D01*
X122801027Y-84408683D01*
X122898945Y-84225492D01*
X122959242Y-84026718D01*
X122959956Y-84019476D01*
X122979602Y-83820003D01*
X122979602Y-83819996D01*
X123400398Y-83819996D01*
X123400398Y-83820003D01*
X123420756Y-84026711D01*
X123481055Y-84225492D01*
X123578974Y-84408686D01*
X123710747Y-84569252D01*
X123871313Y-84701024D01*
X123871313Y-84701025D01*
X123871317Y-84701027D01*
X124054508Y-84798945D01*
X124253282Y-84859242D01*
X124253286Y-84859242D01*
X124253288Y-84859243D01*
X124459997Y-84879602D01*
X124460000Y-84879602D01*
X124460003Y-84879602D01*
X124666711Y-84859243D01*
X124666712Y-84859242D01*
X124666718Y-84859242D01*
X124865492Y-84798945D01*
X125048683Y-84701027D01*
X125048684Y-84701025D01*
X125048686Y-84701025D01*
X125048686Y-84701024D01*
X125209252Y-84569252D01*
X125341027Y-84408683D01*
X125438945Y-84225492D01*
X125499242Y-84026718D01*
X125499956Y-84019476D01*
X125519602Y-83820003D01*
X125519602Y-83819996D01*
X125499243Y-83613288D01*
X125499242Y-83613286D01*
X125499242Y-83613282D01*
X125438945Y-83414508D01*
X125341027Y-83231317D01*
X125341025Y-83231313D01*
X125209252Y-83070747D01*
X125048686Y-82938975D01*
X125048686Y-82938974D01*
X124865492Y-82841055D01*
X124666711Y-82780756D01*
X124460003Y-82760398D01*
X124459997Y-82760398D01*
X124253288Y-82780756D01*
X124054507Y-82841055D01*
X123871313Y-82938974D01*
X123871313Y-82938975D01*
X123710747Y-83070747D01*
X123578975Y-83231313D01*
X123578974Y-83231313D01*
X123481055Y-83414507D01*
X123420756Y-83613288D01*
X123400398Y-83819996D01*
X122979602Y-83819996D01*
X122959243Y-83613288D01*
X122959242Y-83613286D01*
X122959242Y-83613282D01*
X122898945Y-83414508D01*
X122801027Y-83231317D01*
X122801025Y-83231313D01*
X122669252Y-83070747D01*
X122508686Y-82938975D01*
X122508686Y-82938974D01*
X122325492Y-82841055D01*
X122126711Y-82780756D01*
X121920003Y-82760398D01*
X121919997Y-82760398D01*
X121713288Y-82780756D01*
X121514507Y-82841055D01*
X121331313Y-82938974D01*
X121331313Y-82938975D01*
X121170747Y-83070747D01*
X121038975Y-83231313D01*
X121038974Y-83231313D01*
X120941055Y-83414507D01*
X120896575Y-83561141D01*
X120857660Y-83620523D01*
X120792818Y-83649439D01*
X120722637Y-83638708D01*
X120669399Y-83591738D01*
X120650000Y-83524566D01*
X120650000Y-81575433D01*
X120670002Y-81507312D01*
X120723658Y-81460819D01*
X120793932Y-81450715D01*
X120858512Y-81480209D01*
X120896573Y-81538856D01*
X120939217Y-81679433D01*
X120941055Y-81685492D01*
X121038974Y-81868686D01*
X121170747Y-82029252D01*
X121331313Y-82161024D01*
X121331313Y-82161025D01*
X121331317Y-82161027D01*
X121514508Y-82258945D01*
X121713282Y-82319242D01*
X121713286Y-82319242D01*
X121713288Y-82319243D01*
X121919997Y-82339602D01*
X121920000Y-82339602D01*
X121920003Y-82339602D01*
X122126711Y-82319243D01*
X122126712Y-82319242D01*
X122126718Y-82319242D01*
X122325492Y-82258945D01*
X122508683Y-82161027D01*
X122508684Y-82161025D01*
X122508686Y-82161025D01*
X122508686Y-82161024D01*
X122669252Y-82029252D01*
X122801027Y-81868683D01*
X122898945Y-81685492D01*
X122959242Y-81486718D01*
X122959707Y-81482003D01*
X122979602Y-81280003D01*
X122979602Y-81279996D01*
X122959243Y-81073288D01*
X122959242Y-81073286D01*
X122959242Y-81073282D01*
X122898945Y-80874508D01*
X122801027Y-80691317D01*
X122801025Y-80691313D01*
X122669252Y-80530747D01*
X122508686Y-80398975D01*
X122508686Y-80398974D01*
X122325492Y-80301055D01*
X122187843Y-80259300D01*
X122126718Y-80240758D01*
X122126717Y-80240757D01*
X122126711Y-80240756D01*
X121920003Y-80220398D01*
X121919997Y-80220398D01*
X121713288Y-80240756D01*
X121514507Y-80301055D01*
X121331313Y-80398974D01*
X121331313Y-80398975D01*
X121170747Y-80530747D01*
X121038975Y-80691313D01*
X121038974Y-80691313D01*
X120941055Y-80874507D01*
X120896575Y-81021141D01*
X120857660Y-81080523D01*
X120792818Y-81109439D01*
X120722637Y-81098708D01*
X120669399Y-81051738D01*
X120650000Y-80984566D01*
X120650000Y-79035433D01*
X120670002Y-78967312D01*
X120723658Y-78920819D01*
X120793932Y-78910715D01*
X120858512Y-78940209D01*
X120896573Y-78998856D01*
X120921016Y-79079432D01*
X120941055Y-79145492D01*
X121038974Y-79328686D01*
X121170747Y-79489252D01*
X121331313Y-79621024D01*
X121331313Y-79621025D01*
X121331317Y-79621027D01*
X121514508Y-79718945D01*
X121713282Y-79779242D01*
X121713286Y-79779242D01*
X121713288Y-79779243D01*
X121919997Y-79799602D01*
X121920000Y-79799602D01*
X121920003Y-79799602D01*
X122126711Y-79779243D01*
X122126712Y-79779242D01*
X122126718Y-79779242D01*
X122325492Y-79718945D01*
X122508683Y-79621027D01*
X122508684Y-79621025D01*
X122508686Y-79621025D01*
X122508686Y-79621024D01*
X122669252Y-79489252D01*
X122801027Y-79328683D01*
X122898945Y-79145492D01*
X122959242Y-78946718D01*
X122959956Y-78939476D01*
X122979602Y-78740003D01*
X122979602Y-78739996D01*
X122959243Y-78533288D01*
X122959242Y-78533286D01*
X122959242Y-78533282D01*
X122898945Y-78334508D01*
X122801027Y-78151317D01*
X122801025Y-78151313D01*
X122669252Y-77990747D01*
X122508686Y-77858975D01*
X122508686Y-77858974D01*
X122325492Y-77761055D01*
X122302874Y-77754194D01*
X122126718Y-77700758D01*
X122126717Y-77700757D01*
X122126711Y-77700756D01*
X121920003Y-77680398D01*
X121919997Y-77680398D01*
X121713288Y-77700756D01*
X121514507Y-77761055D01*
X121331313Y-77858974D01*
X121331313Y-77858975D01*
X121170747Y-77990747D01*
X121038975Y-78151313D01*
X121038974Y-78151313D01*
X120941055Y-78334507D01*
X120896575Y-78481141D01*
X120857660Y-78540523D01*
X120792818Y-78569439D01*
X120722637Y-78558708D01*
X120669399Y-78511738D01*
X120650000Y-78444566D01*
X120650000Y-76495433D01*
X120670002Y-76427312D01*
X120723658Y-76380819D01*
X120793932Y-76370715D01*
X120858512Y-76400209D01*
X120896573Y-76458856D01*
X120921190Y-76540006D01*
X120941055Y-76605492D01*
X121038974Y-76788686D01*
X121170747Y-76949252D01*
X121331313Y-77081024D01*
X121331313Y-77081025D01*
X121331317Y-77081027D01*
X121514508Y-77178945D01*
X121713282Y-77239242D01*
X121713286Y-77239242D01*
X121713288Y-77239243D01*
X121919997Y-77259602D01*
X121920000Y-77259602D01*
X121920003Y-77259602D01*
X122126711Y-77239243D01*
X122126712Y-77239242D01*
X122126718Y-77239242D01*
X122325492Y-77178945D01*
X122508683Y-77081027D01*
X122508684Y-77081025D01*
X122508686Y-77081025D01*
X122508686Y-77081024D01*
X122669252Y-76949252D01*
X122801027Y-76788683D01*
X122898945Y-76605492D01*
X122959242Y-76406718D01*
X122959956Y-76399476D01*
X122979602Y-76200003D01*
X122979602Y-76199996D01*
X122959243Y-75993288D01*
X122959242Y-75993286D01*
X122959242Y-75993282D01*
X122898945Y-75794508D01*
X122801027Y-75611317D01*
X122801025Y-75611313D01*
X122669252Y-75450747D01*
X122508686Y-75318975D01*
X122508686Y-75318974D01*
X122325492Y-75221055D01*
X122295915Y-75212083D01*
X122126718Y-75160758D01*
X122126717Y-75160757D01*
X122126711Y-75160756D01*
X121920003Y-75140398D01*
X121919997Y-75140398D01*
X121713288Y-75160756D01*
X121514507Y-75221055D01*
X121331313Y-75318974D01*
X121331313Y-75318975D01*
X121170747Y-75450747D01*
X121038975Y-75611313D01*
X121038974Y-75611313D01*
X120941055Y-75794507D01*
X120938467Y-75803038D01*
X120910995Y-75893605D01*
X120896575Y-75941141D01*
X120857660Y-76000523D01*
X120792818Y-76029439D01*
X120722637Y-76018708D01*
X120669399Y-75971738D01*
X120650000Y-75904566D01*
X120650000Y-73955433D01*
X120670002Y-73887312D01*
X120723658Y-73840819D01*
X120793932Y-73830715D01*
X120858512Y-73860209D01*
X120896573Y-73918856D01*
X120941055Y-74065492D01*
X121038974Y-74248686D01*
X121170747Y-74409252D01*
X121331313Y-74541024D01*
X121331313Y-74541025D01*
X121331317Y-74541027D01*
X121514508Y-74638945D01*
X121713282Y-74699242D01*
X121713286Y-74699242D01*
X121713288Y-74699243D01*
X121919997Y-74719602D01*
X121920000Y-74719602D01*
X121920003Y-74719602D01*
X122126711Y-74699243D01*
X122126712Y-74699242D01*
X122126718Y-74699242D01*
X122325492Y-74638945D01*
X122508683Y-74541027D01*
X122508684Y-74541025D01*
X122508686Y-74541025D01*
X122508686Y-74541024D01*
X122669252Y-74409252D01*
X122801027Y-74248683D01*
X122898945Y-74065492D01*
X122959242Y-73866718D01*
X122959956Y-73859476D01*
X122979602Y-73660003D01*
X122979602Y-73659996D01*
X122959243Y-73453288D01*
X122959242Y-73453286D01*
X122959242Y-73453282D01*
X122898945Y-73254508D01*
X122801027Y-73071317D01*
X122801025Y-73071313D01*
X122669252Y-72910747D01*
X122508686Y-72778975D01*
X122508686Y-72778974D01*
X122325492Y-72681055D01*
X122264446Y-72662537D01*
X122126718Y-72620758D01*
X122126717Y-72620757D01*
X122126711Y-72620756D01*
X121920003Y-72600398D01*
X121919997Y-72600398D01*
X121713288Y-72620756D01*
X121514507Y-72681055D01*
X121331313Y-72778974D01*
X121331313Y-72778975D01*
X121170747Y-72910747D01*
X121038975Y-73071313D01*
X121038974Y-73071313D01*
X120941055Y-73254507D01*
X120896575Y-73401141D01*
X120857660Y-73460523D01*
X120792818Y-73489439D01*
X120722637Y-73478708D01*
X120669399Y-73431738D01*
X120650000Y-73364566D01*
X120650000Y-71415433D01*
X120670002Y-71347312D01*
X120723658Y-71300819D01*
X120793932Y-71290715D01*
X120858512Y-71320209D01*
X120896573Y-71378856D01*
X120939248Y-71519534D01*
X120941055Y-71525492D01*
X121038974Y-71708686D01*
X121170747Y-71869252D01*
X121331313Y-72001024D01*
X121331313Y-72001025D01*
X121331317Y-72001027D01*
X121514508Y-72098945D01*
X121713282Y-72159242D01*
X121713286Y-72159242D01*
X121713288Y-72159243D01*
X121919997Y-72179602D01*
X121920000Y-72179602D01*
X121920003Y-72179602D01*
X122126711Y-72159243D01*
X122126712Y-72159242D01*
X122126718Y-72159242D01*
X122325492Y-72098945D01*
X122508683Y-72001027D01*
X122508684Y-72001025D01*
X122508686Y-72001025D01*
X122508686Y-72001024D01*
X122669252Y-71869252D01*
X122801027Y-71708683D01*
X122898945Y-71525492D01*
X122959242Y-71326718D01*
X122959672Y-71322360D01*
X122979602Y-71120003D01*
X122979602Y-71119996D01*
X123400398Y-71119996D01*
X123400398Y-71120003D01*
X123420756Y-71326711D01*
X123420757Y-71326717D01*
X123420758Y-71326718D01*
X123459557Y-71454621D01*
X123481055Y-71525492D01*
X123578974Y-71708686D01*
X123710747Y-71869252D01*
X123871313Y-72001024D01*
X123871313Y-72001025D01*
X123871317Y-72001027D01*
X124054508Y-72098945D01*
X124253282Y-72159242D01*
X124253286Y-72159242D01*
X124253288Y-72159243D01*
X124459997Y-72179602D01*
X124460000Y-72179602D01*
X124460003Y-72179602D01*
X124666711Y-72159243D01*
X124666712Y-72159242D01*
X124666718Y-72159242D01*
X124865492Y-72098945D01*
X125048683Y-72001027D01*
X125048684Y-72001025D01*
X125048686Y-72001025D01*
X125048686Y-72001024D01*
X125209252Y-71869252D01*
X125341027Y-71708683D01*
X125438945Y-71525492D01*
X125499242Y-71326718D01*
X125499672Y-71322360D01*
X125519602Y-71120003D01*
X125519602Y-71119996D01*
X125499243Y-70913288D01*
X125499242Y-70913286D01*
X125499242Y-70913282D01*
X125438945Y-70714508D01*
X125350786Y-70549575D01*
X125341025Y-70531313D01*
X125209252Y-70370747D01*
X125048686Y-70238975D01*
X125048686Y-70238974D01*
X124865492Y-70141055D01*
X124666711Y-70080756D01*
X124460003Y-70060398D01*
X124459997Y-70060398D01*
X124253288Y-70080756D01*
X124054507Y-70141055D01*
X123871313Y-70238974D01*
X123871313Y-70238975D01*
X123710747Y-70370747D01*
X123578975Y-70531313D01*
X123578974Y-70531313D01*
X123481055Y-70714507D01*
X123420756Y-70913288D01*
X123400398Y-71119996D01*
X122979602Y-71119996D01*
X122959243Y-70913288D01*
X122959242Y-70913286D01*
X122959242Y-70913282D01*
X122898945Y-70714508D01*
X122810786Y-70549575D01*
X122801025Y-70531313D01*
X122669252Y-70370747D01*
X122508686Y-70238975D01*
X122508686Y-70238974D01*
X122325492Y-70141055D01*
X122126711Y-70080756D01*
X121920003Y-70060398D01*
X121919997Y-70060398D01*
X121713288Y-70080756D01*
X121514507Y-70141055D01*
X121331313Y-70238974D01*
X121331313Y-70238975D01*
X121170747Y-70370747D01*
X121038975Y-70531313D01*
X121038974Y-70531313D01*
X120941055Y-70714507D01*
X120937872Y-70725000D01*
X120910995Y-70813605D01*
X120896575Y-70861141D01*
X120857660Y-70920523D01*
X120792818Y-70949439D01*
X120722637Y-70938708D01*
X120669399Y-70891738D01*
X120650000Y-70824566D01*
X120650000Y-68875433D01*
X120670002Y-68807312D01*
X120723658Y-68760819D01*
X120793932Y-68750715D01*
X120858512Y-68780209D01*
X120896573Y-68838856D01*
X120933734Y-68961357D01*
X120941055Y-68985492D01*
X121038974Y-69168686D01*
X121170747Y-69329252D01*
X121331313Y-69461024D01*
X121331313Y-69461025D01*
X121331317Y-69461027D01*
X121514508Y-69558945D01*
X121713282Y-69619242D01*
X121713286Y-69619242D01*
X121713288Y-69619243D01*
X121919997Y-69639602D01*
X121920000Y-69639602D01*
X121920003Y-69639602D01*
X122126711Y-69619243D01*
X122126712Y-69619242D01*
X122126718Y-69619242D01*
X122325492Y-69558945D01*
X122508683Y-69461027D01*
X122508684Y-69461025D01*
X122508686Y-69461025D01*
X122508686Y-69461024D01*
X122669252Y-69329252D01*
X122801027Y-69168683D01*
X122898945Y-68985492D01*
X122959242Y-68786718D01*
X122959956Y-68779476D01*
X122979602Y-68580003D01*
X122979602Y-68579996D01*
X123400398Y-68579996D01*
X123400398Y-68580003D01*
X123420756Y-68786711D01*
X123481055Y-68985492D01*
X123578974Y-69168686D01*
X123710747Y-69329252D01*
X123871313Y-69461024D01*
X123871313Y-69461025D01*
X123871317Y-69461027D01*
X124054508Y-69558945D01*
X124253282Y-69619242D01*
X124253286Y-69619242D01*
X124253288Y-69619243D01*
X124459997Y-69639602D01*
X124460000Y-69639602D01*
X124460003Y-69639602D01*
X124666711Y-69619243D01*
X124666712Y-69619242D01*
X124666718Y-69619242D01*
X124865492Y-69558945D01*
X125048683Y-69461027D01*
X125048684Y-69461025D01*
X125048686Y-69461025D01*
X125048686Y-69461024D01*
X125209252Y-69329252D01*
X125341027Y-69168683D01*
X125438945Y-68985492D01*
X125499242Y-68786718D01*
X125499956Y-68779476D01*
X125519602Y-68580003D01*
X125519602Y-68579996D01*
X125499243Y-68373288D01*
X125499242Y-68373286D01*
X125499242Y-68373282D01*
X125438945Y-68174508D01*
X125341027Y-67991317D01*
X125341025Y-67991313D01*
X125209252Y-67830747D01*
X125048686Y-67698975D01*
X125048686Y-67698974D01*
X124865492Y-67601055D01*
X124823513Y-67588321D01*
X124666718Y-67540758D01*
X124666717Y-67540757D01*
X124666711Y-67540756D01*
X124460003Y-67520398D01*
X124459997Y-67520398D01*
X124253288Y-67540756D01*
X124054507Y-67601055D01*
X123871313Y-67698974D01*
X123871313Y-67698975D01*
X123710747Y-67830747D01*
X123578975Y-67991313D01*
X123578974Y-67991313D01*
X123481055Y-68174507D01*
X123420756Y-68373288D01*
X123400398Y-68579996D01*
X122979602Y-68579996D01*
X122959243Y-68373288D01*
X122959242Y-68373286D01*
X122959242Y-68373282D01*
X122898945Y-68174508D01*
X122801027Y-67991317D01*
X122801025Y-67991313D01*
X122669252Y-67830747D01*
X122508686Y-67698975D01*
X122508686Y-67698974D01*
X122325492Y-67601055D01*
X122283513Y-67588321D01*
X122126718Y-67540758D01*
X122126717Y-67540757D01*
X122126711Y-67540756D01*
X121920003Y-67520398D01*
X121919997Y-67520398D01*
X121713288Y-67540756D01*
X121514507Y-67601055D01*
X121331313Y-67698974D01*
X121331313Y-67698975D01*
X121170747Y-67830747D01*
X121038975Y-67991313D01*
X121038974Y-67991313D01*
X120941055Y-68174507D01*
X120924303Y-68229733D01*
X120900476Y-68308282D01*
X120896575Y-68321141D01*
X120857660Y-68380523D01*
X120792818Y-68409439D01*
X120722637Y-68398708D01*
X120669399Y-68351738D01*
X120650000Y-68284566D01*
X120650000Y-67010049D01*
X120670002Y-66941928D01*
X120723658Y-66895435D01*
X120793932Y-66885331D01*
X120858512Y-66914825D01*
X120880762Y-66940044D01*
X120904781Y-66975990D01*
X120936516Y-67023484D01*
X121020697Y-67079733D01*
X121020699Y-67079734D01*
X121094933Y-67094500D01*
X122745066Y-67094499D01*
X122745069Y-67094498D01*
X122745073Y-67094498D01*
X122799884Y-67083596D01*
X122819301Y-67079734D01*
X122903484Y-67023484D01*
X122959734Y-66939301D01*
X122974500Y-66865067D01*
X122974499Y-65214934D01*
X122974498Y-65214930D01*
X123405500Y-65214930D01*
X123405500Y-66865063D01*
X123405501Y-66865073D01*
X123420265Y-66939300D01*
X123476516Y-67023484D01*
X123560697Y-67079733D01*
X123560699Y-67079734D01*
X123634933Y-67094500D01*
X125285066Y-67094499D01*
X125285069Y-67094498D01*
X125285073Y-67094498D01*
X125339884Y-67083596D01*
X125359301Y-67079734D01*
X125443484Y-67023484D01*
X125499734Y-66939301D01*
X125514500Y-66865067D01*
X125514500Y-66202000D01*
X128162535Y-66202000D01*
X128699000Y-66202000D01*
X129365000Y-66202000D01*
X129901465Y-66202000D01*
X129860153Y-66059805D01*
X129779773Y-65923890D01*
X129779767Y-65923883D01*
X129668116Y-65812232D01*
X129668109Y-65812226D01*
X129532194Y-65731846D01*
X129380550Y-65687789D01*
X129380544Y-65687788D01*
X129365000Y-65686564D01*
X129365000Y-66202000D01*
X128699000Y-66202000D01*
X128699000Y-65686564D01*
X128683455Y-65687788D01*
X128683449Y-65687789D01*
X128531805Y-65731846D01*
X128395890Y-65812226D01*
X128395883Y-65812232D01*
X128284232Y-65923883D01*
X128284226Y-65923890D01*
X128203846Y-66059805D01*
X128162535Y-66202000D01*
X125514500Y-66202000D01*
X125514499Y-65214934D01*
X125514498Y-65214930D01*
X125514498Y-65214926D01*
X125499734Y-65140699D01*
X125455072Y-65073859D01*
X125443484Y-65056516D01*
X125443462Y-65056501D01*
X125359302Y-65000266D01*
X125285067Y-64985500D01*
X123634936Y-64985500D01*
X123634926Y-64985501D01*
X123560699Y-65000265D01*
X123476515Y-65056516D01*
X123420266Y-65140697D01*
X123405500Y-65214930D01*
X122974498Y-65214930D01*
X122974498Y-65214926D01*
X122959734Y-65140699D01*
X122915072Y-65073859D01*
X122903484Y-65056516D01*
X122903462Y-65056501D01*
X122819302Y-65000266D01*
X122745067Y-64985500D01*
X121094936Y-64985500D01*
X121094926Y-64985501D01*
X121020699Y-65000265D01*
X120936515Y-65056516D01*
X120880764Y-65139952D01*
X120826287Y-65185479D01*
X120755844Y-65194326D01*
X120691800Y-65163685D01*
X120654489Y-65103282D01*
X120650000Y-65069949D01*
X120650000Y-64769000D01*
X120670002Y-64700879D01*
X120723658Y-64654386D01*
X120776000Y-64643000D01*
X133589115Y-64643000D01*
X133657236Y-64663002D01*
G37*
%TD.AperFunction*%
%TA.AperFunction,Conductor*%
G36*
X140897362Y-71301291D02*
G01*
X140950601Y-71348260D01*
X140970000Y-71415433D01*
X140970000Y-73364566D01*
X140949998Y-73432687D01*
X140896342Y-73479180D01*
X140826068Y-73489284D01*
X140761488Y-73459790D01*
X140723425Y-73401141D01*
X140686375Y-73279003D01*
X140678945Y-73254508D01*
X140581027Y-73071317D01*
X140581025Y-73071313D01*
X140449252Y-72910747D01*
X140288686Y-72778975D01*
X140288686Y-72778974D01*
X140105492Y-72681055D01*
X140044446Y-72662537D01*
X139906718Y-72620758D01*
X139906717Y-72620757D01*
X139906711Y-72620756D01*
X139700003Y-72600398D01*
X139699997Y-72600398D01*
X139493288Y-72620756D01*
X139294507Y-72681055D01*
X139111313Y-72778974D01*
X139111313Y-72778975D01*
X138950747Y-72910747D01*
X138818975Y-73071313D01*
X138818974Y-73071313D01*
X138721055Y-73254507D01*
X138660756Y-73453288D01*
X138640398Y-73659996D01*
X138640398Y-73660003D01*
X138660756Y-73866711D01*
X138721055Y-74065492D01*
X138818974Y-74248686D01*
X138950747Y-74409252D01*
X139111313Y-74541024D01*
X139111313Y-74541025D01*
X139111317Y-74541027D01*
X139294508Y-74638945D01*
X139493282Y-74699242D01*
X139493286Y-74699242D01*
X139493288Y-74699243D01*
X139699997Y-74719602D01*
X139700000Y-74719602D01*
X139700003Y-74719602D01*
X139906711Y-74699243D01*
X139906712Y-74699242D01*
X139906718Y-74699242D01*
X140105492Y-74638945D01*
X140288683Y-74541027D01*
X140288684Y-74541025D01*
X140288686Y-74541025D01*
X140288686Y-74541024D01*
X140449252Y-74409252D01*
X140581027Y-74248683D01*
X140678945Y-74065492D01*
X140723426Y-73918856D01*
X140762340Y-73859476D01*
X140827181Y-73830561D01*
X140897362Y-73841291D01*
X140950601Y-73888260D01*
X140970000Y-73955433D01*
X140970000Y-75904566D01*
X140949998Y-75972687D01*
X140896342Y-76019180D01*
X140826068Y-76029284D01*
X140761488Y-75999790D01*
X140723425Y-75941141D01*
X140712330Y-75904566D01*
X140678945Y-75794508D01*
X140581027Y-75611317D01*
X140581025Y-75611313D01*
X140449252Y-75450747D01*
X140288686Y-75318975D01*
X140288686Y-75318974D01*
X140105492Y-75221055D01*
X140075915Y-75212083D01*
X139906718Y-75160758D01*
X139906717Y-75160757D01*
X139906711Y-75160756D01*
X139700003Y-75140398D01*
X139699997Y-75140398D01*
X139493288Y-75160756D01*
X139294507Y-75221055D01*
X139111313Y-75318974D01*
X139111313Y-75318975D01*
X138950747Y-75450747D01*
X138818975Y-75611313D01*
X138818974Y-75611313D01*
X138721055Y-75794507D01*
X138660756Y-75993288D01*
X138640398Y-76199996D01*
X138640398Y-76200003D01*
X138660756Y-76406711D01*
X138660757Y-76406717D01*
X138660758Y-76406718D01*
X138701190Y-76540006D01*
X138721055Y-76605492D01*
X138818974Y-76788686D01*
X138950747Y-76949252D01*
X139111313Y-77081024D01*
X139111313Y-77081025D01*
X139111317Y-77081027D01*
X139294508Y-77178945D01*
X139493282Y-77239242D01*
X139493286Y-77239242D01*
X139493288Y-77239243D01*
X139699997Y-77259602D01*
X139700000Y-77259602D01*
X139700003Y-77259602D01*
X139906711Y-77239243D01*
X139906712Y-77239242D01*
X139906718Y-77239242D01*
X140105492Y-77178945D01*
X140288683Y-77081027D01*
X140288684Y-77081025D01*
X140288686Y-77081025D01*
X140288686Y-77081024D01*
X140449252Y-76949252D01*
X140581027Y-76788683D01*
X140678945Y-76605492D01*
X140723426Y-76458856D01*
X140762340Y-76399476D01*
X140827181Y-76370561D01*
X140897362Y-76381291D01*
X140950601Y-76428260D01*
X140970000Y-76495433D01*
X140970000Y-78444566D01*
X140949998Y-78512687D01*
X140896342Y-78559180D01*
X140826068Y-78569284D01*
X140761488Y-78539790D01*
X140723425Y-78481141D01*
X140712330Y-78444566D01*
X140678945Y-78334508D01*
X140581027Y-78151317D01*
X140581025Y-78151313D01*
X140449252Y-77990747D01*
X140288686Y-77858975D01*
X140288686Y-77858974D01*
X140105492Y-77761055D01*
X140082874Y-77754194D01*
X139906718Y-77700758D01*
X139906717Y-77700757D01*
X139906711Y-77700756D01*
X139700003Y-77680398D01*
X139699997Y-77680398D01*
X139493288Y-77700756D01*
X139294507Y-77761055D01*
X139111313Y-77858974D01*
X139111313Y-77858975D01*
X138950747Y-77990747D01*
X138818975Y-78151313D01*
X138818974Y-78151313D01*
X138721055Y-78334507D01*
X138660756Y-78533288D01*
X138640398Y-78739996D01*
X138640398Y-78740003D01*
X138660756Y-78946711D01*
X138721055Y-79145492D01*
X138818974Y-79328686D01*
X138950747Y-79489252D01*
X139111313Y-79621024D01*
X139111313Y-79621025D01*
X139111317Y-79621027D01*
X139294508Y-79718945D01*
X139493282Y-79779242D01*
X139493286Y-79779242D01*
X139493288Y-79779243D01*
X139699997Y-79799602D01*
X139700000Y-79799602D01*
X139700003Y-79799602D01*
X139906711Y-79779243D01*
X139906712Y-79779242D01*
X139906718Y-79779242D01*
X140105492Y-79718945D01*
X140288683Y-79621027D01*
X140288684Y-79621025D01*
X140288686Y-79621025D01*
X140288686Y-79621024D01*
X140449252Y-79489252D01*
X140581027Y-79328683D01*
X140678945Y-79145492D01*
X140723426Y-78998856D01*
X140762340Y-78939476D01*
X140827181Y-78910561D01*
X140897362Y-78921291D01*
X140950601Y-78968260D01*
X140970000Y-79035433D01*
X140970000Y-80984566D01*
X140949998Y-81052687D01*
X140896342Y-81099180D01*
X140826068Y-81109284D01*
X140761488Y-81079790D01*
X140723425Y-81021141D01*
X140703339Y-80954925D01*
X140678945Y-80874508D01*
X140581027Y-80691317D01*
X140581025Y-80691313D01*
X140449252Y-80530747D01*
X140288686Y-80398975D01*
X140288686Y-80398974D01*
X140105492Y-80301055D01*
X139967843Y-80259300D01*
X139906718Y-80240758D01*
X139906717Y-80240757D01*
X139906711Y-80240756D01*
X139700003Y-80220398D01*
X139699997Y-80220398D01*
X139493288Y-80240756D01*
X139294507Y-80301055D01*
X139111313Y-80398974D01*
X139111313Y-80398975D01*
X138950747Y-80530747D01*
X138818975Y-80691313D01*
X138818974Y-80691313D01*
X138721055Y-80874507D01*
X138660756Y-81073288D01*
X138640398Y-81279996D01*
X138640398Y-81280003D01*
X138660756Y-81486711D01*
X138660757Y-81486717D01*
X138660758Y-81486718D01*
X138714857Y-81665060D01*
X138721055Y-81685492D01*
X138818974Y-81868686D01*
X138950747Y-82029252D01*
X139111313Y-82161024D01*
X139111313Y-82161025D01*
X139111317Y-82161027D01*
X139294508Y-82258945D01*
X139493282Y-82319242D01*
X139493286Y-82319242D01*
X139493288Y-82319243D01*
X139699997Y-82339602D01*
X139700000Y-82339602D01*
X139700003Y-82339602D01*
X139906711Y-82319243D01*
X139906712Y-82319242D01*
X139906718Y-82319242D01*
X140105492Y-82258945D01*
X140288683Y-82161027D01*
X140288684Y-82161025D01*
X140288686Y-82161025D01*
X140288686Y-82161024D01*
X140449252Y-82029252D01*
X140581027Y-81868683D01*
X140678945Y-81685492D01*
X140723426Y-81538856D01*
X140762340Y-81479476D01*
X140827181Y-81450561D01*
X140897362Y-81461291D01*
X140950601Y-81508260D01*
X140970000Y-81575433D01*
X140970000Y-83524566D01*
X140949998Y-83592687D01*
X140896342Y-83639180D01*
X140826068Y-83649284D01*
X140761488Y-83619790D01*
X140723425Y-83561141D01*
X140712330Y-83524566D01*
X140678945Y-83414508D01*
X140581027Y-83231317D01*
X140581025Y-83231313D01*
X140449252Y-83070747D01*
X140288686Y-82938975D01*
X140288686Y-82938974D01*
X140105492Y-82841055D01*
X139906711Y-82780756D01*
X139700003Y-82760398D01*
X139699997Y-82760398D01*
X139493288Y-82780756D01*
X139294507Y-82841055D01*
X139111316Y-82938973D01*
X138991994Y-83036899D01*
X138926646Y-83064653D01*
X138912060Y-83065500D01*
X137947940Y-83065500D01*
X137879819Y-83045498D01*
X137868006Y-83036899D01*
X137762727Y-82950499D01*
X137748683Y-82938973D01*
X137565492Y-82841055D01*
X137366718Y-82780758D01*
X137366717Y-82780757D01*
X137366711Y-82780756D01*
X137160003Y-82760398D01*
X137159997Y-82760398D01*
X136953288Y-82780756D01*
X136754507Y-82841055D01*
X136571319Y-82938971D01*
X136557272Y-82950499D01*
X136535363Y-82968480D01*
X136525243Y-82976785D01*
X136459895Y-83004538D01*
X136389917Y-82992556D01*
X136356215Y-82968480D01*
X134667731Y-81279996D01*
X136100398Y-81279996D01*
X136100398Y-81280003D01*
X136120756Y-81486711D01*
X136120757Y-81486717D01*
X136120758Y-81486718D01*
X136174857Y-81665060D01*
X136181055Y-81685492D01*
X136278974Y-81868686D01*
X136410747Y-82029252D01*
X136571313Y-82161024D01*
X136571313Y-82161025D01*
X136571317Y-82161027D01*
X136754508Y-82258945D01*
X136953282Y-82319242D01*
X136953286Y-82319242D01*
X136953288Y-82319243D01*
X137159997Y-82339602D01*
X137160000Y-82339602D01*
X137160003Y-82339602D01*
X137366711Y-82319243D01*
X137366712Y-82319242D01*
X137366718Y-82319242D01*
X137565492Y-82258945D01*
X137748683Y-82161027D01*
X137748684Y-82161025D01*
X137748686Y-82161025D01*
X137748686Y-82161024D01*
X137909252Y-82029252D01*
X138041027Y-81868683D01*
X138138945Y-81685492D01*
X138199242Y-81486718D01*
X138199707Y-81482003D01*
X138219602Y-81280003D01*
X138219602Y-81279996D01*
X138199243Y-81073288D01*
X138199242Y-81073286D01*
X138199242Y-81073282D01*
X138138945Y-80874508D01*
X138041027Y-80691317D01*
X138041025Y-80691313D01*
X137909252Y-80530747D01*
X137748686Y-80398975D01*
X137748686Y-80398974D01*
X137565492Y-80301055D01*
X137427843Y-80259300D01*
X137366718Y-80240758D01*
X137366717Y-80240757D01*
X137366711Y-80240756D01*
X137160003Y-80220398D01*
X137159997Y-80220398D01*
X136953288Y-80240756D01*
X136754507Y-80301055D01*
X136571313Y-80398974D01*
X136571313Y-80398975D01*
X136410747Y-80530747D01*
X136278975Y-80691313D01*
X136278974Y-80691313D01*
X136181055Y-80874507D01*
X136120756Y-81073288D01*
X136100398Y-81279996D01*
X134667731Y-81279996D01*
X134577905Y-81190170D01*
X134543879Y-81127858D01*
X134543522Y-81124539D01*
X135207000Y-81124539D01*
X135305629Y-81111556D01*
X135305633Y-81111554D01*
X135451588Y-81051100D01*
X135576925Y-80954925D01*
X135673100Y-80829588D01*
X135733555Y-80683631D01*
X135736667Y-80660000D01*
X135207000Y-80660000D01*
X135207000Y-81124539D01*
X134543522Y-81124539D01*
X134541000Y-81101075D01*
X134541000Y-80660000D01*
X134099925Y-80660000D01*
X134031804Y-80639998D01*
X134010830Y-80623095D01*
X133667905Y-80280170D01*
X133667902Y-80280166D01*
X133660717Y-80272981D01*
X133647033Y-80259297D01*
X133613008Y-80196988D01*
X133618071Y-80126172D01*
X133622925Y-80114874D01*
X133650461Y-80058550D01*
X133660500Y-79989646D01*
X133660500Y-79722354D01*
X133650461Y-79653450D01*
X133622930Y-79597135D01*
X133610982Y-79527154D01*
X133638766Y-79461819D01*
X133647028Y-79452706D01*
X133660717Y-79439019D01*
X133660717Y-79439018D01*
X133671085Y-79428651D01*
X133671093Y-79428641D01*
X134010684Y-79089049D01*
X134072994Y-79055025D01*
X134143809Y-79060090D01*
X134200645Y-79102637D01*
X134201156Y-79103324D01*
X134260513Y-79183750D01*
X134273991Y-79202011D01*
X134384225Y-79283368D01*
X134384232Y-79283371D01*
X134443228Y-79304015D01*
X134500920Y-79345393D01*
X134527082Y-79411393D01*
X134513409Y-79481061D01*
X134464242Y-79532277D01*
X134449830Y-79539353D01*
X134296411Y-79602899D01*
X134171074Y-79699074D01*
X134074899Y-79824411D01*
X134014444Y-79970368D01*
X134011333Y-79993999D01*
X134011333Y-79994000D01*
X135736667Y-79994000D01*
X135736666Y-79993999D01*
X135733555Y-79970368D01*
X135673100Y-79824411D01*
X135576925Y-79699074D01*
X135451588Y-79602899D01*
X135298169Y-79539353D01*
X135242888Y-79494805D01*
X135220466Y-79427442D01*
X135238024Y-79358651D01*
X135289985Y-79310272D01*
X135304770Y-79304015D01*
X135363773Y-79283369D01*
X135474010Y-79202010D01*
X135495819Y-79172460D01*
X135543630Y-79107679D01*
X135600175Y-79064746D01*
X135645009Y-79056500D01*
X136060611Y-79056500D01*
X136128732Y-79076502D01*
X136175225Y-79130158D01*
X136180688Y-79144608D01*
X136181054Y-79145491D01*
X136278974Y-79328686D01*
X136410747Y-79489252D01*
X136571313Y-79621024D01*
X136571313Y-79621025D01*
X136571317Y-79621027D01*
X136754508Y-79718945D01*
X136953282Y-79779242D01*
X136953286Y-79779242D01*
X136953288Y-79779243D01*
X137159997Y-79799602D01*
X137160000Y-79799602D01*
X137160003Y-79799602D01*
X137366711Y-79779243D01*
X137366712Y-79779242D01*
X137366718Y-79779242D01*
X137565492Y-79718945D01*
X137748683Y-79621027D01*
X137748684Y-79621025D01*
X137748686Y-79621025D01*
X137748686Y-79621024D01*
X137909252Y-79489252D01*
X138041027Y-79328683D01*
X138138945Y-79145492D01*
X138199242Y-78946718D01*
X138199956Y-78939476D01*
X138219602Y-78740003D01*
X138219602Y-78739996D01*
X138199243Y-78533288D01*
X138199242Y-78533286D01*
X138199242Y-78533282D01*
X138138945Y-78334508D01*
X138041027Y-78151317D01*
X138041025Y-78151313D01*
X137909252Y-77990747D01*
X137748686Y-77858975D01*
X137748686Y-77858974D01*
X137565492Y-77761055D01*
X137542874Y-77754194D01*
X137366718Y-77700758D01*
X137366717Y-77700757D01*
X137366711Y-77700756D01*
X137160003Y-77680398D01*
X137159997Y-77680398D01*
X136953288Y-77700756D01*
X136754507Y-77761055D01*
X136571313Y-77858974D01*
X136571313Y-77858975D01*
X136410747Y-77990747D01*
X136278975Y-78151313D01*
X136278974Y-78151313D01*
X136236437Y-78230896D01*
X136186685Y-78281544D01*
X136125315Y-78297500D01*
X135645009Y-78297500D01*
X135576888Y-78277498D01*
X135543630Y-78246321D01*
X135474010Y-78151989D01*
X135363774Y-78070631D01*
X135363767Y-78070628D01*
X135234453Y-78025379D01*
X135234455Y-78025379D01*
X135209889Y-78023075D01*
X135203749Y-78022500D01*
X135203748Y-78022500D01*
X134544259Y-78022500D01*
X134544244Y-78022501D01*
X134513547Y-78025379D01*
X134513544Y-78025380D01*
X134405115Y-78063321D01*
X134334211Y-78066940D01*
X134272605Y-78031651D01*
X134239859Y-77968658D01*
X134237500Y-77944392D01*
X134237500Y-77657125D01*
X134237501Y-77657112D01*
X134237501Y-77547039D01*
X134229608Y-77517581D01*
X134211639Y-77450519D01*
X134183411Y-77401627D01*
X134161678Y-77363984D01*
X134161670Y-77363974D01*
X134086630Y-77288934D01*
X134086607Y-77288913D01*
X133533864Y-76736170D01*
X133533852Y-76736156D01*
X133456025Y-76658329D01*
X133456015Y-76658321D01*
X133369480Y-76608361D01*
X133358772Y-76605492D01*
X133349084Y-76602896D01*
X133272965Y-76582499D01*
X133272962Y-76582499D01*
X133173038Y-76582499D01*
X133165320Y-76582499D01*
X133165304Y-76582500D01*
X132690467Y-76582500D01*
X132622346Y-76562498D01*
X132575853Y-76508842D01*
X132565749Y-76438568D01*
X132572655Y-76411819D01*
X132573535Y-76409500D01*
X132593149Y-76357782D01*
X132593149Y-76357781D01*
X132593150Y-76357779D01*
X132612307Y-76200003D01*
X132612307Y-76199996D01*
X132593150Y-76042220D01*
X132566419Y-75971738D01*
X132560450Y-75956000D01*
X132868500Y-75956000D01*
X133353824Y-75956000D01*
X133353840Y-75955999D01*
X133413371Y-75949599D01*
X133548089Y-75899352D01*
X133663189Y-75813189D01*
X133749352Y-75698089D01*
X133799599Y-75563371D01*
X133800391Y-75556001D01*
X133800390Y-75556000D01*
X132868500Y-75556000D01*
X132868500Y-75956000D01*
X132560450Y-75956000D01*
X132536787Y-75893605D01*
X132536785Y-75893603D01*
X132536785Y-75893601D01*
X132490804Y-75826986D01*
X132468568Y-75759561D01*
X132468500Y-75755410D01*
X132468500Y-75286500D01*
X132488502Y-75218379D01*
X132542158Y-75171886D01*
X132594500Y-75160500D01*
X133339640Y-75160500D01*
X133339646Y-75160500D01*
X133361500Y-75157316D01*
X133379665Y-75156000D01*
X133800391Y-75156000D01*
X133800391Y-75155998D01*
X133799599Y-75148628D01*
X133749352Y-75013910D01*
X133685032Y-74927989D01*
X133660221Y-74861469D01*
X133660230Y-74843368D01*
X133660500Y-74839644D01*
X133660500Y-74572360D01*
X133660500Y-74572356D01*
X133660500Y-74572354D01*
X133650461Y-74503450D01*
X133618464Y-74438000D01*
X134011333Y-74438000D01*
X134014444Y-74461631D01*
X134074899Y-74607588D01*
X134171074Y-74732925D01*
X134296411Y-74829100D01*
X134449830Y-74892646D01*
X134505111Y-74937193D01*
X134527533Y-75004556D01*
X134509976Y-75073348D01*
X134458014Y-75121727D01*
X134443230Y-75127984D01*
X134384228Y-75148630D01*
X134384225Y-75148631D01*
X134273989Y-75229989D01*
X134192631Y-75340225D01*
X134192628Y-75340232D01*
X134147379Y-75469545D01*
X134144500Y-75500248D01*
X134144500Y-76009740D01*
X134144501Y-76009755D01*
X134147379Y-76040452D01*
X134147380Y-76040455D01*
X134192628Y-76169767D01*
X134192631Y-76169774D01*
X134273989Y-76280010D01*
X134384225Y-76361368D01*
X134384232Y-76361371D01*
X134513546Y-76406620D01*
X134513549Y-76406621D01*
X134544251Y-76409500D01*
X135203748Y-76409499D01*
X135234451Y-76406621D01*
X135363773Y-76361369D01*
X135474010Y-76280010D01*
X135522559Y-76214229D01*
X135543630Y-76185679D01*
X135600175Y-76142746D01*
X135645009Y-76134500D01*
X135979747Y-76134500D01*
X136047868Y-76154502D01*
X136094361Y-76208158D01*
X136105140Y-76248150D01*
X136120756Y-76406711D01*
X136120757Y-76406717D01*
X136120758Y-76406718D01*
X136161190Y-76540006D01*
X136181055Y-76605492D01*
X136278974Y-76788686D01*
X136410747Y-76949252D01*
X136571313Y-77081024D01*
X136571313Y-77081025D01*
X136571317Y-77081027D01*
X136754508Y-77178945D01*
X136953282Y-77239242D01*
X136953286Y-77239242D01*
X136953288Y-77239243D01*
X137159997Y-77259602D01*
X137160000Y-77259602D01*
X137160003Y-77259602D01*
X137366711Y-77239243D01*
X137366712Y-77239242D01*
X137366718Y-77239242D01*
X137565492Y-77178945D01*
X137748683Y-77081027D01*
X137748684Y-77081025D01*
X137748686Y-77081025D01*
X137748686Y-77081024D01*
X137909252Y-76949252D01*
X138041027Y-76788683D01*
X138138945Y-76605492D01*
X138199242Y-76406718D01*
X138199956Y-76399476D01*
X138219602Y-76200003D01*
X138219602Y-76199996D01*
X138199243Y-75993288D01*
X138199242Y-75993286D01*
X138199242Y-75993282D01*
X138138945Y-75794508D01*
X138041027Y-75611317D01*
X138041025Y-75611313D01*
X137909252Y-75450747D01*
X137748686Y-75318975D01*
X137748686Y-75318974D01*
X137565492Y-75221055D01*
X137535915Y-75212083D01*
X137366718Y-75160758D01*
X137366717Y-75160757D01*
X137366711Y-75160756D01*
X137160003Y-75140398D01*
X137159997Y-75140398D01*
X136953288Y-75160756D01*
X136754507Y-75221055D01*
X136571318Y-75318972D01*
X136571314Y-75318974D01*
X136537287Y-75346900D01*
X136471940Y-75374653D01*
X136457355Y-75375500D01*
X135645009Y-75375500D01*
X135576888Y-75355498D01*
X135543630Y-75324321D01*
X135474010Y-75229989D01*
X135363774Y-75148631D01*
X135363769Y-75148629D01*
X135304770Y-75127984D01*
X135247079Y-75086605D01*
X135220916Y-75020605D01*
X135234590Y-74950937D01*
X135283758Y-74899722D01*
X135298169Y-74892646D01*
X135451588Y-74829100D01*
X135576925Y-74732925D01*
X135673100Y-74607588D01*
X135733555Y-74461631D01*
X135736667Y-74438000D01*
X134011333Y-74438000D01*
X133618464Y-74438000D01*
X133617651Y-74436337D01*
X133605703Y-74366356D01*
X133617650Y-74325664D01*
X133650461Y-74258550D01*
X133660500Y-74189646D01*
X133660500Y-73922354D01*
X133657777Y-73903664D01*
X133667750Y-73833372D01*
X133714142Y-73779630D01*
X133782225Y-73759500D01*
X133943280Y-73759500D01*
X133985851Y-73772000D01*
X134561289Y-73772000D01*
X134578908Y-73762379D01*
X134605691Y-73759500D01*
X135142309Y-73759500D01*
X135184880Y-73772000D01*
X135757951Y-73772000D01*
X135769939Y-73764396D01*
X135804719Y-73759501D01*
X135898970Y-73759501D01*
X135898971Y-73759501D01*
X135961318Y-73742794D01*
X136032293Y-73744482D01*
X136091089Y-73784275D01*
X136119039Y-73849539D01*
X136119322Y-73852140D01*
X136120758Y-73866718D01*
X136181055Y-74065492D01*
X136278974Y-74248686D01*
X136410747Y-74409252D01*
X136571313Y-74541024D01*
X136571313Y-74541025D01*
X136571317Y-74541027D01*
X136754508Y-74638945D01*
X136953282Y-74699242D01*
X136953286Y-74699242D01*
X136953288Y-74699243D01*
X137159997Y-74719602D01*
X137160000Y-74719602D01*
X137160003Y-74719602D01*
X137366711Y-74699243D01*
X137366712Y-74699242D01*
X137366718Y-74699242D01*
X137565492Y-74638945D01*
X137748683Y-74541027D01*
X137748684Y-74541025D01*
X137748686Y-74541025D01*
X137748686Y-74541024D01*
X137909252Y-74409252D01*
X138041027Y-74248683D01*
X138138945Y-74065492D01*
X138199242Y-73866718D01*
X138199956Y-73859476D01*
X138219602Y-73660003D01*
X138219602Y-73659996D01*
X138199243Y-73453288D01*
X138199242Y-73453286D01*
X138199242Y-73453282D01*
X138138945Y-73254508D01*
X138041027Y-73071317D01*
X138041025Y-73071313D01*
X137909255Y-72910750D01*
X137832671Y-72847900D01*
X137792702Y-72789222D01*
X137790801Y-72718251D01*
X137827572Y-72657519D01*
X137891340Y-72626307D01*
X137912604Y-72624500D01*
X138517304Y-72624500D01*
X138517320Y-72624501D01*
X138525038Y-72624501D01*
X138624962Y-72624501D01*
X138714912Y-72600398D01*
X138714912Y-72600399D01*
X138714917Y-72600396D01*
X138721482Y-72598638D01*
X138808019Y-72548676D01*
X138878676Y-72478019D01*
X138889043Y-72467652D01*
X138889050Y-72467642D01*
X139212904Y-72143788D01*
X139275214Y-72109764D01*
X139338569Y-72112310D01*
X139474040Y-72153405D01*
X139493285Y-72159243D01*
X139699997Y-72179602D01*
X139700000Y-72179602D01*
X139700003Y-72179602D01*
X139906711Y-72159243D01*
X139906712Y-72159242D01*
X139906718Y-72159242D01*
X140105492Y-72098945D01*
X140288683Y-72001027D01*
X140288684Y-72001025D01*
X140288686Y-72001025D01*
X140288686Y-72001024D01*
X140449252Y-71869252D01*
X140581027Y-71708683D01*
X140678945Y-71525492D01*
X140723426Y-71378856D01*
X140762340Y-71319476D01*
X140827181Y-71290561D01*
X140897362Y-71301291D01*
G37*
%TD.AperFunction*%
%TA.AperFunction,Conductor*%
G36*
X131154292Y-74858922D02*
G01*
X131211128Y-74901469D01*
X131235939Y-74967989D01*
X131231967Y-75009587D01*
X131226499Y-75029993D01*
X131226499Y-75140071D01*
X131226500Y-75140084D01*
X131226500Y-75795303D01*
X131226499Y-75795321D01*
X131226499Y-75902965D01*
X131244928Y-75971738D01*
X131246896Y-75979084D01*
X131252362Y-75999482D01*
X131263462Y-76018708D01*
X131285595Y-76057044D01*
X131302332Y-76126040D01*
X131301557Y-76135229D01*
X131293694Y-76199996D01*
X131293693Y-76200003D01*
X131312850Y-76357780D01*
X131322702Y-76383758D01*
X131328156Y-76454544D01*
X131294474Y-76517043D01*
X131232349Y-76551409D01*
X131161507Y-76546734D01*
X131146339Y-76540008D01*
X131034841Y-76481489D01*
X131034840Y-76481488D01*
X131034839Y-76481488D01*
X130880520Y-76443452D01*
X130880519Y-76443452D01*
X130721577Y-76443452D01*
X130721575Y-76443452D01*
X130567257Y-76481488D01*
X130567250Y-76481491D01*
X130426522Y-76555350D01*
X130426517Y-76555354D01*
X130343389Y-76629000D01*
X130310290Y-76658324D01*
X130307549Y-76660752D01*
X130217263Y-76791553D01*
X130217260Y-76791559D01*
X130160897Y-76940172D01*
X130141741Y-77097948D01*
X130141741Y-77097955D01*
X130160897Y-77255731D01*
X130193426Y-77341500D01*
X130217261Y-77404347D01*
X130307550Y-77535153D01*
X130426519Y-77640551D01*
X130426520Y-77640551D01*
X130426522Y-77640553D01*
X130458073Y-77657112D01*
X130567255Y-77714415D01*
X130721577Y-77752452D01*
X130721578Y-77752452D01*
X130880518Y-77752452D01*
X130880519Y-77752452D01*
X131034841Y-77714415D01*
X131175577Y-77640551D01*
X131294546Y-77535153D01*
X131384835Y-77404347D01*
X131384835Y-77404346D01*
X131389164Y-77398075D01*
X131391426Y-77399636D01*
X131431792Y-77357921D01*
X131493989Y-77341500D01*
X133013616Y-77341500D01*
X133081737Y-77361502D01*
X133102711Y-77378405D01*
X133441595Y-77717289D01*
X133475621Y-77779601D01*
X133478500Y-77806384D01*
X133478500Y-77976101D01*
X133458498Y-78044222D01*
X133404842Y-78090715D01*
X133343395Y-78101772D01*
X133339650Y-78101500D01*
X133339646Y-78101500D01*
X131997354Y-78101500D01*
X131997352Y-78101500D01*
X131928449Y-78111539D01*
X131928447Y-78111540D01*
X131821758Y-78163697D01*
X131766419Y-78176500D01*
X128869456Y-78176500D01*
X128801335Y-78156498D01*
X128765759Y-78122075D01*
X128763497Y-78118798D01*
X128763496Y-78118797D01*
X128694094Y-78057312D01*
X128656369Y-77997168D01*
X128657149Y-77926176D01*
X128696187Y-77866875D01*
X128761088Y-77838093D01*
X128777648Y-77837000D01*
X128825119Y-77837000D01*
X128825120Y-77836999D01*
X128860541Y-77834211D01*
X128860554Y-77834209D01*
X129012194Y-77790153D01*
X129148109Y-77709773D01*
X129148116Y-77709767D01*
X129259767Y-77598116D01*
X129259773Y-77598109D01*
X129340153Y-77462194D01*
X129384210Y-77310550D01*
X129384211Y-77310544D01*
X129385435Y-77295000D01*
X128330000Y-77295000D01*
X128261879Y-77274998D01*
X128215386Y-77221342D01*
X128204000Y-77169000D01*
X128204000Y-76755000D01*
X128224002Y-76686879D01*
X128277658Y-76640386D01*
X128330000Y-76629000D01*
X129385435Y-76629000D01*
X129384211Y-76613455D01*
X129384210Y-76613449D01*
X129340153Y-76461805D01*
X129259773Y-76325890D01*
X129259767Y-76325883D01*
X129148116Y-76214232D01*
X129148112Y-76214229D01*
X129067765Y-76166711D01*
X129019313Y-76114818D01*
X129006608Y-76044967D01*
X129028207Y-75986686D01*
X129107787Y-75871395D01*
X129164149Y-75722782D01*
X129164149Y-75722781D01*
X129164150Y-75722779D01*
X129183307Y-75565002D01*
X129183307Y-75561000D01*
X129184135Y-75558177D01*
X129184226Y-75557434D01*
X129184349Y-75557449D01*
X129203309Y-75492879D01*
X129256965Y-75446386D01*
X129309307Y-75435000D01*
X129365470Y-75435000D01*
X129365471Y-75435000D01*
X129519793Y-75396963D01*
X129660529Y-75323099D01*
X129779498Y-75217701D01*
X129781759Y-75214424D01*
X129784031Y-75212583D01*
X129784551Y-75211997D01*
X129784648Y-75212083D01*
X129836917Y-75169725D01*
X129885456Y-75160000D01*
X130534159Y-75160000D01*
X130534175Y-75160001D01*
X130541893Y-75160001D01*
X130641816Y-75160001D01*
X130641817Y-75160001D01*
X130717935Y-75139604D01*
X130717937Y-75139604D01*
X130725403Y-75137602D01*
X130738337Y-75134138D01*
X130824874Y-75084176D01*
X130895531Y-75013519D01*
X130905900Y-75003150D01*
X130905908Y-75003140D01*
X131021165Y-74887883D01*
X131083477Y-74853857D01*
X131154292Y-74858922D01*
G37*
%TD.AperFunction*%
%TA.AperFunction,Conductor*%
G36*
X134086621Y-70509502D02*
G01*
X134133114Y-70563158D01*
X134144500Y-70615500D01*
X134144500Y-71057740D01*
X134144501Y-71057755D01*
X134147379Y-71088452D01*
X134147380Y-71088455D01*
X134192628Y-71217767D01*
X134192631Y-71217774D01*
X134273989Y-71328010D01*
X134384225Y-71409368D01*
X134384232Y-71409371D01*
X134443228Y-71430015D01*
X134500920Y-71471393D01*
X134527082Y-71537393D01*
X134513409Y-71607061D01*
X134464242Y-71658277D01*
X134449830Y-71665353D01*
X134296411Y-71728899D01*
X134171074Y-71825074D01*
X134074899Y-71950411D01*
X134014444Y-72096368D01*
X134011333Y-72119999D01*
X134011333Y-72120000D01*
X135736667Y-72120000D01*
X135736666Y-72119999D01*
X135733555Y-72096368D01*
X135673100Y-71950411D01*
X135576925Y-71825074D01*
X135451588Y-71728899D01*
X135298169Y-71665353D01*
X135242888Y-71620805D01*
X135220466Y-71553442D01*
X135238024Y-71484651D01*
X135289985Y-71436272D01*
X135304770Y-71430015D01*
X135363773Y-71409369D01*
X135474010Y-71328010D01*
X135520450Y-71265086D01*
X135543630Y-71233679D01*
X135600175Y-71190746D01*
X135645009Y-71182500D01*
X135992354Y-71182500D01*
X136060475Y-71202502D01*
X136106968Y-71256158D01*
X136117747Y-71296151D01*
X136120756Y-71326711D01*
X136120757Y-71326717D01*
X136120758Y-71326718D01*
X136159557Y-71454621D01*
X136181055Y-71525492D01*
X136278974Y-71708686D01*
X136410747Y-71869252D01*
X136529745Y-71966911D01*
X136569714Y-72025588D01*
X136571615Y-72096559D01*
X136538908Y-72153405D01*
X135911058Y-72781256D01*
X135848745Y-72815281D01*
X135777930Y-72810217D01*
X135742828Y-72786000D01*
X135207000Y-72786000D01*
X135207000Y-72874500D01*
X135186998Y-72942621D01*
X135133342Y-72989114D01*
X135081000Y-73000500D01*
X134667000Y-73000500D01*
X134598879Y-72980498D01*
X134552386Y-72926842D01*
X134541000Y-72874500D01*
X134541000Y-72786000D01*
X134011333Y-72786000D01*
X134014443Y-72809629D01*
X134021342Y-72826284D01*
X134028930Y-72896874D01*
X133997149Y-72960360D01*
X133936090Y-72996587D01*
X133904932Y-73000500D01*
X133786500Y-73000500D01*
X133718379Y-72980498D01*
X133671886Y-72926842D01*
X133660500Y-72874500D01*
X133660500Y-72622360D01*
X133660500Y-72622356D01*
X133660500Y-72622354D01*
X133650461Y-72553450D01*
X133617651Y-72486337D01*
X133605703Y-72416356D01*
X133617650Y-72375664D01*
X133650461Y-72308550D01*
X133660500Y-72239646D01*
X133660500Y-71972354D01*
X133650461Y-71903450D01*
X133617651Y-71836337D01*
X133605703Y-71766356D01*
X133617650Y-71725664D01*
X133650461Y-71658550D01*
X133660500Y-71589646D01*
X133660500Y-71322354D01*
X133650461Y-71253450D01*
X133598499Y-71147160D01*
X133598498Y-71147158D01*
X133514841Y-71063501D01*
X133514839Y-71063500D01*
X133408552Y-71011540D01*
X133408550Y-71011539D01*
X133339647Y-71001500D01*
X133339646Y-71001500D01*
X132103079Y-71001500D01*
X132034958Y-70981498D01*
X131988465Y-70927842D01*
X131980060Y-70873622D01*
X131977307Y-70873622D01*
X131977307Y-70865997D01*
X131960187Y-70725000D01*
X131958149Y-70708218D01*
X131946747Y-70678153D01*
X131939931Y-70660180D01*
X131934477Y-70589393D01*
X131968159Y-70526895D01*
X132030284Y-70492528D01*
X132057743Y-70489500D01*
X134018500Y-70489500D01*
X134086621Y-70509502D01*
G37*
%TD.AperFunction*%
%TA.AperFunction,Conductor*%
G36*
X132323621Y-67449502D02*
G01*
X132370114Y-67503158D01*
X132381500Y-67555500D01*
X132381500Y-67910063D01*
X132381502Y-67910075D01*
X132385574Y-67930548D01*
X132379245Y-68001262D01*
X132351091Y-68044222D01*
X132308359Y-68086954D01*
X132250834Y-68199853D01*
X132236000Y-68293519D01*
X132236000Y-68325000D01*
X133115000Y-68325000D01*
X133183121Y-68345002D01*
X133229614Y-68398658D01*
X133241000Y-68451000D01*
X133241000Y-68709000D01*
X133220998Y-68777121D01*
X133167342Y-68823614D01*
X133115000Y-68835000D01*
X132236001Y-68835000D01*
X132236001Y-68866481D01*
X132240983Y-68897944D01*
X132231882Y-68968354D01*
X132186158Y-69022667D01*
X132118329Y-69043637D01*
X132049930Y-69024608D01*
X132027439Y-69006745D01*
X131898405Y-68877711D01*
X131864379Y-68815399D01*
X131861500Y-68788616D01*
X131861500Y-68229734D01*
X131861500Y-68229733D01*
X131835638Y-68133213D01*
X131835636Y-68133210D01*
X131835636Y-68133208D01*
X131785678Y-68046679D01*
X131785670Y-68046669D01*
X131710630Y-67971629D01*
X131710607Y-67971608D01*
X131383594Y-67644595D01*
X131349568Y-67582283D01*
X131354633Y-67511468D01*
X131397180Y-67454632D01*
X131463700Y-67429821D01*
X131472689Y-67429500D01*
X132255500Y-67429500D01*
X132323621Y-67449502D01*
G37*
%TD.AperFunction*%
%TD*%
M02*
