%TF.GenerationSoftware,KiCad,Pcbnew,8.0.6*%
%TF.CreationDate,2024-11-04T10:18:01-07:00*%
%TF.ProjectId,TMS9918-9928,544d5339-3931-4382-9d39-3932382e6b69,rev?*%
%TF.SameCoordinates,Original*%
%TF.FileFunction,Paste,Bot*%
%TF.FilePolarity,Positive*%
%FSLAX46Y46*%
G04 Gerber Fmt 4.6, Leading zero omitted, Abs format (unit mm)*
G04 Created by KiCad (PCBNEW 8.0.6) date 2024-11-04 10:18:01*
%MOMM*%
%LPD*%
G01*
G04 APERTURE LIST*
G04 Aperture macros list*
%AMRoundRect*
0 Rectangle with rounded corners*
0 $1 Rounding radius*
0 $2 $3 $4 $5 $6 $7 $8 $9 X,Y pos of 4 corners*
0 Add a 4 corners polygon primitive as box body*
4,1,4,$2,$3,$4,$5,$6,$7,$8,$9,$2,$3,0*
0 Add four circle primitives for the rounded corners*
1,1,$1+$1,$2,$3*
1,1,$1+$1,$4,$5*
1,1,$1+$1,$6,$7*
1,1,$1+$1,$8,$9*
0 Add four rect primitives between the rounded corners*
20,1,$1+$1,$2,$3,$4,$5,0*
20,1,$1+$1,$4,$5,$6,$7,0*
20,1,$1+$1,$6,$7,$8,$9,0*
20,1,$1+$1,$8,$9,$2,$3,0*%
G04 Aperture macros list end*
%ADD10RoundRect,0.200000X0.275000X-0.200000X0.275000X0.200000X-0.275000X0.200000X-0.275000X-0.200000X0*%
%ADD11RoundRect,0.200000X-0.275000X0.200000X-0.275000X-0.200000X0.275000X-0.200000X0.275000X0.200000X0*%
%ADD12R,0.700000X0.510000*%
%ADD13RoundRect,0.225000X-0.225000X-0.250000X0.225000X-0.250000X0.225000X0.250000X-0.225000X0.250000X0*%
%ADD14RoundRect,0.200000X0.200000X0.275000X-0.200000X0.275000X-0.200000X-0.275000X0.200000X-0.275000X0*%
%ADD15RoundRect,0.225000X0.250000X-0.225000X0.250000X0.225000X-0.250000X0.225000X-0.250000X-0.225000X0*%
%ADD16RoundRect,0.100000X0.637500X0.100000X-0.637500X0.100000X-0.637500X-0.100000X0.637500X-0.100000X0*%
G04 APERTURE END LIST*
D10*
%TO.C,R1*%
X134874000Y-80327000D03*
X134874000Y-78677000D03*
%TD*%
D11*
%TO.C,R2*%
X134874000Y-74105000D03*
X134874000Y-75755000D03*
%TD*%
D12*
%TO.C,U3*%
X132986000Y-67630000D03*
X132986000Y-68580000D03*
X132986000Y-69530000D03*
X130666000Y-69530000D03*
X130666000Y-68580000D03*
X130666000Y-67630000D03*
%TD*%
D13*
%TO.C,C1*%
X126974000Y-69850000D03*
X128524000Y-69850000D03*
%TD*%
D14*
%TO.C,R4*%
X134937000Y-65786000D03*
X133287000Y-65786000D03*
%TD*%
D15*
%TO.C,C3*%
X129032000Y-68085000D03*
X129032000Y-66535000D03*
%TD*%
D10*
%TO.C,R3*%
X134874000Y-72453000D03*
X134874000Y-70803000D03*
%TD*%
D16*
%TO.C,U1*%
X132668500Y-78556000D03*
X132668500Y-79206000D03*
X132668500Y-79856000D03*
X132668500Y-80506000D03*
X132668500Y-81156000D03*
X132668500Y-81806000D03*
X132668500Y-82456000D03*
X126943500Y-82456000D03*
X126943500Y-81806000D03*
X126943500Y-81156000D03*
X126943500Y-80506000D03*
X126943500Y-79856000D03*
X126943500Y-79206000D03*
X126943500Y-78556000D03*
%TD*%
%TO.C,U2*%
X132668500Y-71456000D03*
X132668500Y-72106000D03*
X132668500Y-72756000D03*
X132668500Y-73406000D03*
X132668500Y-74056000D03*
X132668500Y-74706000D03*
X132668500Y-75356000D03*
X126943500Y-75356000D03*
X126943500Y-74706000D03*
X126943500Y-74056000D03*
X126943500Y-73406000D03*
X126943500Y-72756000D03*
X126943500Y-72106000D03*
X126943500Y-71456000D03*
%TD*%
D13*
%TO.C,C2*%
X126987000Y-76962000D03*
X128537000Y-76962000D03*
%TD*%
D10*
%TO.C,R5*%
X134874000Y-69151000D03*
X134874000Y-67501000D03*
%TD*%
M02*
