%TF.GenerationSoftware,KiCad,Pcbnew,8.0.6*%
%TF.CreationDate,2024-11-04T10:18:01-07:00*%
%TF.ProjectId,TMS9918-9928,544d5339-3931-4382-9d39-3932382e6b69,rev?*%
%TF.SameCoordinates,Original*%
%TF.FileFunction,Legend,Bot*%
%TF.FilePolarity,Positive*%
%FSLAX46Y46*%
G04 Gerber Fmt 4.6, Leading zero omitted, Abs format (unit mm)*
G04 Created by KiCad (PCBNEW 8.0.6) date 2024-11-04 10:18:01*
%MOMM*%
%LPD*%
G01*
G04 APERTURE LIST*
G04 Aperture macros list*
%AMRoundRect*
0 Rectangle with rounded corners*
0 $1 Rounding radius*
0 $2 $3 $4 $5 $6 $7 $8 $9 X,Y pos of 4 corners*
0 Add a 4 corners polygon primitive as box body*
4,1,4,$2,$3,$4,$5,$6,$7,$8,$9,$2,$3,0*
0 Add four circle primitives for the rounded corners*
1,1,$1+$1,$2,$3*
1,1,$1+$1,$4,$5*
1,1,$1+$1,$6,$7*
1,1,$1+$1,$8,$9*
0 Add four rect primitives between the rounded corners*
20,1,$1+$1,$2,$3,$4,$5,0*
20,1,$1+$1,$4,$5,$6,$7,0*
20,1,$1+$1,$6,$7,$8,$9,0*
20,1,$1+$1,$8,$9,$2,$3,0*%
G04 Aperture macros list end*
%ADD10C,0.010000*%
%ADD11C,0.150000*%
%ADD12C,0.120000*%
%ADD13R,1.600000X1.600000*%
%ADD14O,1.600000X1.600000*%
%ADD15RoundRect,0.200000X0.275000X-0.200000X0.275000X0.200000X-0.275000X0.200000X-0.275000X-0.200000X0*%
%ADD16RoundRect,0.200000X-0.275000X0.200000X-0.275000X-0.200000X0.275000X-0.200000X0.275000X0.200000X0*%
%ADD17R,0.700000X0.510000*%
%ADD18RoundRect,0.225000X-0.225000X-0.250000X0.225000X-0.250000X0.225000X0.250000X-0.225000X0.250000X0*%
%ADD19RoundRect,0.200000X0.200000X0.275000X-0.200000X0.275000X-0.200000X-0.275000X0.200000X-0.275000X0*%
%ADD20RoundRect,0.225000X0.250000X-0.225000X0.250000X0.225000X-0.250000X0.225000X-0.250000X-0.225000X0*%
%ADD21RoundRect,0.100000X0.637500X0.100000X-0.637500X0.100000X-0.637500X-0.100000X0.637500X-0.100000X0*%
G04 APERTURE END LIST*
D10*
X129996433Y-109724032D02*
X129778152Y-109724032D01*
X129768640Y-109723796D01*
X129759193Y-109723093D01*
X129749826Y-109721930D01*
X129740555Y-109720312D01*
X129731395Y-109718247D01*
X129722363Y-109715740D01*
X129713475Y-109712799D01*
X129704745Y-109709430D01*
X129696190Y-109705640D01*
X129687825Y-109701434D01*
X129679666Y-109696820D01*
X129671729Y-109691803D01*
X129664029Y-109686392D01*
X129656583Y-109680591D01*
X129649405Y-109674408D01*
X129642513Y-109667848D01*
X129635953Y-109660956D01*
X129629770Y-109653778D01*
X129623969Y-109646332D01*
X129618557Y-109638632D01*
X129613541Y-109630695D01*
X129608927Y-109622536D01*
X129604721Y-109614172D01*
X129600931Y-109605616D01*
X129597562Y-109596886D01*
X129594621Y-109587998D01*
X129592114Y-109578966D01*
X129590049Y-109569806D01*
X129588431Y-109560535D01*
X129587268Y-109551168D01*
X129586565Y-109541721D01*
X129586329Y-109532209D01*
X129586565Y-109522697D01*
X129587268Y-109513250D01*
X129588431Y-109503882D01*
X129590049Y-109494611D01*
X129592114Y-109485452D01*
X129594621Y-109476420D01*
X129597562Y-109467531D01*
X129600931Y-109458802D01*
X129604721Y-109450246D01*
X129608927Y-109441881D01*
X129613541Y-109433723D01*
X129618557Y-109425786D01*
X129623969Y-109418086D01*
X129629770Y-109410640D01*
X129635953Y-109403462D01*
X129642513Y-109396570D01*
X129649405Y-109390010D01*
X129656583Y-109383827D01*
X129664029Y-109378026D01*
X129671729Y-109372614D01*
X129679666Y-109367598D01*
X129687825Y-109362984D01*
X129696190Y-109358778D01*
X129704745Y-109354988D01*
X129713475Y-109351619D01*
X129722363Y-109348678D01*
X129731395Y-109346171D01*
X129740555Y-109344106D01*
X129749826Y-109342488D01*
X129759193Y-109341325D01*
X129768640Y-109340622D01*
X129778152Y-109340386D01*
X129996433Y-109340386D01*
X129996433Y-109724032D01*
G36*
X129996433Y-109724032D02*
G01*
X129778152Y-109724032D01*
X129768640Y-109723796D01*
X129759193Y-109723093D01*
X129749826Y-109721930D01*
X129740555Y-109720312D01*
X129731395Y-109718247D01*
X129722363Y-109715740D01*
X129713475Y-109712799D01*
X129704745Y-109709430D01*
X129696190Y-109705640D01*
X129687825Y-109701434D01*
X129679666Y-109696820D01*
X129671729Y-109691803D01*
X129664029Y-109686392D01*
X129656583Y-109680591D01*
X129649405Y-109674408D01*
X129642513Y-109667848D01*
X129635953Y-109660956D01*
X129629770Y-109653778D01*
X129623969Y-109646332D01*
X129618557Y-109638632D01*
X129613541Y-109630695D01*
X129608927Y-109622536D01*
X129604721Y-109614172D01*
X129600931Y-109605616D01*
X129597562Y-109596886D01*
X129594621Y-109587998D01*
X129592114Y-109578966D01*
X129590049Y-109569806D01*
X129588431Y-109560535D01*
X129587268Y-109551168D01*
X129586565Y-109541721D01*
X129586329Y-109532209D01*
X129586565Y-109522697D01*
X129587268Y-109513250D01*
X129588431Y-109503882D01*
X129590049Y-109494611D01*
X129592114Y-109485452D01*
X129594621Y-109476420D01*
X129597562Y-109467531D01*
X129600931Y-109458802D01*
X129604721Y-109450246D01*
X129608927Y-109441881D01*
X129613541Y-109433723D01*
X129618557Y-109425786D01*
X129623969Y-109418086D01*
X129629770Y-109410640D01*
X129635953Y-109403462D01*
X129642513Y-109396570D01*
X129649405Y-109390010D01*
X129656583Y-109383827D01*
X129664029Y-109378026D01*
X129671729Y-109372614D01*
X129679666Y-109367598D01*
X129687825Y-109362984D01*
X129696190Y-109358778D01*
X129704745Y-109354988D01*
X129713475Y-109351619D01*
X129722363Y-109348678D01*
X129731395Y-109346171D01*
X129740555Y-109344106D01*
X129749826Y-109342488D01*
X129759193Y-109341325D01*
X129768640Y-109340622D01*
X129778152Y-109340386D01*
X129996433Y-109340386D01*
X129996433Y-109724032D01*
G37*
X135010578Y-107667852D02*
X135018275Y-107702544D01*
X135025632Y-107737904D01*
X135032657Y-107773936D01*
X135039356Y-107810643D01*
X135045737Y-107848031D01*
X135051806Y-107886104D01*
X135057571Y-107924865D01*
X126562461Y-107924865D01*
X126568226Y-107886105D01*
X126574295Y-107848034D01*
X126580675Y-107810646D01*
X126587374Y-107773939D01*
X126594399Y-107737907D01*
X126601757Y-107702547D01*
X126609454Y-107667854D01*
X126617497Y-107633824D01*
X135002535Y-107633824D01*
X135010578Y-107667852D01*
G36*
X135010578Y-107667852D02*
G01*
X135018275Y-107702544D01*
X135025632Y-107737904D01*
X135032657Y-107773936D01*
X135039356Y-107810643D01*
X135045737Y-107848031D01*
X135051806Y-107886104D01*
X135057571Y-107924865D01*
X126562461Y-107924865D01*
X126568226Y-107886105D01*
X126574295Y-107848034D01*
X126580675Y-107810646D01*
X126587374Y-107773939D01*
X126594399Y-107737907D01*
X126601757Y-107702547D01*
X126609454Y-107667854D01*
X126617497Y-107633824D01*
X135002535Y-107633824D01*
X135010578Y-107667852D01*
G37*
X135078421Y-108097838D02*
X135083803Y-108153364D01*
X135093206Y-108268769D01*
X135101069Y-108389162D01*
X135107723Y-108513563D01*
X126512337Y-108513563D01*
X126518990Y-108389163D01*
X126526853Y-108268769D01*
X126536255Y-108153364D01*
X126541638Y-108097838D01*
X126547529Y-108043928D01*
X135072530Y-108043928D01*
X135078421Y-108097838D01*
G36*
X135078421Y-108097838D02*
G01*
X135083803Y-108153364D01*
X135093206Y-108268769D01*
X135101069Y-108389162D01*
X135107723Y-108513563D01*
X126512337Y-108513563D01*
X126518990Y-108389163D01*
X126526853Y-108268769D01*
X126536255Y-108153364D01*
X126541638Y-108097838D01*
X126547529Y-108043928D01*
X135072530Y-108043928D01*
X135078421Y-108097838D01*
G37*
X133795918Y-113374400D02*
X133663890Y-113396789D01*
X133523427Y-113416202D01*
X133374266Y-113432853D01*
X133048795Y-113458712D01*
X132685376Y-113476065D01*
X132281902Y-113486608D01*
X131836272Y-113492037D01*
X130810125Y-113494344D01*
X129783977Y-113492037D01*
X129338347Y-113486608D01*
X128934874Y-113476065D01*
X128571454Y-113458712D01*
X128245984Y-113432853D01*
X127956359Y-113396789D01*
X127700477Y-113348823D01*
X133919772Y-113348823D01*
X133795918Y-113374400D01*
G36*
X133795918Y-113374400D02*
G01*
X133663890Y-113396789D01*
X133523427Y-113416202D01*
X133374266Y-113432853D01*
X133048795Y-113458712D01*
X132685376Y-113476065D01*
X132281902Y-113486608D01*
X131836272Y-113492037D01*
X130810125Y-113494344D01*
X129783977Y-113492037D01*
X129338347Y-113486608D01*
X128934874Y-113476065D01*
X128571454Y-113458712D01*
X128245984Y-113432853D01*
X127956359Y-113396789D01*
X127700477Y-113348823D01*
X133919772Y-113348823D01*
X133795918Y-113374400D01*
G37*
X134943829Y-112530628D02*
X134933420Y-112558447D01*
X134922583Y-112585651D01*
X134911339Y-112612279D01*
X134899710Y-112638372D01*
X134887715Y-112663967D01*
X134875375Y-112689105D01*
X134862711Y-112713823D01*
X126757466Y-112713823D01*
X126744802Y-112689105D01*
X126732462Y-112663968D01*
X126720467Y-112638373D01*
X126708837Y-112612281D01*
X126697594Y-112585653D01*
X126686757Y-112558449D01*
X126676347Y-112530630D01*
X126666385Y-112502157D01*
X134953791Y-112502157D01*
X134943829Y-112530628D01*
G36*
X134943829Y-112530628D02*
G01*
X134933420Y-112558447D01*
X134922583Y-112585651D01*
X134911339Y-112612279D01*
X134899710Y-112638372D01*
X134887715Y-112663967D01*
X134875375Y-112689105D01*
X134862711Y-112713823D01*
X126757466Y-112713823D01*
X126744802Y-112689105D01*
X126732462Y-112663968D01*
X126720467Y-112638373D01*
X126708837Y-112612281D01*
X126697594Y-112585653D01*
X126686757Y-112558449D01*
X126676347Y-112530630D01*
X126666385Y-112502157D01*
X134953791Y-112502157D01*
X134943829Y-112530628D01*
G37*
X134700966Y-112947233D02*
X134681139Y-112968428D01*
X134660703Y-112989078D01*
X134639652Y-113009185D01*
X134617979Y-113028753D01*
X134595678Y-113047782D01*
X134572741Y-113066277D01*
X134549164Y-113084240D01*
X127070980Y-113084240D01*
X127047403Y-113066277D01*
X127024467Y-113047782D01*
X127002166Y-113028753D01*
X126980494Y-113009185D01*
X126959443Y-112989078D01*
X126939007Y-112968428D01*
X126919179Y-112947233D01*
X126899954Y-112925490D01*
X134720190Y-112925490D01*
X134700966Y-112947233D01*
G36*
X134700966Y-112947233D02*
G01*
X134681139Y-112968428D01*
X134660703Y-112989078D01*
X134639652Y-113009185D01*
X134617979Y-113028753D01*
X134595678Y-113047782D01*
X134572741Y-113066277D01*
X134549164Y-113084240D01*
X127070980Y-113084240D01*
X127047403Y-113066277D01*
X127024467Y-113047782D01*
X127002166Y-113028753D01*
X126980494Y-113009185D01*
X126959443Y-112989078D01*
X126939007Y-112968428D01*
X126919179Y-112947233D01*
X126899954Y-112925490D01*
X134720190Y-112925490D01*
X134700966Y-112947233D01*
G37*
X131836216Y-106471964D02*
X132281849Y-106477394D01*
X132685314Y-106487936D01*
X133048719Y-106505289D01*
X133374173Y-106531149D01*
X133663784Y-106567213D01*
X133919661Y-106615178D01*
X127700366Y-106615178D01*
X127824221Y-106589602D01*
X127956248Y-106567213D01*
X128096711Y-106547799D01*
X128245872Y-106531149D01*
X128571343Y-106505289D01*
X128934763Y-106487936D01*
X129338236Y-106477394D01*
X129783866Y-106471964D01*
X130810013Y-106469657D01*
X131836216Y-106471964D01*
G36*
X131836216Y-106471964D02*
G01*
X132281849Y-106477394D01*
X132685314Y-106487936D01*
X133048719Y-106505289D01*
X133374173Y-106531149D01*
X133663784Y-106567213D01*
X133919661Y-106615178D01*
X127700366Y-106615178D01*
X127824221Y-106589602D01*
X127956248Y-106567213D01*
X128096711Y-106547799D01*
X128245872Y-106531149D01*
X128571343Y-106505289D01*
X128934763Y-106487936D01*
X129338236Y-106477394D01*
X129783866Y-106471964D01*
X130810013Y-106469657D01*
X131836216Y-106471964D01*
G37*
X135120579Y-111077346D02*
X135110538Y-111384292D01*
X126509464Y-111384292D01*
X126499423Y-111077346D01*
X126493746Y-110743253D01*
X126491269Y-110385490D01*
X126914038Y-110385490D01*
X126915135Y-110416978D01*
X126918407Y-110448252D01*
X126923824Y-110479260D01*
X126931354Y-110509951D01*
X126940969Y-110540272D01*
X126952636Y-110570170D01*
X126966327Y-110599595D01*
X126982011Y-110628494D01*
X126999657Y-110656815D01*
X127019235Y-110684505D01*
X127040716Y-110711514D01*
X127064067Y-110737788D01*
X127089260Y-110763276D01*
X127116264Y-110787926D01*
X127145048Y-110811685D01*
X127175582Y-110834503D01*
X127207669Y-110856216D01*
X127241081Y-110876685D01*
X127275745Y-110895888D01*
X127311587Y-110913802D01*
X127348535Y-110930408D01*
X127386516Y-110945683D01*
X127425456Y-110959605D01*
X127465282Y-110972154D01*
X127505921Y-110983306D01*
X127547300Y-110993042D01*
X127589345Y-111001339D01*
X127631983Y-111008176D01*
X127675142Y-111013531D01*
X127718747Y-111017383D01*
X127762727Y-111019710D01*
X127807006Y-111020490D01*
X127851286Y-111019710D01*
X127895265Y-111017383D01*
X127938871Y-111013531D01*
X127982029Y-111008176D01*
X128024668Y-111001339D01*
X128066713Y-110993042D01*
X128108092Y-110983306D01*
X128148731Y-110972154D01*
X128188557Y-110959605D01*
X128227497Y-110945683D01*
X128265477Y-110930408D01*
X128271089Y-110927886D01*
X130724037Y-110927886D01*
X131491329Y-110927886D01*
X131549361Y-110544240D01*
X131922781Y-110544240D01*
X131980813Y-110927886D01*
X132748105Y-110927886D01*
X132205704Y-108930282D01*
X132827475Y-108930282D01*
X132827475Y-110927886D01*
X133687371Y-110927886D01*
X133875886Y-110396861D01*
X133945107Y-110195778D01*
X134005491Y-110014223D01*
X134048201Y-109875623D01*
X134060168Y-109829752D01*
X134064402Y-109803407D01*
X134071016Y-109803407D01*
X134071016Y-110927886D01*
X134706016Y-110927886D01*
X134706016Y-108930282D01*
X133846121Y-108930282D01*
X133644376Y-109462756D01*
X133570298Y-109664087D01*
X133505676Y-109845575D01*
X133459968Y-109983654D01*
X133447162Y-110029052D01*
X133442631Y-110054761D01*
X133436016Y-110054761D01*
X133436016Y-108930282D01*
X132827475Y-108930282D01*
X132205704Y-108930282D01*
X131266433Y-108930282D01*
X130724039Y-110927881D01*
X130724037Y-110927886D01*
X128271089Y-110927886D01*
X128302426Y-110913802D01*
X128338268Y-110895888D01*
X128372932Y-110876685D01*
X128406344Y-110856216D01*
X128438430Y-110834503D01*
X128468965Y-110811685D01*
X128497749Y-110787926D01*
X128524753Y-110763276D01*
X128549945Y-110737788D01*
X128573297Y-110711514D01*
X128594777Y-110684505D01*
X128614355Y-110656815D01*
X128632002Y-110628494D01*
X128647685Y-110599595D01*
X128661376Y-110570170D01*
X128673044Y-110540272D01*
X128682658Y-110509951D01*
X128690189Y-110479260D01*
X128695605Y-110448252D01*
X128698878Y-110416978D01*
X128699745Y-110392100D01*
X128858725Y-110392100D01*
X128859422Y-110426809D01*
X128861491Y-110460250D01*
X128864899Y-110492434D01*
X128869611Y-110523371D01*
X128875593Y-110553073D01*
X128882813Y-110581551D01*
X128891237Y-110608814D01*
X128900830Y-110634876D01*
X128911560Y-110659745D01*
X128923392Y-110683434D01*
X128936294Y-110705952D01*
X128950230Y-110727312D01*
X128965168Y-110747523D01*
X128981074Y-110766597D01*
X128997914Y-110784545D01*
X129015654Y-110801377D01*
X129034262Y-110817105D01*
X129053703Y-110831739D01*
X129073943Y-110845290D01*
X129094949Y-110857769D01*
X129116687Y-110869187D01*
X129139124Y-110879556D01*
X129162226Y-110888885D01*
X129185959Y-110897185D01*
X129210290Y-110904469D01*
X129235184Y-110910746D01*
X129286530Y-110920323D01*
X129339727Y-110926006D01*
X129394506Y-110927881D01*
X130618204Y-110927881D01*
X130618204Y-108930282D01*
X129447423Y-108930282D01*
X129419852Y-108930979D01*
X129392644Y-108933048D01*
X129365830Y-108936455D01*
X129339446Y-108941167D01*
X129313525Y-108947150D01*
X129288101Y-108954370D01*
X129263206Y-108962794D01*
X129238876Y-108972387D01*
X129215143Y-108983117D01*
X129192041Y-108994949D01*
X129169604Y-109007850D01*
X129147866Y-109021787D01*
X129126860Y-109036725D01*
X129106619Y-109052631D01*
X129087179Y-109069471D01*
X129068571Y-109087211D01*
X129050831Y-109105819D01*
X129033990Y-109125259D01*
X129018085Y-109145500D01*
X129003147Y-109166506D01*
X128989210Y-109188244D01*
X128976309Y-109210681D01*
X128964477Y-109233783D01*
X128953747Y-109257516D01*
X128944154Y-109281846D01*
X128935730Y-109306741D01*
X128928510Y-109332165D01*
X128922527Y-109358087D01*
X128917815Y-109384471D01*
X128914408Y-109411284D01*
X128912339Y-109438493D01*
X128911642Y-109466063D01*
X128913117Y-109512006D01*
X128914947Y-109533944D01*
X128917494Y-109555205D01*
X128920747Y-109575797D01*
X128924698Y-109595728D01*
X128929338Y-109615007D01*
X128934658Y-109633643D01*
X128940648Y-109651643D01*
X128947299Y-109669016D01*
X128954602Y-109685771D01*
X128962549Y-109701916D01*
X128971129Y-109717460D01*
X128980333Y-109732411D01*
X128990153Y-109746777D01*
X129000579Y-109760567D01*
X129011602Y-109773790D01*
X129023213Y-109786453D01*
X129035403Y-109798566D01*
X129048163Y-109810136D01*
X129075354Y-109831684D01*
X129104714Y-109851163D01*
X129136168Y-109868643D01*
X129169645Y-109884190D01*
X129205070Y-109897871D01*
X129242371Y-109909756D01*
X129242371Y-109917689D01*
X129204106Y-109930008D01*
X129166729Y-109944597D01*
X129130457Y-109961462D01*
X129095509Y-109980614D01*
X129062102Y-110002062D01*
X129030455Y-110025815D01*
X129015359Y-110038558D01*
X129000785Y-110051881D01*
X128986760Y-110065785D01*
X128973311Y-110080270D01*
X128960466Y-110095339D01*
X128948251Y-110110991D01*
X128936694Y-110127229D01*
X128925822Y-110144054D01*
X128915663Y-110161466D01*
X128906243Y-110179466D01*
X128897591Y-110198057D01*
X128889732Y-110217238D01*
X128882695Y-110237012D01*
X128876507Y-110257378D01*
X128871194Y-110278339D01*
X128866785Y-110299896D01*
X128863306Y-110322049D01*
X128860785Y-110344800D01*
X128859249Y-110368150D01*
X128858870Y-110385490D01*
X128858725Y-110392100D01*
X128699745Y-110392100D01*
X128699975Y-110385490D01*
X128699975Y-108930282D01*
X128005444Y-108930282D01*
X128005444Y-110385490D01*
X128005186Y-110395702D01*
X128004419Y-110405779D01*
X128003157Y-110415710D01*
X128001412Y-110425482D01*
X127999196Y-110435083D01*
X127996522Y-110444499D01*
X127993403Y-110453719D01*
X127989849Y-110462731D01*
X127985876Y-110471521D01*
X127981493Y-110480077D01*
X127976715Y-110488387D01*
X127971554Y-110496438D01*
X127966021Y-110504218D01*
X127960130Y-110511714D01*
X127953893Y-110518915D01*
X127947322Y-110525806D01*
X127940431Y-110532377D01*
X127933231Y-110538614D01*
X127925734Y-110544505D01*
X127917954Y-110550037D01*
X127909903Y-110555199D01*
X127901593Y-110559977D01*
X127893037Y-110564359D01*
X127884247Y-110568333D01*
X127875235Y-110571887D01*
X127866015Y-110575006D01*
X127856599Y-110577680D01*
X127846998Y-110579896D01*
X127837226Y-110581641D01*
X127827295Y-110582903D01*
X127817218Y-110583670D01*
X127807006Y-110583928D01*
X127796795Y-110583670D01*
X127786717Y-110582903D01*
X127776787Y-110581641D01*
X127767015Y-110579896D01*
X127757414Y-110577680D01*
X127747998Y-110575006D01*
X127738777Y-110571887D01*
X127729766Y-110568333D01*
X127720976Y-110564359D01*
X127712420Y-110559977D01*
X127704110Y-110555199D01*
X127696059Y-110550037D01*
X127688279Y-110544505D01*
X127680782Y-110538614D01*
X127673582Y-110532377D01*
X127666690Y-110525806D01*
X127660120Y-110518915D01*
X127653883Y-110511714D01*
X127647992Y-110504218D01*
X127642459Y-110496438D01*
X127637298Y-110488387D01*
X127632519Y-110480077D01*
X127628137Y-110471521D01*
X127624163Y-110462731D01*
X127620610Y-110453719D01*
X127617490Y-110444499D01*
X127614816Y-110435083D01*
X127612600Y-110425482D01*
X127610855Y-110415710D01*
X127609593Y-110405779D01*
X127608827Y-110395702D01*
X127608569Y-110385490D01*
X127608569Y-108930282D01*
X126914038Y-108930282D01*
X126914038Y-110385490D01*
X126491269Y-110385490D01*
X126491225Y-110379107D01*
X126490653Y-109982001D01*
X126491225Y-109584894D01*
X126493746Y-109220748D01*
X126499423Y-108886655D01*
X126509464Y-108579709D01*
X135110538Y-108579709D01*
X135120579Y-108886655D01*
X135126256Y-109220748D01*
X135128776Y-109584894D01*
X135129348Y-109982001D01*
X135128776Y-110379107D01*
X135126256Y-110743253D01*
X135123119Y-110927886D01*
X135120579Y-111077346D01*
G36*
X135120579Y-111077346D02*
G01*
X135110538Y-111384292D01*
X126509464Y-111384292D01*
X126499423Y-111077346D01*
X126493746Y-110743253D01*
X126491269Y-110385490D01*
X126914038Y-110385490D01*
X126915135Y-110416978D01*
X126918407Y-110448252D01*
X126923824Y-110479260D01*
X126931354Y-110509951D01*
X126940969Y-110540272D01*
X126952636Y-110570170D01*
X126966327Y-110599595D01*
X126982011Y-110628494D01*
X126999657Y-110656815D01*
X127019235Y-110684505D01*
X127040716Y-110711514D01*
X127064067Y-110737788D01*
X127089260Y-110763276D01*
X127116264Y-110787926D01*
X127145048Y-110811685D01*
X127175582Y-110834503D01*
X127207669Y-110856216D01*
X127241081Y-110876685D01*
X127275745Y-110895888D01*
X127311587Y-110913802D01*
X127348535Y-110930408D01*
X127386516Y-110945683D01*
X127425456Y-110959605D01*
X127465282Y-110972154D01*
X127505921Y-110983306D01*
X127547300Y-110993042D01*
X127589345Y-111001339D01*
X127631983Y-111008176D01*
X127675142Y-111013531D01*
X127718747Y-111017383D01*
X127762727Y-111019710D01*
X127807006Y-111020490D01*
X127851286Y-111019710D01*
X127895265Y-111017383D01*
X127938871Y-111013531D01*
X127982029Y-111008176D01*
X128024668Y-111001339D01*
X128066713Y-110993042D01*
X128108092Y-110983306D01*
X128148731Y-110972154D01*
X128188557Y-110959605D01*
X128227497Y-110945683D01*
X128265477Y-110930408D01*
X128271089Y-110927886D01*
X130724037Y-110927886D01*
X131491329Y-110927886D01*
X131549361Y-110544240D01*
X131922781Y-110544240D01*
X131980813Y-110927886D01*
X132748105Y-110927886D01*
X132205704Y-108930282D01*
X132827475Y-108930282D01*
X132827475Y-110927886D01*
X133687371Y-110927886D01*
X133875886Y-110396861D01*
X133945107Y-110195778D01*
X134005491Y-110014223D01*
X134048201Y-109875623D01*
X134060168Y-109829752D01*
X134064402Y-109803407D01*
X134071016Y-109803407D01*
X134071016Y-110927886D01*
X134706016Y-110927886D01*
X134706016Y-108930282D01*
X133846121Y-108930282D01*
X133644376Y-109462756D01*
X133570298Y-109664087D01*
X133505676Y-109845575D01*
X133459968Y-109983654D01*
X133447162Y-110029052D01*
X133442631Y-110054761D01*
X133436016Y-110054761D01*
X133436016Y-108930282D01*
X132827475Y-108930282D01*
X132205704Y-108930282D01*
X131266433Y-108930282D01*
X130724039Y-110927881D01*
X130724037Y-110927886D01*
X128271089Y-110927886D01*
X128302426Y-110913802D01*
X128338268Y-110895888D01*
X128372932Y-110876685D01*
X128406344Y-110856216D01*
X128438430Y-110834503D01*
X128468965Y-110811685D01*
X128497749Y-110787926D01*
X128524753Y-110763276D01*
X128549945Y-110737788D01*
X128573297Y-110711514D01*
X128594777Y-110684505D01*
X128614355Y-110656815D01*
X128632002Y-110628494D01*
X128647685Y-110599595D01*
X128661376Y-110570170D01*
X128673044Y-110540272D01*
X128682658Y-110509951D01*
X128690189Y-110479260D01*
X128695605Y-110448252D01*
X128698878Y-110416978D01*
X128699745Y-110392100D01*
X128858725Y-110392100D01*
X128859422Y-110426809D01*
X128861491Y-110460250D01*
X128864899Y-110492434D01*
X128869611Y-110523371D01*
X128875593Y-110553073D01*
X128882813Y-110581551D01*
X128891237Y-110608814D01*
X128900830Y-110634876D01*
X128911560Y-110659745D01*
X128923392Y-110683434D01*
X128936294Y-110705952D01*
X128950230Y-110727312D01*
X128965168Y-110747523D01*
X128981074Y-110766597D01*
X128997914Y-110784545D01*
X129015654Y-110801377D01*
X129034262Y-110817105D01*
X129053703Y-110831739D01*
X129073943Y-110845290D01*
X129094949Y-110857769D01*
X129116687Y-110869187D01*
X129139124Y-110879556D01*
X129162226Y-110888885D01*
X129185959Y-110897185D01*
X129210290Y-110904469D01*
X129235184Y-110910746D01*
X129286530Y-110920323D01*
X129339727Y-110926006D01*
X129394506Y-110927881D01*
X130618204Y-110927881D01*
X130618204Y-108930282D01*
X129447423Y-108930282D01*
X129419852Y-108930979D01*
X129392644Y-108933048D01*
X129365830Y-108936455D01*
X129339446Y-108941167D01*
X129313525Y-108947150D01*
X129288101Y-108954370D01*
X129263206Y-108962794D01*
X129238876Y-108972387D01*
X129215143Y-108983117D01*
X129192041Y-108994949D01*
X129169604Y-109007850D01*
X129147866Y-109021787D01*
X129126860Y-109036725D01*
X129106619Y-109052631D01*
X129087179Y-109069471D01*
X129068571Y-109087211D01*
X129050831Y-109105819D01*
X129033990Y-109125259D01*
X129018085Y-109145500D01*
X129003147Y-109166506D01*
X128989210Y-109188244D01*
X128976309Y-109210681D01*
X128964477Y-109233783D01*
X128953747Y-109257516D01*
X128944154Y-109281846D01*
X128935730Y-109306741D01*
X128928510Y-109332165D01*
X128922527Y-109358087D01*
X128917815Y-109384471D01*
X128914408Y-109411284D01*
X128912339Y-109438493D01*
X128911642Y-109466063D01*
X128913117Y-109512006D01*
X128914947Y-109533944D01*
X128917494Y-109555205D01*
X128920747Y-109575797D01*
X128924698Y-109595728D01*
X128929338Y-109615007D01*
X128934658Y-109633643D01*
X128940648Y-109651643D01*
X128947299Y-109669016D01*
X128954602Y-109685771D01*
X128962549Y-109701916D01*
X128971129Y-109717460D01*
X128980333Y-109732411D01*
X128990153Y-109746777D01*
X129000579Y-109760567D01*
X129011602Y-109773790D01*
X129023213Y-109786453D01*
X129035403Y-109798566D01*
X129048163Y-109810136D01*
X129075354Y-109831684D01*
X129104714Y-109851163D01*
X129136168Y-109868643D01*
X129169645Y-109884190D01*
X129205070Y-109897871D01*
X129242371Y-109909756D01*
X129242371Y-109917689D01*
X129204106Y-109930008D01*
X129166729Y-109944597D01*
X129130457Y-109961462D01*
X129095509Y-109980614D01*
X129062102Y-110002062D01*
X129030455Y-110025815D01*
X129015359Y-110038558D01*
X129000785Y-110051881D01*
X128986760Y-110065785D01*
X128973311Y-110080270D01*
X128960466Y-110095339D01*
X128948251Y-110110991D01*
X128936694Y-110127229D01*
X128925822Y-110144054D01*
X128915663Y-110161466D01*
X128906243Y-110179466D01*
X128897591Y-110198057D01*
X128889732Y-110217238D01*
X128882695Y-110237012D01*
X128876507Y-110257378D01*
X128871194Y-110278339D01*
X128866785Y-110299896D01*
X128863306Y-110322049D01*
X128860785Y-110344800D01*
X128859249Y-110368150D01*
X128858870Y-110385490D01*
X128858725Y-110392100D01*
X128699745Y-110392100D01*
X128699975Y-110385490D01*
X128699975Y-108930282D01*
X128005444Y-108930282D01*
X128005444Y-110385490D01*
X128005186Y-110395702D01*
X128004419Y-110405779D01*
X128003157Y-110415710D01*
X128001412Y-110425482D01*
X127999196Y-110435083D01*
X127996522Y-110444499D01*
X127993403Y-110453719D01*
X127989849Y-110462731D01*
X127985876Y-110471521D01*
X127981493Y-110480077D01*
X127976715Y-110488387D01*
X127971554Y-110496438D01*
X127966021Y-110504218D01*
X127960130Y-110511714D01*
X127953893Y-110518915D01*
X127947322Y-110525806D01*
X127940431Y-110532377D01*
X127933231Y-110538614D01*
X127925734Y-110544505D01*
X127917954Y-110550037D01*
X127909903Y-110555199D01*
X127901593Y-110559977D01*
X127893037Y-110564359D01*
X127884247Y-110568333D01*
X127875235Y-110571887D01*
X127866015Y-110575006D01*
X127856599Y-110577680D01*
X127846998Y-110579896D01*
X127837226Y-110581641D01*
X127827295Y-110582903D01*
X127817218Y-110583670D01*
X127807006Y-110583928D01*
X127796795Y-110583670D01*
X127786717Y-110582903D01*
X127776787Y-110581641D01*
X127767015Y-110579896D01*
X127757414Y-110577680D01*
X127747998Y-110575006D01*
X127738777Y-110571887D01*
X127729766Y-110568333D01*
X127720976Y-110564359D01*
X127712420Y-110559977D01*
X127704110Y-110555199D01*
X127696059Y-110550037D01*
X127688279Y-110544505D01*
X127680782Y-110538614D01*
X127673582Y-110532377D01*
X127666690Y-110525806D01*
X127660120Y-110518915D01*
X127653883Y-110511714D01*
X127647992Y-110504218D01*
X127642459Y-110496438D01*
X127637298Y-110488387D01*
X127632519Y-110480077D01*
X127628137Y-110471521D01*
X127624163Y-110462731D01*
X127620610Y-110453719D01*
X127617490Y-110444499D01*
X127614816Y-110435083D01*
X127612600Y-110425482D01*
X127610855Y-110415710D01*
X127609593Y-110405779D01*
X127608827Y-110395702D01*
X127608569Y-110385490D01*
X127608569Y-108930282D01*
X126914038Y-108930282D01*
X126914038Y-110385490D01*
X126491269Y-110385490D01*
X126491225Y-110379107D01*
X126490653Y-109982001D01*
X126491225Y-109584894D01*
X126493746Y-109220748D01*
X126499423Y-108886655D01*
X126509464Y-108579709D01*
X135110538Y-108579709D01*
X135120579Y-108886655D01*
X135126256Y-109220748D01*
X135128776Y-109584894D01*
X135129348Y-109982001D01*
X135128776Y-110379107D01*
X135126256Y-110743253D01*
X135123119Y-110927886D01*
X135120579Y-111077346D01*
G37*
X129996433Y-110531011D02*
X129784767Y-110531011D01*
X129774271Y-110530751D01*
X129763846Y-110529975D01*
X129753510Y-110528691D01*
X129743280Y-110526906D01*
X129733173Y-110524628D01*
X129723207Y-110521862D01*
X129713398Y-110518617D01*
X129703765Y-110514899D01*
X129694325Y-110510716D01*
X129685095Y-110506076D01*
X129676092Y-110500984D01*
X129667334Y-110495449D01*
X129658838Y-110489477D01*
X129650621Y-110483076D01*
X129642701Y-110476253D01*
X129635095Y-110469015D01*
X129627858Y-110461410D01*
X129621035Y-110453490D01*
X129614634Y-110445273D01*
X129608662Y-110436777D01*
X129603127Y-110428019D01*
X129598035Y-110419016D01*
X129593395Y-110409786D01*
X129589212Y-110400346D01*
X129585494Y-110390713D01*
X129582249Y-110380904D01*
X129579484Y-110370938D01*
X129577205Y-110360831D01*
X129575420Y-110350601D01*
X129574136Y-110340265D01*
X129573360Y-110329840D01*
X129573100Y-110319344D01*
X129573360Y-110308848D01*
X129574136Y-110298424D01*
X129575420Y-110288087D01*
X129577205Y-110277857D01*
X129579484Y-110267750D01*
X129582249Y-110257784D01*
X129585494Y-110247976D01*
X129589212Y-110238343D01*
X129593395Y-110228903D01*
X129598035Y-110219672D01*
X129603127Y-110210670D01*
X129608662Y-110201911D01*
X129614634Y-110193415D01*
X129621035Y-110185199D01*
X129627858Y-110177279D01*
X129635095Y-110169673D01*
X129642701Y-110162435D01*
X129650621Y-110155612D01*
X129658838Y-110149211D01*
X129667334Y-110143240D01*
X129676092Y-110137705D01*
X129685095Y-110132613D01*
X129694325Y-110127972D01*
X129703765Y-110123790D01*
X129713398Y-110120072D01*
X129723207Y-110116827D01*
X129733173Y-110114061D01*
X129743280Y-110111782D01*
X129753510Y-110109997D01*
X129763846Y-110108713D01*
X129774271Y-110107938D01*
X129784767Y-110107678D01*
X129996433Y-110107678D01*
X129996433Y-110531011D01*
G36*
X129996433Y-110531011D02*
G01*
X129784767Y-110531011D01*
X129774271Y-110530751D01*
X129763846Y-110529975D01*
X129753510Y-110528691D01*
X129743280Y-110526906D01*
X129733173Y-110524628D01*
X129723207Y-110521862D01*
X129713398Y-110518617D01*
X129703765Y-110514899D01*
X129694325Y-110510716D01*
X129685095Y-110506076D01*
X129676092Y-110500984D01*
X129667334Y-110495449D01*
X129658838Y-110489477D01*
X129650621Y-110483076D01*
X129642701Y-110476253D01*
X129635095Y-110469015D01*
X129627858Y-110461410D01*
X129621035Y-110453490D01*
X129614634Y-110445273D01*
X129608662Y-110436777D01*
X129603127Y-110428019D01*
X129598035Y-110419016D01*
X129593395Y-110409786D01*
X129589212Y-110400346D01*
X129585494Y-110390713D01*
X129582249Y-110380904D01*
X129579484Y-110370938D01*
X129577205Y-110360831D01*
X129575420Y-110350601D01*
X129574136Y-110340265D01*
X129573360Y-110329840D01*
X129573100Y-110319344D01*
X129573360Y-110308848D01*
X129574136Y-110298424D01*
X129575420Y-110288087D01*
X129577205Y-110277857D01*
X129579484Y-110267750D01*
X129582249Y-110257784D01*
X129585494Y-110247976D01*
X129589212Y-110238343D01*
X129593395Y-110228903D01*
X129598035Y-110219672D01*
X129603127Y-110210670D01*
X129608662Y-110201911D01*
X129614634Y-110193415D01*
X129621035Y-110185199D01*
X129627858Y-110177279D01*
X129635095Y-110169673D01*
X129642701Y-110162435D01*
X129650621Y-110155612D01*
X129658838Y-110149211D01*
X129667334Y-110143240D01*
X129676092Y-110137705D01*
X129685095Y-110132613D01*
X129694325Y-110127972D01*
X129703765Y-110123790D01*
X129713398Y-110120072D01*
X129723207Y-110116827D01*
X129733173Y-110114061D01*
X129743280Y-110111782D01*
X129753510Y-110109997D01*
X129763846Y-110108713D01*
X129774271Y-110107938D01*
X129784767Y-110107678D01*
X129996433Y-110107678D01*
X129996433Y-110531011D01*
G37*
X135051870Y-112077896D02*
X135045801Y-112115967D01*
X135039420Y-112153355D01*
X135032721Y-112190062D01*
X135025696Y-112226094D01*
X135018339Y-112261455D01*
X135010642Y-112296148D01*
X135002598Y-112330178D01*
X126617556Y-112330178D01*
X126609513Y-112296149D01*
X126601817Y-112261457D01*
X126594459Y-112226097D01*
X126587435Y-112190066D01*
X126580735Y-112153358D01*
X126574354Y-112115970D01*
X126568285Y-112077897D01*
X126562520Y-112039136D01*
X135057634Y-112039136D01*
X135051870Y-112077896D01*
G36*
X135051870Y-112077896D02*
G01*
X135045801Y-112115967D01*
X135039420Y-112153355D01*
X135032721Y-112190062D01*
X135025696Y-112226094D01*
X135018339Y-112261455D01*
X135010642Y-112296148D01*
X135002598Y-112330178D01*
X126617556Y-112330178D01*
X126609513Y-112296149D01*
X126601817Y-112261457D01*
X126594459Y-112226097D01*
X126587435Y-112190066D01*
X126580735Y-112153358D01*
X126574354Y-112115970D01*
X126568285Y-112077897D01*
X126562520Y-112039136D01*
X135057634Y-112039136D01*
X135051870Y-112077896D01*
G37*
X135101133Y-111574839D02*
X135093270Y-111695232D01*
X135083867Y-111810638D01*
X135078485Y-111866163D01*
X135072594Y-111920074D01*
X126547587Y-111920074D01*
X126541696Y-111866163D01*
X126536314Y-111810638D01*
X126526912Y-111695233D01*
X126519049Y-111574839D01*
X126512395Y-111450438D01*
X135107786Y-111450438D01*
X135101133Y-111574839D01*
G36*
X135101133Y-111574839D02*
G01*
X135093270Y-111695232D01*
X135083867Y-111810638D01*
X135078485Y-111866163D01*
X135072594Y-111920074D01*
X126547587Y-111920074D01*
X126541696Y-111866163D01*
X126536314Y-111810638D01*
X126526912Y-111695233D01*
X126519049Y-111574839D01*
X126512395Y-111450438D01*
X135107786Y-111450438D01*
X135101133Y-111574839D01*
G37*
X134572682Y-106897724D02*
X134595618Y-106916219D01*
X134617918Y-106935249D01*
X134639591Y-106954816D01*
X134660642Y-106974923D01*
X134681078Y-106995573D01*
X134700906Y-107016768D01*
X134720132Y-107038511D01*
X126899974Y-107038511D01*
X126919199Y-107016768D01*
X126939025Y-106995573D01*
X126959461Y-106974923D01*
X126980512Y-106954816D01*
X127002185Y-106935249D01*
X127024487Y-106916219D01*
X127047423Y-106897724D01*
X127071001Y-106879761D01*
X134549105Y-106879761D01*
X134572682Y-106897724D01*
G36*
X134572682Y-106897724D02*
G01*
X134595618Y-106916219D01*
X134617918Y-106935249D01*
X134639591Y-106954816D01*
X134660642Y-106974923D01*
X134681078Y-106995573D01*
X134700906Y-107016768D01*
X134720132Y-107038511D01*
X126899974Y-107038511D01*
X126919199Y-107016768D01*
X126939025Y-106995573D01*
X126959461Y-106974923D01*
X126980512Y-106954816D01*
X127002185Y-106935249D01*
X127024487Y-106916219D01*
X127047423Y-106897724D01*
X127071001Y-106879761D01*
X134549105Y-106879761D01*
X134572682Y-106897724D01*
G37*
X131878745Y-110253198D02*
X131593392Y-110253198D01*
X131732761Y-109353615D01*
X131739376Y-109353615D01*
X131878745Y-110253198D01*
G36*
X131878745Y-110253198D02*
G01*
X131593392Y-110253198D01*
X131732761Y-109353615D01*
X131739376Y-109353615D01*
X131878745Y-110253198D01*
G37*
X134875313Y-107274896D02*
X134887653Y-107300033D01*
X134899648Y-107325628D01*
X134911277Y-107351720D01*
X134922521Y-107378348D01*
X134933358Y-107405553D01*
X134943768Y-107433371D01*
X134953730Y-107461844D01*
X126666319Y-107461844D01*
X126676280Y-107433373D01*
X126686690Y-107405555D01*
X126697527Y-107378351D01*
X126708770Y-107351722D01*
X126720400Y-107325629D01*
X126732395Y-107300034D01*
X126744735Y-107274896D01*
X126757399Y-107250178D01*
X134862649Y-107250178D01*
X134875313Y-107274896D01*
G36*
X134875313Y-107274896D02*
G01*
X134887653Y-107300033D01*
X134899648Y-107325628D01*
X134911277Y-107351720D01*
X134922521Y-107378348D01*
X134933358Y-107405553D01*
X134943768Y-107433371D01*
X134953730Y-107461844D01*
X126666319Y-107461844D01*
X126676280Y-107433373D01*
X126686690Y-107405555D01*
X126697527Y-107378351D01*
X126708770Y-107351722D01*
X126720400Y-107325629D01*
X126732395Y-107300034D01*
X126744735Y-107274896D01*
X126757399Y-107250178D01*
X134862649Y-107250178D01*
X134875313Y-107274896D01*
G37*
D11*
G36*
X135289000Y-81344448D02*
G01*
X134851316Y-81344448D01*
X134851316Y-81373513D01*
X135289000Y-81677840D01*
X135289000Y-81873967D01*
X134835929Y-81547414D01*
X134820923Y-81597484D01*
X134798621Y-81642425D01*
X134769022Y-81682236D01*
X134732126Y-81716919D01*
X134689582Y-81745022D01*
X134643038Y-81765095D01*
X134592495Y-81777140D01*
X134537953Y-81781154D01*
X134485723Y-81777531D01*
X134437477Y-81766660D01*
X134386226Y-81744818D01*
X134340398Y-81713112D01*
X134305434Y-81678084D01*
X134278457Y-81638909D01*
X134257062Y-81591542D01*
X134241248Y-81535983D01*
X134232334Y-81483427D01*
X134227295Y-81425182D01*
X134226718Y-81401601D01*
X134382370Y-81401601D01*
X134383774Y-81441322D01*
X134392353Y-81498840D01*
X134412944Y-81553537D01*
X134444766Y-81592607D01*
X134487820Y-81616048D01*
X134542105Y-81623862D01*
X134600042Y-81615834D01*
X134645992Y-81591748D01*
X134679955Y-81551605D01*
X134699101Y-81505887D01*
X134709923Y-81449019D01*
X134712586Y-81395495D01*
X134712586Y-81344448D01*
X134382370Y-81344448D01*
X134382370Y-81401601D01*
X134226718Y-81401601D01*
X134226055Y-81374490D01*
X134226055Y-81187156D01*
X135289000Y-81187156D01*
X135289000Y-81344448D01*
G37*
G36*
X134382370Y-82279410D02*
G01*
X134382370Y-82096960D01*
X134226055Y-82184399D01*
X134226055Y-82436702D01*
X135296815Y-82436702D01*
X135296815Y-82279410D01*
X134382370Y-82279410D01*
G37*
G36*
X134317000Y-74473559D02*
G01*
X133966853Y-74473559D01*
X133966853Y-74496811D01*
X134317000Y-74740272D01*
X134317000Y-74897174D01*
X133954543Y-74635932D01*
X133942539Y-74675988D01*
X133924697Y-74711940D01*
X133901017Y-74743790D01*
X133871501Y-74771536D01*
X133837465Y-74794018D01*
X133800230Y-74810077D01*
X133759796Y-74819712D01*
X133716162Y-74822924D01*
X133674378Y-74820025D01*
X133635782Y-74811329D01*
X133594781Y-74793855D01*
X133558119Y-74768490D01*
X133530147Y-74740468D01*
X133508566Y-74709128D01*
X133491450Y-74671234D01*
X133478799Y-74626787D01*
X133471667Y-74584742D01*
X133467636Y-74538146D01*
X133467175Y-74519282D01*
X133591696Y-74519282D01*
X133592819Y-74551058D01*
X133599683Y-74597073D01*
X133616155Y-74640831D01*
X133641613Y-74672086D01*
X133676056Y-74690839D01*
X133719484Y-74697090D01*
X133765833Y-74690668D01*
X133802594Y-74671399D01*
X133829764Y-74639285D01*
X133845081Y-74602711D01*
X133853738Y-74557216D01*
X133855869Y-74514397D01*
X133855869Y-74473559D01*
X133591696Y-74473559D01*
X133591696Y-74519282D01*
X133467175Y-74519282D01*
X133466644Y-74497593D01*
X133466644Y-74347725D01*
X134317000Y-74347725D01*
X134317000Y-74473559D01*
G37*
G36*
X134191947Y-75208046D02*
G01*
X134191947Y-75522436D01*
X134317000Y-75522436D01*
X134317000Y-74955402D01*
X133958646Y-75248493D01*
X133926681Y-75274108D01*
X133894693Y-75299111D01*
X133866030Y-75320789D01*
X133834096Y-75343779D01*
X133800182Y-75365534D01*
X133762803Y-75384466D01*
X133722876Y-75395510D01*
X133706979Y-75396602D01*
X133665002Y-75390749D01*
X133628467Y-75373191D01*
X133607132Y-75354983D01*
X133582485Y-75321140D01*
X133569213Y-75281747D01*
X133566685Y-75252401D01*
X133572030Y-75208247D01*
X133588063Y-75171773D01*
X133614785Y-75142979D01*
X133652195Y-75121865D01*
X133691535Y-75110137D01*
X133718702Y-75105660D01*
X133718702Y-74978849D01*
X133671701Y-74986438D01*
X133629323Y-74997703D01*
X133591568Y-75012643D01*
X133548420Y-75038279D01*
X133513490Y-75070449D01*
X133486779Y-75109152D01*
X133468287Y-75154389D01*
X133459811Y-75192604D01*
X133455958Y-75234494D01*
X133455702Y-75249275D01*
X133458271Y-75291347D01*
X133465978Y-75330809D01*
X133481464Y-75373549D01*
X133503944Y-75412736D01*
X133528779Y-75443496D01*
X133557406Y-75470324D01*
X133593895Y-75494607D01*
X133633712Y-75511335D01*
X133676858Y-75520509D01*
X133709714Y-75522436D01*
X133752312Y-75518829D01*
X133794375Y-75508010D01*
X133831775Y-75492106D01*
X133844145Y-75485506D01*
X133879316Y-75464240D01*
X133911410Y-75441663D01*
X133925820Y-75430796D01*
X133956931Y-75406475D01*
X133987801Y-75381420D01*
X134021392Y-75353368D01*
X134037195Y-75339938D01*
X134191947Y-75208046D01*
G37*
G36*
X131305055Y-67913705D02*
G01*
X131938376Y-67913705D01*
X131994187Y-67915856D01*
X132043009Y-67922307D01*
X132090247Y-67934947D01*
X132136457Y-67958646D01*
X132176208Y-67995404D01*
X132204601Y-68039002D01*
X132221637Y-68089438D01*
X132227227Y-68139180D01*
X132227316Y-68146713D01*
X132222968Y-68197500D01*
X132207352Y-68249073D01*
X132180378Y-68293747D01*
X132142047Y-68331520D01*
X132136457Y-68335757D01*
X132091086Y-68359456D01*
X132037405Y-68373281D01*
X131987237Y-68379118D01*
X131938376Y-68380698D01*
X131305055Y-68380698D01*
X131305055Y-68537990D01*
X131986981Y-68537990D01*
X132037833Y-68535450D01*
X132095077Y-68525695D01*
X132148200Y-68508625D01*
X132197201Y-68484239D01*
X132242081Y-68452537D01*
X132262975Y-68433942D01*
X132297734Y-68396147D01*
X132326602Y-68355728D01*
X132353467Y-68303761D01*
X132369374Y-68257570D01*
X132379389Y-68208754D01*
X132383513Y-68157316D01*
X132383631Y-68146713D01*
X132380685Y-68094832D01*
X132371848Y-68045586D01*
X132357120Y-67998976D01*
X132331669Y-67946523D01*
X132303979Y-67905711D01*
X132270398Y-67867535D01*
X132262975Y-67860216D01*
X132220156Y-67824939D01*
X132173216Y-67796961D01*
X132122154Y-67776281D01*
X132066970Y-67762901D01*
X132017835Y-67757325D01*
X131986981Y-67756413D01*
X131305055Y-67756413D01*
X131305055Y-67913705D01*
G37*
G36*
X131881468Y-69032337D02*
G01*
X131742738Y-69032337D01*
X131740902Y-69083332D01*
X131732745Y-69135155D01*
X131719535Y-69166427D01*
X131681937Y-69203785D01*
X131635161Y-69222882D01*
X131588132Y-69227732D01*
X131539566Y-69221446D01*
X131495170Y-69200451D01*
X131474803Y-69183035D01*
X131445864Y-69142803D01*
X131431678Y-69093945D01*
X131430107Y-69068485D01*
X131436512Y-69016820D01*
X131459516Y-68971513D01*
X131463568Y-68966880D01*
X131505417Y-68938459D01*
X131553657Y-68921285D01*
X131577630Y-68915589D01*
X131577630Y-68756832D01*
X131524825Y-68767903D01*
X131477601Y-68782614D01*
X131429561Y-68804380D01*
X131383960Y-68835322D01*
X131360498Y-68857948D01*
X131330257Y-68899988D01*
X131308657Y-68949661D01*
X131296845Y-68999386D01*
X131291647Y-69054955D01*
X131291377Y-69071905D01*
X131294296Y-69122034D01*
X131305082Y-69175959D01*
X131323816Y-69224976D01*
X131350496Y-69269085D01*
X131374420Y-69297585D01*
X131412519Y-69331656D01*
X131455223Y-69357358D01*
X131502532Y-69374692D01*
X131554446Y-69383658D01*
X131586178Y-69385024D01*
X131638683Y-69380911D01*
X131686654Y-69368572D01*
X131736889Y-69343780D01*
X131780954Y-69307791D01*
X131813812Y-69268032D01*
X131845947Y-69312771D01*
X131884830Y-69348254D01*
X131930462Y-69374481D01*
X131982844Y-69391451D01*
X132031651Y-69398522D01*
X132063184Y-69399679D01*
X132114312Y-69396321D01*
X132169382Y-69383918D01*
X132219519Y-69362374D01*
X132264724Y-69331692D01*
X132293994Y-69304180D01*
X132328921Y-69259935D01*
X132355269Y-69210547D01*
X132371026Y-69164122D01*
X132380480Y-69113918D01*
X132383631Y-69059937D01*
X132380274Y-69002947D01*
X132370202Y-68950738D01*
X132353417Y-68903313D01*
X132324411Y-68852714D01*
X132285737Y-68809002D01*
X132246122Y-68777836D01*
X132201241Y-68754932D01*
X132151324Y-68739819D01*
X132098976Y-68730867D01*
X132086387Y-68729476D01*
X132086387Y-68883349D01*
X132135010Y-68895982D01*
X132178310Y-68919046D01*
X132204113Y-68942700D01*
X132230522Y-68985717D01*
X132242949Y-69033796D01*
X132244901Y-69065554D01*
X132238811Y-69115024D01*
X132218278Y-69161948D01*
X132193366Y-69192317D01*
X132149883Y-69222828D01*
X132103144Y-69238426D01*
X132060009Y-69242386D01*
X132010275Y-69237715D01*
X131963594Y-69221293D01*
X131923237Y-69189179D01*
X131907602Y-69167648D01*
X131889737Y-69120231D01*
X131882718Y-69070118D01*
X131881468Y-69032337D01*
G37*
G36*
X126880814Y-67981147D02*
G01*
X126880814Y-68172878D01*
X126924635Y-68139526D01*
X126968933Y-68111827D01*
X127013707Y-68089781D01*
X127068066Y-68070787D01*
X127123113Y-68059933D01*
X127169509Y-68057107D01*
X127219613Y-68059963D01*
X127276399Y-68070931D01*
X127329545Y-68090125D01*
X127379050Y-68117545D01*
X127424914Y-68153191D01*
X127446481Y-68174099D01*
X127479129Y-68211841D01*
X127511003Y-68260453D01*
X127534908Y-68312689D01*
X127550845Y-68368548D01*
X127558039Y-68417865D01*
X127559809Y-68459131D01*
X127557043Y-68509844D01*
X127548742Y-68558030D01*
X127531477Y-68612515D01*
X127506244Y-68663360D01*
X127473042Y-68710563D01*
X127446481Y-68740010D01*
X127409819Y-68772940D01*
X127362535Y-68805088D01*
X127311662Y-68829200D01*
X127257200Y-68845274D01*
X127199148Y-68853311D01*
X127168777Y-68854316D01*
X127118263Y-68851620D01*
X127068373Y-68842430D01*
X127024429Y-68826716D01*
X126979995Y-68804662D01*
X126955797Y-68789836D01*
X126914521Y-68760641D01*
X126880814Y-68733660D01*
X126880814Y-68929542D01*
X126924043Y-68952903D01*
X126976800Y-68975709D01*
X127030518Y-68992814D01*
X127085198Y-69004217D01*
X127140839Y-69009918D01*
X127169021Y-69010631D01*
X127224827Y-69008131D01*
X127278548Y-69000632D01*
X127330187Y-68988134D01*
X127379741Y-68970636D01*
X127427212Y-68948139D01*
X127472599Y-68920643D01*
X127515903Y-68888147D01*
X127557123Y-68850652D01*
X127594618Y-68809249D01*
X127627114Y-68765762D01*
X127654610Y-68720192D01*
X127677107Y-68672538D01*
X127694605Y-68622800D01*
X127707103Y-68570979D01*
X127714602Y-68517073D01*
X127717102Y-68461085D01*
X127715010Y-68410675D01*
X127708736Y-68361663D01*
X127695012Y-68302361D01*
X127674752Y-68245242D01*
X127647957Y-68190305D01*
X127621816Y-68147927D01*
X127591491Y-68106946D01*
X127583257Y-68096919D01*
X127540529Y-68050951D01*
X127494780Y-68011113D01*
X127446007Y-67977404D01*
X127394213Y-67949823D01*
X127339395Y-67928372D01*
X127281556Y-67913049D01*
X127220693Y-67903856D01*
X127156809Y-67900792D01*
X127103571Y-67903617D01*
X127051021Y-67912092D01*
X126999158Y-67926217D01*
X126947981Y-67945992D01*
X126897491Y-67971417D01*
X126880814Y-67981147D01*
G37*
G36*
X126439223Y-68088370D02*
G01*
X126621673Y-68088370D01*
X126534234Y-67932055D01*
X126281931Y-67932055D01*
X126281931Y-69002815D01*
X126439223Y-69002815D01*
X126439223Y-68088370D01*
G37*
G36*
X132553843Y-66328000D02*
G01*
X132396551Y-66328000D01*
X132396551Y-65890316D01*
X132367486Y-65890316D01*
X132063159Y-66328000D01*
X131867032Y-66328000D01*
X132193585Y-65874929D01*
X132143515Y-65859923D01*
X132098574Y-65837621D01*
X132058763Y-65808022D01*
X132024080Y-65771126D01*
X131995977Y-65728582D01*
X131975904Y-65682038D01*
X131963859Y-65631495D01*
X131960151Y-65581105D01*
X132117137Y-65581105D01*
X132125165Y-65639042D01*
X132149251Y-65684992D01*
X132189394Y-65718955D01*
X132235112Y-65738101D01*
X132291980Y-65748923D01*
X132345504Y-65751586D01*
X132396551Y-65751586D01*
X132396551Y-65421370D01*
X132339398Y-65421370D01*
X132299677Y-65422774D01*
X132242159Y-65431353D01*
X132187462Y-65451944D01*
X132148392Y-65483766D01*
X132124951Y-65526820D01*
X132117137Y-65581105D01*
X131960151Y-65581105D01*
X131959845Y-65576953D01*
X131963468Y-65524723D01*
X131974339Y-65476477D01*
X131996181Y-65425226D01*
X132027887Y-65379398D01*
X132062915Y-65344434D01*
X132102090Y-65317457D01*
X132149457Y-65296062D01*
X132205016Y-65280248D01*
X132257572Y-65271334D01*
X132315817Y-65266295D01*
X132366509Y-65265055D01*
X132553843Y-65265055D01*
X132553843Y-66328000D01*
G37*
G36*
X131823557Y-66171684D02*
G01*
X131305274Y-66171684D01*
X131305274Y-66320184D01*
X131147981Y-66320184D01*
X131147981Y-66171684D01*
X131031722Y-66171684D01*
X131031722Y-66032954D01*
X131147981Y-66032954D01*
X131305274Y-66032954D01*
X131548784Y-66032954D01*
X131305274Y-65677581D01*
X131305274Y-66032954D01*
X131147981Y-66032954D01*
X131147981Y-65189339D01*
X131823557Y-66171684D01*
G37*
G36*
X127163147Y-66667185D02*
G01*
X127354878Y-66667185D01*
X127321526Y-66623364D01*
X127293827Y-66579066D01*
X127271781Y-66534292D01*
X127252787Y-66479933D01*
X127241933Y-66424886D01*
X127239107Y-66378490D01*
X127241963Y-66328386D01*
X127252931Y-66271600D01*
X127272125Y-66218454D01*
X127299545Y-66168949D01*
X127335191Y-66123085D01*
X127356099Y-66101518D01*
X127393841Y-66068870D01*
X127442453Y-66036996D01*
X127494689Y-66013091D01*
X127550548Y-65997154D01*
X127599865Y-65989960D01*
X127641131Y-65988190D01*
X127691844Y-65990956D01*
X127740030Y-65999257D01*
X127794515Y-66016522D01*
X127845360Y-66041755D01*
X127892563Y-66074957D01*
X127922010Y-66101518D01*
X127954940Y-66138180D01*
X127987088Y-66185464D01*
X128011200Y-66236337D01*
X128027274Y-66290799D01*
X128035311Y-66348851D01*
X128036316Y-66379222D01*
X128033620Y-66429736D01*
X128024430Y-66479626D01*
X128008716Y-66523570D01*
X127986662Y-66568004D01*
X127971836Y-66592202D01*
X127942641Y-66633478D01*
X127915660Y-66667185D01*
X128111542Y-66667185D01*
X128134903Y-66623956D01*
X128157709Y-66571199D01*
X128174814Y-66517481D01*
X128186217Y-66462801D01*
X128191918Y-66407160D01*
X128192631Y-66378978D01*
X128190131Y-66323172D01*
X128182632Y-66269451D01*
X128170134Y-66217812D01*
X128152636Y-66168258D01*
X128130139Y-66120787D01*
X128102643Y-66075400D01*
X128070147Y-66032096D01*
X128032652Y-65990876D01*
X127991249Y-65953381D01*
X127947762Y-65920885D01*
X127902192Y-65893389D01*
X127854538Y-65870892D01*
X127804800Y-65853394D01*
X127752979Y-65840896D01*
X127699073Y-65833397D01*
X127643085Y-65830897D01*
X127592675Y-65832989D01*
X127543663Y-65839263D01*
X127484361Y-65852987D01*
X127427242Y-65873247D01*
X127372305Y-65900042D01*
X127329927Y-65926183D01*
X127288946Y-65956508D01*
X127278919Y-65964742D01*
X127232951Y-66007470D01*
X127193113Y-66053219D01*
X127159404Y-66101992D01*
X127131823Y-66153786D01*
X127110372Y-66208604D01*
X127095049Y-66266443D01*
X127085856Y-66327306D01*
X127082792Y-66391190D01*
X127085617Y-66444428D01*
X127094092Y-66496978D01*
X127108217Y-66548841D01*
X127127992Y-66600018D01*
X127153417Y-66650508D01*
X127163147Y-66667185D01*
G37*
G36*
X127690468Y-67100960D02*
G01*
X127551738Y-67100960D01*
X127549902Y-67151954D01*
X127541745Y-67203777D01*
X127528535Y-67235049D01*
X127490937Y-67272407D01*
X127444161Y-67291505D01*
X127397132Y-67296354D01*
X127348566Y-67290069D01*
X127304170Y-67269074D01*
X127283803Y-67251658D01*
X127254864Y-67211426D01*
X127240678Y-67162567D01*
X127239107Y-67137108D01*
X127245512Y-67085443D01*
X127268516Y-67040136D01*
X127272568Y-67035503D01*
X127314417Y-67007081D01*
X127362657Y-66989908D01*
X127386630Y-66984212D01*
X127386630Y-66825454D01*
X127333825Y-66836525D01*
X127286601Y-66851237D01*
X127238561Y-66873002D01*
X127192960Y-66903945D01*
X127169498Y-66926571D01*
X127139257Y-66968611D01*
X127117657Y-67018284D01*
X127105845Y-67068009D01*
X127100647Y-67123577D01*
X127100377Y-67140527D01*
X127103296Y-67190656D01*
X127114082Y-67244582D01*
X127132816Y-67293599D01*
X127159496Y-67337707D01*
X127183420Y-67366208D01*
X127221519Y-67400278D01*
X127264223Y-67425980D01*
X127311532Y-67443315D01*
X127363446Y-67452280D01*
X127395178Y-67453647D01*
X127447683Y-67449534D01*
X127495654Y-67437195D01*
X127545889Y-67412402D01*
X127589954Y-67376413D01*
X127622812Y-67336654D01*
X127654947Y-67381394D01*
X127693830Y-67416877D01*
X127739462Y-67443103D01*
X127791844Y-67460073D01*
X127840651Y-67467144D01*
X127872184Y-67468301D01*
X127923312Y-67464944D01*
X127978382Y-67452540D01*
X128028519Y-67430997D01*
X128073724Y-67400314D01*
X128102994Y-67372802D01*
X128137921Y-67328557D01*
X128164269Y-67279170D01*
X128180026Y-67232744D01*
X128189480Y-67182541D01*
X128192631Y-67128559D01*
X128189274Y-67071569D01*
X128179202Y-67019361D01*
X128162417Y-66971935D01*
X128133411Y-66921337D01*
X128094737Y-66877625D01*
X128055122Y-66846459D01*
X128010241Y-66823554D01*
X127960324Y-66808442D01*
X127907976Y-66799490D01*
X127895387Y-66798099D01*
X127895387Y-66951972D01*
X127944010Y-66964605D01*
X127987310Y-66987669D01*
X128013113Y-67011323D01*
X128039522Y-67054339D01*
X128051949Y-67102419D01*
X128053901Y-67134177D01*
X128047811Y-67183647D01*
X128027278Y-67230570D01*
X128002366Y-67260939D01*
X127958883Y-67291450D01*
X127912144Y-67307048D01*
X127869009Y-67311009D01*
X127819275Y-67306338D01*
X127772594Y-67289916D01*
X127732237Y-67257802D01*
X127716602Y-67236271D01*
X127698737Y-67188853D01*
X127691718Y-67138740D01*
X127690468Y-67100960D01*
G37*
G36*
X134317000Y-71171559D02*
G01*
X133966853Y-71171559D01*
X133966853Y-71194811D01*
X134317000Y-71438272D01*
X134317000Y-71595174D01*
X133954543Y-71333932D01*
X133942539Y-71373988D01*
X133924697Y-71409940D01*
X133901017Y-71441790D01*
X133871501Y-71469536D01*
X133837465Y-71492018D01*
X133800230Y-71508077D01*
X133759796Y-71517712D01*
X133716162Y-71520924D01*
X133674378Y-71518025D01*
X133635782Y-71509329D01*
X133594781Y-71491855D01*
X133558119Y-71466490D01*
X133530147Y-71438468D01*
X133508566Y-71407128D01*
X133491450Y-71369234D01*
X133478799Y-71324787D01*
X133471667Y-71282742D01*
X133467636Y-71236146D01*
X133467175Y-71217282D01*
X133591696Y-71217282D01*
X133592819Y-71249058D01*
X133599683Y-71295073D01*
X133616155Y-71338831D01*
X133641613Y-71370086D01*
X133676056Y-71388839D01*
X133719484Y-71395090D01*
X133765833Y-71388668D01*
X133802594Y-71369399D01*
X133829764Y-71337285D01*
X133845081Y-71300711D01*
X133853738Y-71255216D01*
X133855869Y-71212397D01*
X133855869Y-71171559D01*
X133591696Y-71171559D01*
X133591696Y-71217282D01*
X133467175Y-71217282D01*
X133466644Y-71195593D01*
X133466644Y-71045725D01*
X134317000Y-71045725D01*
X134317000Y-71171559D01*
G37*
G36*
X133927774Y-71913276D02*
G01*
X133816790Y-71913276D01*
X133815322Y-71954071D01*
X133808796Y-71995530D01*
X133798228Y-72020547D01*
X133768149Y-72050434D01*
X133730729Y-72065712D01*
X133693106Y-72069591D01*
X133654253Y-72064563D01*
X133618736Y-72047767D01*
X133602443Y-72033834D01*
X133579291Y-72001649D01*
X133567943Y-71962562D01*
X133566685Y-71942194D01*
X133571809Y-71900862D01*
X133590213Y-71864617D01*
X133593454Y-71860910D01*
X133626934Y-71838173D01*
X133665526Y-71824434D01*
X133684704Y-71819877D01*
X133684704Y-71692871D01*
X133642460Y-71701728D01*
X133604681Y-71713498D01*
X133566248Y-71730910D01*
X133529768Y-71755664D01*
X133510998Y-71773764D01*
X133486806Y-71807397D01*
X133469526Y-71847135D01*
X133460076Y-71886915D01*
X133455918Y-71931370D01*
X133455702Y-71944930D01*
X133458037Y-71985033D01*
X133466666Y-72028174D01*
X133481652Y-72067387D01*
X133502997Y-72102674D01*
X133522136Y-72125474D01*
X133552615Y-72152731D01*
X133586778Y-72173292D01*
X133624625Y-72187160D01*
X133666156Y-72194332D01*
X133691542Y-72195425D01*
X133733546Y-72192135D01*
X133771923Y-72182264D01*
X133812111Y-72162430D01*
X133847363Y-72133639D01*
X133873650Y-72101831D01*
X133899357Y-72137623D01*
X133930464Y-72166009D01*
X133966970Y-72186991D01*
X134008875Y-72200567D01*
X134047920Y-72206223D01*
X134073147Y-72207149D01*
X134114050Y-72204463D01*
X134158105Y-72194540D01*
X134198215Y-72177306D01*
X134234379Y-72152759D01*
X134257795Y-72130750D01*
X134285737Y-72095354D01*
X134306815Y-72055844D01*
X134319421Y-72018703D01*
X134326984Y-71978541D01*
X134329505Y-71935356D01*
X134326819Y-71889763D01*
X134318762Y-71847997D01*
X134305333Y-71810056D01*
X134282129Y-71769577D01*
X134251189Y-71734608D01*
X134219498Y-71709675D01*
X134183593Y-71691351D01*
X134143659Y-71679261D01*
X134101780Y-71672100D01*
X134091710Y-71670987D01*
X134091710Y-71794085D01*
X134130608Y-71804192D01*
X134165248Y-71822643D01*
X134185890Y-71841566D01*
X134207017Y-71875980D01*
X134216959Y-71914443D01*
X134218521Y-71939850D01*
X134213649Y-71979426D01*
X134197222Y-72016964D01*
X134177293Y-72041259D01*
X134142506Y-72065668D01*
X134105115Y-72078147D01*
X134070607Y-72081315D01*
X134030820Y-72077578D01*
X133993475Y-72064441D01*
X133961189Y-72038749D01*
X133948681Y-72021524D01*
X133934389Y-71983590D01*
X133928775Y-71943500D01*
X133927774Y-71913276D01*
G37*
G36*
X130472294Y-79870055D02*
G01*
X130472294Y-80503376D01*
X130470143Y-80559187D01*
X130463692Y-80608009D01*
X130451052Y-80655247D01*
X130427353Y-80701457D01*
X130390595Y-80741208D01*
X130346997Y-80769601D01*
X130296561Y-80786637D01*
X130246819Y-80792227D01*
X130239286Y-80792316D01*
X130188499Y-80787968D01*
X130136926Y-80772352D01*
X130092252Y-80745378D01*
X130054479Y-80707047D01*
X130050242Y-80701457D01*
X130026543Y-80656086D01*
X130012718Y-80602405D01*
X130006881Y-80552237D01*
X130005301Y-80503376D01*
X130005301Y-79870055D01*
X129848009Y-79870055D01*
X129848009Y-80551981D01*
X129850549Y-80602833D01*
X129860304Y-80660077D01*
X129877374Y-80713200D01*
X129901760Y-80762201D01*
X129933462Y-80807081D01*
X129952057Y-80827975D01*
X129989852Y-80862734D01*
X130030271Y-80891602D01*
X130082238Y-80918467D01*
X130128429Y-80934374D01*
X130177245Y-80944389D01*
X130228683Y-80948513D01*
X130239286Y-80948631D01*
X130291167Y-80945685D01*
X130340413Y-80936848D01*
X130387023Y-80922120D01*
X130439476Y-80896669D01*
X130480288Y-80868979D01*
X130518464Y-80835398D01*
X130525783Y-80827975D01*
X130561060Y-80785156D01*
X130589038Y-80738216D01*
X130609718Y-80687154D01*
X130623098Y-80631970D01*
X130628674Y-80582835D01*
X130629586Y-80551981D01*
X130629586Y-79870055D01*
X130472294Y-79870055D01*
G37*
G36*
X129345846Y-80026370D02*
G01*
X129528295Y-80026370D01*
X129440856Y-79870055D01*
X129188553Y-79870055D01*
X129188553Y-80940815D01*
X129345846Y-80940815D01*
X129345846Y-80026370D01*
G37*
G36*
X130079294Y-72885055D02*
G01*
X130079294Y-73518376D01*
X130077143Y-73574187D01*
X130070692Y-73623009D01*
X130058052Y-73670247D01*
X130034353Y-73716457D01*
X129997595Y-73756208D01*
X129953997Y-73784601D01*
X129903561Y-73801637D01*
X129853819Y-73807227D01*
X129846286Y-73807316D01*
X129795499Y-73802968D01*
X129743926Y-73787352D01*
X129699252Y-73760378D01*
X129661479Y-73722047D01*
X129657242Y-73716457D01*
X129633543Y-73671086D01*
X129619718Y-73617405D01*
X129613881Y-73567237D01*
X129612301Y-73518376D01*
X129612301Y-72885055D01*
X129455009Y-72885055D01*
X129455009Y-73566981D01*
X129457549Y-73617833D01*
X129467304Y-73675077D01*
X129484374Y-73728200D01*
X129508760Y-73777201D01*
X129540462Y-73822081D01*
X129559057Y-73842975D01*
X129596852Y-73877734D01*
X129637271Y-73906602D01*
X129689238Y-73933467D01*
X129735429Y-73949374D01*
X129784245Y-73959389D01*
X129835683Y-73963513D01*
X129846286Y-73963631D01*
X129898167Y-73960685D01*
X129947413Y-73951848D01*
X129994023Y-73937120D01*
X130046476Y-73911669D01*
X130087288Y-73883979D01*
X130125464Y-73850398D01*
X130132783Y-73842975D01*
X130168060Y-73800156D01*
X130196038Y-73753216D01*
X130216718Y-73702154D01*
X130230098Y-73646970D01*
X130235674Y-73597835D01*
X130236586Y-73566981D01*
X130236586Y-72885055D01*
X130079294Y-72885055D01*
G37*
G36*
X128969699Y-73791684D02*
G01*
X128576712Y-73791684D01*
X128576712Y-73948000D01*
X129285505Y-73948000D01*
X128919140Y-73500058D01*
X128887122Y-73460102D01*
X128855868Y-73420116D01*
X128828770Y-73384287D01*
X128800033Y-73344370D01*
X128772839Y-73301977D01*
X128749174Y-73255254D01*
X128735369Y-73205346D01*
X128734004Y-73185473D01*
X128741320Y-73133003D01*
X128763268Y-73087334D01*
X128786028Y-73060665D01*
X128828332Y-73029856D01*
X128877573Y-73013267D01*
X128914255Y-73010107D01*
X128969448Y-73016787D01*
X129015040Y-73036829D01*
X129051032Y-73070231D01*
X129077425Y-73116994D01*
X129092085Y-73166169D01*
X129097682Y-73200128D01*
X129256195Y-73200128D01*
X129246709Y-73141377D01*
X129232628Y-73088404D01*
X129213953Y-73041210D01*
X129181908Y-72987275D01*
X129141696Y-72943612D01*
X129093316Y-72910224D01*
X129036770Y-72887108D01*
X128989001Y-72876514D01*
X128936638Y-72871698D01*
X128918163Y-72871377D01*
X128865573Y-72874588D01*
X128816245Y-72884223D01*
X128762821Y-72903580D01*
X128713837Y-72931680D01*
X128675386Y-72962724D01*
X128641852Y-72998507D01*
X128611498Y-73044118D01*
X128590588Y-73093890D01*
X128579121Y-73147822D01*
X128576712Y-73188893D01*
X128581220Y-73242140D01*
X128594744Y-73294719D01*
X128614624Y-73341469D01*
X128622874Y-73356932D01*
X128649457Y-73400896D01*
X128677678Y-73441012D01*
X128691262Y-73459025D01*
X128721663Y-73497913D01*
X128752981Y-73536502D01*
X128788047Y-73578491D01*
X128804835Y-73598244D01*
X128969699Y-73791684D01*
G37*
G36*
X130182814Y-76490147D02*
G01*
X130182814Y-76681878D01*
X130226635Y-76648526D01*
X130270933Y-76620827D01*
X130315707Y-76598781D01*
X130370066Y-76579787D01*
X130425113Y-76568933D01*
X130471509Y-76566107D01*
X130521613Y-76568963D01*
X130578399Y-76579931D01*
X130631545Y-76599125D01*
X130681050Y-76626545D01*
X130726914Y-76662191D01*
X130748481Y-76683099D01*
X130781129Y-76720841D01*
X130813003Y-76769453D01*
X130836908Y-76821689D01*
X130852845Y-76877548D01*
X130860039Y-76926865D01*
X130861809Y-76968131D01*
X130859043Y-77018844D01*
X130850742Y-77067030D01*
X130833477Y-77121515D01*
X130808244Y-77172360D01*
X130775042Y-77219563D01*
X130748481Y-77249010D01*
X130711819Y-77281940D01*
X130664535Y-77314088D01*
X130613662Y-77338200D01*
X130559200Y-77354274D01*
X130501148Y-77362311D01*
X130470777Y-77363316D01*
X130420263Y-77360620D01*
X130370373Y-77351430D01*
X130326429Y-77335716D01*
X130281995Y-77313662D01*
X130257797Y-77298836D01*
X130216521Y-77269641D01*
X130182814Y-77242660D01*
X130182814Y-77438542D01*
X130226043Y-77461903D01*
X130278800Y-77484709D01*
X130332518Y-77501814D01*
X130387198Y-77513217D01*
X130442839Y-77518918D01*
X130471021Y-77519631D01*
X130526827Y-77517131D01*
X130580548Y-77509632D01*
X130632187Y-77497134D01*
X130681741Y-77479636D01*
X130729212Y-77457139D01*
X130774599Y-77429643D01*
X130817903Y-77397147D01*
X130859123Y-77359652D01*
X130896618Y-77318249D01*
X130929114Y-77274762D01*
X130956610Y-77229192D01*
X130979107Y-77181538D01*
X130996605Y-77131800D01*
X131009103Y-77079979D01*
X131016602Y-77026073D01*
X131019102Y-76970085D01*
X131017010Y-76919675D01*
X131010736Y-76870663D01*
X130997012Y-76811361D01*
X130976752Y-76754242D01*
X130949957Y-76699305D01*
X130923816Y-76656927D01*
X130893491Y-76615946D01*
X130885257Y-76605919D01*
X130842529Y-76559951D01*
X130796780Y-76520113D01*
X130748007Y-76486404D01*
X130696213Y-76458823D01*
X130641395Y-76437372D01*
X130583556Y-76422049D01*
X130522693Y-76412856D01*
X130458809Y-76409792D01*
X130405571Y-76412617D01*
X130353021Y-76421092D01*
X130301158Y-76435217D01*
X130249981Y-76454992D01*
X130199491Y-76480417D01*
X130182814Y-76490147D01*
G37*
G36*
X129758076Y-77347684D02*
G01*
X129365089Y-77347684D01*
X129365089Y-77504000D01*
X130073882Y-77504000D01*
X129707518Y-77056058D01*
X129675499Y-77016102D01*
X129644245Y-76976116D01*
X129617148Y-76940287D01*
X129588410Y-76900370D01*
X129561216Y-76857977D01*
X129537551Y-76811254D01*
X129523747Y-76761346D01*
X129522382Y-76741473D01*
X129529697Y-76689003D01*
X129551645Y-76643334D01*
X129574405Y-76616665D01*
X129616709Y-76585856D01*
X129665951Y-76569267D01*
X129702633Y-76566107D01*
X129757825Y-76572787D01*
X129803417Y-76592829D01*
X129839410Y-76626231D01*
X129865802Y-76672994D01*
X129880463Y-76722169D01*
X129886059Y-76756128D01*
X130044573Y-76756128D01*
X130035086Y-76697377D01*
X130021005Y-76644404D01*
X130002331Y-76597210D01*
X129970285Y-76543275D01*
X129930073Y-76499612D01*
X129881694Y-76466224D01*
X129825148Y-76443108D01*
X129777379Y-76432514D01*
X129725016Y-76427698D01*
X129706541Y-76427377D01*
X129653950Y-76430588D01*
X129604623Y-76440223D01*
X129551198Y-76459580D01*
X129502214Y-76487680D01*
X129463763Y-76518724D01*
X129430230Y-76554507D01*
X129399876Y-76600118D01*
X129378965Y-76649890D01*
X129367498Y-76703822D01*
X129365089Y-76744893D01*
X129369597Y-76798140D01*
X129383121Y-76850719D01*
X129403001Y-76897469D01*
X129411251Y-76912932D01*
X129437834Y-76956896D01*
X129466055Y-76997012D01*
X129479639Y-77015025D01*
X129510041Y-77053913D01*
X129541358Y-77092502D01*
X129576424Y-77134491D01*
X129593212Y-77154244D01*
X129758076Y-77347684D01*
G37*
G36*
X134317000Y-67869559D02*
G01*
X133966853Y-67869559D01*
X133966853Y-67892811D01*
X134317000Y-68136272D01*
X134317000Y-68293174D01*
X133954543Y-68031932D01*
X133942539Y-68071988D01*
X133924697Y-68107940D01*
X133901017Y-68139790D01*
X133871501Y-68167536D01*
X133837465Y-68190018D01*
X133800230Y-68206077D01*
X133759796Y-68215712D01*
X133716162Y-68218924D01*
X133674378Y-68216025D01*
X133635782Y-68207329D01*
X133594781Y-68189855D01*
X133558119Y-68164490D01*
X133530147Y-68136468D01*
X133508566Y-68105128D01*
X133491450Y-68067234D01*
X133478799Y-68022787D01*
X133471667Y-67980742D01*
X133467636Y-67934146D01*
X133467175Y-67915282D01*
X133591696Y-67915282D01*
X133592819Y-67947058D01*
X133599683Y-67993073D01*
X133616155Y-68036831D01*
X133641613Y-68068086D01*
X133676056Y-68086839D01*
X133719484Y-68093090D01*
X133765833Y-68086668D01*
X133802594Y-68067399D01*
X133829764Y-68035285D01*
X133845081Y-67998711D01*
X133853738Y-67953216D01*
X133855869Y-67910397D01*
X133855869Y-67869559D01*
X133591696Y-67869559D01*
X133591696Y-67915282D01*
X133467175Y-67915282D01*
X133466644Y-67893593D01*
X133466644Y-67743725D01*
X134317000Y-67743725D01*
X134317000Y-67869559D01*
G37*
G36*
X133591696Y-68905540D02*
G01*
X133591696Y-68643907D01*
X133731403Y-68602288D01*
X133729840Y-68620264D01*
X133729254Y-68635896D01*
X133732173Y-68680711D01*
X133740931Y-68722394D01*
X133755529Y-68760945D01*
X133775965Y-68796363D01*
X133802240Y-68828649D01*
X133812296Y-68838715D01*
X133844852Y-68865808D01*
X133880678Y-68887295D01*
X133919774Y-68903177D01*
X133962139Y-68913453D01*
X134007774Y-68918124D01*
X134023713Y-68918436D01*
X134064155Y-68916241D01*
X134109676Y-68907815D01*
X134151913Y-68893069D01*
X134190867Y-68872003D01*
X134226537Y-68844617D01*
X134243140Y-68828554D01*
X134272491Y-68793207D01*
X134295769Y-68754576D01*
X134312974Y-68712662D01*
X134324107Y-68667464D01*
X134328746Y-68627291D01*
X134329505Y-68602092D01*
X134327111Y-68561099D01*
X134319930Y-68522335D01*
X134304223Y-68477014D01*
X134281035Y-68435175D01*
X134257099Y-68404211D01*
X134228376Y-68375476D01*
X134194866Y-68348969D01*
X134176316Y-68336552D01*
X134093664Y-68432881D01*
X134129153Y-68455349D01*
X134161080Y-68480422D01*
X134188965Y-68510661D01*
X134190775Y-68513188D01*
X134208739Y-68549050D01*
X134217193Y-68587477D01*
X134218521Y-68612253D01*
X134214209Y-68653374D01*
X134201272Y-68690570D01*
X134179711Y-68723840D01*
X134164006Y-68740627D01*
X134130671Y-68765752D01*
X134093533Y-68782654D01*
X134052594Y-68791333D01*
X134028207Y-68792602D01*
X133989055Y-68789390D01*
X133949504Y-68778099D01*
X133914715Y-68758677D01*
X133894166Y-68741213D01*
X133868097Y-68710282D01*
X133850560Y-68675302D01*
X133841554Y-68636272D01*
X133840237Y-68612839D01*
X133844988Y-68571330D01*
X133859240Y-68532776D01*
X133882992Y-68497178D01*
X133911570Y-68468454D01*
X133916246Y-68464535D01*
X133916246Y-68422525D01*
X133466644Y-68555393D01*
X133466644Y-68905540D01*
X133591696Y-68905540D01*
G37*
D12*
%TO.C,R1*%
X134351500Y-79739258D02*
X134351500Y-79264742D01*
X135396500Y-79739258D02*
X135396500Y-79264742D01*
%TO.C,R2*%
X134351500Y-74692742D02*
X134351500Y-75167258D01*
X135396500Y-74692742D02*
X135396500Y-75167258D01*
%TO.C,U3*%
X131026000Y-66980000D02*
X133326000Y-66980000D01*
X132626000Y-70180000D02*
X131026000Y-70180000D01*
%TO.C,C1*%
X127608420Y-69340000D02*
X127889580Y-69340000D01*
X127608420Y-70360000D02*
X127889580Y-70360000D01*
%TO.C,R4*%
X134349258Y-65263500D02*
X133874742Y-65263500D01*
X134349258Y-66308500D02*
X133874742Y-66308500D01*
%TO.C,C3*%
X128522000Y-67450580D02*
X128522000Y-67169420D01*
X129542000Y-67450580D02*
X129542000Y-67169420D01*
%TO.C,R3*%
X134351500Y-71865258D02*
X134351500Y-71390742D01*
X135396500Y-71865258D02*
X135396500Y-71390742D01*
%TO.C,U1*%
X129806000Y-77896000D02*
X127606000Y-77896000D01*
X129806000Y-77896000D02*
X133406000Y-77896000D01*
X129806000Y-83116000D02*
X127606000Y-83116000D01*
X129806000Y-83116000D02*
X132006000Y-83116000D01*
%TO.C,U2*%
X129806000Y-70796000D02*
X127606000Y-70796000D01*
X129806000Y-70796000D02*
X133406000Y-70796000D01*
X129806000Y-76016000D02*
X127606000Y-76016000D01*
X129806000Y-76016000D02*
X132006000Y-76016000D01*
%TO.C,C2*%
X127621420Y-76452000D02*
X127902580Y-76452000D01*
X127621420Y-77472000D02*
X127902580Y-77472000D01*
%TO.C,R5*%
X134351500Y-68563258D02*
X134351500Y-68088742D01*
X135396500Y-68563258D02*
X135396500Y-68088742D01*
%TD*%
%LPC*%
D13*
%TO.C,U4*%
X124460000Y-66040000D03*
D14*
X124460000Y-68580000D03*
X124460000Y-71120000D03*
X124460000Y-73660000D03*
X124460000Y-76200000D03*
X124460000Y-78740000D03*
X124460000Y-81280000D03*
X124460000Y-83820000D03*
X124460000Y-86360000D03*
X124460000Y-88900000D03*
X124460000Y-91440000D03*
X124460000Y-93980000D03*
X124460000Y-96520000D03*
X124460000Y-99060000D03*
X124460000Y-101600000D03*
X124460000Y-104140000D03*
X124460000Y-106680000D03*
X124460000Y-109220000D03*
X124460000Y-111760000D03*
X124460000Y-114300000D03*
X139700000Y-114300000D03*
X139700000Y-111760000D03*
X139700000Y-109220000D03*
X139700000Y-106680000D03*
X139700000Y-104140000D03*
X139700000Y-101600000D03*
X139700000Y-99060000D03*
X139700000Y-96520000D03*
X139700000Y-93980000D03*
X139700000Y-91440000D03*
X139700000Y-88900000D03*
X139700000Y-86360000D03*
X139700000Y-83820000D03*
X139700000Y-81280000D03*
X139700000Y-78740000D03*
X139700000Y-76200000D03*
X139700000Y-73660000D03*
X139700000Y-71120000D03*
X139700000Y-68580000D03*
X139700000Y-66040000D03*
%TD*%
D13*
%TO.C,U5*%
X121920000Y-66040000D03*
D14*
X121920000Y-68580000D03*
X121920000Y-71120000D03*
X121920000Y-73660000D03*
X121920000Y-76200000D03*
X121920000Y-78740000D03*
X121920000Y-81280000D03*
X121920000Y-83820000D03*
X121920000Y-86360000D03*
X121920000Y-88900000D03*
X121920000Y-91440000D03*
X121920000Y-93980000D03*
X121920000Y-96520000D03*
X121920000Y-99060000D03*
X121920000Y-101600000D03*
X121920000Y-104140000D03*
X121920000Y-106680000D03*
X121920000Y-109220000D03*
X121920000Y-111760000D03*
X121920000Y-114300000D03*
X137160000Y-114300000D03*
X137160000Y-111760000D03*
X137160000Y-109220000D03*
X137160000Y-106680000D03*
X137160000Y-104140000D03*
X137160000Y-101600000D03*
X137160000Y-99060000D03*
X137160000Y-96520000D03*
X137160000Y-93980000D03*
X137160000Y-91440000D03*
X137160000Y-88900000D03*
X137160000Y-86360000D03*
X137160000Y-83820000D03*
X137160000Y-81280000D03*
X137160000Y-78740000D03*
X137160000Y-76200000D03*
X137160000Y-73660000D03*
X137160000Y-71120000D03*
X137160000Y-68580000D03*
X137160000Y-66040000D03*
%TD*%
D15*
%TO.C,R1*%
X134874000Y-80327000D03*
X134874000Y-78677000D03*
%TD*%
D16*
%TO.C,R2*%
X134874000Y-74105000D03*
X134874000Y-75755000D03*
%TD*%
D17*
%TO.C,U3*%
X132986000Y-67630000D03*
X132986000Y-68580000D03*
X132986000Y-69530000D03*
X130666000Y-69530000D03*
X130666000Y-68580000D03*
X130666000Y-67630000D03*
%TD*%
D18*
%TO.C,C1*%
X126974000Y-69850000D03*
X128524000Y-69850000D03*
%TD*%
D19*
%TO.C,R4*%
X134937000Y-65786000D03*
X133287000Y-65786000D03*
%TD*%
D20*
%TO.C,C3*%
X129032000Y-68085000D03*
X129032000Y-66535000D03*
%TD*%
D15*
%TO.C,R3*%
X134874000Y-72453000D03*
X134874000Y-70803000D03*
%TD*%
D21*
%TO.C,U1*%
X132668500Y-78556000D03*
X132668500Y-79206000D03*
X132668500Y-79856000D03*
X132668500Y-80506000D03*
X132668500Y-81156000D03*
X132668500Y-81806000D03*
X132668500Y-82456000D03*
X126943500Y-82456000D03*
X126943500Y-81806000D03*
X126943500Y-81156000D03*
X126943500Y-80506000D03*
X126943500Y-79856000D03*
X126943500Y-79206000D03*
X126943500Y-78556000D03*
%TD*%
%TO.C,U2*%
X132668500Y-71456000D03*
X132668500Y-72106000D03*
X132668500Y-72756000D03*
X132668500Y-73406000D03*
X132668500Y-74056000D03*
X132668500Y-74706000D03*
X132668500Y-75356000D03*
X126943500Y-75356000D03*
X126943500Y-74706000D03*
X126943500Y-74056000D03*
X126943500Y-73406000D03*
X126943500Y-72756000D03*
X126943500Y-72106000D03*
X126943500Y-71456000D03*
%TD*%
D18*
%TO.C,C2*%
X126987000Y-76962000D03*
X128537000Y-76962000D03*
%TD*%
D15*
%TO.C,R5*%
X134874000Y-69151000D03*
X134874000Y-67501000D03*
%TD*%
%LPD*%
M02*
