%TF.GenerationSoftware,KiCad,Pcbnew,8.0.6*%
%TF.CreationDate,2024-11-04T10:18:01-07:00*%
%TF.ProjectId,TMS9918-9928,544d5339-3931-4382-9d39-3932382e6b69,rev?*%
%TF.SameCoordinates,Original*%
%TF.FileFunction,Copper,L1,Top*%
%TF.FilePolarity,Positive*%
%FSLAX46Y46*%
G04 Gerber Fmt 4.6, Leading zero omitted, Abs format (unit mm)*
G04 Created by KiCad (PCBNEW 8.0.6) date 2024-11-04 10:18:01*
%MOMM*%
%LPD*%
G01*
G04 APERTURE LIST*
%TA.AperFunction,ComponentPad*%
%ADD10R,1.600000X1.600000*%
%TD*%
%TA.AperFunction,ComponentPad*%
%ADD11O,1.600000X1.600000*%
%TD*%
%TA.AperFunction,ViaPad*%
%ADD12C,0.800000*%
%TD*%
%TA.AperFunction,Conductor*%
%ADD13C,1.000000*%
%TD*%
%TA.AperFunction,Conductor*%
%ADD14C,0.500000*%
%TD*%
%TA.AperFunction,Conductor*%
%ADD15C,0.250000*%
%TD*%
%TA.AperFunction,Conductor*%
%ADD16C,0.200000*%
%TD*%
G04 APERTURE END LIST*
D10*
%TO.P,U4,1,~{RAS}*%
%TO.N,/~{RAS}*%
X124460000Y-66040000D03*
D11*
%TO.P,U4,2,~{CAS}*%
%TO.N,/~{CAS}*%
X124460000Y-68580000D03*
%TO.P,U4,3,AD7*%
%TO.N,/AD7*%
X124460000Y-71120000D03*
%TO.P,U4,4,AD6*%
%TO.N,/AD6*%
X124460000Y-73660000D03*
%TO.P,U4,5,AD5*%
%TO.N,/AD5*%
X124460000Y-76200000D03*
%TO.P,U4,6,AD4*%
%TO.N,/AD4*%
X124460000Y-78740000D03*
%TO.P,U4,7,AD3*%
%TO.N,/AD3*%
X124460000Y-81280000D03*
%TO.P,U4,8,AD2*%
%TO.N,/AD2*%
X124460000Y-83820000D03*
%TO.P,U4,9,AD1*%
%TO.N,/AD1*%
X124460000Y-86360000D03*
%TO.P,U4,10,AD0*%
%TO.N,/AD0*%
X124460000Y-88900000D03*
%TO.P,U4,11,R/~{W}*%
%TO.N,/R{slash}~{W}*%
X124460000Y-91440000D03*
%TO.P,U4,12,VSS*%
%TO.N,GND*%
X124460000Y-93980000D03*
%TO.P,U4,13,MODE*%
%TO.N,/MODE*%
X124460000Y-96520000D03*
%TO.P,U4,14,~{CSW}*%
%TO.N,/~{CSW}*%
X124460000Y-99060000D03*
%TO.P,U4,15,~{CSR}*%
%TO.N,/~{CSR}*%
X124460000Y-101600000D03*
%TO.P,U4,16,~{INT}*%
%TO.N,/~{INT}*%
X124460000Y-104140000D03*
%TO.P,U4,17,CD7*%
%TO.N,/CD7*%
X124460000Y-106680000D03*
%TO.P,U4,18,CD6*%
%TO.N,/CD6*%
X124460000Y-109220000D03*
%TO.P,U4,19,CD5*%
%TO.N,/CD5*%
X124460000Y-111760000D03*
%TO.P,U4,20,CD4*%
%TO.N,/CD4*%
X124460000Y-114300000D03*
%TO.P,U4,21,CD3*%
%TO.N,/CD3*%
X139700000Y-114300000D03*
%TO.P,U4,22,CD2*%
%TO.N,/CD2*%
X139700000Y-111760000D03*
%TO.P,U4,23,CD1*%
%TO.N,/CD1*%
X139700000Y-109220000D03*
%TO.P,U4,24,CD0*%
%TO.N,/CD0*%
X139700000Y-106680000D03*
%TO.P,U4,25,RD7*%
%TO.N,/RD7*%
X139700000Y-104140000D03*
%TO.P,U4,26,RD6*%
%TO.N,/RD6*%
X139700000Y-101600000D03*
%TO.P,U4,27,RD5*%
%TO.N,/RD5*%
X139700000Y-99060000D03*
%TO.P,U4,28,RD4*%
%TO.N,/RD4*%
X139700000Y-96520000D03*
%TO.P,U4,29,RD3*%
%TO.N,/RD3*%
X139700000Y-93980000D03*
%TO.P,U4,30,RD2*%
%TO.N,/RD2*%
X139700000Y-91440000D03*
%TO.P,U4,31,RD1*%
%TO.N,/RD1*%
X139700000Y-88900000D03*
%TO.P,U4,32,RD0*%
%TO.N,/RD0*%
X139700000Y-86360000D03*
%TO.P,U4,33,VCC*%
%TO.N,VCC*%
X139700000Y-83820000D03*
%TO.P,U4,34,~{RESET}/SYNC*%
%TO.N,/~{RESET}{slash}SYNC*%
X139700000Y-81280000D03*
%TO.P,U4,35,EXTVDP*%
%TO.N,unconnected-(U4-EXTVDP-Pad35)*%
X139700000Y-78740000D03*
%TO.P,U4,36,COMVID*%
%TO.N,unconnected-(U4-COMVID-Pad36)*%
X139700000Y-76200000D03*
%TO.P,U4,37,GROMCLK*%
%TO.N,/GROMCLK*%
X139700000Y-73660000D03*
%TO.P,U4,38,CPUCLK*%
%TO.N,CLK{slash}3*%
X139700000Y-71120000D03*
%TO.P,U4,39,XTAL1*%
%TO.N,XTAL1*%
X139700000Y-68580000D03*
%TO.P,U4,40,XTAL2*%
%TO.N,XTAL2*%
X139700000Y-66040000D03*
%TD*%
D10*
%TO.P,U5,1,~{RAS}*%
%TO.N,/~{RAS}*%
X121920000Y-66040000D03*
D11*
%TO.P,U5,2,~{CAS}*%
%TO.N,/~{CAS}*%
X121920000Y-68580000D03*
%TO.P,U5,3,AD7*%
%TO.N,/AD7*%
X121920000Y-71120000D03*
%TO.P,U5,4,AD6*%
%TO.N,/AD6*%
X121920000Y-73660000D03*
%TO.P,U5,5,AD5*%
%TO.N,/AD5*%
X121920000Y-76200000D03*
%TO.P,U5,6,AD4*%
%TO.N,/AD4*%
X121920000Y-78740000D03*
%TO.P,U5,7,AD3*%
%TO.N,/AD3*%
X121920000Y-81280000D03*
%TO.P,U5,8,AD2*%
%TO.N,/AD2*%
X121920000Y-83820000D03*
%TO.P,U5,9,AD1*%
%TO.N,/AD1*%
X121920000Y-86360000D03*
%TO.P,U5,10,AD0*%
%TO.N,/AD0*%
X121920000Y-88900000D03*
%TO.P,U5,11,R/~{W}*%
%TO.N,/R{slash}~{W}*%
X121920000Y-91440000D03*
%TO.P,U5,12,VSS*%
%TO.N,GND*%
X121920000Y-93980000D03*
%TO.P,U5,13,MODE*%
%TO.N,/MODE*%
X121920000Y-96520000D03*
%TO.P,U5,14,~{CSW}*%
%TO.N,/~{CSW}*%
X121920000Y-99060000D03*
%TO.P,U5,15,~{CSR}*%
%TO.N,/~{CSR}*%
X121920000Y-101600000D03*
%TO.P,U5,16,~{INT}*%
%TO.N,/~{INT}*%
X121920000Y-104140000D03*
%TO.P,U5,17,CD7*%
%TO.N,/CD7*%
X121920000Y-106680000D03*
%TO.P,U5,18,CD6*%
%TO.N,/CD6*%
X121920000Y-109220000D03*
%TO.P,U5,19,CD5*%
%TO.N,/CD5*%
X121920000Y-111760000D03*
%TO.P,U5,20,CD4*%
%TO.N,/CD4*%
X121920000Y-114300000D03*
%TO.P,U5,21,CD3*%
%TO.N,/CD3*%
X137160000Y-114300000D03*
%TO.P,U5,22,CD2*%
%TO.N,/CD2*%
X137160000Y-111760000D03*
%TO.P,U5,23,CD1*%
%TO.N,/CD1*%
X137160000Y-109220000D03*
%TO.P,U5,24,CD0*%
%TO.N,/CD0*%
X137160000Y-106680000D03*
%TO.P,U5,25,RD7*%
%TO.N,/RD7*%
X137160000Y-104140000D03*
%TO.P,U5,26,RD6*%
%TO.N,/RD6*%
X137160000Y-101600000D03*
%TO.P,U5,27,RD5*%
%TO.N,/RD5*%
X137160000Y-99060000D03*
%TO.P,U5,28,RD4*%
%TO.N,/RD4*%
X137160000Y-96520000D03*
%TO.P,U5,29,RD3*%
%TO.N,/RD3*%
X137160000Y-93980000D03*
%TO.P,U5,30,RD2*%
%TO.N,/RD2*%
X137160000Y-91440000D03*
%TO.P,U5,31,RD1*%
%TO.N,/RD1*%
X137160000Y-88900000D03*
%TO.P,U5,32,RD0*%
%TO.N,/RD0*%
X137160000Y-86360000D03*
%TO.P,U5,33,VCC*%
%TO.N,VCC*%
X137160000Y-83820000D03*
%TO.P,U5,34,~{RESET}/SYNC*%
%TO.N,/~{RESET}{slash}SYNC*%
X137160000Y-81280000D03*
%TO.P,U5,35,B-Y*%
%TO.N,B-Y*%
X137160000Y-78740000D03*
%TO.P,U5,36,Y*%
%TO.N,Y*%
X137160000Y-76200000D03*
%TO.P,U5,37,GROMCLK*%
%TO.N,/GROMCLK*%
X137160000Y-73660000D03*
%TO.P,U5,38,R-Y*%
%TO.N,R-Y*%
X137160000Y-71120000D03*
%TO.P,U5,39,XTAL1*%
%TO.N,CLK*%
X137160000Y-68580000D03*
%TO.P,U5,40,XTAL2*%
%TO.N,~{CLK}*%
X137160000Y-66040000D03*
%TD*%
D12*
%TO.N,VCC*%
X128270000Y-81156000D03*
X129540000Y-69088000D03*
X128270000Y-78556000D03*
X128016000Y-71120000D03*
%TO.N,GND*%
X132207000Y-68580000D03*
X127000000Y-68199000D03*
X132715000Y-84201000D03*
X126873000Y-84201000D03*
X131064000Y-65659000D03*
X135890000Y-72136000D03*
X134874000Y-77216000D03*
X127000000Y-66421000D03*
X132588000Y-77724000D03*
%TO.N,Net-(U1A-D)*%
X130801048Y-77097952D03*
X129413000Y-72136000D03*
%TO.N,CLK*%
X129886688Y-70958688D03*
X129667000Y-79375000D03*
X128524000Y-75565000D03*
X129413000Y-81280000D03*
%TO.N,Net-(U1A-Q)*%
X130810000Y-81026000D03*
X129286000Y-74780500D03*
X128905000Y-73279000D03*
%TO.N,Net-(U1B-~{Q})*%
X130683000Y-71882000D03*
X130810000Y-82296000D03*
%TO.N,Net-(U2-Pad1)*%
X131318000Y-70866000D03*
X131953000Y-76200000D03*
%TD*%
D13*
%TO.N,VCC*%
X137604500Y-83820000D02*
X139890500Y-83820000D01*
D14*
X129706000Y-83224000D02*
X136564000Y-83224000D01*
X128270000Y-77470000D02*
X128270000Y-78556000D01*
X128270000Y-81156000D02*
X128270000Y-78556000D01*
X128270000Y-81788000D02*
X129706000Y-83224000D01*
X136564000Y-83224000D02*
X137160000Y-83820000D01*
X129540000Y-69596000D02*
X129540000Y-69088000D01*
X128016000Y-71120000D02*
X127000000Y-72136000D01*
X128016000Y-71120000D02*
X129540000Y-69596000D01*
X127000000Y-72136000D02*
X127000000Y-76200000D01*
D13*
X137477500Y-83693000D02*
X137604500Y-83820000D01*
D14*
X127000000Y-76200000D02*
X128270000Y-77470000D01*
X128270000Y-81156000D02*
X128270000Y-81788000D01*
D13*
%TO.N,GND*%
X121920000Y-93980000D02*
X124460000Y-93980000D01*
D15*
%TO.N,Net-(U1A-D)*%
X130556000Y-73279000D02*
X129413000Y-72136000D01*
X130556000Y-76852904D02*
X130801048Y-77097952D01*
X130556000Y-76852904D02*
X130556000Y-73279000D01*
%TO.N,CLK*%
X129540000Y-79248000D02*
X129540000Y-77343000D01*
X128524000Y-76327000D02*
X128524000Y-75565000D01*
X129667000Y-79375000D02*
X129540000Y-79248000D01*
X129540000Y-79502000D02*
X129667000Y-79375000D01*
X129413000Y-81280000D02*
X129540000Y-81153000D01*
X128016000Y-72390000D02*
X128016000Y-75057000D01*
X129540000Y-81153000D02*
X129540000Y-79502000D01*
X129886688Y-70958688D02*
X129447312Y-70958688D01*
X129540000Y-77343000D02*
X128524000Y-76327000D01*
X129447312Y-70958688D02*
X128016000Y-72390000D01*
X128016000Y-75057000D02*
X128524000Y-75565000D01*
%TO.N,Net-(U1A-Q)*%
X130076048Y-75570548D02*
X130076048Y-78641048D01*
X130810000Y-79375000D02*
X130810000Y-81026000D01*
X129286000Y-74780500D02*
X129286000Y-73660000D01*
X130076048Y-78641048D02*
X130810000Y-79375000D01*
X129286000Y-74780500D02*
X130076048Y-75570548D01*
X129286000Y-73660000D02*
X128905000Y-73279000D01*
%TO.N,Net-(U1B-~{Q})*%
X131526048Y-76797647D02*
X131526048Y-80716743D01*
X130683000Y-71882000D02*
X131085000Y-72284000D01*
X131535000Y-81571000D02*
X130810000Y-82296000D01*
X131085000Y-72284000D02*
X131085000Y-76372952D01*
X131085000Y-76372952D02*
X131101353Y-76372952D01*
X131526048Y-80716743D02*
X131535000Y-80725695D01*
X131101353Y-76372952D02*
X131526048Y-76797647D01*
X131535000Y-80725695D02*
X131535000Y-81571000D01*
%TO.N,Net-(U2-Pad1)*%
X131535000Y-75782000D02*
X131535000Y-71083000D01*
X131535000Y-71083000D02*
X131318000Y-70866000D01*
X131953000Y-76200000D02*
X131535000Y-75782000D01*
%TO.N,/~{RAS}*%
X121920000Y-66040000D02*
X124460000Y-66040000D01*
%TO.N,/~{CAS}*%
X121920000Y-68580000D02*
X124460000Y-68580000D01*
%TO.N,/AD7*%
X121920000Y-71120000D02*
X124460000Y-71120000D01*
%TO.N,/AD6*%
X121920000Y-73660000D02*
X124460000Y-73660000D01*
%TO.N,/AD5*%
X121920000Y-76200000D02*
X124460000Y-76200000D01*
%TO.N,/AD4*%
X121920000Y-78740000D02*
X124460000Y-78740000D01*
%TO.N,/AD3*%
X121920000Y-81280000D02*
X124460000Y-81280000D01*
%TO.N,/AD2*%
X121920000Y-83820000D02*
X124460000Y-83820000D01*
%TO.N,/AD1*%
X121920000Y-86360000D02*
X124460000Y-86360000D01*
%TO.N,/AD0*%
X121920000Y-88900000D02*
X124460000Y-88900000D01*
%TO.N,/R{slash}~{W}*%
X121920000Y-91440000D02*
X124460000Y-91440000D01*
%TO.N,/MODE*%
X121920000Y-96520000D02*
X124460000Y-96520000D01*
%TO.N,/~{CSW}*%
X121920000Y-99060000D02*
X124460000Y-99060000D01*
%TO.N,/~{CSR}*%
X121920000Y-101600000D02*
X124460000Y-101600000D01*
%TO.N,/~{INT}*%
X121920000Y-104140000D02*
X124460000Y-104140000D01*
%TO.N,/CD7*%
X121920000Y-106680000D02*
X124460000Y-106680000D01*
%TO.N,/CD6*%
X121920000Y-109220000D02*
X124460000Y-109220000D01*
%TO.N,/CD5*%
X121920000Y-111760000D02*
X124460000Y-111760000D01*
%TO.N,/CD4*%
X121920000Y-114300000D02*
X124460000Y-114300000D01*
%TO.N,/CD3*%
X137160000Y-114300000D02*
X139700000Y-114300000D01*
%TO.N,/CD2*%
X137160000Y-111760000D02*
X139700000Y-111760000D01*
%TO.N,/CD1*%
X137160000Y-109220000D02*
X139700000Y-109220000D01*
%TO.N,/CD0*%
X137160000Y-106680000D02*
X139700000Y-106680000D01*
%TO.N,/RD7*%
X137160000Y-104140000D02*
X139700000Y-104140000D01*
%TO.N,/RD6*%
X137160000Y-101600000D02*
X139700000Y-101600000D01*
%TO.N,/RD5*%
X137160000Y-99060000D02*
X139700000Y-99060000D01*
%TO.N,/RD4*%
X137160000Y-96520000D02*
X139700000Y-96520000D01*
%TO.N,/RD3*%
X137160000Y-93980000D02*
X139700000Y-93980000D01*
%TO.N,/RD2*%
X137160000Y-91440000D02*
X139700000Y-91440000D01*
%TO.N,/RD1*%
X137160000Y-88900000D02*
X139700000Y-88900000D01*
%TO.N,/RD0*%
X137160000Y-86360000D02*
X139700000Y-86360000D01*
%TO.N,/~{RESET}{slash}SYNC*%
X137160000Y-81280000D02*
X139700000Y-81280000D01*
D16*
%TO.N,/GROMCLK*%
X137160000Y-73660000D02*
X139700000Y-73660000D01*
%TD*%
%TA.AperFunction,Conductor*%
%TO.N,GND*%
G36*
X140912121Y-64663002D02*
G01*
X140958614Y-64716658D01*
X140970000Y-64769000D01*
X140970000Y-65744566D01*
X140949998Y-65812687D01*
X140896342Y-65859180D01*
X140826068Y-65869284D01*
X140761488Y-65839790D01*
X140723425Y-65781141D01*
X140712330Y-65744566D01*
X140678945Y-65634508D01*
X140581027Y-65451317D01*
X140581025Y-65451313D01*
X140449252Y-65290747D01*
X140288686Y-65158975D01*
X140288686Y-65158974D01*
X140105492Y-65061055D01*
X140090529Y-65056516D01*
X139906718Y-65000758D01*
X139906717Y-65000757D01*
X139906711Y-65000756D01*
X139700003Y-64980398D01*
X139699997Y-64980398D01*
X139493288Y-65000756D01*
X139294507Y-65061055D01*
X139111313Y-65158974D01*
X139111313Y-65158975D01*
X138950747Y-65290747D01*
X138818975Y-65451313D01*
X138818974Y-65451313D01*
X138721055Y-65634507D01*
X138660756Y-65833288D01*
X138640398Y-66039996D01*
X138640398Y-66040003D01*
X138660756Y-66246711D01*
X138721055Y-66445492D01*
X138818974Y-66628686D01*
X138950747Y-66789252D01*
X139111313Y-66921024D01*
X139111313Y-66921025D01*
X139111317Y-66921027D01*
X139294508Y-67018945D01*
X139493282Y-67079242D01*
X139493286Y-67079242D01*
X139493288Y-67079243D01*
X139699997Y-67099602D01*
X139700000Y-67099602D01*
X139700003Y-67099602D01*
X139906711Y-67079243D01*
X139906712Y-67079242D01*
X139906718Y-67079242D01*
X140105492Y-67018945D01*
X140288683Y-66921027D01*
X140288684Y-66921025D01*
X140288686Y-66921025D01*
X140288686Y-66921024D01*
X140449252Y-66789252D01*
X140581027Y-66628683D01*
X140678945Y-66445492D01*
X140723426Y-66298856D01*
X140762340Y-66239476D01*
X140827181Y-66210561D01*
X140897362Y-66221291D01*
X140950601Y-66268260D01*
X140970000Y-66335433D01*
X140970000Y-68284566D01*
X140949998Y-68352687D01*
X140896342Y-68399180D01*
X140826068Y-68409284D01*
X140761488Y-68379790D01*
X140723425Y-68321141D01*
X140712330Y-68284566D01*
X140678945Y-68174508D01*
X140581027Y-67991317D01*
X140581025Y-67991313D01*
X140449252Y-67830747D01*
X140288686Y-67698975D01*
X140288686Y-67698974D01*
X140105492Y-67601055D01*
X139906711Y-67540756D01*
X139700003Y-67520398D01*
X139699997Y-67520398D01*
X139493288Y-67540756D01*
X139294507Y-67601055D01*
X139111313Y-67698974D01*
X139111313Y-67698975D01*
X138950747Y-67830747D01*
X138818975Y-67991313D01*
X138818974Y-67991313D01*
X138721055Y-68174507D01*
X138660756Y-68373288D01*
X138640398Y-68579996D01*
X138640398Y-68580003D01*
X138660756Y-68786711D01*
X138721055Y-68985492D01*
X138818974Y-69168686D01*
X138950747Y-69329252D01*
X139111313Y-69461024D01*
X139111313Y-69461025D01*
X139111317Y-69461027D01*
X139294508Y-69558945D01*
X139493282Y-69619242D01*
X139493286Y-69619242D01*
X139493288Y-69619243D01*
X139699997Y-69639602D01*
X139700000Y-69639602D01*
X139700003Y-69639602D01*
X139906711Y-69619243D01*
X139906712Y-69619242D01*
X139906718Y-69619242D01*
X140105492Y-69558945D01*
X140288683Y-69461027D01*
X140288684Y-69461025D01*
X140288686Y-69461025D01*
X140288686Y-69461024D01*
X140449252Y-69329252D01*
X140581027Y-69168683D01*
X140678945Y-68985492D01*
X140723426Y-68838856D01*
X140762340Y-68779476D01*
X140827181Y-68750561D01*
X140897362Y-68761291D01*
X140950601Y-68808260D01*
X140970000Y-68875433D01*
X140970000Y-70824566D01*
X140949998Y-70892687D01*
X140896342Y-70939180D01*
X140826068Y-70949284D01*
X140761488Y-70919790D01*
X140723425Y-70861141D01*
X140709006Y-70813607D01*
X140678945Y-70714508D01*
X140581027Y-70531317D01*
X140581025Y-70531313D01*
X140449252Y-70370747D01*
X140288686Y-70238975D01*
X140288686Y-70238974D01*
X140105492Y-70141055D01*
X139906711Y-70080756D01*
X139700003Y-70060398D01*
X139699997Y-70060398D01*
X139493288Y-70080756D01*
X139294507Y-70141055D01*
X139111313Y-70238974D01*
X139111313Y-70238975D01*
X138950747Y-70370747D01*
X138818975Y-70531313D01*
X138818974Y-70531313D01*
X138721055Y-70714507D01*
X138660756Y-70913288D01*
X138640398Y-71119996D01*
X138640398Y-71120003D01*
X138660756Y-71326711D01*
X138721055Y-71525492D01*
X138818974Y-71708686D01*
X138950745Y-71869250D01*
X138950747Y-71869252D01*
X139111313Y-72001024D01*
X139111313Y-72001025D01*
X139111317Y-72001027D01*
X139294508Y-72098945D01*
X139493282Y-72159242D01*
X139493286Y-72159242D01*
X139493288Y-72159243D01*
X139699997Y-72179602D01*
X139700000Y-72179602D01*
X139700003Y-72179602D01*
X139906711Y-72159243D01*
X139906712Y-72159242D01*
X139906718Y-72159242D01*
X140105492Y-72098945D01*
X140288683Y-72001027D01*
X140288684Y-72001025D01*
X140288686Y-72001025D01*
X140288686Y-72001024D01*
X140449252Y-71869252D01*
X140449255Y-71869250D01*
X140543647Y-71754229D01*
X140581027Y-71708683D01*
X140678945Y-71525492D01*
X140723426Y-71378856D01*
X140762340Y-71319476D01*
X140827181Y-71290561D01*
X140897362Y-71301291D01*
X140950601Y-71348260D01*
X140970000Y-71415433D01*
X140970000Y-73364566D01*
X140949998Y-73432687D01*
X140896342Y-73479180D01*
X140826068Y-73489284D01*
X140761488Y-73459790D01*
X140723425Y-73401141D01*
X140678945Y-73254508D01*
X140581027Y-73071317D01*
X140581025Y-73071313D01*
X140449252Y-72910747D01*
X140288686Y-72778975D01*
X140288686Y-72778974D01*
X140105492Y-72681055D01*
X140044446Y-72662537D01*
X139906718Y-72620758D01*
X139906717Y-72620757D01*
X139906711Y-72620756D01*
X139700003Y-72600398D01*
X139699997Y-72600398D01*
X139493288Y-72620756D01*
X139294507Y-72681055D01*
X139111313Y-72778974D01*
X139111313Y-72778975D01*
X138950747Y-72910747D01*
X138818975Y-73071313D01*
X138818974Y-73071313D01*
X138729400Y-73238896D01*
X138679648Y-73289544D01*
X138618278Y-73305500D01*
X138241722Y-73305500D01*
X138173601Y-73285498D01*
X138130600Y-73238896D01*
X138041025Y-73071313D01*
X137909252Y-72910747D01*
X137748686Y-72778975D01*
X137748686Y-72778974D01*
X137565492Y-72681055D01*
X137504446Y-72662537D01*
X137366718Y-72620758D01*
X137366717Y-72620757D01*
X137366711Y-72620756D01*
X137160003Y-72600398D01*
X137159997Y-72600398D01*
X136953288Y-72620756D01*
X136754507Y-72681055D01*
X136571313Y-72778974D01*
X136571313Y-72778975D01*
X136410747Y-72910747D01*
X136278975Y-73071313D01*
X136278974Y-73071313D01*
X136181055Y-73254507D01*
X136120756Y-73453288D01*
X136100398Y-73659996D01*
X136100398Y-73660003D01*
X136120756Y-73866711D01*
X136120757Y-73866717D01*
X136120758Y-73866718D01*
X136129477Y-73895462D01*
X136181055Y-74065492D01*
X136278974Y-74248686D01*
X136410747Y-74409252D01*
X136571313Y-74541024D01*
X136571313Y-74541025D01*
X136571317Y-74541027D01*
X136754508Y-74638945D01*
X136953282Y-74699242D01*
X136953286Y-74699242D01*
X136953288Y-74699243D01*
X137159997Y-74719602D01*
X137160000Y-74719602D01*
X137160003Y-74719602D01*
X137366711Y-74699243D01*
X137366712Y-74699242D01*
X137366718Y-74699242D01*
X137565492Y-74638945D01*
X137748683Y-74541027D01*
X137748684Y-74541025D01*
X137748686Y-74541025D01*
X137748686Y-74541024D01*
X137909252Y-74409252D01*
X138041027Y-74248683D01*
X138130600Y-74081103D01*
X138180352Y-74030456D01*
X138241722Y-74014500D01*
X138618278Y-74014500D01*
X138686399Y-74034502D01*
X138729400Y-74081104D01*
X138818974Y-74248686D01*
X138950747Y-74409252D01*
X139111313Y-74541024D01*
X139111313Y-74541025D01*
X139111317Y-74541027D01*
X139294508Y-74638945D01*
X139493282Y-74699242D01*
X139493286Y-74699242D01*
X139493288Y-74699243D01*
X139699997Y-74719602D01*
X139700000Y-74719602D01*
X139700003Y-74719602D01*
X139906711Y-74699243D01*
X139906712Y-74699242D01*
X139906718Y-74699242D01*
X140105492Y-74638945D01*
X140288683Y-74541027D01*
X140288684Y-74541025D01*
X140288686Y-74541025D01*
X140288686Y-74541024D01*
X140449252Y-74409252D01*
X140581027Y-74248683D01*
X140678945Y-74065492D01*
X140723426Y-73918856D01*
X140762340Y-73859476D01*
X140827181Y-73830561D01*
X140897362Y-73841291D01*
X140950601Y-73888260D01*
X140970000Y-73955433D01*
X140970000Y-75904566D01*
X140949998Y-75972687D01*
X140896342Y-76019180D01*
X140826068Y-76029284D01*
X140761488Y-75999790D01*
X140723425Y-75941141D01*
X140678945Y-75794508D01*
X140581027Y-75611317D01*
X140581025Y-75611313D01*
X140449252Y-75450747D01*
X140288686Y-75318975D01*
X140288686Y-75318974D01*
X140105492Y-75221055D01*
X139906711Y-75160756D01*
X139700003Y-75140398D01*
X139699997Y-75140398D01*
X139493288Y-75160756D01*
X139294507Y-75221055D01*
X139111313Y-75318974D01*
X139111313Y-75318975D01*
X138950747Y-75450747D01*
X138818975Y-75611313D01*
X138818974Y-75611313D01*
X138721055Y-75794507D01*
X138660756Y-75993288D01*
X138640398Y-76199996D01*
X138640398Y-76200003D01*
X138660756Y-76406711D01*
X138660757Y-76406717D01*
X138660758Y-76406718D01*
X138690995Y-76506398D01*
X138721055Y-76605492D01*
X138818974Y-76788686D01*
X138950747Y-76949252D01*
X139111313Y-77081024D01*
X139111313Y-77081025D01*
X139111317Y-77081027D01*
X139294508Y-77178945D01*
X139493282Y-77239242D01*
X139493286Y-77239242D01*
X139493288Y-77239243D01*
X139699997Y-77259602D01*
X139700000Y-77259602D01*
X139700003Y-77259602D01*
X139906711Y-77239243D01*
X139906712Y-77239242D01*
X139906718Y-77239242D01*
X140105492Y-77178945D01*
X140288683Y-77081027D01*
X140288684Y-77081025D01*
X140288686Y-77081025D01*
X140288686Y-77081024D01*
X140449252Y-76949252D01*
X140581027Y-76788683D01*
X140678945Y-76605492D01*
X140723426Y-76458856D01*
X140762340Y-76399476D01*
X140827181Y-76370561D01*
X140897362Y-76381291D01*
X140950601Y-76428260D01*
X140970000Y-76495433D01*
X140970000Y-78444566D01*
X140949998Y-78512687D01*
X140896342Y-78559180D01*
X140826068Y-78569284D01*
X140761488Y-78539790D01*
X140723425Y-78481141D01*
X140712330Y-78444566D01*
X140678945Y-78334508D01*
X140581027Y-78151317D01*
X140581025Y-78151313D01*
X140449252Y-77990747D01*
X140288686Y-77858975D01*
X140288686Y-77858974D01*
X140105492Y-77761055D01*
X139906718Y-77700758D01*
X139906717Y-77700757D01*
X139906711Y-77700756D01*
X139700003Y-77680398D01*
X139699997Y-77680398D01*
X139493288Y-77700756D01*
X139294507Y-77761055D01*
X139111313Y-77858974D01*
X139111313Y-77858975D01*
X138950747Y-77990747D01*
X138818975Y-78151313D01*
X138818974Y-78151313D01*
X138721055Y-78334507D01*
X138660756Y-78533288D01*
X138640398Y-78739996D01*
X138640398Y-78740003D01*
X138660756Y-78946711D01*
X138721055Y-79145492D01*
X138818974Y-79328686D01*
X138950747Y-79489252D01*
X139111313Y-79621024D01*
X139111313Y-79621025D01*
X139111317Y-79621027D01*
X139294508Y-79718945D01*
X139493282Y-79779242D01*
X139493286Y-79779242D01*
X139493288Y-79779243D01*
X139699997Y-79799602D01*
X139700000Y-79799602D01*
X139700003Y-79799602D01*
X139906711Y-79779243D01*
X139906712Y-79779242D01*
X139906718Y-79779242D01*
X140105492Y-79718945D01*
X140288683Y-79621027D01*
X140288684Y-79621025D01*
X140288686Y-79621025D01*
X140288686Y-79621024D01*
X140449252Y-79489252D01*
X140581027Y-79328683D01*
X140678945Y-79145492D01*
X140723426Y-78998856D01*
X140762340Y-78939476D01*
X140827181Y-78910561D01*
X140897362Y-78921291D01*
X140950601Y-78968260D01*
X140970000Y-79035433D01*
X140970000Y-80984566D01*
X140949998Y-81052687D01*
X140896342Y-81099180D01*
X140826068Y-81109284D01*
X140761488Y-81079790D01*
X140723425Y-81021141D01*
X140716472Y-80998220D01*
X140678945Y-80874508D01*
X140581027Y-80691317D01*
X140581025Y-80691313D01*
X140449252Y-80530747D01*
X140288686Y-80398975D01*
X140288686Y-80398974D01*
X140105492Y-80301055D01*
X139906711Y-80240756D01*
X139700003Y-80220398D01*
X139699997Y-80220398D01*
X139493288Y-80240756D01*
X139294507Y-80301055D01*
X139111313Y-80398974D01*
X139111313Y-80398975D01*
X138950747Y-80530747D01*
X138818975Y-80691313D01*
X138818974Y-80691313D01*
X138742763Y-80833896D01*
X138693011Y-80884544D01*
X138631641Y-80900500D01*
X138228359Y-80900500D01*
X138160238Y-80880498D01*
X138117237Y-80833896D01*
X138107570Y-80815811D01*
X138041027Y-80691317D01*
X138041025Y-80691313D01*
X137909252Y-80530747D01*
X137748686Y-80398975D01*
X137748686Y-80398974D01*
X137565492Y-80301055D01*
X137366711Y-80240756D01*
X137160003Y-80220398D01*
X137159997Y-80220398D01*
X136953288Y-80240756D01*
X136754507Y-80301055D01*
X136571313Y-80398974D01*
X136571313Y-80398975D01*
X136410747Y-80530747D01*
X136278975Y-80691313D01*
X136278974Y-80691313D01*
X136181055Y-80874507D01*
X136120756Y-81073288D01*
X136100398Y-81279996D01*
X136100398Y-81280003D01*
X136120756Y-81486711D01*
X136120757Y-81486717D01*
X136120758Y-81486718D01*
X136178011Y-81675456D01*
X136181055Y-81685492D01*
X136278974Y-81868686D01*
X136410747Y-82029252D01*
X136571313Y-82161024D01*
X136571313Y-82161025D01*
X136571317Y-82161027D01*
X136754508Y-82258945D01*
X136953282Y-82319242D01*
X136953286Y-82319242D01*
X136953288Y-82319243D01*
X137159997Y-82339602D01*
X137160000Y-82339602D01*
X137160003Y-82339602D01*
X137366711Y-82319243D01*
X137366712Y-82319242D01*
X137366718Y-82319242D01*
X137565492Y-82258945D01*
X137748683Y-82161027D01*
X137748684Y-82161025D01*
X137748686Y-82161025D01*
X137748686Y-82161024D01*
X137909252Y-82029252D01*
X138041027Y-81868683D01*
X138117237Y-81726103D01*
X138166989Y-81675456D01*
X138228359Y-81659500D01*
X138631641Y-81659500D01*
X138699762Y-81679502D01*
X138742763Y-81726104D01*
X138818974Y-81868686D01*
X138950747Y-82029252D01*
X139111313Y-82161024D01*
X139111313Y-82161025D01*
X139111317Y-82161027D01*
X139294508Y-82258945D01*
X139493282Y-82319242D01*
X139493286Y-82319242D01*
X139493288Y-82319243D01*
X139699997Y-82339602D01*
X139700000Y-82339602D01*
X139700003Y-82339602D01*
X139906711Y-82319243D01*
X139906712Y-82319242D01*
X139906718Y-82319242D01*
X140105492Y-82258945D01*
X140288683Y-82161027D01*
X140288684Y-82161025D01*
X140288686Y-82161025D01*
X140288686Y-82161024D01*
X140449252Y-82029252D01*
X140581027Y-81868683D01*
X140678945Y-81685492D01*
X140723426Y-81538856D01*
X140762340Y-81479476D01*
X140827181Y-81450561D01*
X140897362Y-81461291D01*
X140950601Y-81508260D01*
X140970000Y-81575433D01*
X140970000Y-83524566D01*
X140949998Y-83592687D01*
X140896342Y-83639180D01*
X140826068Y-83649284D01*
X140761488Y-83619790D01*
X140723425Y-83561141D01*
X140712330Y-83524566D01*
X140678945Y-83414508D01*
X140581027Y-83231317D01*
X140581025Y-83231313D01*
X140449252Y-83070747D01*
X140288686Y-82938975D01*
X140288686Y-82938974D01*
X140105492Y-82841055D01*
X139906718Y-82780758D01*
X139906717Y-82780757D01*
X139906711Y-82780756D01*
X139700003Y-82760398D01*
X139699997Y-82760398D01*
X139493288Y-82780756D01*
X139294507Y-82841055D01*
X139111316Y-82938973D01*
X138991994Y-83036899D01*
X138926646Y-83064653D01*
X138912060Y-83065500D01*
X137947940Y-83065500D01*
X137879819Y-83045498D01*
X137868006Y-83036899D01*
X137748683Y-82938973D01*
X137565492Y-82841055D01*
X137366718Y-82780758D01*
X137366717Y-82780757D01*
X137366711Y-82780756D01*
X137160003Y-82760398D01*
X137159997Y-82760398D01*
X136953285Y-82780756D01*
X136908527Y-82794333D01*
X136837533Y-82794965D01*
X136808958Y-82782879D01*
X136800841Y-82778193D01*
X136800837Y-82778191D01*
X136758732Y-82753882D01*
X136758731Y-82753881D01*
X136758730Y-82753881D01*
X136630419Y-82719500D01*
X136630417Y-82719500D01*
X131531918Y-82719500D01*
X131463797Y-82699498D01*
X131417304Y-82645842D01*
X131407200Y-82575568D01*
X131414106Y-82548819D01*
X131450150Y-82453779D01*
X131469307Y-82296002D01*
X131469307Y-82296000D01*
X131469307Y-82295996D01*
X131463425Y-82247562D01*
X131475069Y-82177531D01*
X131499408Y-82143284D01*
X131757642Y-81885050D01*
X131757652Y-81885043D01*
X131838670Y-81804025D01*
X131838676Y-81804019D01*
X131888638Y-81717482D01*
X131899899Y-81675456D01*
X131904175Y-81659499D01*
X131904175Y-81659496D01*
X131914501Y-81620962D01*
X131914501Y-81521038D01*
X131914501Y-81513321D01*
X131914500Y-81513303D01*
X131914500Y-80785820D01*
X131914501Y-80785807D01*
X131914501Y-80675734D01*
X131914501Y-80675733D01*
X131909841Y-80658341D01*
X131905548Y-80625731D01*
X131905548Y-78739996D01*
X136100398Y-78739996D01*
X136100398Y-78740003D01*
X136120756Y-78946711D01*
X136181055Y-79145492D01*
X136278974Y-79328686D01*
X136410747Y-79489252D01*
X136571313Y-79621024D01*
X136571313Y-79621025D01*
X136571317Y-79621027D01*
X136754508Y-79718945D01*
X136953282Y-79779242D01*
X136953286Y-79779242D01*
X136953288Y-79779243D01*
X137159997Y-79799602D01*
X137160000Y-79799602D01*
X137160003Y-79799602D01*
X137366711Y-79779243D01*
X137366712Y-79779242D01*
X137366718Y-79779242D01*
X137565492Y-79718945D01*
X137748683Y-79621027D01*
X137748684Y-79621025D01*
X137748686Y-79621025D01*
X137748686Y-79621024D01*
X137909252Y-79489252D01*
X138041027Y-79328683D01*
X138138945Y-79145492D01*
X138199242Y-78946718D01*
X138199417Y-78944947D01*
X138219602Y-78740003D01*
X138219602Y-78739996D01*
X138199243Y-78533288D01*
X138199242Y-78533286D01*
X138199242Y-78533282D01*
X138138945Y-78334508D01*
X138041027Y-78151317D01*
X138041025Y-78151313D01*
X137909252Y-77990747D01*
X137748686Y-77858975D01*
X137748686Y-77858974D01*
X137565492Y-77761055D01*
X137366718Y-77700758D01*
X137366717Y-77700757D01*
X137366711Y-77700756D01*
X137160003Y-77680398D01*
X137159997Y-77680398D01*
X136953288Y-77700756D01*
X136754507Y-77761055D01*
X136571313Y-77858974D01*
X136571313Y-77858975D01*
X136410747Y-77990747D01*
X136278975Y-78151313D01*
X136278974Y-78151313D01*
X136181055Y-78334507D01*
X136120756Y-78533288D01*
X136100398Y-78739996D01*
X131905548Y-78739996D01*
X131905548Y-76980500D01*
X131925550Y-76912379D01*
X131979206Y-76865886D01*
X132024970Y-76855930D01*
X132024908Y-76855418D01*
X132030383Y-76854753D01*
X132031548Y-76854500D01*
X132032470Y-76854500D01*
X132032471Y-76854500D01*
X132186793Y-76816463D01*
X132327529Y-76742599D01*
X132446498Y-76637201D01*
X132536787Y-76506395D01*
X132593149Y-76357782D01*
X132593149Y-76357781D01*
X132593150Y-76357779D01*
X132612307Y-76200003D01*
X132612307Y-76199996D01*
X136100398Y-76199996D01*
X136100398Y-76200003D01*
X136120756Y-76406711D01*
X136120757Y-76406717D01*
X136120758Y-76406718D01*
X136150995Y-76506398D01*
X136181055Y-76605492D01*
X136278974Y-76788686D01*
X136410747Y-76949252D01*
X136571313Y-77081024D01*
X136571313Y-77081025D01*
X136571317Y-77081027D01*
X136754508Y-77178945D01*
X136953282Y-77239242D01*
X136953286Y-77239242D01*
X136953288Y-77239243D01*
X137159997Y-77259602D01*
X137160000Y-77259602D01*
X137160003Y-77259602D01*
X137366711Y-77239243D01*
X137366712Y-77239242D01*
X137366718Y-77239242D01*
X137565492Y-77178945D01*
X137748683Y-77081027D01*
X137748684Y-77081025D01*
X137748686Y-77081025D01*
X137748686Y-77081024D01*
X137909252Y-76949252D01*
X138041027Y-76788683D01*
X138138945Y-76605492D01*
X138199242Y-76406718D01*
X138199956Y-76399476D01*
X138219602Y-76200003D01*
X138219602Y-76199996D01*
X138199243Y-75993288D01*
X138199242Y-75993286D01*
X138199242Y-75993282D01*
X138138945Y-75794508D01*
X138041027Y-75611317D01*
X138041025Y-75611313D01*
X137909252Y-75450747D01*
X137748686Y-75318975D01*
X137748686Y-75318974D01*
X137565492Y-75221055D01*
X137366711Y-75160756D01*
X137160003Y-75140398D01*
X137159997Y-75140398D01*
X136953288Y-75160756D01*
X136754507Y-75221055D01*
X136571313Y-75318974D01*
X136571313Y-75318975D01*
X136410747Y-75450747D01*
X136278975Y-75611313D01*
X136278974Y-75611313D01*
X136181055Y-75794507D01*
X136120756Y-75993288D01*
X136100398Y-76199996D01*
X132612307Y-76199996D01*
X132593150Y-76042220D01*
X132554815Y-75941141D01*
X132536787Y-75893605D01*
X132446498Y-75762799D01*
X132327529Y-75657401D01*
X132327528Y-75657400D01*
X132327525Y-75657398D01*
X132186797Y-75583539D01*
X132186795Y-75583538D01*
X132186793Y-75583537D01*
X132186791Y-75583536D01*
X132186790Y-75583536D01*
X132032465Y-75545498D01*
X132025312Y-75544630D01*
X131960099Y-75516563D01*
X131920413Y-75457694D01*
X131914500Y-75419549D01*
X131914500Y-71161964D01*
X131922191Y-71119996D01*
X136100398Y-71119996D01*
X136100398Y-71120003D01*
X136120756Y-71326711D01*
X136181055Y-71525492D01*
X136278974Y-71708686D01*
X136410745Y-71869250D01*
X136410747Y-71869252D01*
X136571313Y-72001024D01*
X136571313Y-72001025D01*
X136571317Y-72001027D01*
X136754508Y-72098945D01*
X136953282Y-72159242D01*
X136953286Y-72159242D01*
X136953288Y-72159243D01*
X137159997Y-72179602D01*
X137160000Y-72179602D01*
X137160003Y-72179602D01*
X137366711Y-72159243D01*
X137366712Y-72159242D01*
X137366718Y-72159242D01*
X137565492Y-72098945D01*
X137748683Y-72001027D01*
X137748684Y-72001025D01*
X137748686Y-72001025D01*
X137748686Y-72001024D01*
X137909252Y-71869252D01*
X137909255Y-71869250D01*
X138003647Y-71754229D01*
X138041027Y-71708683D01*
X138138945Y-71525492D01*
X138199242Y-71326718D01*
X138199956Y-71319476D01*
X138219602Y-71120003D01*
X138219602Y-71119996D01*
X138199243Y-70913288D01*
X138199242Y-70913286D01*
X138199242Y-70913282D01*
X138138945Y-70714508D01*
X138041027Y-70531317D01*
X138041025Y-70531313D01*
X137909252Y-70370747D01*
X137748686Y-70238975D01*
X137748686Y-70238974D01*
X137565492Y-70141055D01*
X137366711Y-70080756D01*
X137160003Y-70060398D01*
X137159997Y-70060398D01*
X136953288Y-70080756D01*
X136754507Y-70141055D01*
X136571313Y-70238974D01*
X136571313Y-70238975D01*
X136410747Y-70370747D01*
X136278975Y-70531313D01*
X136278974Y-70531313D01*
X136181055Y-70714507D01*
X136120756Y-70913288D01*
X136100398Y-71119996D01*
X131922191Y-71119996D01*
X131922688Y-71117283D01*
X131958150Y-71023779D01*
X131977307Y-70866003D01*
X131977307Y-70865996D01*
X131958150Y-70708220D01*
X131944538Y-70672331D01*
X131901787Y-70559605D01*
X131811498Y-70428799D01*
X131692529Y-70323401D01*
X131692528Y-70323400D01*
X131692525Y-70323398D01*
X131551797Y-70249539D01*
X131551795Y-70249538D01*
X131551793Y-70249537D01*
X131551791Y-70249536D01*
X131551790Y-70249536D01*
X131397472Y-70211500D01*
X131397471Y-70211500D01*
X131238529Y-70211500D01*
X131238527Y-70211500D01*
X131084209Y-70249536D01*
X131084202Y-70249539D01*
X130943474Y-70323398D01*
X130943469Y-70323402D01*
X130824501Y-70428800D01*
X130734215Y-70559601D01*
X130734212Y-70559607D01*
X130702448Y-70643361D01*
X130659589Y-70699962D01*
X130592933Y-70724407D01*
X130523643Y-70708934D01*
X130473718Y-70658456D01*
X130473069Y-70657236D01*
X130470474Y-70652292D01*
X130380186Y-70521487D01*
X130261217Y-70416089D01*
X130261216Y-70416088D01*
X130261213Y-70416086D01*
X130120485Y-70342227D01*
X130120483Y-70342226D01*
X130120481Y-70342225D01*
X130120479Y-70342224D01*
X130120478Y-70342224D01*
X129966160Y-70304188D01*
X129966159Y-70304188D01*
X129849473Y-70304188D01*
X129781352Y-70284186D01*
X129734859Y-70230530D01*
X129724755Y-70160256D01*
X129754249Y-70095676D01*
X129760378Y-70089093D01*
X129943694Y-69905776D01*
X129943700Y-69905770D01*
X130010119Y-69790730D01*
X130033234Y-69704463D01*
X130044500Y-69662419D01*
X130044500Y-69548524D01*
X130064502Y-69480403D01*
X130066777Y-69476986D01*
X130123787Y-69394395D01*
X130180149Y-69245782D01*
X130180149Y-69245781D01*
X130180150Y-69245779D01*
X130199307Y-69088003D01*
X130199307Y-69087996D01*
X130180150Y-68930220D01*
X130166538Y-68894331D01*
X130123787Y-68781605D01*
X130033498Y-68650799D01*
X129953578Y-68579996D01*
X136100398Y-68579996D01*
X136100398Y-68580003D01*
X136120756Y-68786711D01*
X136181055Y-68985492D01*
X136278974Y-69168686D01*
X136410747Y-69329252D01*
X136571313Y-69461024D01*
X136571313Y-69461025D01*
X136571317Y-69461027D01*
X136754508Y-69558945D01*
X136953282Y-69619242D01*
X136953286Y-69619242D01*
X136953288Y-69619243D01*
X137159997Y-69639602D01*
X137160000Y-69639602D01*
X137160003Y-69639602D01*
X137366711Y-69619243D01*
X137366712Y-69619242D01*
X137366718Y-69619242D01*
X137565492Y-69558945D01*
X137748683Y-69461027D01*
X137748684Y-69461025D01*
X137748686Y-69461025D01*
X137748686Y-69461024D01*
X137909252Y-69329252D01*
X138041027Y-69168683D01*
X138138945Y-68985492D01*
X138199242Y-68786718D01*
X138199746Y-68781607D01*
X138219602Y-68580003D01*
X138219602Y-68579996D01*
X138199243Y-68373288D01*
X138199242Y-68373286D01*
X138199242Y-68373282D01*
X138138945Y-68174508D01*
X138041027Y-67991317D01*
X138041025Y-67991313D01*
X137909252Y-67830747D01*
X137748686Y-67698975D01*
X137748686Y-67698974D01*
X137565492Y-67601055D01*
X137366711Y-67540756D01*
X137160003Y-67520398D01*
X137159997Y-67520398D01*
X136953288Y-67540756D01*
X136754507Y-67601055D01*
X136571313Y-67698974D01*
X136571313Y-67698975D01*
X136410747Y-67830747D01*
X136278975Y-67991313D01*
X136278974Y-67991313D01*
X136181055Y-68174507D01*
X136120756Y-68373288D01*
X136100398Y-68579996D01*
X129953578Y-68579996D01*
X129914529Y-68545401D01*
X129914528Y-68545400D01*
X129914525Y-68545398D01*
X129773797Y-68471539D01*
X129773795Y-68471538D01*
X129773793Y-68471537D01*
X129773791Y-68471536D01*
X129773790Y-68471536D01*
X129619472Y-68433500D01*
X129619471Y-68433500D01*
X129460529Y-68433500D01*
X129460527Y-68433500D01*
X129306209Y-68471536D01*
X129306202Y-68471539D01*
X129165474Y-68545398D01*
X129165469Y-68545402D01*
X129046501Y-68650800D01*
X128956215Y-68781601D01*
X128956212Y-68781607D01*
X128899849Y-68930220D01*
X128880693Y-69087996D01*
X128880693Y-69088003D01*
X128899849Y-69245779D01*
X128947101Y-69370368D01*
X128952555Y-69441155D01*
X128918873Y-69503653D01*
X128918384Y-69504144D01*
X127988573Y-70433955D01*
X127929633Y-70467198D01*
X127782215Y-70503534D01*
X127782202Y-70503539D01*
X127641474Y-70577398D01*
X127641469Y-70577402D01*
X127522501Y-70682800D01*
X127432215Y-70813601D01*
X127432212Y-70813607D01*
X127375850Y-70962220D01*
X127369418Y-71015188D01*
X127341350Y-71080401D01*
X127333433Y-71089094D01*
X126596298Y-71826231D01*
X126588019Y-71840570D01*
X126571461Y-71869252D01*
X126529881Y-71941269D01*
X126495500Y-72069582D01*
X126495500Y-76266417D01*
X126495499Y-76266417D01*
X126529880Y-76394728D01*
X126529883Y-76394735D01*
X126543398Y-76418143D01*
X126543400Y-76418146D01*
X126543401Y-76418147D01*
X126596299Y-76509770D01*
X126596301Y-76509772D01*
X126596304Y-76509776D01*
X127728595Y-77642066D01*
X127762620Y-77704378D01*
X127765500Y-77731161D01*
X127765500Y-78095475D01*
X127745498Y-78163596D01*
X127743196Y-78167051D01*
X127686215Y-78249601D01*
X127686212Y-78249607D01*
X127629849Y-78398220D01*
X127610693Y-78555996D01*
X127610693Y-78556003D01*
X127629849Y-78713779D01*
X127639794Y-78740000D01*
X127686213Y-78862395D01*
X127743196Y-78944949D01*
X127765432Y-79012372D01*
X127765500Y-79016524D01*
X127765500Y-80695475D01*
X127745498Y-80763596D01*
X127743196Y-80767051D01*
X127686215Y-80849601D01*
X127686212Y-80849607D01*
X127629849Y-80998220D01*
X127610693Y-81155996D01*
X127610693Y-81156003D01*
X127629849Y-81313779D01*
X127664644Y-81405523D01*
X127686213Y-81462395D01*
X127743196Y-81544949D01*
X127765432Y-81612372D01*
X127765500Y-81616524D01*
X127765500Y-81854417D01*
X127765499Y-81854417D01*
X127776765Y-81896460D01*
X127786957Y-81934499D01*
X127799882Y-81982732D01*
X127824191Y-82024837D01*
X127866296Y-82097766D01*
X127866304Y-82097776D01*
X129396223Y-83627695D01*
X129396227Y-83627698D01*
X129396230Y-83627701D01*
X129469162Y-83669808D01*
X129511270Y-83694119D01*
X129639581Y-83728500D01*
X129639582Y-83728500D01*
X129772419Y-83728500D01*
X135977186Y-83728500D01*
X136045307Y-83748502D01*
X136091800Y-83802158D01*
X136102579Y-83842150D01*
X136120756Y-84026711D01*
X136181055Y-84225492D01*
X136278974Y-84408686D01*
X136410747Y-84569252D01*
X136571313Y-84701024D01*
X136571313Y-84701025D01*
X136571317Y-84701027D01*
X136754508Y-84798945D01*
X136953282Y-84859242D01*
X136953286Y-84859242D01*
X136953288Y-84859243D01*
X137159997Y-84879602D01*
X137160000Y-84879602D01*
X137160003Y-84879602D01*
X137366711Y-84859243D01*
X137366712Y-84859242D01*
X137366718Y-84859242D01*
X137565492Y-84798945D01*
X137748683Y-84701027D01*
X137868007Y-84603100D01*
X137933354Y-84575347D01*
X137947940Y-84574500D01*
X138912060Y-84574500D01*
X138980181Y-84594502D01*
X138991989Y-84603097D01*
X139111317Y-84701027D01*
X139294508Y-84798945D01*
X139493282Y-84859242D01*
X139493286Y-84859242D01*
X139493288Y-84859243D01*
X139699997Y-84879602D01*
X139700000Y-84879602D01*
X139700003Y-84879602D01*
X139906711Y-84859243D01*
X139906712Y-84859242D01*
X139906718Y-84859242D01*
X140105492Y-84798945D01*
X140288683Y-84701027D01*
X140288684Y-84701025D01*
X140288686Y-84701025D01*
X140288686Y-84701024D01*
X140449252Y-84569252D01*
X140581027Y-84408683D01*
X140678945Y-84225492D01*
X140723426Y-84078856D01*
X140762340Y-84019476D01*
X140827181Y-83990561D01*
X140897362Y-84001291D01*
X140950601Y-84048260D01*
X140970000Y-84115433D01*
X140970000Y-86064566D01*
X140949998Y-86132687D01*
X140896342Y-86179180D01*
X140826068Y-86189284D01*
X140761488Y-86159790D01*
X140723425Y-86101141D01*
X140712330Y-86064566D01*
X140678945Y-85954508D01*
X140581027Y-85771317D01*
X140581025Y-85771313D01*
X140449252Y-85610747D01*
X140288686Y-85478975D01*
X140288686Y-85478974D01*
X140105492Y-85381055D01*
X139906711Y-85320756D01*
X139700003Y-85300398D01*
X139699997Y-85300398D01*
X139493288Y-85320756D01*
X139294507Y-85381055D01*
X139111313Y-85478974D01*
X139111313Y-85478975D01*
X138950747Y-85610747D01*
X138818975Y-85771313D01*
X138818974Y-85771313D01*
X138742763Y-85913896D01*
X138693011Y-85964544D01*
X138631641Y-85980500D01*
X138228359Y-85980500D01*
X138160238Y-85960498D01*
X138117237Y-85913896D01*
X138041025Y-85771313D01*
X137909252Y-85610747D01*
X137748686Y-85478975D01*
X137748686Y-85478974D01*
X137565492Y-85381055D01*
X137366711Y-85320756D01*
X137160003Y-85300398D01*
X137159997Y-85300398D01*
X136953288Y-85320756D01*
X136754507Y-85381055D01*
X136571313Y-85478974D01*
X136571313Y-85478975D01*
X136410747Y-85610747D01*
X136278975Y-85771313D01*
X136278974Y-85771313D01*
X136181055Y-85954507D01*
X136120756Y-86153288D01*
X136100398Y-86359996D01*
X136100398Y-86360003D01*
X136120756Y-86566711D01*
X136181055Y-86765492D01*
X136278974Y-86948686D01*
X136410747Y-87109252D01*
X136571313Y-87241024D01*
X136571313Y-87241025D01*
X136571317Y-87241027D01*
X136754508Y-87338945D01*
X136953282Y-87399242D01*
X136953286Y-87399242D01*
X136953288Y-87399243D01*
X137159997Y-87419602D01*
X137160000Y-87419602D01*
X137160003Y-87419602D01*
X137366711Y-87399243D01*
X137366712Y-87399242D01*
X137366718Y-87399242D01*
X137565492Y-87338945D01*
X137748683Y-87241027D01*
X137748684Y-87241025D01*
X137748686Y-87241025D01*
X137748686Y-87241024D01*
X137909252Y-87109252D01*
X138041027Y-86948683D01*
X138117237Y-86806103D01*
X138166989Y-86755456D01*
X138228359Y-86739500D01*
X138631641Y-86739500D01*
X138699762Y-86759502D01*
X138742763Y-86806104D01*
X138818974Y-86948686D01*
X138950747Y-87109252D01*
X139111313Y-87241024D01*
X139111313Y-87241025D01*
X139111317Y-87241027D01*
X139294508Y-87338945D01*
X139493282Y-87399242D01*
X139493286Y-87399242D01*
X139493288Y-87399243D01*
X139699997Y-87419602D01*
X139700000Y-87419602D01*
X139700003Y-87419602D01*
X139906711Y-87399243D01*
X139906712Y-87399242D01*
X139906718Y-87399242D01*
X140105492Y-87338945D01*
X140288683Y-87241027D01*
X140288684Y-87241025D01*
X140288686Y-87241025D01*
X140288686Y-87241024D01*
X140449252Y-87109252D01*
X140581027Y-86948683D01*
X140678945Y-86765492D01*
X140723426Y-86618856D01*
X140762340Y-86559476D01*
X140827181Y-86530561D01*
X140897362Y-86541291D01*
X140950601Y-86588260D01*
X140970000Y-86655433D01*
X140970000Y-88604566D01*
X140949998Y-88672687D01*
X140896342Y-88719180D01*
X140826068Y-88729284D01*
X140761488Y-88699790D01*
X140723425Y-88641141D01*
X140712330Y-88604566D01*
X140678945Y-88494508D01*
X140581027Y-88311317D01*
X140581025Y-88311313D01*
X140449252Y-88150747D01*
X140288686Y-88018975D01*
X140288686Y-88018974D01*
X140105492Y-87921055D01*
X139906711Y-87860756D01*
X139700003Y-87840398D01*
X139699997Y-87840398D01*
X139493288Y-87860756D01*
X139294507Y-87921055D01*
X139111313Y-88018974D01*
X139111313Y-88018975D01*
X138950747Y-88150747D01*
X138818975Y-88311313D01*
X138818974Y-88311313D01*
X138742763Y-88453896D01*
X138693011Y-88504544D01*
X138631641Y-88520500D01*
X138228359Y-88520500D01*
X138160238Y-88500498D01*
X138117237Y-88453896D01*
X138041025Y-88311313D01*
X137909252Y-88150747D01*
X137748686Y-88018975D01*
X137748686Y-88018974D01*
X137565492Y-87921055D01*
X137366711Y-87860756D01*
X137160003Y-87840398D01*
X137159997Y-87840398D01*
X136953288Y-87860756D01*
X136754507Y-87921055D01*
X136571313Y-88018974D01*
X136571313Y-88018975D01*
X136410747Y-88150747D01*
X136278975Y-88311313D01*
X136278974Y-88311313D01*
X136181055Y-88494507D01*
X136120756Y-88693288D01*
X136100398Y-88899996D01*
X136100398Y-88900003D01*
X136120756Y-89106711D01*
X136181055Y-89305492D01*
X136278974Y-89488686D01*
X136410747Y-89649252D01*
X136571313Y-89781024D01*
X136571313Y-89781025D01*
X136571317Y-89781027D01*
X136754508Y-89878945D01*
X136953282Y-89939242D01*
X136953286Y-89939242D01*
X136953288Y-89939243D01*
X137159997Y-89959602D01*
X137160000Y-89959602D01*
X137160003Y-89959602D01*
X137366711Y-89939243D01*
X137366712Y-89939242D01*
X137366718Y-89939242D01*
X137565492Y-89878945D01*
X137748683Y-89781027D01*
X137748684Y-89781025D01*
X137748686Y-89781025D01*
X137748686Y-89781024D01*
X137909252Y-89649252D01*
X138041027Y-89488683D01*
X138117237Y-89346103D01*
X138166989Y-89295456D01*
X138228359Y-89279500D01*
X138631641Y-89279500D01*
X138699762Y-89299502D01*
X138742763Y-89346104D01*
X138818974Y-89488686D01*
X138950747Y-89649252D01*
X139111313Y-89781024D01*
X139111313Y-89781025D01*
X139111317Y-89781027D01*
X139294508Y-89878945D01*
X139493282Y-89939242D01*
X139493286Y-89939242D01*
X139493288Y-89939243D01*
X139699997Y-89959602D01*
X139700000Y-89959602D01*
X139700003Y-89959602D01*
X139906711Y-89939243D01*
X139906712Y-89939242D01*
X139906718Y-89939242D01*
X140105492Y-89878945D01*
X140288683Y-89781027D01*
X140288684Y-89781025D01*
X140288686Y-89781025D01*
X140288686Y-89781024D01*
X140449252Y-89649252D01*
X140581027Y-89488683D01*
X140678945Y-89305492D01*
X140723426Y-89158856D01*
X140762340Y-89099476D01*
X140827181Y-89070561D01*
X140897362Y-89081291D01*
X140950601Y-89128260D01*
X140970000Y-89195433D01*
X140970000Y-91144566D01*
X140949998Y-91212687D01*
X140896342Y-91259180D01*
X140826068Y-91269284D01*
X140761488Y-91239790D01*
X140723425Y-91181141D01*
X140712330Y-91144566D01*
X140678945Y-91034508D01*
X140581027Y-90851317D01*
X140581025Y-90851313D01*
X140449252Y-90690747D01*
X140288686Y-90558975D01*
X140288686Y-90558974D01*
X140105492Y-90461055D01*
X139906711Y-90400756D01*
X139700003Y-90380398D01*
X139699997Y-90380398D01*
X139493288Y-90400756D01*
X139294507Y-90461055D01*
X139111313Y-90558974D01*
X139111313Y-90558975D01*
X138950747Y-90690747D01*
X138818975Y-90851313D01*
X138818974Y-90851313D01*
X138742763Y-90993896D01*
X138693011Y-91044544D01*
X138631641Y-91060500D01*
X138228359Y-91060500D01*
X138160238Y-91040498D01*
X138117237Y-90993896D01*
X138041025Y-90851313D01*
X137909252Y-90690747D01*
X137748686Y-90558975D01*
X137748686Y-90558974D01*
X137565492Y-90461055D01*
X137366711Y-90400756D01*
X137160003Y-90380398D01*
X137159997Y-90380398D01*
X136953288Y-90400756D01*
X136754507Y-90461055D01*
X136571313Y-90558974D01*
X136571313Y-90558975D01*
X136410747Y-90690747D01*
X136278975Y-90851313D01*
X136278974Y-90851313D01*
X136181055Y-91034507D01*
X136120756Y-91233288D01*
X136100398Y-91439996D01*
X136100398Y-91440003D01*
X136120756Y-91646711D01*
X136181055Y-91845492D01*
X136278974Y-92028686D01*
X136410747Y-92189252D01*
X136571313Y-92321024D01*
X136571313Y-92321025D01*
X136571317Y-92321027D01*
X136754508Y-92418945D01*
X136953282Y-92479242D01*
X136953286Y-92479242D01*
X136953288Y-92479243D01*
X137159997Y-92499602D01*
X137160000Y-92499602D01*
X137160003Y-92499602D01*
X137366711Y-92479243D01*
X137366712Y-92479242D01*
X137366718Y-92479242D01*
X137565492Y-92418945D01*
X137748683Y-92321027D01*
X137748684Y-92321025D01*
X137748686Y-92321025D01*
X137748686Y-92321024D01*
X137909252Y-92189252D01*
X138041027Y-92028683D01*
X138117237Y-91886103D01*
X138166989Y-91835456D01*
X138228359Y-91819500D01*
X138631641Y-91819500D01*
X138699762Y-91839502D01*
X138742763Y-91886104D01*
X138818974Y-92028686D01*
X138950747Y-92189252D01*
X139111313Y-92321024D01*
X139111313Y-92321025D01*
X139111317Y-92321027D01*
X139294508Y-92418945D01*
X139493282Y-92479242D01*
X139493286Y-92479242D01*
X139493288Y-92479243D01*
X139699997Y-92499602D01*
X139700000Y-92499602D01*
X139700003Y-92499602D01*
X139906711Y-92479243D01*
X139906712Y-92479242D01*
X139906718Y-92479242D01*
X140105492Y-92418945D01*
X140288683Y-92321027D01*
X140288684Y-92321025D01*
X140288686Y-92321025D01*
X140288686Y-92321024D01*
X140449252Y-92189252D01*
X140581027Y-92028683D01*
X140678945Y-91845492D01*
X140723426Y-91698856D01*
X140762340Y-91639476D01*
X140827181Y-91610561D01*
X140897362Y-91621291D01*
X140950601Y-91668260D01*
X140970000Y-91735433D01*
X140970000Y-93684566D01*
X140949998Y-93752687D01*
X140896342Y-93799180D01*
X140826068Y-93809284D01*
X140761488Y-93779790D01*
X140723425Y-93721141D01*
X140700935Y-93647000D01*
X140678945Y-93574508D01*
X140581027Y-93391317D01*
X140581025Y-93391313D01*
X140449252Y-93230747D01*
X140288686Y-93098975D01*
X140288686Y-93098974D01*
X140105492Y-93001055D01*
X139906711Y-92940756D01*
X139700003Y-92920398D01*
X139699997Y-92920398D01*
X139493288Y-92940756D01*
X139294507Y-93001055D01*
X139111313Y-93098974D01*
X139111313Y-93098975D01*
X138950747Y-93230747D01*
X138818975Y-93391313D01*
X138818974Y-93391313D01*
X138742763Y-93533896D01*
X138693011Y-93584544D01*
X138631641Y-93600500D01*
X138228359Y-93600500D01*
X138160238Y-93580498D01*
X138117237Y-93533896D01*
X138041025Y-93391313D01*
X137909252Y-93230747D01*
X137748686Y-93098975D01*
X137748686Y-93098974D01*
X137565492Y-93001055D01*
X137366711Y-92940756D01*
X137160003Y-92920398D01*
X137159997Y-92920398D01*
X136953288Y-92940756D01*
X136754507Y-93001055D01*
X136571313Y-93098974D01*
X136571313Y-93098975D01*
X136410747Y-93230747D01*
X136278975Y-93391313D01*
X136278974Y-93391313D01*
X136181055Y-93574507D01*
X136120756Y-93773288D01*
X136100398Y-93979996D01*
X136100398Y-93980003D01*
X136120756Y-94186711D01*
X136120757Y-94186717D01*
X136120758Y-94186718D01*
X136136080Y-94237227D01*
X136181055Y-94385492D01*
X136278974Y-94568686D01*
X136410747Y-94729252D01*
X136571313Y-94861024D01*
X136571313Y-94861025D01*
X136571317Y-94861027D01*
X136754508Y-94958945D01*
X136953282Y-95019242D01*
X136953286Y-95019242D01*
X136953288Y-95019243D01*
X137159997Y-95039602D01*
X137160000Y-95039602D01*
X137160003Y-95039602D01*
X137366711Y-95019243D01*
X137366712Y-95019242D01*
X137366718Y-95019242D01*
X137565492Y-94958945D01*
X137748683Y-94861027D01*
X137748684Y-94861025D01*
X137748686Y-94861025D01*
X137748686Y-94861024D01*
X137909252Y-94729252D01*
X138041027Y-94568683D01*
X138117237Y-94426103D01*
X138166989Y-94375456D01*
X138228359Y-94359500D01*
X138631641Y-94359500D01*
X138699762Y-94379502D01*
X138742763Y-94426104D01*
X138818974Y-94568686D01*
X138950747Y-94729252D01*
X139111313Y-94861024D01*
X139111313Y-94861025D01*
X139111317Y-94861027D01*
X139294508Y-94958945D01*
X139493282Y-95019242D01*
X139493286Y-95019242D01*
X139493288Y-95019243D01*
X139699997Y-95039602D01*
X139700000Y-95039602D01*
X139700003Y-95039602D01*
X139906711Y-95019243D01*
X139906712Y-95019242D01*
X139906718Y-95019242D01*
X140105492Y-94958945D01*
X140288683Y-94861027D01*
X140288684Y-94861025D01*
X140288686Y-94861025D01*
X140288686Y-94861024D01*
X140449252Y-94729252D01*
X140581027Y-94568683D01*
X140678945Y-94385492D01*
X140723426Y-94238856D01*
X140762340Y-94179476D01*
X140827181Y-94150561D01*
X140897362Y-94161291D01*
X140950601Y-94208260D01*
X140970000Y-94275433D01*
X140970000Y-96224566D01*
X140949998Y-96292687D01*
X140896342Y-96339180D01*
X140826068Y-96349284D01*
X140761488Y-96319790D01*
X140723425Y-96261141D01*
X140712330Y-96224566D01*
X140678945Y-96114508D01*
X140581027Y-95931317D01*
X140581025Y-95931313D01*
X140449252Y-95770747D01*
X140288686Y-95638975D01*
X140288686Y-95638974D01*
X140105492Y-95541055D01*
X139906711Y-95480756D01*
X139700003Y-95460398D01*
X139699997Y-95460398D01*
X139493288Y-95480756D01*
X139294507Y-95541055D01*
X139111313Y-95638974D01*
X139111313Y-95638975D01*
X138950747Y-95770747D01*
X138818975Y-95931313D01*
X138818974Y-95931313D01*
X138742763Y-96073896D01*
X138693011Y-96124544D01*
X138631641Y-96140500D01*
X138228359Y-96140500D01*
X138160238Y-96120498D01*
X138117237Y-96073896D01*
X138041025Y-95931313D01*
X137909252Y-95770747D01*
X137748686Y-95638975D01*
X137748686Y-95638974D01*
X137565492Y-95541055D01*
X137366711Y-95480756D01*
X137160003Y-95460398D01*
X137159997Y-95460398D01*
X136953288Y-95480756D01*
X136754507Y-95541055D01*
X136571313Y-95638974D01*
X136571313Y-95638975D01*
X136410747Y-95770747D01*
X136278975Y-95931313D01*
X136278974Y-95931313D01*
X136181055Y-96114507D01*
X136120756Y-96313288D01*
X136100398Y-96519996D01*
X136100398Y-96520003D01*
X136120756Y-96726711D01*
X136181055Y-96925492D01*
X136278974Y-97108686D01*
X136410747Y-97269252D01*
X136571313Y-97401024D01*
X136571313Y-97401025D01*
X136571317Y-97401027D01*
X136754508Y-97498945D01*
X136953282Y-97559242D01*
X136953286Y-97559242D01*
X136953288Y-97559243D01*
X137159997Y-97579602D01*
X137160000Y-97579602D01*
X137160003Y-97579602D01*
X137366711Y-97559243D01*
X137366712Y-97559242D01*
X137366718Y-97559242D01*
X137565492Y-97498945D01*
X137748683Y-97401027D01*
X137748684Y-97401025D01*
X137748686Y-97401025D01*
X137748686Y-97401024D01*
X137909252Y-97269252D01*
X138041027Y-97108683D01*
X138117237Y-96966103D01*
X138166989Y-96915456D01*
X138228359Y-96899500D01*
X138631641Y-96899500D01*
X138699762Y-96919502D01*
X138742763Y-96966104D01*
X138818974Y-97108686D01*
X138950747Y-97269252D01*
X139111313Y-97401024D01*
X139111313Y-97401025D01*
X139111317Y-97401027D01*
X139294508Y-97498945D01*
X139493282Y-97559242D01*
X139493286Y-97559242D01*
X139493288Y-97559243D01*
X139699997Y-97579602D01*
X139700000Y-97579602D01*
X139700003Y-97579602D01*
X139906711Y-97559243D01*
X139906712Y-97559242D01*
X139906718Y-97559242D01*
X140105492Y-97498945D01*
X140288683Y-97401027D01*
X140288684Y-97401025D01*
X140288686Y-97401025D01*
X140288686Y-97401024D01*
X140449252Y-97269252D01*
X140581027Y-97108683D01*
X140678945Y-96925492D01*
X140723426Y-96778856D01*
X140762340Y-96719476D01*
X140827181Y-96690561D01*
X140897362Y-96701291D01*
X140950601Y-96748260D01*
X140970000Y-96815433D01*
X140970000Y-98764566D01*
X140949998Y-98832687D01*
X140896342Y-98879180D01*
X140826068Y-98889284D01*
X140761488Y-98859790D01*
X140723425Y-98801141D01*
X140712330Y-98764566D01*
X140678945Y-98654508D01*
X140581027Y-98471317D01*
X140581025Y-98471313D01*
X140449252Y-98310747D01*
X140288686Y-98178975D01*
X140288686Y-98178974D01*
X140105492Y-98081055D01*
X139906711Y-98020756D01*
X139700003Y-98000398D01*
X139699997Y-98000398D01*
X139493288Y-98020756D01*
X139294507Y-98081055D01*
X139111313Y-98178974D01*
X139111313Y-98178975D01*
X138950747Y-98310747D01*
X138818975Y-98471313D01*
X138818974Y-98471313D01*
X138742763Y-98613896D01*
X138693011Y-98664544D01*
X138631641Y-98680500D01*
X138228359Y-98680500D01*
X138160238Y-98660498D01*
X138117237Y-98613896D01*
X138041025Y-98471313D01*
X137909252Y-98310747D01*
X137748686Y-98178975D01*
X137748686Y-98178974D01*
X137565492Y-98081055D01*
X137366711Y-98020756D01*
X137160003Y-98000398D01*
X137159997Y-98000398D01*
X136953288Y-98020756D01*
X136754507Y-98081055D01*
X136571313Y-98178974D01*
X136571313Y-98178975D01*
X136410747Y-98310747D01*
X136278975Y-98471313D01*
X136278974Y-98471313D01*
X136181055Y-98654507D01*
X136120756Y-98853288D01*
X136100398Y-99059996D01*
X136100398Y-99060003D01*
X136120756Y-99266711D01*
X136181055Y-99465492D01*
X136278974Y-99648686D01*
X136410747Y-99809252D01*
X136571313Y-99941024D01*
X136571313Y-99941025D01*
X136571317Y-99941027D01*
X136754508Y-100038945D01*
X136953282Y-100099242D01*
X136953286Y-100099242D01*
X136953288Y-100099243D01*
X137159997Y-100119602D01*
X137160000Y-100119602D01*
X137160003Y-100119602D01*
X137366711Y-100099243D01*
X137366712Y-100099242D01*
X137366718Y-100099242D01*
X137565492Y-100038945D01*
X137748683Y-99941027D01*
X137748684Y-99941025D01*
X137748686Y-99941025D01*
X137748686Y-99941024D01*
X137909252Y-99809252D01*
X138041027Y-99648683D01*
X138117237Y-99506103D01*
X138166989Y-99455456D01*
X138228359Y-99439500D01*
X138631641Y-99439500D01*
X138699762Y-99459502D01*
X138742763Y-99506104D01*
X138818974Y-99648686D01*
X138950747Y-99809252D01*
X139111313Y-99941024D01*
X139111313Y-99941025D01*
X139111317Y-99941027D01*
X139294508Y-100038945D01*
X139493282Y-100099242D01*
X139493286Y-100099242D01*
X139493288Y-100099243D01*
X139699997Y-100119602D01*
X139700000Y-100119602D01*
X139700003Y-100119602D01*
X139906711Y-100099243D01*
X139906712Y-100099242D01*
X139906718Y-100099242D01*
X140105492Y-100038945D01*
X140288683Y-99941027D01*
X140288684Y-99941025D01*
X140288686Y-99941025D01*
X140288686Y-99941024D01*
X140449252Y-99809252D01*
X140581027Y-99648683D01*
X140678945Y-99465492D01*
X140723426Y-99318856D01*
X140762340Y-99259476D01*
X140827181Y-99230561D01*
X140897362Y-99241291D01*
X140950601Y-99288260D01*
X140970000Y-99355433D01*
X140970000Y-101304566D01*
X140949998Y-101372687D01*
X140896342Y-101419180D01*
X140826068Y-101429284D01*
X140761488Y-101399790D01*
X140723425Y-101341141D01*
X140712330Y-101304566D01*
X140678945Y-101194508D01*
X140581027Y-101011317D01*
X140581025Y-101011313D01*
X140449252Y-100850747D01*
X140288686Y-100718975D01*
X140288686Y-100718974D01*
X140105492Y-100621055D01*
X139906711Y-100560756D01*
X139700003Y-100540398D01*
X139699997Y-100540398D01*
X139493288Y-100560756D01*
X139294507Y-100621055D01*
X139111313Y-100718974D01*
X139111313Y-100718975D01*
X138950747Y-100850747D01*
X138818975Y-101011313D01*
X138818974Y-101011313D01*
X138742763Y-101153896D01*
X138693011Y-101204544D01*
X138631641Y-101220500D01*
X138228359Y-101220500D01*
X138160238Y-101200498D01*
X138117237Y-101153896D01*
X138041025Y-101011313D01*
X137909252Y-100850747D01*
X137748686Y-100718975D01*
X137748686Y-100718974D01*
X137565492Y-100621055D01*
X137366711Y-100560756D01*
X137160003Y-100540398D01*
X137159997Y-100540398D01*
X136953288Y-100560756D01*
X136754507Y-100621055D01*
X136571313Y-100718974D01*
X136571313Y-100718975D01*
X136410747Y-100850747D01*
X136278975Y-101011313D01*
X136278974Y-101011313D01*
X136181055Y-101194507D01*
X136120756Y-101393288D01*
X136100398Y-101599996D01*
X136100398Y-101600003D01*
X136120756Y-101806711D01*
X136181055Y-102005492D01*
X136278974Y-102188686D01*
X136410747Y-102349252D01*
X136571313Y-102481024D01*
X136571313Y-102481025D01*
X136571317Y-102481027D01*
X136754508Y-102578945D01*
X136953282Y-102639242D01*
X136953286Y-102639242D01*
X136953288Y-102639243D01*
X137159997Y-102659602D01*
X137160000Y-102659602D01*
X137160003Y-102659602D01*
X137366711Y-102639243D01*
X137366712Y-102639242D01*
X137366718Y-102639242D01*
X137565492Y-102578945D01*
X137748683Y-102481027D01*
X137748684Y-102481025D01*
X137748686Y-102481025D01*
X137748686Y-102481024D01*
X137909252Y-102349252D01*
X138041027Y-102188683D01*
X138117237Y-102046103D01*
X138166989Y-101995456D01*
X138228359Y-101979500D01*
X138631641Y-101979500D01*
X138699762Y-101999502D01*
X138742763Y-102046104D01*
X138818974Y-102188686D01*
X138950747Y-102349252D01*
X139111313Y-102481024D01*
X139111313Y-102481025D01*
X139111317Y-102481027D01*
X139294508Y-102578945D01*
X139493282Y-102639242D01*
X139493286Y-102639242D01*
X139493288Y-102639243D01*
X139699997Y-102659602D01*
X139700000Y-102659602D01*
X139700003Y-102659602D01*
X139906711Y-102639243D01*
X139906712Y-102639242D01*
X139906718Y-102639242D01*
X140105492Y-102578945D01*
X140288683Y-102481027D01*
X140288684Y-102481025D01*
X140288686Y-102481025D01*
X140288686Y-102481024D01*
X140449252Y-102349252D01*
X140581027Y-102188683D01*
X140678945Y-102005492D01*
X140723426Y-101858856D01*
X140762340Y-101799476D01*
X140827181Y-101770561D01*
X140897362Y-101781291D01*
X140950601Y-101828260D01*
X140970000Y-101895433D01*
X140970000Y-103844566D01*
X140949998Y-103912687D01*
X140896342Y-103959180D01*
X140826068Y-103969284D01*
X140761488Y-103939790D01*
X140723425Y-103881141D01*
X140712330Y-103844566D01*
X140678945Y-103734508D01*
X140581027Y-103551317D01*
X140581025Y-103551313D01*
X140449252Y-103390747D01*
X140288686Y-103258975D01*
X140288686Y-103258974D01*
X140105492Y-103161055D01*
X139906711Y-103100756D01*
X139700003Y-103080398D01*
X139699997Y-103080398D01*
X139493288Y-103100756D01*
X139294507Y-103161055D01*
X139111313Y-103258974D01*
X139111313Y-103258975D01*
X138950747Y-103390747D01*
X138818975Y-103551313D01*
X138818974Y-103551313D01*
X138742763Y-103693896D01*
X138693011Y-103744544D01*
X138631641Y-103760500D01*
X138228359Y-103760500D01*
X138160238Y-103740498D01*
X138117237Y-103693896D01*
X138041025Y-103551313D01*
X137909252Y-103390747D01*
X137748686Y-103258975D01*
X137748686Y-103258974D01*
X137565492Y-103161055D01*
X137366711Y-103100756D01*
X137160003Y-103080398D01*
X137159997Y-103080398D01*
X136953288Y-103100756D01*
X136754507Y-103161055D01*
X136571313Y-103258974D01*
X136571313Y-103258975D01*
X136410747Y-103390747D01*
X136278975Y-103551313D01*
X136278974Y-103551313D01*
X136181055Y-103734507D01*
X136120756Y-103933288D01*
X136100398Y-104139996D01*
X136100398Y-104140003D01*
X136120756Y-104346711D01*
X136181055Y-104545492D01*
X136278974Y-104728686D01*
X136410747Y-104889252D01*
X136571313Y-105021024D01*
X136571313Y-105021025D01*
X136571317Y-105021027D01*
X136754508Y-105118945D01*
X136953282Y-105179242D01*
X136953286Y-105179242D01*
X136953288Y-105179243D01*
X137159997Y-105199602D01*
X137160000Y-105199602D01*
X137160003Y-105199602D01*
X137366711Y-105179243D01*
X137366712Y-105179242D01*
X137366718Y-105179242D01*
X137565492Y-105118945D01*
X137748683Y-105021027D01*
X137748684Y-105021025D01*
X137748686Y-105021025D01*
X137748686Y-105021024D01*
X137909252Y-104889252D01*
X138041027Y-104728683D01*
X138117237Y-104586103D01*
X138166989Y-104535456D01*
X138228359Y-104519500D01*
X138631641Y-104519500D01*
X138699762Y-104539502D01*
X138742763Y-104586104D01*
X138818974Y-104728686D01*
X138950747Y-104889252D01*
X139111313Y-105021024D01*
X139111313Y-105021025D01*
X139111317Y-105021027D01*
X139294508Y-105118945D01*
X139493282Y-105179242D01*
X139493286Y-105179242D01*
X139493288Y-105179243D01*
X139699997Y-105199602D01*
X139700000Y-105199602D01*
X139700003Y-105199602D01*
X139906711Y-105179243D01*
X139906712Y-105179242D01*
X139906718Y-105179242D01*
X140105492Y-105118945D01*
X140288683Y-105021027D01*
X140288684Y-105021025D01*
X140288686Y-105021025D01*
X140288686Y-105021024D01*
X140449252Y-104889252D01*
X140581027Y-104728683D01*
X140678945Y-104545492D01*
X140723426Y-104398856D01*
X140762340Y-104339476D01*
X140827181Y-104310561D01*
X140897362Y-104321291D01*
X140950601Y-104368260D01*
X140970000Y-104435433D01*
X140970000Y-106384566D01*
X140949998Y-106452687D01*
X140896342Y-106499180D01*
X140826068Y-106509284D01*
X140761488Y-106479790D01*
X140723425Y-106421141D01*
X140712330Y-106384566D01*
X140678945Y-106274508D01*
X140581027Y-106091317D01*
X140581025Y-106091313D01*
X140449252Y-105930747D01*
X140288686Y-105798975D01*
X140288686Y-105798974D01*
X140105492Y-105701055D01*
X139906711Y-105640756D01*
X139700003Y-105620398D01*
X139699997Y-105620398D01*
X139493288Y-105640756D01*
X139294507Y-105701055D01*
X139111313Y-105798974D01*
X139111313Y-105798975D01*
X138950747Y-105930747D01*
X138818975Y-106091313D01*
X138818974Y-106091313D01*
X138742763Y-106233896D01*
X138693011Y-106284544D01*
X138631641Y-106300500D01*
X138228359Y-106300500D01*
X138160238Y-106280498D01*
X138117237Y-106233896D01*
X138041025Y-106091313D01*
X137909252Y-105930747D01*
X137748686Y-105798975D01*
X137748686Y-105798974D01*
X137565492Y-105701055D01*
X137366711Y-105640756D01*
X137160003Y-105620398D01*
X137159997Y-105620398D01*
X136953288Y-105640756D01*
X136754507Y-105701055D01*
X136571313Y-105798974D01*
X136571313Y-105798975D01*
X136410747Y-105930747D01*
X136278975Y-106091313D01*
X136278974Y-106091313D01*
X136181055Y-106274507D01*
X136120756Y-106473288D01*
X136100398Y-106679996D01*
X136100398Y-106680003D01*
X136120756Y-106886711D01*
X136181055Y-107085492D01*
X136278974Y-107268686D01*
X136410747Y-107429252D01*
X136571313Y-107561024D01*
X136571313Y-107561025D01*
X136571317Y-107561027D01*
X136754508Y-107658945D01*
X136953282Y-107719242D01*
X136953286Y-107719242D01*
X136953288Y-107719243D01*
X137159997Y-107739602D01*
X137160000Y-107739602D01*
X137160003Y-107739602D01*
X137366711Y-107719243D01*
X137366712Y-107719242D01*
X137366718Y-107719242D01*
X137565492Y-107658945D01*
X137748683Y-107561027D01*
X137748684Y-107561025D01*
X137748686Y-107561025D01*
X137748686Y-107561024D01*
X137909252Y-107429252D01*
X138041027Y-107268683D01*
X138117237Y-107126103D01*
X138166989Y-107075456D01*
X138228359Y-107059500D01*
X138631641Y-107059500D01*
X138699762Y-107079502D01*
X138742763Y-107126104D01*
X138818974Y-107268686D01*
X138950747Y-107429252D01*
X139111313Y-107561024D01*
X139111313Y-107561025D01*
X139111317Y-107561027D01*
X139294508Y-107658945D01*
X139493282Y-107719242D01*
X139493286Y-107719242D01*
X139493288Y-107719243D01*
X139699997Y-107739602D01*
X139700000Y-107739602D01*
X139700003Y-107739602D01*
X139906711Y-107719243D01*
X139906712Y-107719242D01*
X139906718Y-107719242D01*
X140105492Y-107658945D01*
X140288683Y-107561027D01*
X140288684Y-107561025D01*
X140288686Y-107561025D01*
X140288686Y-107561024D01*
X140449252Y-107429252D01*
X140581027Y-107268683D01*
X140678945Y-107085492D01*
X140723426Y-106938856D01*
X140762340Y-106879476D01*
X140827181Y-106850561D01*
X140897362Y-106861291D01*
X140950601Y-106908260D01*
X140970000Y-106975433D01*
X140970000Y-108924566D01*
X140949998Y-108992687D01*
X140896342Y-109039180D01*
X140826068Y-109049284D01*
X140761488Y-109019790D01*
X140723425Y-108961141D01*
X140712330Y-108924566D01*
X140678945Y-108814508D01*
X140581027Y-108631317D01*
X140581025Y-108631313D01*
X140449252Y-108470747D01*
X140288686Y-108338975D01*
X140288686Y-108338974D01*
X140105492Y-108241055D01*
X139906711Y-108180756D01*
X139700003Y-108160398D01*
X139699997Y-108160398D01*
X139493288Y-108180756D01*
X139294507Y-108241055D01*
X139111313Y-108338974D01*
X139111313Y-108338975D01*
X138950747Y-108470747D01*
X138818975Y-108631313D01*
X138818974Y-108631313D01*
X138742763Y-108773896D01*
X138693011Y-108824544D01*
X138631641Y-108840500D01*
X138228359Y-108840500D01*
X138160238Y-108820498D01*
X138117237Y-108773896D01*
X138041025Y-108631313D01*
X137909252Y-108470747D01*
X137748686Y-108338975D01*
X137748686Y-108338974D01*
X137565492Y-108241055D01*
X137366711Y-108180756D01*
X137160003Y-108160398D01*
X137159997Y-108160398D01*
X136953288Y-108180756D01*
X136754507Y-108241055D01*
X136571313Y-108338974D01*
X136571313Y-108338975D01*
X136410747Y-108470747D01*
X136278975Y-108631313D01*
X136278974Y-108631313D01*
X136181055Y-108814507D01*
X136120756Y-109013288D01*
X136100398Y-109219996D01*
X136100398Y-109220003D01*
X136120756Y-109426711D01*
X136181055Y-109625492D01*
X136278974Y-109808686D01*
X136410747Y-109969252D01*
X136571313Y-110101024D01*
X136571313Y-110101025D01*
X136571317Y-110101027D01*
X136754508Y-110198945D01*
X136953282Y-110259242D01*
X136953286Y-110259242D01*
X136953288Y-110259243D01*
X137159997Y-110279602D01*
X137160000Y-110279602D01*
X137160003Y-110279602D01*
X137366711Y-110259243D01*
X137366712Y-110259242D01*
X137366718Y-110259242D01*
X137565492Y-110198945D01*
X137748683Y-110101027D01*
X137748684Y-110101025D01*
X137748686Y-110101025D01*
X137748686Y-110101024D01*
X137909252Y-109969252D01*
X138041027Y-109808683D01*
X138117237Y-109666103D01*
X138166989Y-109615456D01*
X138228359Y-109599500D01*
X138631641Y-109599500D01*
X138699762Y-109619502D01*
X138742763Y-109666104D01*
X138818974Y-109808686D01*
X138950747Y-109969252D01*
X139111313Y-110101024D01*
X139111313Y-110101025D01*
X139111317Y-110101027D01*
X139294508Y-110198945D01*
X139493282Y-110259242D01*
X139493286Y-110259242D01*
X139493288Y-110259243D01*
X139699997Y-110279602D01*
X139700000Y-110279602D01*
X139700003Y-110279602D01*
X139906711Y-110259243D01*
X139906712Y-110259242D01*
X139906718Y-110259242D01*
X140105492Y-110198945D01*
X140288683Y-110101027D01*
X140288684Y-110101025D01*
X140288686Y-110101025D01*
X140288686Y-110101024D01*
X140449252Y-109969252D01*
X140581027Y-109808683D01*
X140678945Y-109625492D01*
X140723426Y-109478856D01*
X140762340Y-109419476D01*
X140827181Y-109390561D01*
X140897362Y-109401291D01*
X140950601Y-109448260D01*
X140970000Y-109515433D01*
X140970000Y-111464566D01*
X140949998Y-111532687D01*
X140896342Y-111579180D01*
X140826068Y-111589284D01*
X140761488Y-111559790D01*
X140723425Y-111501141D01*
X140712330Y-111464566D01*
X140678945Y-111354508D01*
X140581027Y-111171317D01*
X140581025Y-111171313D01*
X140449252Y-111010747D01*
X140288686Y-110878975D01*
X140288686Y-110878974D01*
X140105492Y-110781055D01*
X139906711Y-110720756D01*
X139700003Y-110700398D01*
X139699997Y-110700398D01*
X139493288Y-110720756D01*
X139294507Y-110781055D01*
X139111313Y-110878974D01*
X139111313Y-110878975D01*
X138950747Y-111010747D01*
X138818975Y-111171313D01*
X138818974Y-111171313D01*
X138742763Y-111313896D01*
X138693011Y-111364544D01*
X138631641Y-111380500D01*
X138228359Y-111380500D01*
X138160238Y-111360498D01*
X138117237Y-111313896D01*
X138041025Y-111171313D01*
X137909252Y-111010747D01*
X137748686Y-110878975D01*
X137748686Y-110878974D01*
X137565492Y-110781055D01*
X137366711Y-110720756D01*
X137160003Y-110700398D01*
X137159997Y-110700398D01*
X136953288Y-110720756D01*
X136754507Y-110781055D01*
X136571313Y-110878974D01*
X136571313Y-110878975D01*
X136410747Y-111010747D01*
X136278975Y-111171313D01*
X136278974Y-111171313D01*
X136181055Y-111354507D01*
X136120756Y-111553288D01*
X136100398Y-111759996D01*
X136100398Y-111760003D01*
X136120756Y-111966711D01*
X136181055Y-112165492D01*
X136278974Y-112348686D01*
X136410747Y-112509252D01*
X136571313Y-112641024D01*
X136571313Y-112641025D01*
X136571317Y-112641027D01*
X136754508Y-112738945D01*
X136953282Y-112799242D01*
X136953286Y-112799242D01*
X136953288Y-112799243D01*
X137159997Y-112819602D01*
X137160000Y-112819602D01*
X137160003Y-112819602D01*
X137366711Y-112799243D01*
X137366712Y-112799242D01*
X137366718Y-112799242D01*
X137565492Y-112738945D01*
X137748683Y-112641027D01*
X137748684Y-112641025D01*
X137748686Y-112641025D01*
X137748686Y-112641024D01*
X137909252Y-112509252D01*
X138041027Y-112348683D01*
X138117237Y-112206103D01*
X138166989Y-112155456D01*
X138228359Y-112139500D01*
X138631641Y-112139500D01*
X138699762Y-112159502D01*
X138742763Y-112206104D01*
X138818974Y-112348686D01*
X138950747Y-112509252D01*
X139111313Y-112641024D01*
X139111313Y-112641025D01*
X139111317Y-112641027D01*
X139294508Y-112738945D01*
X139493282Y-112799242D01*
X139493286Y-112799242D01*
X139493288Y-112799243D01*
X139699997Y-112819602D01*
X139700000Y-112819602D01*
X139700003Y-112819602D01*
X139906711Y-112799243D01*
X139906712Y-112799242D01*
X139906718Y-112799242D01*
X140105492Y-112738945D01*
X140288683Y-112641027D01*
X140288684Y-112641025D01*
X140288686Y-112641025D01*
X140288686Y-112641024D01*
X140449252Y-112509252D01*
X140581027Y-112348683D01*
X140678945Y-112165492D01*
X140723426Y-112018856D01*
X140762340Y-111959476D01*
X140827181Y-111930561D01*
X140897362Y-111941291D01*
X140950601Y-111988260D01*
X140970000Y-112055433D01*
X140970000Y-114004566D01*
X140949998Y-114072687D01*
X140896342Y-114119180D01*
X140826068Y-114129284D01*
X140761488Y-114099790D01*
X140723425Y-114041141D01*
X140712330Y-114004566D01*
X140678945Y-113894508D01*
X140581027Y-113711317D01*
X140581025Y-113711313D01*
X140449252Y-113550747D01*
X140288686Y-113418975D01*
X140288686Y-113418974D01*
X140105492Y-113321055D01*
X139906711Y-113260756D01*
X139700003Y-113240398D01*
X139699997Y-113240398D01*
X139493288Y-113260756D01*
X139294507Y-113321055D01*
X139111313Y-113418974D01*
X139111313Y-113418975D01*
X138950747Y-113550747D01*
X138818975Y-113711313D01*
X138818974Y-113711313D01*
X138742763Y-113853896D01*
X138693011Y-113904544D01*
X138631641Y-113920500D01*
X138228359Y-113920500D01*
X138160238Y-113900498D01*
X138117237Y-113853896D01*
X138041025Y-113711313D01*
X137909252Y-113550747D01*
X137748686Y-113418975D01*
X137748686Y-113418974D01*
X137565492Y-113321055D01*
X137366711Y-113260756D01*
X137160003Y-113240398D01*
X137159997Y-113240398D01*
X136953288Y-113260756D01*
X136754507Y-113321055D01*
X136571313Y-113418974D01*
X136571313Y-113418975D01*
X136410747Y-113550747D01*
X136278975Y-113711313D01*
X136278974Y-113711313D01*
X136181055Y-113894507D01*
X136120756Y-114093288D01*
X136100398Y-114299996D01*
X136100398Y-114300003D01*
X136120756Y-114506711D01*
X136181055Y-114705492D01*
X136278974Y-114888686D01*
X136410747Y-115049252D01*
X136571313Y-115181024D01*
X136571313Y-115181025D01*
X136617810Y-115205878D01*
X136668458Y-115255630D01*
X136684168Y-115324867D01*
X136659952Y-115391606D01*
X136603498Y-115434658D01*
X136558414Y-115443000D01*
X125061586Y-115443000D01*
X124993465Y-115422998D01*
X124946972Y-115369342D01*
X124936868Y-115299068D01*
X124966362Y-115234488D01*
X125002190Y-115205878D01*
X125048683Y-115181027D01*
X125048684Y-115181025D01*
X125048686Y-115181025D01*
X125048686Y-115181024D01*
X125209252Y-115049252D01*
X125341027Y-114888683D01*
X125438945Y-114705492D01*
X125499242Y-114506718D01*
X125499956Y-114499476D01*
X125519602Y-114300003D01*
X125519602Y-114299996D01*
X125499243Y-114093288D01*
X125499242Y-114093286D01*
X125499242Y-114093282D01*
X125438945Y-113894508D01*
X125341027Y-113711317D01*
X125341025Y-113711313D01*
X125209252Y-113550747D01*
X125048686Y-113418975D01*
X125048686Y-113418974D01*
X124865492Y-113321055D01*
X124666711Y-113260756D01*
X124460003Y-113240398D01*
X124459997Y-113240398D01*
X124253288Y-113260756D01*
X124054507Y-113321055D01*
X123871313Y-113418974D01*
X123871313Y-113418975D01*
X123710747Y-113550747D01*
X123578975Y-113711313D01*
X123578974Y-113711313D01*
X123502763Y-113853896D01*
X123453011Y-113904544D01*
X123391641Y-113920500D01*
X122988359Y-113920500D01*
X122920238Y-113900498D01*
X122877237Y-113853896D01*
X122801025Y-113711313D01*
X122669252Y-113550747D01*
X122508686Y-113418975D01*
X122508686Y-113418974D01*
X122325492Y-113321055D01*
X122126711Y-113260756D01*
X121920003Y-113240398D01*
X121919997Y-113240398D01*
X121713288Y-113260756D01*
X121514507Y-113321055D01*
X121331313Y-113418974D01*
X121331313Y-113418975D01*
X121170747Y-113550747D01*
X121038975Y-113711313D01*
X121038974Y-113711313D01*
X120941055Y-113894507D01*
X120896575Y-114041141D01*
X120857660Y-114100523D01*
X120792818Y-114129439D01*
X120722637Y-114118708D01*
X120669399Y-114071738D01*
X120650000Y-114004566D01*
X120650000Y-112055433D01*
X120670002Y-111987312D01*
X120723658Y-111940819D01*
X120793932Y-111930715D01*
X120858512Y-111960209D01*
X120896573Y-112018856D01*
X120938011Y-112155456D01*
X120941055Y-112165492D01*
X121038974Y-112348686D01*
X121170747Y-112509252D01*
X121331313Y-112641024D01*
X121331313Y-112641025D01*
X121331317Y-112641027D01*
X121514508Y-112738945D01*
X121713282Y-112799242D01*
X121713286Y-112799242D01*
X121713288Y-112799243D01*
X121919997Y-112819602D01*
X121920000Y-112819602D01*
X121920003Y-112819602D01*
X122126711Y-112799243D01*
X122126712Y-112799242D01*
X122126718Y-112799242D01*
X122325492Y-112738945D01*
X122508683Y-112641027D01*
X122508684Y-112641025D01*
X122508686Y-112641025D01*
X122508686Y-112641024D01*
X122669252Y-112509252D01*
X122801027Y-112348683D01*
X122877237Y-112206103D01*
X122926989Y-112155456D01*
X122988359Y-112139500D01*
X123391641Y-112139500D01*
X123459762Y-112159502D01*
X123502763Y-112206104D01*
X123578974Y-112348686D01*
X123710747Y-112509252D01*
X123871313Y-112641024D01*
X123871313Y-112641025D01*
X123871317Y-112641027D01*
X124054508Y-112738945D01*
X124253282Y-112799242D01*
X124253286Y-112799242D01*
X124253288Y-112799243D01*
X124459997Y-112819602D01*
X124460000Y-112819602D01*
X124460003Y-112819602D01*
X124666711Y-112799243D01*
X124666712Y-112799242D01*
X124666718Y-112799242D01*
X124865492Y-112738945D01*
X125048683Y-112641027D01*
X125048684Y-112641025D01*
X125048686Y-112641025D01*
X125048686Y-112641024D01*
X125209252Y-112509252D01*
X125341027Y-112348683D01*
X125438945Y-112165492D01*
X125499242Y-111966718D01*
X125499956Y-111959476D01*
X125519602Y-111760003D01*
X125519602Y-111759996D01*
X125499243Y-111553288D01*
X125499242Y-111553286D01*
X125499242Y-111553282D01*
X125438945Y-111354508D01*
X125341027Y-111171317D01*
X125341025Y-111171313D01*
X125209252Y-111010747D01*
X125048686Y-110878975D01*
X125048686Y-110878974D01*
X124865492Y-110781055D01*
X124666711Y-110720756D01*
X124460003Y-110700398D01*
X124459997Y-110700398D01*
X124253288Y-110720756D01*
X124054507Y-110781055D01*
X123871313Y-110878974D01*
X123871313Y-110878975D01*
X123710747Y-111010747D01*
X123578975Y-111171313D01*
X123578974Y-111171313D01*
X123502763Y-111313896D01*
X123453011Y-111364544D01*
X123391641Y-111380500D01*
X122988359Y-111380500D01*
X122920238Y-111360498D01*
X122877237Y-111313896D01*
X122801025Y-111171313D01*
X122669252Y-111010747D01*
X122508686Y-110878975D01*
X122508686Y-110878974D01*
X122325492Y-110781055D01*
X122126711Y-110720756D01*
X121920003Y-110700398D01*
X121919997Y-110700398D01*
X121713288Y-110720756D01*
X121514507Y-110781055D01*
X121331313Y-110878974D01*
X121331313Y-110878975D01*
X121170747Y-111010747D01*
X121038975Y-111171313D01*
X121038974Y-111171313D01*
X120941055Y-111354507D01*
X120896575Y-111501141D01*
X120857660Y-111560523D01*
X120792818Y-111589439D01*
X120722637Y-111578708D01*
X120669399Y-111531738D01*
X120650000Y-111464566D01*
X120650000Y-109515433D01*
X120670002Y-109447312D01*
X120723658Y-109400819D01*
X120793932Y-109390715D01*
X120858512Y-109420209D01*
X120896573Y-109478856D01*
X120938011Y-109615456D01*
X120941055Y-109625492D01*
X121038974Y-109808686D01*
X121170747Y-109969252D01*
X121331313Y-110101024D01*
X121331313Y-110101025D01*
X121331317Y-110101027D01*
X121514508Y-110198945D01*
X121713282Y-110259242D01*
X121713286Y-110259242D01*
X121713288Y-110259243D01*
X121919997Y-110279602D01*
X121920000Y-110279602D01*
X121920003Y-110279602D01*
X122126711Y-110259243D01*
X122126712Y-110259242D01*
X122126718Y-110259242D01*
X122325492Y-110198945D01*
X122508683Y-110101027D01*
X122508684Y-110101025D01*
X122508686Y-110101025D01*
X122508686Y-110101024D01*
X122669252Y-109969252D01*
X122801027Y-109808683D01*
X122877237Y-109666103D01*
X122926989Y-109615456D01*
X122988359Y-109599500D01*
X123391641Y-109599500D01*
X123459762Y-109619502D01*
X123502763Y-109666104D01*
X123578974Y-109808686D01*
X123710747Y-109969252D01*
X123871313Y-110101024D01*
X123871313Y-110101025D01*
X123871317Y-110101027D01*
X124054508Y-110198945D01*
X124253282Y-110259242D01*
X124253286Y-110259242D01*
X124253288Y-110259243D01*
X124459997Y-110279602D01*
X124460000Y-110279602D01*
X124460003Y-110279602D01*
X124666711Y-110259243D01*
X124666712Y-110259242D01*
X124666718Y-110259242D01*
X124865492Y-110198945D01*
X125048683Y-110101027D01*
X125048684Y-110101025D01*
X125048686Y-110101025D01*
X125048686Y-110101024D01*
X125209252Y-109969252D01*
X125341027Y-109808683D01*
X125438945Y-109625492D01*
X125499242Y-109426718D01*
X125499956Y-109419476D01*
X125519602Y-109220003D01*
X125519602Y-109219996D01*
X125499243Y-109013288D01*
X125499242Y-109013286D01*
X125499242Y-109013282D01*
X125438945Y-108814508D01*
X125341027Y-108631317D01*
X125341025Y-108631313D01*
X125209252Y-108470747D01*
X125048686Y-108338975D01*
X125048686Y-108338974D01*
X124865492Y-108241055D01*
X124666711Y-108180756D01*
X124460003Y-108160398D01*
X124459997Y-108160398D01*
X124253288Y-108180756D01*
X124054507Y-108241055D01*
X123871313Y-108338974D01*
X123871313Y-108338975D01*
X123710747Y-108470747D01*
X123578975Y-108631313D01*
X123578974Y-108631313D01*
X123502763Y-108773896D01*
X123453011Y-108824544D01*
X123391641Y-108840500D01*
X122988359Y-108840500D01*
X122920238Y-108820498D01*
X122877237Y-108773896D01*
X122801025Y-108631313D01*
X122669252Y-108470747D01*
X122508686Y-108338975D01*
X122508686Y-108338974D01*
X122325492Y-108241055D01*
X122126711Y-108180756D01*
X121920003Y-108160398D01*
X121919997Y-108160398D01*
X121713288Y-108180756D01*
X121514507Y-108241055D01*
X121331313Y-108338974D01*
X121331313Y-108338975D01*
X121170747Y-108470747D01*
X121038975Y-108631313D01*
X121038974Y-108631313D01*
X120941055Y-108814507D01*
X120896575Y-108961141D01*
X120857660Y-109020523D01*
X120792818Y-109049439D01*
X120722637Y-109038708D01*
X120669399Y-108991738D01*
X120650000Y-108924566D01*
X120650000Y-106975433D01*
X120670002Y-106907312D01*
X120723658Y-106860819D01*
X120793932Y-106850715D01*
X120858512Y-106880209D01*
X120896573Y-106938856D01*
X120938011Y-107075456D01*
X120941055Y-107085492D01*
X121038974Y-107268686D01*
X121170747Y-107429252D01*
X121331313Y-107561024D01*
X121331313Y-107561025D01*
X121331317Y-107561027D01*
X121514508Y-107658945D01*
X121713282Y-107719242D01*
X121713286Y-107719242D01*
X121713288Y-107719243D01*
X121919997Y-107739602D01*
X121920000Y-107739602D01*
X121920003Y-107739602D01*
X122126711Y-107719243D01*
X122126712Y-107719242D01*
X122126718Y-107719242D01*
X122325492Y-107658945D01*
X122508683Y-107561027D01*
X122508684Y-107561025D01*
X122508686Y-107561025D01*
X122508686Y-107561024D01*
X122669252Y-107429252D01*
X122801027Y-107268683D01*
X122877237Y-107126103D01*
X122926989Y-107075456D01*
X122988359Y-107059500D01*
X123391641Y-107059500D01*
X123459762Y-107079502D01*
X123502763Y-107126104D01*
X123578974Y-107268686D01*
X123710747Y-107429252D01*
X123871313Y-107561024D01*
X123871313Y-107561025D01*
X123871317Y-107561027D01*
X124054508Y-107658945D01*
X124253282Y-107719242D01*
X124253286Y-107719242D01*
X124253288Y-107719243D01*
X124459997Y-107739602D01*
X124460000Y-107739602D01*
X124460003Y-107739602D01*
X124666711Y-107719243D01*
X124666712Y-107719242D01*
X124666718Y-107719242D01*
X124865492Y-107658945D01*
X125048683Y-107561027D01*
X125048684Y-107561025D01*
X125048686Y-107561025D01*
X125048686Y-107561024D01*
X125209252Y-107429252D01*
X125341027Y-107268683D01*
X125438945Y-107085492D01*
X125499242Y-106886718D01*
X125499956Y-106879476D01*
X125519602Y-106680003D01*
X125519602Y-106679996D01*
X125499243Y-106473288D01*
X125499242Y-106473286D01*
X125499242Y-106473282D01*
X125438945Y-106274508D01*
X125341027Y-106091317D01*
X125341025Y-106091313D01*
X125209252Y-105930747D01*
X125048686Y-105798975D01*
X125048686Y-105798974D01*
X124865492Y-105701055D01*
X124666711Y-105640756D01*
X124460003Y-105620398D01*
X124459997Y-105620398D01*
X124253288Y-105640756D01*
X124054507Y-105701055D01*
X123871313Y-105798974D01*
X123871313Y-105798975D01*
X123710747Y-105930747D01*
X123578975Y-106091313D01*
X123578974Y-106091313D01*
X123502763Y-106233896D01*
X123453011Y-106284544D01*
X123391641Y-106300500D01*
X122988359Y-106300500D01*
X122920238Y-106280498D01*
X122877237Y-106233896D01*
X122801025Y-106091313D01*
X122669252Y-105930747D01*
X122508686Y-105798975D01*
X122508686Y-105798974D01*
X122325492Y-105701055D01*
X122126711Y-105640756D01*
X121920003Y-105620398D01*
X121919997Y-105620398D01*
X121713288Y-105640756D01*
X121514507Y-105701055D01*
X121331313Y-105798974D01*
X121331313Y-105798975D01*
X121170747Y-105930747D01*
X121038975Y-106091313D01*
X121038974Y-106091313D01*
X120941055Y-106274507D01*
X120896575Y-106421141D01*
X120857660Y-106480523D01*
X120792818Y-106509439D01*
X120722637Y-106498708D01*
X120669399Y-106451738D01*
X120650000Y-106384566D01*
X120650000Y-104435433D01*
X120670002Y-104367312D01*
X120723658Y-104320819D01*
X120793932Y-104310715D01*
X120858512Y-104340209D01*
X120896573Y-104398856D01*
X120938011Y-104535456D01*
X120941055Y-104545492D01*
X121038974Y-104728686D01*
X121170747Y-104889252D01*
X121331313Y-105021024D01*
X121331313Y-105021025D01*
X121331317Y-105021027D01*
X121514508Y-105118945D01*
X121713282Y-105179242D01*
X121713286Y-105179242D01*
X121713288Y-105179243D01*
X121919997Y-105199602D01*
X121920000Y-105199602D01*
X121920003Y-105199602D01*
X122126711Y-105179243D01*
X122126712Y-105179242D01*
X122126718Y-105179242D01*
X122325492Y-105118945D01*
X122508683Y-105021027D01*
X122508684Y-105021025D01*
X122508686Y-105021025D01*
X122508686Y-105021024D01*
X122669252Y-104889252D01*
X122801027Y-104728683D01*
X122877237Y-104586103D01*
X122926989Y-104535456D01*
X122988359Y-104519500D01*
X123391641Y-104519500D01*
X123459762Y-104539502D01*
X123502763Y-104586104D01*
X123578974Y-104728686D01*
X123710747Y-104889252D01*
X123871313Y-105021024D01*
X123871313Y-105021025D01*
X123871317Y-105021027D01*
X124054508Y-105118945D01*
X124253282Y-105179242D01*
X124253286Y-105179242D01*
X124253288Y-105179243D01*
X124459997Y-105199602D01*
X124460000Y-105199602D01*
X124460003Y-105199602D01*
X124666711Y-105179243D01*
X124666712Y-105179242D01*
X124666718Y-105179242D01*
X124865492Y-105118945D01*
X125048683Y-105021027D01*
X125048684Y-105021025D01*
X125048686Y-105021025D01*
X125048686Y-105021024D01*
X125209252Y-104889252D01*
X125341027Y-104728683D01*
X125438945Y-104545492D01*
X125499242Y-104346718D01*
X125499956Y-104339476D01*
X125519602Y-104140003D01*
X125519602Y-104139996D01*
X125499243Y-103933288D01*
X125499242Y-103933286D01*
X125499242Y-103933282D01*
X125438945Y-103734508D01*
X125341027Y-103551317D01*
X125341025Y-103551313D01*
X125209252Y-103390747D01*
X125048686Y-103258975D01*
X125048686Y-103258974D01*
X124865492Y-103161055D01*
X124666711Y-103100756D01*
X124460003Y-103080398D01*
X124459997Y-103080398D01*
X124253288Y-103100756D01*
X124054507Y-103161055D01*
X123871313Y-103258974D01*
X123871313Y-103258975D01*
X123710747Y-103390747D01*
X123578975Y-103551313D01*
X123578974Y-103551313D01*
X123502763Y-103693896D01*
X123453011Y-103744544D01*
X123391641Y-103760500D01*
X122988359Y-103760500D01*
X122920238Y-103740498D01*
X122877237Y-103693896D01*
X122801025Y-103551313D01*
X122669252Y-103390747D01*
X122508686Y-103258975D01*
X122508686Y-103258974D01*
X122325492Y-103161055D01*
X122126711Y-103100756D01*
X121920003Y-103080398D01*
X121919997Y-103080398D01*
X121713288Y-103100756D01*
X121514507Y-103161055D01*
X121331313Y-103258974D01*
X121331313Y-103258975D01*
X121170747Y-103390747D01*
X121038975Y-103551313D01*
X121038974Y-103551313D01*
X120941055Y-103734507D01*
X120896575Y-103881141D01*
X120857660Y-103940523D01*
X120792818Y-103969439D01*
X120722637Y-103958708D01*
X120669399Y-103911738D01*
X120650000Y-103844566D01*
X120650000Y-101895433D01*
X120670002Y-101827312D01*
X120723658Y-101780819D01*
X120793932Y-101770715D01*
X120858512Y-101800209D01*
X120896573Y-101858856D01*
X120938011Y-101995456D01*
X120941055Y-102005492D01*
X121038974Y-102188686D01*
X121170747Y-102349252D01*
X121331313Y-102481024D01*
X121331313Y-102481025D01*
X121331317Y-102481027D01*
X121514508Y-102578945D01*
X121713282Y-102639242D01*
X121713286Y-102639242D01*
X121713288Y-102639243D01*
X121919997Y-102659602D01*
X121920000Y-102659602D01*
X121920003Y-102659602D01*
X122126711Y-102639243D01*
X122126712Y-102639242D01*
X122126718Y-102639242D01*
X122325492Y-102578945D01*
X122508683Y-102481027D01*
X122508684Y-102481025D01*
X122508686Y-102481025D01*
X122508686Y-102481024D01*
X122669252Y-102349252D01*
X122801027Y-102188683D01*
X122877237Y-102046103D01*
X122926989Y-101995456D01*
X122988359Y-101979500D01*
X123391641Y-101979500D01*
X123459762Y-101999502D01*
X123502763Y-102046104D01*
X123578974Y-102188686D01*
X123710747Y-102349252D01*
X123871313Y-102481024D01*
X123871313Y-102481025D01*
X123871317Y-102481027D01*
X124054508Y-102578945D01*
X124253282Y-102639242D01*
X124253286Y-102639242D01*
X124253288Y-102639243D01*
X124459997Y-102659602D01*
X124460000Y-102659602D01*
X124460003Y-102659602D01*
X124666711Y-102639243D01*
X124666712Y-102639242D01*
X124666718Y-102639242D01*
X124865492Y-102578945D01*
X125048683Y-102481027D01*
X125048684Y-102481025D01*
X125048686Y-102481025D01*
X125048686Y-102481024D01*
X125209252Y-102349252D01*
X125341027Y-102188683D01*
X125438945Y-102005492D01*
X125499242Y-101806718D01*
X125499956Y-101799476D01*
X125519602Y-101600003D01*
X125519602Y-101599996D01*
X125499243Y-101393288D01*
X125499242Y-101393286D01*
X125499242Y-101393282D01*
X125438945Y-101194508D01*
X125341027Y-101011317D01*
X125341025Y-101011313D01*
X125209252Y-100850747D01*
X125048686Y-100718975D01*
X125048686Y-100718974D01*
X124865492Y-100621055D01*
X124666711Y-100560756D01*
X124460003Y-100540398D01*
X124459997Y-100540398D01*
X124253288Y-100560756D01*
X124054507Y-100621055D01*
X123871313Y-100718974D01*
X123871313Y-100718975D01*
X123710747Y-100850747D01*
X123578975Y-101011313D01*
X123578974Y-101011313D01*
X123502763Y-101153896D01*
X123453011Y-101204544D01*
X123391641Y-101220500D01*
X122988359Y-101220500D01*
X122920238Y-101200498D01*
X122877237Y-101153896D01*
X122801025Y-101011313D01*
X122669252Y-100850747D01*
X122508686Y-100718975D01*
X122508686Y-100718974D01*
X122325492Y-100621055D01*
X122126711Y-100560756D01*
X121920003Y-100540398D01*
X121919997Y-100540398D01*
X121713288Y-100560756D01*
X121514507Y-100621055D01*
X121331313Y-100718974D01*
X121331313Y-100718975D01*
X121170747Y-100850747D01*
X121038975Y-101011313D01*
X121038974Y-101011313D01*
X120941055Y-101194507D01*
X120896575Y-101341141D01*
X120857660Y-101400523D01*
X120792818Y-101429439D01*
X120722637Y-101418708D01*
X120669399Y-101371738D01*
X120650000Y-101304566D01*
X120650000Y-99355433D01*
X120670002Y-99287312D01*
X120723658Y-99240819D01*
X120793932Y-99230715D01*
X120858512Y-99260209D01*
X120896573Y-99318856D01*
X120938011Y-99455456D01*
X120941055Y-99465492D01*
X121038974Y-99648686D01*
X121170747Y-99809252D01*
X121331313Y-99941024D01*
X121331313Y-99941025D01*
X121331317Y-99941027D01*
X121514508Y-100038945D01*
X121713282Y-100099242D01*
X121713286Y-100099242D01*
X121713288Y-100099243D01*
X121919997Y-100119602D01*
X121920000Y-100119602D01*
X121920003Y-100119602D01*
X122126711Y-100099243D01*
X122126712Y-100099242D01*
X122126718Y-100099242D01*
X122325492Y-100038945D01*
X122508683Y-99941027D01*
X122508684Y-99941025D01*
X122508686Y-99941025D01*
X122508686Y-99941024D01*
X122669252Y-99809252D01*
X122801027Y-99648683D01*
X122877237Y-99506103D01*
X122926989Y-99455456D01*
X122988359Y-99439500D01*
X123391641Y-99439500D01*
X123459762Y-99459502D01*
X123502763Y-99506104D01*
X123578974Y-99648686D01*
X123710747Y-99809252D01*
X123871313Y-99941024D01*
X123871313Y-99941025D01*
X123871317Y-99941027D01*
X124054508Y-100038945D01*
X124253282Y-100099242D01*
X124253286Y-100099242D01*
X124253288Y-100099243D01*
X124459997Y-100119602D01*
X124460000Y-100119602D01*
X124460003Y-100119602D01*
X124666711Y-100099243D01*
X124666712Y-100099242D01*
X124666718Y-100099242D01*
X124865492Y-100038945D01*
X125048683Y-99941027D01*
X125048684Y-99941025D01*
X125048686Y-99941025D01*
X125048686Y-99941024D01*
X125209252Y-99809252D01*
X125341027Y-99648683D01*
X125438945Y-99465492D01*
X125499242Y-99266718D01*
X125499956Y-99259476D01*
X125519602Y-99060003D01*
X125519602Y-99059996D01*
X125499243Y-98853288D01*
X125499242Y-98853286D01*
X125499242Y-98853282D01*
X125438945Y-98654508D01*
X125341027Y-98471317D01*
X125341025Y-98471313D01*
X125209252Y-98310747D01*
X125048686Y-98178975D01*
X125048686Y-98178974D01*
X124865492Y-98081055D01*
X124666711Y-98020756D01*
X124460003Y-98000398D01*
X124459997Y-98000398D01*
X124253288Y-98020756D01*
X124054507Y-98081055D01*
X123871313Y-98178974D01*
X123871313Y-98178975D01*
X123710747Y-98310747D01*
X123578975Y-98471313D01*
X123578974Y-98471313D01*
X123502763Y-98613896D01*
X123453011Y-98664544D01*
X123391641Y-98680500D01*
X122988359Y-98680500D01*
X122920238Y-98660498D01*
X122877237Y-98613896D01*
X122801025Y-98471313D01*
X122669252Y-98310747D01*
X122508686Y-98178975D01*
X122508686Y-98178974D01*
X122325492Y-98081055D01*
X122126711Y-98020756D01*
X121920003Y-98000398D01*
X121919997Y-98000398D01*
X121713288Y-98020756D01*
X121514507Y-98081055D01*
X121331313Y-98178974D01*
X121331313Y-98178975D01*
X121170747Y-98310747D01*
X121038975Y-98471313D01*
X121038974Y-98471313D01*
X120941055Y-98654507D01*
X120896575Y-98801141D01*
X120857660Y-98860523D01*
X120792818Y-98889439D01*
X120722637Y-98878708D01*
X120669399Y-98831738D01*
X120650000Y-98764566D01*
X120650000Y-96815433D01*
X120670002Y-96747312D01*
X120723658Y-96700819D01*
X120793932Y-96690715D01*
X120858512Y-96720209D01*
X120896573Y-96778856D01*
X120938011Y-96915456D01*
X120941055Y-96925492D01*
X121038974Y-97108686D01*
X121170747Y-97269252D01*
X121331313Y-97401024D01*
X121331313Y-97401025D01*
X121331317Y-97401027D01*
X121514508Y-97498945D01*
X121713282Y-97559242D01*
X121713286Y-97559242D01*
X121713288Y-97559243D01*
X121919997Y-97579602D01*
X121920000Y-97579602D01*
X121920003Y-97579602D01*
X122126711Y-97559243D01*
X122126712Y-97559242D01*
X122126718Y-97559242D01*
X122325492Y-97498945D01*
X122508683Y-97401027D01*
X122508684Y-97401025D01*
X122508686Y-97401025D01*
X122508686Y-97401024D01*
X122669252Y-97269252D01*
X122801027Y-97108683D01*
X122877237Y-96966103D01*
X122926989Y-96915456D01*
X122988359Y-96899500D01*
X123391641Y-96899500D01*
X123459762Y-96919502D01*
X123502763Y-96966104D01*
X123578974Y-97108686D01*
X123710747Y-97269252D01*
X123871313Y-97401024D01*
X123871313Y-97401025D01*
X123871317Y-97401027D01*
X124054508Y-97498945D01*
X124253282Y-97559242D01*
X124253286Y-97559242D01*
X124253288Y-97559243D01*
X124459997Y-97579602D01*
X124460000Y-97579602D01*
X124460003Y-97579602D01*
X124666711Y-97559243D01*
X124666712Y-97559242D01*
X124666718Y-97559242D01*
X124865492Y-97498945D01*
X125048683Y-97401027D01*
X125048684Y-97401025D01*
X125048686Y-97401025D01*
X125048686Y-97401024D01*
X125209252Y-97269252D01*
X125341027Y-97108683D01*
X125438945Y-96925492D01*
X125499242Y-96726718D01*
X125499956Y-96719476D01*
X125519602Y-96520003D01*
X125519602Y-96519996D01*
X125499243Y-96313288D01*
X125499242Y-96313286D01*
X125499242Y-96313282D01*
X125438945Y-96114508D01*
X125341027Y-95931317D01*
X125341025Y-95931313D01*
X125209252Y-95770747D01*
X125048686Y-95638975D01*
X125048686Y-95638974D01*
X124865492Y-95541055D01*
X124666711Y-95480756D01*
X124460003Y-95460398D01*
X124459997Y-95460398D01*
X124253288Y-95480756D01*
X124054507Y-95541055D01*
X123871313Y-95638974D01*
X123871313Y-95638975D01*
X123710747Y-95770747D01*
X123578975Y-95931313D01*
X123578974Y-95931313D01*
X123502763Y-96073896D01*
X123453011Y-96124544D01*
X123391641Y-96140500D01*
X122988359Y-96140500D01*
X122920238Y-96120498D01*
X122877237Y-96073896D01*
X122801025Y-95931313D01*
X122669252Y-95770747D01*
X122508686Y-95638975D01*
X122508686Y-95638974D01*
X122325492Y-95541055D01*
X122126711Y-95480756D01*
X121920003Y-95460398D01*
X121919997Y-95460398D01*
X121713288Y-95480756D01*
X121514507Y-95541055D01*
X121331313Y-95638974D01*
X121331313Y-95638975D01*
X121170747Y-95770747D01*
X121038975Y-95931313D01*
X121038974Y-95931313D01*
X120941055Y-96114507D01*
X120896575Y-96261141D01*
X120857660Y-96320523D01*
X120792818Y-96349439D01*
X120722637Y-96338708D01*
X120669399Y-96291738D01*
X120650000Y-96224566D01*
X120650000Y-94657379D01*
X120670002Y-94589258D01*
X120723658Y-94542765D01*
X120793932Y-94532661D01*
X120858512Y-94562155D01*
X120888791Y-94601216D01*
X120895369Y-94614426D01*
X121029388Y-94791897D01*
X121193738Y-94941722D01*
X121382815Y-95058794D01*
X121382826Y-95058799D01*
X121586999Y-95137897D01*
X121587000Y-95137897D01*
X121587000Y-94203227D01*
X121599920Y-94225606D01*
X121674394Y-94300080D01*
X121765606Y-94352741D01*
X121867339Y-94380000D01*
X121972661Y-94380000D01*
X122074394Y-94352741D01*
X122165606Y-94300080D01*
X122240080Y-94225606D01*
X122253000Y-94203227D01*
X122253000Y-95137897D01*
X122457173Y-95058799D01*
X122457184Y-95058794D01*
X122646261Y-94941722D01*
X122810611Y-94791897D01*
X122944630Y-94614426D01*
X123043760Y-94415346D01*
X123043763Y-94415338D01*
X123068810Y-94327308D01*
X123106690Y-94267261D01*
X123171021Y-94237227D01*
X123241377Y-94246740D01*
X123295422Y-94292780D01*
X123311190Y-94327308D01*
X123336236Y-94415338D01*
X123336239Y-94415346D01*
X123435369Y-94614426D01*
X123569388Y-94791897D01*
X123733738Y-94941722D01*
X123922815Y-95058794D01*
X123922826Y-95058799D01*
X124126999Y-95137897D01*
X124127000Y-95137897D01*
X124793000Y-95137897D01*
X124997173Y-95058799D01*
X124997184Y-95058794D01*
X125186261Y-94941722D01*
X125350611Y-94791897D01*
X125484630Y-94614426D01*
X125583760Y-94415346D01*
X125583763Y-94415338D01*
X125612881Y-94313000D01*
X124793000Y-94313000D01*
X124793000Y-95137897D01*
X124127000Y-95137897D01*
X124127000Y-94203227D01*
X124139920Y-94225606D01*
X124214394Y-94300080D01*
X124305606Y-94352741D01*
X124407339Y-94380000D01*
X124512661Y-94380000D01*
X124614394Y-94352741D01*
X124705606Y-94300080D01*
X124780080Y-94225606D01*
X124832741Y-94134394D01*
X124860000Y-94032661D01*
X124860000Y-93927339D01*
X124832741Y-93825606D01*
X124780080Y-93734394D01*
X124705606Y-93659920D01*
X124683228Y-93647000D01*
X124793000Y-93647000D01*
X125612881Y-93647000D01*
X125612881Y-93646999D01*
X125583763Y-93544661D01*
X125583760Y-93544653D01*
X125484630Y-93345573D01*
X125350611Y-93168102D01*
X125186261Y-93018277D01*
X124997181Y-92901204D01*
X124997172Y-92901199D01*
X124793000Y-92822101D01*
X124793000Y-93647000D01*
X124683228Y-93647000D01*
X124614394Y-93607259D01*
X124512661Y-93580000D01*
X124407339Y-93580000D01*
X124305606Y-93607259D01*
X124214394Y-93659920D01*
X124139920Y-93734394D01*
X124127000Y-93756772D01*
X124127000Y-92822102D01*
X124126999Y-92822101D01*
X123922827Y-92901199D01*
X123922818Y-92901204D01*
X123733738Y-93018277D01*
X123569388Y-93168102D01*
X123435369Y-93345573D01*
X123336239Y-93544653D01*
X123336236Y-93544661D01*
X123311190Y-93632691D01*
X123273310Y-93692738D01*
X123208979Y-93722772D01*
X123138622Y-93713259D01*
X123084578Y-93667219D01*
X123068810Y-93632691D01*
X123043763Y-93544661D01*
X123043760Y-93544653D01*
X122944630Y-93345573D01*
X122810611Y-93168102D01*
X122646261Y-93018277D01*
X122457181Y-92901204D01*
X122457172Y-92901199D01*
X122253000Y-92822101D01*
X122253000Y-93756772D01*
X122240080Y-93734394D01*
X122165606Y-93659920D01*
X122074394Y-93607259D01*
X121972661Y-93580000D01*
X121867339Y-93580000D01*
X121765606Y-93607259D01*
X121674394Y-93659920D01*
X121599920Y-93734394D01*
X121587000Y-93756772D01*
X121587000Y-92822102D01*
X121586999Y-92822101D01*
X121382827Y-92901199D01*
X121382818Y-92901204D01*
X121193738Y-93018277D01*
X121029388Y-93168102D01*
X120895368Y-93345573D01*
X120888790Y-93358785D01*
X120840519Y-93410848D01*
X120771765Y-93428549D01*
X120704355Y-93406268D01*
X120659692Y-93351080D01*
X120650000Y-93302620D01*
X120650000Y-91735433D01*
X120670002Y-91667312D01*
X120723658Y-91620819D01*
X120793932Y-91610715D01*
X120858512Y-91640209D01*
X120896573Y-91698856D01*
X120938011Y-91835456D01*
X120941055Y-91845492D01*
X121038974Y-92028686D01*
X121170747Y-92189252D01*
X121331313Y-92321024D01*
X121331313Y-92321025D01*
X121331317Y-92321027D01*
X121514508Y-92418945D01*
X121713282Y-92479242D01*
X121713286Y-92479242D01*
X121713288Y-92479243D01*
X121919997Y-92499602D01*
X121920000Y-92499602D01*
X121920003Y-92499602D01*
X122126711Y-92479243D01*
X122126712Y-92479242D01*
X122126718Y-92479242D01*
X122325492Y-92418945D01*
X122508683Y-92321027D01*
X122508684Y-92321025D01*
X122508686Y-92321025D01*
X122508686Y-92321024D01*
X122669252Y-92189252D01*
X122801027Y-92028683D01*
X122877237Y-91886103D01*
X122926989Y-91835456D01*
X122988359Y-91819500D01*
X123391641Y-91819500D01*
X123459762Y-91839502D01*
X123502763Y-91886104D01*
X123578974Y-92028686D01*
X123710747Y-92189252D01*
X123871313Y-92321024D01*
X123871313Y-92321025D01*
X123871317Y-92321027D01*
X124054508Y-92418945D01*
X124253282Y-92479242D01*
X124253286Y-92479242D01*
X124253288Y-92479243D01*
X124459997Y-92499602D01*
X124460000Y-92499602D01*
X124460003Y-92499602D01*
X124666711Y-92479243D01*
X124666712Y-92479242D01*
X124666718Y-92479242D01*
X124865492Y-92418945D01*
X125048683Y-92321027D01*
X125048684Y-92321025D01*
X125048686Y-92321025D01*
X125048686Y-92321024D01*
X125209252Y-92189252D01*
X125341027Y-92028683D01*
X125438945Y-91845492D01*
X125499242Y-91646718D01*
X125499956Y-91639476D01*
X125519602Y-91440003D01*
X125519602Y-91439996D01*
X125499243Y-91233288D01*
X125499242Y-91233286D01*
X125499242Y-91233282D01*
X125438945Y-91034508D01*
X125341027Y-90851317D01*
X125341025Y-90851313D01*
X125209252Y-90690747D01*
X125048686Y-90558975D01*
X125048686Y-90558974D01*
X124865492Y-90461055D01*
X124666711Y-90400756D01*
X124460003Y-90380398D01*
X124459997Y-90380398D01*
X124253288Y-90400756D01*
X124054507Y-90461055D01*
X123871313Y-90558974D01*
X123871313Y-90558975D01*
X123710747Y-90690747D01*
X123578975Y-90851313D01*
X123578974Y-90851313D01*
X123502763Y-90993896D01*
X123453011Y-91044544D01*
X123391641Y-91060500D01*
X122988359Y-91060500D01*
X122920238Y-91040498D01*
X122877237Y-90993896D01*
X122801025Y-90851313D01*
X122669252Y-90690747D01*
X122508686Y-90558975D01*
X122508686Y-90558974D01*
X122325492Y-90461055D01*
X122126711Y-90400756D01*
X121920003Y-90380398D01*
X121919997Y-90380398D01*
X121713288Y-90400756D01*
X121514507Y-90461055D01*
X121331313Y-90558974D01*
X121331313Y-90558975D01*
X121170747Y-90690747D01*
X121038975Y-90851313D01*
X121038974Y-90851313D01*
X120941055Y-91034507D01*
X120896575Y-91181141D01*
X120857660Y-91240523D01*
X120792818Y-91269439D01*
X120722637Y-91258708D01*
X120669399Y-91211738D01*
X120650000Y-91144566D01*
X120650000Y-89195433D01*
X120670002Y-89127312D01*
X120723658Y-89080819D01*
X120793932Y-89070715D01*
X120858512Y-89100209D01*
X120896573Y-89158856D01*
X120938011Y-89295456D01*
X120941055Y-89305492D01*
X121038974Y-89488686D01*
X121170747Y-89649252D01*
X121331313Y-89781024D01*
X121331313Y-89781025D01*
X121331317Y-89781027D01*
X121514508Y-89878945D01*
X121713282Y-89939242D01*
X121713286Y-89939242D01*
X121713288Y-89939243D01*
X121919997Y-89959602D01*
X121920000Y-89959602D01*
X121920003Y-89959602D01*
X122126711Y-89939243D01*
X122126712Y-89939242D01*
X122126718Y-89939242D01*
X122325492Y-89878945D01*
X122508683Y-89781027D01*
X122508684Y-89781025D01*
X122508686Y-89781025D01*
X122508686Y-89781024D01*
X122669252Y-89649252D01*
X122801027Y-89488683D01*
X122877237Y-89346103D01*
X122926989Y-89295456D01*
X122988359Y-89279500D01*
X123391641Y-89279500D01*
X123459762Y-89299502D01*
X123502763Y-89346104D01*
X123578974Y-89488686D01*
X123710747Y-89649252D01*
X123871313Y-89781024D01*
X123871313Y-89781025D01*
X123871317Y-89781027D01*
X124054508Y-89878945D01*
X124253282Y-89939242D01*
X124253286Y-89939242D01*
X124253288Y-89939243D01*
X124459997Y-89959602D01*
X124460000Y-89959602D01*
X124460003Y-89959602D01*
X124666711Y-89939243D01*
X124666712Y-89939242D01*
X124666718Y-89939242D01*
X124865492Y-89878945D01*
X125048683Y-89781027D01*
X125048684Y-89781025D01*
X125048686Y-89781025D01*
X125048686Y-89781024D01*
X125209252Y-89649252D01*
X125341027Y-89488683D01*
X125438945Y-89305492D01*
X125499242Y-89106718D01*
X125499956Y-89099476D01*
X125519602Y-88900003D01*
X125519602Y-88899996D01*
X125499243Y-88693288D01*
X125499242Y-88693286D01*
X125499242Y-88693282D01*
X125438945Y-88494508D01*
X125341027Y-88311317D01*
X125341025Y-88311313D01*
X125209252Y-88150747D01*
X125048686Y-88018975D01*
X125048686Y-88018974D01*
X124865492Y-87921055D01*
X124666711Y-87860756D01*
X124460003Y-87840398D01*
X124459997Y-87840398D01*
X124253288Y-87860756D01*
X124054507Y-87921055D01*
X123871313Y-88018974D01*
X123871313Y-88018975D01*
X123710747Y-88150747D01*
X123578975Y-88311313D01*
X123578974Y-88311313D01*
X123502763Y-88453896D01*
X123453011Y-88504544D01*
X123391641Y-88520500D01*
X122988359Y-88520500D01*
X122920238Y-88500498D01*
X122877237Y-88453896D01*
X122801025Y-88311313D01*
X122669252Y-88150747D01*
X122508686Y-88018975D01*
X122508686Y-88018974D01*
X122325492Y-87921055D01*
X122126711Y-87860756D01*
X121920003Y-87840398D01*
X121919997Y-87840398D01*
X121713288Y-87860756D01*
X121514507Y-87921055D01*
X121331313Y-88018974D01*
X121331313Y-88018975D01*
X121170747Y-88150747D01*
X121038975Y-88311313D01*
X121038974Y-88311313D01*
X120941055Y-88494507D01*
X120896575Y-88641141D01*
X120857660Y-88700523D01*
X120792818Y-88729439D01*
X120722637Y-88718708D01*
X120669399Y-88671738D01*
X120650000Y-88604566D01*
X120650000Y-86655433D01*
X120670002Y-86587312D01*
X120723658Y-86540819D01*
X120793932Y-86530715D01*
X120858512Y-86560209D01*
X120896573Y-86618856D01*
X120938011Y-86755456D01*
X120941055Y-86765492D01*
X121038974Y-86948686D01*
X121170747Y-87109252D01*
X121331313Y-87241024D01*
X121331313Y-87241025D01*
X121331317Y-87241027D01*
X121514508Y-87338945D01*
X121713282Y-87399242D01*
X121713286Y-87399242D01*
X121713288Y-87399243D01*
X121919997Y-87419602D01*
X121920000Y-87419602D01*
X121920003Y-87419602D01*
X122126711Y-87399243D01*
X122126712Y-87399242D01*
X122126718Y-87399242D01*
X122325492Y-87338945D01*
X122508683Y-87241027D01*
X122508684Y-87241025D01*
X122508686Y-87241025D01*
X122508686Y-87241024D01*
X122669252Y-87109252D01*
X122801027Y-86948683D01*
X122877237Y-86806103D01*
X122926989Y-86755456D01*
X122988359Y-86739500D01*
X123391641Y-86739500D01*
X123459762Y-86759502D01*
X123502763Y-86806104D01*
X123578974Y-86948686D01*
X123710747Y-87109252D01*
X123871313Y-87241024D01*
X123871313Y-87241025D01*
X123871317Y-87241027D01*
X124054508Y-87338945D01*
X124253282Y-87399242D01*
X124253286Y-87399242D01*
X124253288Y-87399243D01*
X124459997Y-87419602D01*
X124460000Y-87419602D01*
X124460003Y-87419602D01*
X124666711Y-87399243D01*
X124666712Y-87399242D01*
X124666718Y-87399242D01*
X124865492Y-87338945D01*
X125048683Y-87241027D01*
X125048684Y-87241025D01*
X125048686Y-87241025D01*
X125048686Y-87241024D01*
X125209252Y-87109252D01*
X125341027Y-86948683D01*
X125438945Y-86765492D01*
X125499242Y-86566718D01*
X125499956Y-86559476D01*
X125519602Y-86360003D01*
X125519602Y-86359996D01*
X125499243Y-86153288D01*
X125499242Y-86153286D01*
X125499242Y-86153282D01*
X125438945Y-85954508D01*
X125341027Y-85771317D01*
X125341025Y-85771313D01*
X125209252Y-85610747D01*
X125048686Y-85478975D01*
X125048686Y-85478974D01*
X124865492Y-85381055D01*
X124666711Y-85320756D01*
X124460003Y-85300398D01*
X124459997Y-85300398D01*
X124253288Y-85320756D01*
X124054507Y-85381055D01*
X123871313Y-85478974D01*
X123871313Y-85478975D01*
X123710747Y-85610747D01*
X123578975Y-85771313D01*
X123578974Y-85771313D01*
X123502763Y-85913896D01*
X123453011Y-85964544D01*
X123391641Y-85980500D01*
X122988359Y-85980500D01*
X122920238Y-85960498D01*
X122877237Y-85913896D01*
X122801025Y-85771313D01*
X122669252Y-85610747D01*
X122508686Y-85478975D01*
X122508686Y-85478974D01*
X122325492Y-85381055D01*
X122126711Y-85320756D01*
X121920003Y-85300398D01*
X121919997Y-85300398D01*
X121713288Y-85320756D01*
X121514507Y-85381055D01*
X121331313Y-85478974D01*
X121331313Y-85478975D01*
X121170747Y-85610747D01*
X121038975Y-85771313D01*
X121038974Y-85771313D01*
X120941055Y-85954507D01*
X120896575Y-86101141D01*
X120857660Y-86160523D01*
X120792818Y-86189439D01*
X120722637Y-86178708D01*
X120669399Y-86131738D01*
X120650000Y-86064566D01*
X120650000Y-84115433D01*
X120670002Y-84047312D01*
X120723658Y-84000819D01*
X120793932Y-83990715D01*
X120858512Y-84020209D01*
X120896573Y-84078856D01*
X120938011Y-84215456D01*
X120941055Y-84225492D01*
X121038974Y-84408686D01*
X121170747Y-84569252D01*
X121331313Y-84701024D01*
X121331313Y-84701025D01*
X121331317Y-84701027D01*
X121514508Y-84798945D01*
X121713282Y-84859242D01*
X121713286Y-84859242D01*
X121713288Y-84859243D01*
X121919997Y-84879602D01*
X121920000Y-84879602D01*
X121920003Y-84879602D01*
X122126711Y-84859243D01*
X122126712Y-84859242D01*
X122126718Y-84859242D01*
X122325492Y-84798945D01*
X122508683Y-84701027D01*
X122508684Y-84701025D01*
X122508686Y-84701025D01*
X122508686Y-84701024D01*
X122669252Y-84569252D01*
X122801027Y-84408683D01*
X122877237Y-84266103D01*
X122926989Y-84215456D01*
X122988359Y-84199500D01*
X123391641Y-84199500D01*
X123459762Y-84219502D01*
X123502763Y-84266104D01*
X123578974Y-84408686D01*
X123710747Y-84569252D01*
X123871313Y-84701024D01*
X123871313Y-84701025D01*
X123871317Y-84701027D01*
X124054508Y-84798945D01*
X124253282Y-84859242D01*
X124253286Y-84859242D01*
X124253288Y-84859243D01*
X124459997Y-84879602D01*
X124460000Y-84879602D01*
X124460003Y-84879602D01*
X124666711Y-84859243D01*
X124666712Y-84859242D01*
X124666718Y-84859242D01*
X124865492Y-84798945D01*
X125048683Y-84701027D01*
X125048684Y-84701025D01*
X125048686Y-84701025D01*
X125048686Y-84701024D01*
X125209252Y-84569252D01*
X125341027Y-84408683D01*
X125438945Y-84225492D01*
X125499242Y-84026718D01*
X125499956Y-84019476D01*
X125519602Y-83820003D01*
X125519602Y-83819996D01*
X125499243Y-83613288D01*
X125499242Y-83613286D01*
X125499242Y-83613282D01*
X125438945Y-83414508D01*
X125341027Y-83231317D01*
X125341025Y-83231313D01*
X125209252Y-83070747D01*
X125048686Y-82938975D01*
X125048686Y-82938974D01*
X124865492Y-82841055D01*
X124666718Y-82780758D01*
X124666717Y-82780757D01*
X124666711Y-82780756D01*
X124460003Y-82760398D01*
X124459997Y-82760398D01*
X124253288Y-82780756D01*
X124054507Y-82841055D01*
X123871313Y-82938974D01*
X123871313Y-82938975D01*
X123710747Y-83070747D01*
X123578975Y-83231313D01*
X123578974Y-83231313D01*
X123502763Y-83373896D01*
X123453011Y-83424544D01*
X123391641Y-83440500D01*
X122988359Y-83440500D01*
X122920238Y-83420498D01*
X122877237Y-83373896D01*
X122801025Y-83231313D01*
X122669252Y-83070747D01*
X122508686Y-82938975D01*
X122508686Y-82938974D01*
X122325492Y-82841055D01*
X122126718Y-82780758D01*
X122126717Y-82780757D01*
X122126711Y-82780756D01*
X121920003Y-82760398D01*
X121919997Y-82760398D01*
X121713288Y-82780756D01*
X121514507Y-82841055D01*
X121331313Y-82938974D01*
X121331313Y-82938975D01*
X121170747Y-83070747D01*
X121038975Y-83231313D01*
X121038974Y-83231313D01*
X120941055Y-83414507D01*
X120896575Y-83561141D01*
X120857660Y-83620523D01*
X120792818Y-83649439D01*
X120722637Y-83638708D01*
X120669399Y-83591738D01*
X120650000Y-83524566D01*
X120650000Y-81575433D01*
X120670002Y-81507312D01*
X120723658Y-81460819D01*
X120793932Y-81450715D01*
X120858512Y-81480209D01*
X120896573Y-81538856D01*
X120938011Y-81675456D01*
X120941055Y-81685492D01*
X121038974Y-81868686D01*
X121170747Y-82029252D01*
X121331313Y-82161024D01*
X121331313Y-82161025D01*
X121331317Y-82161027D01*
X121514508Y-82258945D01*
X121713282Y-82319242D01*
X121713286Y-82319242D01*
X121713288Y-82319243D01*
X121919997Y-82339602D01*
X121920000Y-82339602D01*
X121920003Y-82339602D01*
X122126711Y-82319243D01*
X122126712Y-82319242D01*
X122126718Y-82319242D01*
X122325492Y-82258945D01*
X122508683Y-82161027D01*
X122508684Y-82161025D01*
X122508686Y-82161025D01*
X122508686Y-82161024D01*
X122669252Y-82029252D01*
X122801027Y-81868683D01*
X122877237Y-81726103D01*
X122926989Y-81675456D01*
X122988359Y-81659500D01*
X123391641Y-81659500D01*
X123459762Y-81679502D01*
X123502763Y-81726104D01*
X123578974Y-81868686D01*
X123710747Y-82029252D01*
X123871313Y-82161024D01*
X123871313Y-82161025D01*
X123871317Y-82161027D01*
X124054508Y-82258945D01*
X124253282Y-82319242D01*
X124253286Y-82319242D01*
X124253288Y-82319243D01*
X124459997Y-82339602D01*
X124460000Y-82339602D01*
X124460003Y-82339602D01*
X124666711Y-82319243D01*
X124666712Y-82319242D01*
X124666718Y-82319242D01*
X124865492Y-82258945D01*
X125048683Y-82161027D01*
X125048684Y-82161025D01*
X125048686Y-82161025D01*
X125048686Y-82161024D01*
X125209252Y-82029252D01*
X125341027Y-81868683D01*
X125438945Y-81685492D01*
X125499242Y-81486718D01*
X125499956Y-81479476D01*
X125519602Y-81280003D01*
X125519602Y-81279996D01*
X125499243Y-81073288D01*
X125499242Y-81073286D01*
X125499242Y-81073282D01*
X125438945Y-80874508D01*
X125341027Y-80691317D01*
X125341025Y-80691313D01*
X125209252Y-80530747D01*
X125048686Y-80398975D01*
X125048686Y-80398974D01*
X124865492Y-80301055D01*
X124666711Y-80240756D01*
X124460003Y-80220398D01*
X124459997Y-80220398D01*
X124253288Y-80240756D01*
X124054507Y-80301055D01*
X123871313Y-80398974D01*
X123871313Y-80398975D01*
X123710747Y-80530747D01*
X123578975Y-80691313D01*
X123578974Y-80691313D01*
X123502763Y-80833896D01*
X123453011Y-80884544D01*
X123391641Y-80900500D01*
X122988359Y-80900500D01*
X122920238Y-80880498D01*
X122877237Y-80833896D01*
X122867570Y-80815811D01*
X122801027Y-80691317D01*
X122801025Y-80691313D01*
X122669252Y-80530747D01*
X122508686Y-80398975D01*
X122508686Y-80398974D01*
X122325492Y-80301055D01*
X122126711Y-80240756D01*
X121920003Y-80220398D01*
X121919997Y-80220398D01*
X121713288Y-80240756D01*
X121514507Y-80301055D01*
X121331313Y-80398974D01*
X121331313Y-80398975D01*
X121170747Y-80530747D01*
X121038975Y-80691313D01*
X121038974Y-80691313D01*
X120941055Y-80874507D01*
X120935159Y-80893944D01*
X120910995Y-80973605D01*
X120896575Y-81021141D01*
X120857660Y-81080523D01*
X120792818Y-81109439D01*
X120722637Y-81098708D01*
X120669399Y-81051738D01*
X120650000Y-80984566D01*
X120650000Y-79035433D01*
X120670002Y-78967312D01*
X120723658Y-78920819D01*
X120793932Y-78910715D01*
X120858512Y-78940209D01*
X120896573Y-78998856D01*
X120938011Y-79135456D01*
X120941055Y-79145492D01*
X121038974Y-79328686D01*
X121170747Y-79489252D01*
X121331313Y-79621024D01*
X121331313Y-79621025D01*
X121331317Y-79621027D01*
X121514508Y-79718945D01*
X121713282Y-79779242D01*
X121713286Y-79779242D01*
X121713288Y-79779243D01*
X121919997Y-79799602D01*
X121920000Y-79799602D01*
X121920003Y-79799602D01*
X122126711Y-79779243D01*
X122126712Y-79779242D01*
X122126718Y-79779242D01*
X122325492Y-79718945D01*
X122508683Y-79621027D01*
X122508684Y-79621025D01*
X122508686Y-79621025D01*
X122508686Y-79621024D01*
X122669252Y-79489252D01*
X122801027Y-79328683D01*
X122877237Y-79186103D01*
X122926989Y-79135456D01*
X122988359Y-79119500D01*
X123391641Y-79119500D01*
X123459762Y-79139502D01*
X123502762Y-79186103D01*
X123519395Y-79217220D01*
X123578974Y-79328686D01*
X123710747Y-79489252D01*
X123871313Y-79621024D01*
X123871313Y-79621025D01*
X123871317Y-79621027D01*
X124054508Y-79718945D01*
X124253282Y-79779242D01*
X124253286Y-79779242D01*
X124253288Y-79779243D01*
X124459997Y-79799602D01*
X124460000Y-79799602D01*
X124460003Y-79799602D01*
X124666711Y-79779243D01*
X124666712Y-79779242D01*
X124666718Y-79779242D01*
X124865492Y-79718945D01*
X125048683Y-79621027D01*
X125048684Y-79621025D01*
X125048686Y-79621025D01*
X125048686Y-79621024D01*
X125209252Y-79489252D01*
X125341027Y-79328683D01*
X125438945Y-79145492D01*
X125499242Y-78946718D01*
X125499417Y-78944947D01*
X125519602Y-78740003D01*
X125519602Y-78739996D01*
X125499243Y-78533288D01*
X125499242Y-78533286D01*
X125499242Y-78533282D01*
X125438945Y-78334508D01*
X125341027Y-78151317D01*
X125341025Y-78151313D01*
X125209252Y-77990747D01*
X125048686Y-77858975D01*
X125048686Y-77858974D01*
X124865492Y-77761055D01*
X124666718Y-77700758D01*
X124666717Y-77700757D01*
X124666711Y-77700756D01*
X124460003Y-77680398D01*
X124459997Y-77680398D01*
X124253288Y-77700756D01*
X124054507Y-77761055D01*
X123871313Y-77858974D01*
X123871313Y-77858975D01*
X123710747Y-77990747D01*
X123578975Y-78151313D01*
X123578974Y-78151313D01*
X123502763Y-78293896D01*
X123453011Y-78344544D01*
X123391641Y-78360500D01*
X122988359Y-78360500D01*
X122920238Y-78340498D01*
X122877237Y-78293896D01*
X122801025Y-78151313D01*
X122669252Y-77990747D01*
X122508686Y-77858975D01*
X122508686Y-77858974D01*
X122325492Y-77761055D01*
X122126718Y-77700758D01*
X122126717Y-77700757D01*
X122126711Y-77700756D01*
X121920003Y-77680398D01*
X121919997Y-77680398D01*
X121713288Y-77700756D01*
X121514507Y-77761055D01*
X121331313Y-77858974D01*
X121331313Y-77858975D01*
X121170747Y-77990747D01*
X121038975Y-78151313D01*
X121038974Y-78151313D01*
X120941055Y-78334507D01*
X120896575Y-78481141D01*
X120857660Y-78540523D01*
X120792818Y-78569439D01*
X120722637Y-78558708D01*
X120669399Y-78511738D01*
X120650000Y-78444566D01*
X120650000Y-76495433D01*
X120670002Y-76427312D01*
X120723658Y-76380819D01*
X120793932Y-76370715D01*
X120858512Y-76400209D01*
X120896573Y-76458856D01*
X120938011Y-76595456D01*
X120941055Y-76605492D01*
X121038974Y-76788686D01*
X121170747Y-76949252D01*
X121331313Y-77081024D01*
X121331313Y-77081025D01*
X121331317Y-77081027D01*
X121514508Y-77178945D01*
X121713282Y-77239242D01*
X121713286Y-77239242D01*
X121713288Y-77239243D01*
X121919997Y-77259602D01*
X121920000Y-77259602D01*
X121920003Y-77259602D01*
X122126711Y-77239243D01*
X122126712Y-77239242D01*
X122126718Y-77239242D01*
X122325492Y-77178945D01*
X122508683Y-77081027D01*
X122508684Y-77081025D01*
X122508686Y-77081025D01*
X122508686Y-77081024D01*
X122669252Y-76949252D01*
X122801027Y-76788683D01*
X122877237Y-76646103D01*
X122926989Y-76595456D01*
X122988359Y-76579500D01*
X123391641Y-76579500D01*
X123459762Y-76599502D01*
X123502763Y-76646104D01*
X123578974Y-76788686D01*
X123710747Y-76949252D01*
X123871313Y-77081024D01*
X123871313Y-77081025D01*
X123871317Y-77081027D01*
X124054508Y-77178945D01*
X124253282Y-77239242D01*
X124253286Y-77239242D01*
X124253288Y-77239243D01*
X124459997Y-77259602D01*
X124460000Y-77259602D01*
X124460003Y-77259602D01*
X124666711Y-77239243D01*
X124666712Y-77239242D01*
X124666718Y-77239242D01*
X124865492Y-77178945D01*
X125048683Y-77081027D01*
X125048684Y-77081025D01*
X125048686Y-77081025D01*
X125048686Y-77081024D01*
X125209252Y-76949252D01*
X125341027Y-76788683D01*
X125438945Y-76605492D01*
X125499242Y-76406718D01*
X125499956Y-76399476D01*
X125519602Y-76200003D01*
X125519602Y-76199996D01*
X125499243Y-75993288D01*
X125499242Y-75993286D01*
X125499242Y-75993282D01*
X125438945Y-75794508D01*
X125341027Y-75611317D01*
X125341025Y-75611313D01*
X125209252Y-75450747D01*
X125048686Y-75318975D01*
X125048686Y-75318974D01*
X124865492Y-75221055D01*
X124666711Y-75160756D01*
X124460003Y-75140398D01*
X124459997Y-75140398D01*
X124253288Y-75160756D01*
X124054507Y-75221055D01*
X123871313Y-75318974D01*
X123871313Y-75318975D01*
X123710747Y-75450747D01*
X123578975Y-75611313D01*
X123578974Y-75611313D01*
X123520751Y-75720241D01*
X123519394Y-75722782D01*
X123502763Y-75753896D01*
X123453011Y-75804544D01*
X123391641Y-75820500D01*
X122988359Y-75820500D01*
X122920238Y-75800498D01*
X122877237Y-75753896D01*
X122863257Y-75727742D01*
X122801027Y-75611317D01*
X122801025Y-75611313D01*
X122669252Y-75450747D01*
X122508686Y-75318975D01*
X122508686Y-75318974D01*
X122325492Y-75221055D01*
X122126711Y-75160756D01*
X121920003Y-75140398D01*
X121919997Y-75140398D01*
X121713288Y-75160756D01*
X121514507Y-75221055D01*
X121331313Y-75318974D01*
X121331313Y-75318975D01*
X121170747Y-75450747D01*
X121038975Y-75611313D01*
X121038974Y-75611313D01*
X120941055Y-75794507D01*
X120933170Y-75820500D01*
X120897274Y-75938838D01*
X120896575Y-75941141D01*
X120857660Y-76000523D01*
X120792818Y-76029439D01*
X120722637Y-76018708D01*
X120669399Y-75971738D01*
X120650000Y-75904566D01*
X120650000Y-73955433D01*
X120670002Y-73887312D01*
X120723658Y-73840819D01*
X120793932Y-73830715D01*
X120858512Y-73860209D01*
X120896573Y-73918856D01*
X120938011Y-74055456D01*
X120941055Y-74065492D01*
X121038974Y-74248686D01*
X121170747Y-74409252D01*
X121331313Y-74541024D01*
X121331313Y-74541025D01*
X121331317Y-74541027D01*
X121514508Y-74638945D01*
X121713282Y-74699242D01*
X121713286Y-74699242D01*
X121713288Y-74699243D01*
X121919997Y-74719602D01*
X121920000Y-74719602D01*
X121920003Y-74719602D01*
X122126711Y-74699243D01*
X122126712Y-74699242D01*
X122126718Y-74699242D01*
X122325492Y-74638945D01*
X122508683Y-74541027D01*
X122508684Y-74541025D01*
X122508686Y-74541025D01*
X122508686Y-74541024D01*
X122669252Y-74409252D01*
X122801027Y-74248683D01*
X122877237Y-74106103D01*
X122926989Y-74055456D01*
X122988359Y-74039500D01*
X123391641Y-74039500D01*
X123459762Y-74059502D01*
X123502763Y-74106104D01*
X123578974Y-74248686D01*
X123710747Y-74409252D01*
X123871313Y-74541024D01*
X123871313Y-74541025D01*
X123871317Y-74541027D01*
X124054508Y-74638945D01*
X124253282Y-74699242D01*
X124253286Y-74699242D01*
X124253288Y-74699243D01*
X124459997Y-74719602D01*
X124460000Y-74719602D01*
X124460003Y-74719602D01*
X124666711Y-74699243D01*
X124666712Y-74699242D01*
X124666718Y-74699242D01*
X124865492Y-74638945D01*
X125048683Y-74541027D01*
X125048684Y-74541025D01*
X125048686Y-74541025D01*
X125048686Y-74541024D01*
X125209252Y-74409252D01*
X125341027Y-74248683D01*
X125438945Y-74065492D01*
X125499242Y-73866718D01*
X125499956Y-73859476D01*
X125519602Y-73660003D01*
X125519602Y-73659996D01*
X125499243Y-73453288D01*
X125499242Y-73453286D01*
X125499242Y-73453282D01*
X125438945Y-73254508D01*
X125341027Y-73071317D01*
X125341025Y-73071313D01*
X125209252Y-72910747D01*
X125048686Y-72778975D01*
X125048686Y-72778974D01*
X124865492Y-72681055D01*
X124804446Y-72662537D01*
X124666718Y-72620758D01*
X124666717Y-72620757D01*
X124666711Y-72620756D01*
X124460003Y-72600398D01*
X124459997Y-72600398D01*
X124253288Y-72620756D01*
X124054507Y-72681055D01*
X123871313Y-72778974D01*
X123871313Y-72778975D01*
X123710747Y-72910747D01*
X123578975Y-73071313D01*
X123578974Y-73071313D01*
X123502763Y-73213896D01*
X123453011Y-73264544D01*
X123391641Y-73280500D01*
X122988359Y-73280500D01*
X122920238Y-73260498D01*
X122877237Y-73213896D01*
X122801025Y-73071313D01*
X122669252Y-72910747D01*
X122508686Y-72778975D01*
X122508686Y-72778974D01*
X122325492Y-72681055D01*
X122264446Y-72662537D01*
X122126718Y-72620758D01*
X122126717Y-72620757D01*
X122126711Y-72620756D01*
X121920003Y-72600398D01*
X121919997Y-72600398D01*
X121713288Y-72620756D01*
X121514507Y-72681055D01*
X121331313Y-72778974D01*
X121331313Y-72778975D01*
X121170747Y-72910747D01*
X121038975Y-73071313D01*
X121038974Y-73071313D01*
X120941055Y-73254507D01*
X120933626Y-73278998D01*
X120897137Y-73399289D01*
X120896575Y-73401141D01*
X120857660Y-73460523D01*
X120792818Y-73489439D01*
X120722637Y-73478708D01*
X120669399Y-73431738D01*
X120650000Y-73364566D01*
X120650000Y-71415433D01*
X120670002Y-71347312D01*
X120723658Y-71300819D01*
X120793932Y-71290715D01*
X120858512Y-71320209D01*
X120896573Y-71378856D01*
X120938011Y-71515456D01*
X120941055Y-71525492D01*
X121038974Y-71708686D01*
X121170745Y-71869250D01*
X121170747Y-71869252D01*
X121331313Y-72001024D01*
X121331313Y-72001025D01*
X121331317Y-72001027D01*
X121514508Y-72098945D01*
X121713282Y-72159242D01*
X121713286Y-72159242D01*
X121713288Y-72159243D01*
X121919997Y-72179602D01*
X121920000Y-72179602D01*
X121920003Y-72179602D01*
X122126711Y-72159243D01*
X122126712Y-72159242D01*
X122126718Y-72159242D01*
X122325492Y-72098945D01*
X122508683Y-72001027D01*
X122508684Y-72001025D01*
X122508686Y-72001025D01*
X122508686Y-72001024D01*
X122669252Y-71869252D01*
X122669255Y-71869250D01*
X122763647Y-71754229D01*
X122801027Y-71708683D01*
X122877237Y-71566103D01*
X122926989Y-71515456D01*
X122988359Y-71499500D01*
X123391641Y-71499500D01*
X123459762Y-71519502D01*
X123502763Y-71566104D01*
X123578974Y-71708686D01*
X123710745Y-71869250D01*
X123710747Y-71869252D01*
X123871313Y-72001024D01*
X123871313Y-72001025D01*
X123871317Y-72001027D01*
X124054508Y-72098945D01*
X124253282Y-72159242D01*
X124253286Y-72159242D01*
X124253288Y-72159243D01*
X124459997Y-72179602D01*
X124460000Y-72179602D01*
X124460003Y-72179602D01*
X124666711Y-72159243D01*
X124666712Y-72159242D01*
X124666718Y-72159242D01*
X124865492Y-72098945D01*
X125048683Y-72001027D01*
X125048684Y-72001025D01*
X125048686Y-72001025D01*
X125048686Y-72001024D01*
X125209252Y-71869252D01*
X125209255Y-71869250D01*
X125303647Y-71754229D01*
X125341027Y-71708683D01*
X125438945Y-71525492D01*
X125499242Y-71326718D01*
X125499956Y-71319476D01*
X125519602Y-71120003D01*
X125519602Y-71119996D01*
X125499243Y-70913288D01*
X125499242Y-70913286D01*
X125499242Y-70913282D01*
X125438945Y-70714508D01*
X125341027Y-70531317D01*
X125341025Y-70531313D01*
X125209252Y-70370747D01*
X125048686Y-70238975D01*
X125048686Y-70238974D01*
X124865492Y-70141055D01*
X124666711Y-70080756D01*
X124460003Y-70060398D01*
X124459997Y-70060398D01*
X124253288Y-70080756D01*
X124054507Y-70141055D01*
X123871313Y-70238974D01*
X123871313Y-70238975D01*
X123710747Y-70370747D01*
X123578975Y-70531313D01*
X123578974Y-70531313D01*
X123520751Y-70640241D01*
X123512857Y-70655012D01*
X123502763Y-70673896D01*
X123453011Y-70724544D01*
X123391641Y-70740500D01*
X122988359Y-70740500D01*
X122920238Y-70720498D01*
X122877237Y-70673896D01*
X122867143Y-70655012D01*
X122801027Y-70531317D01*
X122801025Y-70531313D01*
X122669252Y-70370747D01*
X122508686Y-70238975D01*
X122508686Y-70238974D01*
X122325492Y-70141055D01*
X122126711Y-70080756D01*
X121920003Y-70060398D01*
X121919997Y-70060398D01*
X121713288Y-70080756D01*
X121514507Y-70141055D01*
X121331313Y-70238974D01*
X121331313Y-70238975D01*
X121170747Y-70370747D01*
X121038975Y-70531313D01*
X121038974Y-70531313D01*
X120941055Y-70714507D01*
X120937669Y-70725669D01*
X120910995Y-70813605D01*
X120896575Y-70861141D01*
X120857660Y-70920523D01*
X120792818Y-70949439D01*
X120722637Y-70938708D01*
X120669399Y-70891738D01*
X120650000Y-70824566D01*
X120650000Y-68875433D01*
X120670002Y-68807312D01*
X120723658Y-68760819D01*
X120793932Y-68750715D01*
X120858512Y-68780209D01*
X120896573Y-68838856D01*
X120938011Y-68975456D01*
X120941055Y-68985492D01*
X121038974Y-69168686D01*
X121170747Y-69329252D01*
X121331313Y-69461024D01*
X121331313Y-69461025D01*
X121331317Y-69461027D01*
X121514508Y-69558945D01*
X121713282Y-69619242D01*
X121713286Y-69619242D01*
X121713288Y-69619243D01*
X121919997Y-69639602D01*
X121920000Y-69639602D01*
X121920003Y-69639602D01*
X122126711Y-69619243D01*
X122126712Y-69619242D01*
X122126718Y-69619242D01*
X122325492Y-69558945D01*
X122508683Y-69461027D01*
X122508684Y-69461025D01*
X122508686Y-69461025D01*
X122508686Y-69461024D01*
X122669252Y-69329252D01*
X122801027Y-69168683D01*
X122877237Y-69026103D01*
X122926989Y-68975456D01*
X122988359Y-68959500D01*
X123391641Y-68959500D01*
X123459762Y-68979502D01*
X123502763Y-69026104D01*
X123578974Y-69168686D01*
X123710747Y-69329252D01*
X123871313Y-69461024D01*
X123871313Y-69461025D01*
X123871317Y-69461027D01*
X124054508Y-69558945D01*
X124253282Y-69619242D01*
X124253286Y-69619242D01*
X124253288Y-69619243D01*
X124459997Y-69639602D01*
X124460000Y-69639602D01*
X124460003Y-69639602D01*
X124666711Y-69619243D01*
X124666712Y-69619242D01*
X124666718Y-69619242D01*
X124865492Y-69558945D01*
X125048683Y-69461027D01*
X125048684Y-69461025D01*
X125048686Y-69461025D01*
X125048686Y-69461024D01*
X125209252Y-69329252D01*
X125341027Y-69168683D01*
X125438945Y-68985492D01*
X125499242Y-68786718D01*
X125499746Y-68781607D01*
X125519602Y-68580003D01*
X125519602Y-68579996D01*
X125499243Y-68373288D01*
X125499242Y-68373286D01*
X125499242Y-68373282D01*
X125438945Y-68174508D01*
X125341027Y-67991317D01*
X125341025Y-67991313D01*
X125209252Y-67830747D01*
X125048686Y-67698975D01*
X125048686Y-67698974D01*
X124865492Y-67601055D01*
X124666711Y-67540756D01*
X124460003Y-67520398D01*
X124459997Y-67520398D01*
X124253288Y-67540756D01*
X124054507Y-67601055D01*
X123871313Y-67698974D01*
X123871313Y-67698975D01*
X123710747Y-67830747D01*
X123578975Y-67991313D01*
X123578974Y-67991313D01*
X123502763Y-68133896D01*
X123453011Y-68184544D01*
X123391641Y-68200500D01*
X122988359Y-68200500D01*
X122920238Y-68180498D01*
X122877237Y-68133896D01*
X122801025Y-67991313D01*
X122669252Y-67830747D01*
X122508686Y-67698975D01*
X122508686Y-67698974D01*
X122325492Y-67601055D01*
X122126711Y-67540756D01*
X121920003Y-67520398D01*
X121919997Y-67520398D01*
X121713288Y-67540756D01*
X121514507Y-67601055D01*
X121331313Y-67698974D01*
X121331313Y-67698975D01*
X121170747Y-67830747D01*
X121038975Y-67991313D01*
X121038974Y-67991313D01*
X120941055Y-68174507D01*
X120896575Y-68321141D01*
X120857660Y-68380523D01*
X120792818Y-68409439D01*
X120722637Y-68398708D01*
X120669399Y-68351738D01*
X120650000Y-68284566D01*
X120650000Y-67010049D01*
X120670002Y-66941928D01*
X120723658Y-66895435D01*
X120793932Y-66885331D01*
X120858512Y-66914825D01*
X120880762Y-66940044D01*
X120927539Y-67010049D01*
X120936516Y-67023484D01*
X121020697Y-67079733D01*
X121020699Y-67079734D01*
X121094933Y-67094500D01*
X122745066Y-67094499D01*
X122745069Y-67094498D01*
X122745073Y-67094498D01*
X122794326Y-67084701D01*
X122819301Y-67079734D01*
X122903484Y-67023484D01*
X122959734Y-66939301D01*
X122974500Y-66865067D01*
X122974500Y-66545500D01*
X122994502Y-66477379D01*
X123048158Y-66430886D01*
X123100500Y-66419500D01*
X123279501Y-66419500D01*
X123347622Y-66439502D01*
X123394115Y-66493158D01*
X123405501Y-66545500D01*
X123405501Y-66865072D01*
X123420265Y-66939300D01*
X123476516Y-67023484D01*
X123560697Y-67079733D01*
X123560699Y-67079734D01*
X123634933Y-67094500D01*
X125285066Y-67094499D01*
X125285069Y-67094498D01*
X125285073Y-67094498D01*
X125334326Y-67084701D01*
X125359301Y-67079734D01*
X125443484Y-67023484D01*
X125499734Y-66939301D01*
X125514500Y-66865067D01*
X125514499Y-66039996D01*
X136100398Y-66039996D01*
X136100398Y-66040003D01*
X136120756Y-66246711D01*
X136181055Y-66445492D01*
X136278974Y-66628686D01*
X136410747Y-66789252D01*
X136571313Y-66921024D01*
X136571313Y-66921025D01*
X136571317Y-66921027D01*
X136754508Y-67018945D01*
X136953282Y-67079242D01*
X136953286Y-67079242D01*
X136953288Y-67079243D01*
X137159997Y-67099602D01*
X137160000Y-67099602D01*
X137160003Y-67099602D01*
X137366711Y-67079243D01*
X137366712Y-67079242D01*
X137366718Y-67079242D01*
X137565492Y-67018945D01*
X137748683Y-66921027D01*
X137748684Y-66921025D01*
X137748686Y-66921025D01*
X137748686Y-66921024D01*
X137909252Y-66789252D01*
X138041027Y-66628683D01*
X138138945Y-66445492D01*
X138199242Y-66246718D01*
X138199956Y-66239476D01*
X138219602Y-66040003D01*
X138219602Y-66039996D01*
X138199243Y-65833288D01*
X138199242Y-65833286D01*
X138199242Y-65833282D01*
X138138945Y-65634508D01*
X138041027Y-65451317D01*
X138041025Y-65451313D01*
X137909252Y-65290747D01*
X137748686Y-65158975D01*
X137748686Y-65158974D01*
X137565492Y-65061055D01*
X137550529Y-65056516D01*
X137366718Y-65000758D01*
X137366717Y-65000757D01*
X137366711Y-65000756D01*
X137160003Y-64980398D01*
X137159997Y-64980398D01*
X136953288Y-65000756D01*
X136754507Y-65061055D01*
X136571313Y-65158974D01*
X136571313Y-65158975D01*
X136410747Y-65290747D01*
X136278975Y-65451313D01*
X136278974Y-65451313D01*
X136181055Y-65634507D01*
X136120756Y-65833288D01*
X136100398Y-66039996D01*
X125514499Y-66039996D01*
X125514499Y-65214934D01*
X125514498Y-65214927D01*
X125514498Y-65214926D01*
X125499734Y-65140699D01*
X125474732Y-65103282D01*
X125443484Y-65056516D01*
X125443483Y-65056515D01*
X125359302Y-65000266D01*
X125285067Y-64985500D01*
X123634936Y-64985500D01*
X123634926Y-64985501D01*
X123560699Y-65000265D01*
X123476515Y-65056516D01*
X123420266Y-65140697D01*
X123405500Y-65214930D01*
X123405500Y-65534500D01*
X123385498Y-65602621D01*
X123331842Y-65649114D01*
X123279500Y-65660500D01*
X123100499Y-65660500D01*
X123032378Y-65640498D01*
X122985885Y-65586842D01*
X122974499Y-65534500D01*
X122974499Y-65214936D01*
X122974498Y-65214927D01*
X122959734Y-65140699D01*
X122934732Y-65103282D01*
X122903484Y-65056516D01*
X122903483Y-65056515D01*
X122819302Y-65000266D01*
X122745067Y-64985500D01*
X121094936Y-64985500D01*
X121094926Y-64985501D01*
X121020699Y-65000265D01*
X120936515Y-65056516D01*
X120880764Y-65139952D01*
X120826287Y-65185479D01*
X120755844Y-65194326D01*
X120691800Y-65163685D01*
X120654489Y-65103282D01*
X120650000Y-65069949D01*
X120650000Y-64769000D01*
X120670002Y-64700879D01*
X120723658Y-64654386D01*
X120776000Y-64643000D01*
X140844000Y-64643000D01*
X140912121Y-64663002D01*
G37*
%TD.AperFunction*%
%TD*%
M02*
