%TF.GenerationSoftware,KiCad,Pcbnew,(6.0.1-0)*%
%TF.CreationDate,2022-02-15T12:12:10-07:00*%
%TF.ProjectId,TMS9118-9128,544d5339-3131-4382-9d39-3132382e6b69,rev?*%
%TF.SameCoordinates,Original*%
%TF.FileFunction,Legend,Bot*%
%TF.FilePolarity,Positive*%
%FSLAX46Y46*%
G04 Gerber Fmt 4.6, Leading zero omitted, Abs format (unit mm)*
G04 Created by KiCad (PCBNEW (6.0.1-0)) date 2022-02-15 12:12:10*
%MOMM*%
%LPD*%
G01*
G04 APERTURE LIST*
%ADD10C,0.150000*%
%ADD11C,0.300000*%
%ADD12C,0.120000*%
G04 APERTURE END LIST*
D10*
%TO.C,BOARD SIDE*%
X135281507Y-67746571D02*
X135138650Y-67794190D01*
X135091031Y-67841809D01*
X135043412Y-67937047D01*
X135043412Y-68079904D01*
X135091031Y-68175142D01*
X135138650Y-68222761D01*
X135233888Y-68270380D01*
X135614840Y-68270380D01*
X135614840Y-67270380D01*
X135281507Y-67270380D01*
X135186269Y-67318000D01*
X135138650Y-67365619D01*
X135091031Y-67460857D01*
X135091031Y-67556095D01*
X135138650Y-67651333D01*
X135186269Y-67698952D01*
X135281507Y-67746571D01*
X135614840Y-67746571D01*
X134424364Y-67270380D02*
X134233888Y-67270380D01*
X134138650Y-67318000D01*
X134043412Y-67413238D01*
X133995793Y-67603714D01*
X133995793Y-67937047D01*
X134043412Y-68127523D01*
X134138650Y-68222761D01*
X134233888Y-68270380D01*
X134424364Y-68270380D01*
X134519602Y-68222761D01*
X134614840Y-68127523D01*
X134662459Y-67937047D01*
X134662459Y-67603714D01*
X134614840Y-67413238D01*
X134519602Y-67318000D01*
X134424364Y-67270380D01*
X133614840Y-67984666D02*
X133138650Y-67984666D01*
X133710078Y-68270380D02*
X133376745Y-67270380D01*
X133043412Y-68270380D01*
X132138650Y-68270380D02*
X132471983Y-67794190D01*
X132710078Y-68270380D02*
X132710078Y-67270380D01*
X132329126Y-67270380D01*
X132233888Y-67318000D01*
X132186269Y-67365619D01*
X132138650Y-67460857D01*
X132138650Y-67603714D01*
X132186269Y-67698952D01*
X132233888Y-67746571D01*
X132329126Y-67794190D01*
X132710078Y-67794190D01*
X131710078Y-68270380D02*
X131710078Y-67270380D01*
X131471983Y-67270380D01*
X131329126Y-67318000D01*
X131233888Y-67413238D01*
X131186269Y-67508476D01*
X131138650Y-67698952D01*
X131138650Y-67841809D01*
X131186269Y-68032285D01*
X131233888Y-68127523D01*
X131329126Y-68222761D01*
X131471983Y-68270380D01*
X131710078Y-68270380D01*
X129995793Y-68222761D02*
X129852936Y-68270380D01*
X129614840Y-68270380D01*
X129519602Y-68222761D01*
X129471983Y-68175142D01*
X129424364Y-68079904D01*
X129424364Y-67984666D01*
X129471983Y-67889428D01*
X129519602Y-67841809D01*
X129614840Y-67794190D01*
X129805316Y-67746571D01*
X129900555Y-67698952D01*
X129948174Y-67651333D01*
X129995793Y-67556095D01*
X129995793Y-67460857D01*
X129948174Y-67365619D01*
X129900555Y-67318000D01*
X129805316Y-67270380D01*
X129567221Y-67270380D01*
X129424364Y-67318000D01*
X128995793Y-68270380D02*
X128995793Y-67270380D01*
X128519602Y-68270380D02*
X128519602Y-67270380D01*
X128281507Y-67270380D01*
X128138650Y-67318000D01*
X128043412Y-67413238D01*
X127995793Y-67508476D01*
X127948174Y-67698952D01*
X127948174Y-67841809D01*
X127995793Y-68032285D01*
X128043412Y-68127523D01*
X128138650Y-68222761D01*
X128281507Y-68270380D01*
X128519602Y-68270380D01*
X127519602Y-67746571D02*
X127186269Y-67746571D01*
X127043412Y-68270380D02*
X127519602Y-68270380D01*
X127519602Y-67270380D01*
X127043412Y-67270380D01*
%TO.C,R1*%
X128828181Y-74120467D02*
X129161515Y-73644277D01*
X129399610Y-74120467D02*
X129399610Y-73120467D01*
X129018657Y-73120467D01*
X128923419Y-73168087D01*
X128875800Y-73215706D01*
X128828181Y-73310944D01*
X128828181Y-73453801D01*
X128875800Y-73549039D01*
X128923419Y-73596658D01*
X129018657Y-73644277D01*
X129399610Y-73644277D01*
X127875800Y-74120467D02*
X128447229Y-74120467D01*
X128161515Y-74120467D02*
X128161515Y-73120467D01*
X128256753Y-73263325D01*
X128351991Y-73358563D01*
X128447229Y-73406182D01*
D11*
%TO.C, *%
D10*
%TO.C,R2*%
X128883996Y-76687970D02*
X129217330Y-76211780D01*
X129455425Y-76687970D02*
X129455425Y-75687970D01*
X129074472Y-75687970D01*
X128979234Y-75735590D01*
X128931615Y-75783209D01*
X128883996Y-75878447D01*
X128883996Y-76021304D01*
X128931615Y-76116542D01*
X128979234Y-76164161D01*
X129074472Y-76211780D01*
X129455425Y-76211780D01*
X128503044Y-75783209D02*
X128455425Y-75735590D01*
X128360187Y-75687970D01*
X128122091Y-75687970D01*
X128026853Y-75735590D01*
X127979234Y-75783209D01*
X127931615Y-75878447D01*
X127931615Y-75973685D01*
X127979234Y-76116542D01*
X128550663Y-76687970D01*
X127931615Y-76687970D01*
%TO.C,R3*%
X128939811Y-79255474D02*
X129273145Y-78779284D01*
X129511240Y-79255474D02*
X129511240Y-78255474D01*
X129130287Y-78255474D01*
X129035049Y-78303094D01*
X128987430Y-78350713D01*
X128939811Y-78445951D01*
X128939811Y-78588808D01*
X128987430Y-78684046D01*
X129035049Y-78731665D01*
X129130287Y-78779284D01*
X129511240Y-78779284D01*
X128606478Y-78255474D02*
X127987430Y-78255474D01*
X128320764Y-78636427D01*
X128177906Y-78636427D01*
X128082668Y-78684046D01*
X128035049Y-78731665D01*
X127987430Y-78826903D01*
X127987430Y-79064998D01*
X128035049Y-79160236D01*
X128082668Y-79207855D01*
X128177906Y-79255474D01*
X128463621Y-79255474D01*
X128558859Y-79207855D01*
X128606478Y-79160236D01*
D12*
%TO.C,BOARD SIDE*%
X138497613Y-64674741D02*
X138497613Y-115594741D01*
X125577613Y-64674741D02*
X131037613Y-64674741D01*
X138497613Y-115594741D02*
X125577613Y-115594741D01*
X125577613Y-115594741D02*
X125577613Y-64674741D01*
X133037613Y-64674741D02*
X138497613Y-64674741D01*
X131037613Y-64674741D02*
G75*
G03*
X133037613Y-64674741I1000000J0D01*
G01*
%TO.C,R1*%
X132807064Y-72750000D02*
X131352936Y-72750000D01*
X132807064Y-74570000D02*
X131352936Y-74570000D01*
%TO.C, *%
G36*
X133377113Y-97223218D02*
G01*
X133537949Y-97225854D01*
X133639433Y-97233100D01*
X133695129Y-97247204D01*
X133718599Y-97270414D01*
X133723409Y-97304979D01*
X133722343Y-97325043D01*
X133708997Y-97353803D01*
X133669126Y-97371969D01*
X133588845Y-97381955D01*
X133454271Y-97386176D01*
X133251519Y-97387046D01*
X133061759Y-97389715D01*
X132871073Y-97404403D01*
X132742364Y-97436807D01*
X132664372Y-97492375D01*
X132625836Y-97576556D01*
X132615493Y-97694801D01*
X132621008Y-97786620D01*
X132651363Y-97878888D01*
X132718330Y-97941166D01*
X132833171Y-97978904D01*
X133007147Y-97997551D01*
X133251519Y-98002555D01*
X133366887Y-98002741D01*
X133532260Y-98005062D01*
X133636714Y-98011996D01*
X133694134Y-98025958D01*
X133718404Y-98049362D01*
X133723409Y-98084623D01*
X133716576Y-98121301D01*
X133685489Y-98150832D01*
X133618538Y-98169039D01*
X133504212Y-98177492D01*
X133330998Y-98177761D01*
X133087383Y-98171419D01*
X133023963Y-98169253D01*
X132842217Y-98159576D01*
X132719810Y-98142516D01*
X132638954Y-98112233D01*
X132581863Y-98062886D01*
X132530747Y-97988633D01*
X132478707Y-97867072D01*
X132455977Y-97690134D01*
X132480424Y-97514631D01*
X132547900Y-97364871D01*
X132654254Y-97265161D01*
X132721183Y-97249168D01*
X132852632Y-97235530D01*
X133028122Y-97226303D01*
X133228304Y-97222911D01*
X133377113Y-97223218D01*
G37*
G36*
X133239259Y-99233938D02*
G01*
X133432758Y-99236749D01*
X133564165Y-99243484D01*
X133645968Y-99255489D01*
X133690654Y-99274112D01*
X133710710Y-99300701D01*
X133712077Y-99304356D01*
X133720225Y-99368609D01*
X133687943Y-99427815D01*
X133605706Y-99489192D01*
X133463987Y-99559959D01*
X133253260Y-99647332D01*
X133121330Y-99700451D01*
X132970718Y-99763986D01*
X132861912Y-99813388D01*
X132812316Y-99841015D01*
X132811685Y-99841821D01*
X132838732Y-99869699D01*
X132928365Y-99919218D01*
X133067094Y-99983616D01*
X133241431Y-100056133D01*
X133323300Y-100088731D01*
X133493480Y-100159153D01*
X133603957Y-100211866D01*
X133667302Y-100254643D01*
X133696090Y-100295259D01*
X133702892Y-100341489D01*
X133702892Y-100444074D01*
X133097641Y-100455429D01*
X132999494Y-100457220D01*
X132793307Y-100459950D01*
X132652184Y-100458681D01*
X132563829Y-100451983D01*
X132515943Y-100438426D01*
X132496229Y-100416578D01*
X132492391Y-100385008D01*
X132492653Y-100374476D01*
X132502524Y-100341493D01*
X132537240Y-100319742D01*
X132611107Y-100306194D01*
X132738427Y-100297818D01*
X132933506Y-100291585D01*
X133374620Y-100279938D01*
X132943764Y-100110011D01*
X132909552Y-100096447D01*
X132719392Y-100016835D01*
X132595060Y-99954608D01*
X132525665Y-99903564D01*
X132500314Y-99857502D01*
X132500363Y-99820376D01*
X132539709Y-99768864D01*
X132643932Y-99724586D01*
X132672244Y-99715194D01*
X132777790Y-99675392D01*
X132841179Y-99643994D01*
X132874022Y-99626741D01*
X132970305Y-99587895D01*
X133097641Y-99543459D01*
X133185438Y-99511522D01*
X133277396Y-99467817D01*
X133313070Y-99435445D01*
X133295287Y-99424477D01*
X133211613Y-99410671D01*
X133074972Y-99401215D01*
X132902730Y-99397709D01*
X132880754Y-99397702D01*
X132701332Y-99396288D01*
X132587639Y-99390346D01*
X132524821Y-99376905D01*
X132498023Y-99352993D01*
X132492391Y-99315641D01*
X132492620Y-99305199D01*
X132500309Y-99276212D01*
X132528149Y-99256317D01*
X132588521Y-99243810D01*
X132693811Y-99236987D01*
X132856399Y-99234142D01*
X133088671Y-99233573D01*
X133239259Y-99233938D01*
G37*
G36*
X129314699Y-97675308D02*
G01*
X129573644Y-97677375D01*
X129819525Y-97681209D01*
X130038544Y-97686722D01*
X130216902Y-97693826D01*
X130340800Y-97702434D01*
X130396439Y-97712458D01*
X130410451Y-97725561D01*
X130450847Y-97806464D01*
X130478507Y-97922910D01*
X130487909Y-97975128D01*
X130541634Y-98104725D01*
X130617185Y-98164302D01*
X130698406Y-98153859D01*
X130769138Y-98073395D01*
X130813222Y-97922910D01*
X130820225Y-97882124D01*
X130853655Y-97773708D01*
X130895290Y-97712458D01*
X130905329Y-97707887D01*
X130990122Y-97692849D01*
X131132173Y-97682567D01*
X131311803Y-97676969D01*
X131509328Y-97675985D01*
X131705067Y-97679544D01*
X131879338Y-97687573D01*
X132012460Y-97700003D01*
X132084749Y-97716762D01*
X132115766Y-97739400D01*
X132137617Y-97777615D01*
X132151712Y-97844592D01*
X132159716Y-97953656D01*
X132163297Y-98118132D01*
X132164120Y-98351344D01*
X132164102Y-98405886D01*
X132163061Y-98622770D01*
X132159095Y-98773864D01*
X132150372Y-98872647D01*
X132135060Y-98932594D01*
X132111328Y-98967182D01*
X132077345Y-98989889D01*
X132069726Y-98992996D01*
X131998435Y-99005056D01*
X131862007Y-99015334D01*
X131657624Y-99023905D01*
X131382466Y-99030844D01*
X131033710Y-99036226D01*
X130608539Y-99040128D01*
X130104130Y-99042625D01*
X128217690Y-99048920D01*
X128139209Y-98952048D01*
X128110166Y-98909324D01*
X128084955Y-98842589D01*
X128069904Y-98745153D01*
X128062623Y-98599912D01*
X128060727Y-98389763D01*
X128061715Y-98256214D01*
X128071173Y-98039796D01*
X128093650Y-97887595D01*
X128132796Y-97787882D01*
X128192263Y-97728926D01*
X128275702Y-97698995D01*
X128306964Y-97694536D01*
X128424250Y-97686456D01*
X128597465Y-97680581D01*
X128812811Y-97676823D01*
X129056488Y-97675095D01*
X129314699Y-97675308D01*
G37*
G36*
X132976872Y-111641409D02*
G01*
X133089456Y-111717893D01*
X133174171Y-111863135D01*
X133235349Y-112082650D01*
X133266146Y-112206245D01*
X133329142Y-112337027D01*
X133411066Y-112390051D01*
X133513519Y-112366955D01*
X133585325Y-112292409D01*
X133625240Y-112173014D01*
X133615486Y-112049677D01*
X133608757Y-112034370D01*
X133550072Y-111952929D01*
X133461646Y-111864302D01*
X133419189Y-111825555D01*
X133367380Y-111756239D01*
X133378637Y-111708460D01*
X133439959Y-111686864D01*
X133534338Y-111713111D01*
X133631253Y-111781083D01*
X133705969Y-111877973D01*
X133707233Y-111880435D01*
X133756829Y-112040391D01*
X133758527Y-112209572D01*
X133717929Y-112366170D01*
X133640635Y-112488376D01*
X133532247Y-112554382D01*
X133392859Y-112560786D01*
X133255801Y-112508533D01*
X133162716Y-112404922D01*
X133134206Y-112337904D01*
X133086478Y-112206243D01*
X133038344Y-112056675D01*
X132979611Y-111901993D01*
X132908669Y-111810898D01*
X132823505Y-111793834D01*
X132717780Y-111846649D01*
X132686623Y-111875109D01*
X132647295Y-111959366D01*
X132636010Y-112098027D01*
X132643169Y-112213213D01*
X132676889Y-112304202D01*
X132753078Y-112382920D01*
X132887607Y-112473023D01*
X132889476Y-112474175D01*
X132938359Y-112521401D01*
X132915272Y-112571273D01*
X132896102Y-112588008D01*
X132837050Y-112600751D01*
X132739309Y-112569895D01*
X132641309Y-112513297D01*
X132556105Y-112408791D01*
X132489843Y-112243724D01*
X132474193Y-112143380D01*
X132480206Y-112015641D01*
X132481010Y-112011293D01*
X132530969Y-111824178D01*
X132605198Y-111705769D01*
X132716214Y-111643754D01*
X132876537Y-111625819D01*
X132976872Y-111641409D01*
G37*
G36*
X129457765Y-99361786D02*
G01*
X129712872Y-99451753D01*
X129942204Y-99606727D01*
X130132940Y-99826186D01*
X130184068Y-99899133D01*
X130249899Y-99980356D01*
X130289279Y-100012316D01*
X130319807Y-99999900D01*
X130401060Y-99948949D01*
X130507603Y-99871894D01*
X130680959Y-99763674D01*
X130940338Y-99674980D01*
X131205810Y-99657825D01*
X131464184Y-99709076D01*
X131702269Y-99825596D01*
X131906872Y-100004253D01*
X132064803Y-100241911D01*
X132177356Y-100471960D01*
X132170041Y-101545416D01*
X132168047Y-101799641D01*
X132164732Y-102072615D01*
X132160069Y-102280194D01*
X132153415Y-102431892D01*
X132144127Y-102537224D01*
X132131562Y-102605703D01*
X132115077Y-102646845D01*
X132094029Y-102670164D01*
X132088770Y-102673666D01*
X131996403Y-102699992D01*
X131826294Y-102716035D01*
X131581802Y-102721457D01*
X131517194Y-102721447D01*
X131314505Y-102718200D01*
X131169800Y-102701271D01*
X131073311Y-102659263D01*
X131015268Y-102580778D01*
X130985904Y-102454420D01*
X130975450Y-102268791D01*
X130974136Y-102012493D01*
X130974137Y-102007403D01*
X130977771Y-101747210D01*
X130990886Y-101557442D01*
X131017102Y-101426853D01*
X131060035Y-101344196D01*
X131123305Y-101298225D01*
X131210529Y-101277693D01*
X131265928Y-101266729D01*
X131315924Y-101223527D01*
X131336227Y-101125437D01*
X131331670Y-101017991D01*
X131295193Y-100951671D01*
X131244110Y-100937406D01*
X131126716Y-100925341D01*
X130971205Y-100919053D01*
X130801572Y-100918541D01*
X130641814Y-100923807D01*
X130515928Y-100934851D01*
X130447909Y-100951671D01*
X130413062Y-101011041D01*
X130406875Y-101122732D01*
X130414449Y-101175720D01*
X130452595Y-101251506D01*
X130539782Y-101291083D01*
X130631348Y-101327551D01*
X130693031Y-101375855D01*
X130697297Y-101387265D01*
X130708923Y-101469783D01*
X130718388Y-101612444D01*
X130724808Y-101798868D01*
X130727304Y-102012676D01*
X130727403Y-102122886D01*
X130724230Y-102353671D01*
X130708211Y-102517538D01*
X130669414Y-102625387D01*
X130597908Y-102688123D01*
X130483762Y-102716646D01*
X130317043Y-102721859D01*
X130087822Y-102714665D01*
X129998114Y-102711390D01*
X129823553Y-102701627D01*
X129699842Y-102679795D01*
X129618237Y-102634230D01*
X129569992Y-102553268D01*
X129546359Y-102425245D01*
X129538593Y-102238498D01*
X129537948Y-101981363D01*
X129538044Y-101917702D01*
X129541718Y-101685646D01*
X129553650Y-101520359D01*
X129577825Y-101409440D01*
X129618224Y-101340492D01*
X129678833Y-101301115D01*
X129763635Y-101278911D01*
X129778301Y-101274417D01*
X129833559Y-101215043D01*
X129862449Y-101118220D01*
X129859183Y-101018809D01*
X129817971Y-100951671D01*
X129799516Y-100944750D01*
X129707612Y-100930653D01*
X129565192Y-100920878D01*
X129394330Y-100917221D01*
X129319027Y-100917924D01*
X129157653Y-100924423D01*
X129034183Y-100936270D01*
X128970688Y-100951671D01*
X128935817Y-101011145D01*
X128929654Y-101123073D01*
X128940111Y-101189658D01*
X128981889Y-101256798D01*
X129077938Y-101294757D01*
X129083323Y-101296173D01*
X129163971Y-101329043D01*
X129221678Y-101385397D01*
X129259511Y-101476879D01*
X129280541Y-101615138D01*
X129287835Y-101811818D01*
X129284463Y-102078567D01*
X129283933Y-102099846D01*
X129276636Y-102338521D01*
X129260776Y-102507639D01*
X129224802Y-102618742D01*
X129157165Y-102683375D01*
X129046314Y-102713080D01*
X128880698Y-102719401D01*
X128648769Y-102713880D01*
X128487976Y-102707282D01*
X128325551Y-102695714D01*
X128208978Y-102681666D01*
X128156361Y-102666866D01*
X128144608Y-102617190D01*
X128132324Y-102498831D01*
X128120475Y-102325313D01*
X128109981Y-102110112D01*
X128101761Y-101866705D01*
X128099062Y-101762880D01*
X128090403Y-101336026D01*
X128088523Y-100980426D01*
X128094455Y-100687360D01*
X128109231Y-100448109D01*
X128133883Y-100253953D01*
X128169443Y-100096173D01*
X128216945Y-99966050D01*
X128277419Y-99854865D01*
X128351899Y-99753897D01*
X128435972Y-99662387D01*
X128665985Y-99487126D01*
X128921501Y-99378952D01*
X129189701Y-99337346D01*
X129457765Y-99361786D01*
G37*
G36*
X132985371Y-111571550D02*
G01*
X132778324Y-111507748D01*
X132618406Y-111380147D01*
X132510837Y-111191401D01*
X132469234Y-110985325D01*
X132473972Y-110950701D01*
X132633652Y-110950701D01*
X132656036Y-111108041D01*
X132732305Y-111244911D01*
X132857238Y-111336735D01*
X133017557Y-111373195D01*
X133200575Y-111369355D01*
X133371960Y-111328661D01*
X133499061Y-111255255D01*
X133572161Y-111148648D01*
X133605491Y-110993748D01*
X133582265Y-110835236D01*
X133502307Y-110703410D01*
X133394507Y-110628736D01*
X133222186Y-110578122D01*
X133034970Y-110575929D01*
X132860207Y-110621744D01*
X132725245Y-110715152D01*
X132670370Y-110797468D01*
X132633652Y-110950701D01*
X132473972Y-110950701D01*
X132496006Y-110789662D01*
X132584694Y-110622666D01*
X132725393Y-110493321D01*
X132908194Y-110410608D01*
X133123191Y-110383510D01*
X133360477Y-110421012D01*
X133450945Y-110455284D01*
X133610777Y-110566978D01*
X133714877Y-110715721D01*
X133764671Y-110886880D01*
X133761582Y-111065824D01*
X133707037Y-111237920D01*
X133602459Y-111388537D01*
X133449273Y-111503042D01*
X133248905Y-111566805D01*
X133234326Y-111568897D01*
X133017557Y-111571207D01*
X132985371Y-111571550D01*
G37*
G36*
X133137856Y-95130181D02*
G01*
X133077569Y-95132284D01*
X132875107Y-95138036D01*
X132705979Y-95140865D01*
X132586405Y-95140587D01*
X132532606Y-95137020D01*
X132510962Y-95117536D01*
X132492391Y-95046741D01*
X132494428Y-95024633D01*
X132520946Y-94988944D01*
X132592797Y-94968983D01*
X132728336Y-94957834D01*
X132964281Y-94945528D01*
X132973031Y-94775978D01*
X133148234Y-94775978D01*
X133157783Y-94884874D01*
X133183774Y-94941700D01*
X133185404Y-94942636D01*
X133255346Y-94953694D01*
X133365320Y-94949361D01*
X133477267Y-94933080D01*
X133553128Y-94908292D01*
X133561364Y-94901615D01*
X133592505Y-94826971D01*
X133602934Y-94708045D01*
X133594183Y-94574021D01*
X133567784Y-94454083D01*
X133525267Y-94377413D01*
X133424230Y-94319834D01*
X133308628Y-94323942D01*
X133212812Y-94400700D01*
X133203212Y-94416998D01*
X133172452Y-94514027D01*
X133153625Y-94643025D01*
X133148234Y-94775978D01*
X132973031Y-94775978D01*
X132976766Y-94703602D01*
X132978449Y-94595711D01*
X132969906Y-94482696D01*
X132951598Y-94424024D01*
X132928405Y-94410221D01*
X132837987Y-94381712D01*
X132713426Y-94357828D01*
X132693865Y-94354968D01*
X132578626Y-94330555D01*
X132521031Y-94294510D01*
X132499402Y-94234324D01*
X132495325Y-94192487D01*
X132509827Y-94159187D01*
X132566215Y-94153167D01*
X132684055Y-94167330D01*
X132742241Y-94177316D01*
X132878349Y-94212775D01*
X132975949Y-94254269D01*
X133034254Y-94285152D01*
X133095491Y-94283294D01*
X133176394Y-94229304D01*
X133186352Y-94221695D01*
X133336459Y-94153703D01*
X133488029Y-94162577D01*
X133624233Y-94247630D01*
X133669081Y-94296925D01*
X133699794Y-94352662D01*
X133715115Y-94429960D01*
X133718823Y-94548953D01*
X133714694Y-94729779D01*
X133702892Y-95109664D01*
X133255346Y-95125915D01*
X133137856Y-95130181D01*
G37*
G36*
X131756232Y-94068781D02*
G01*
X131928398Y-94076156D01*
X132057099Y-94087715D01*
X132123086Y-94103456D01*
X132136358Y-94117602D01*
X132150229Y-94154017D01*
X132161235Y-94218379D01*
X132169689Y-94318419D01*
X132175904Y-94461869D01*
X132180194Y-94656458D01*
X132182871Y-94909919D01*
X132184247Y-95229983D01*
X132184637Y-95624381D01*
X132184483Y-95996004D01*
X132183724Y-96313696D01*
X132181935Y-96565316D01*
X132178691Y-96759054D01*
X132173571Y-96903101D01*
X132166150Y-97005648D01*
X132156004Y-97074886D01*
X132142710Y-97119006D01*
X132125845Y-97146200D01*
X132104984Y-97164658D01*
X132069415Y-97180092D01*
X131957706Y-97201285D01*
X131797381Y-97216183D01*
X131607068Y-97224715D01*
X131405396Y-97226809D01*
X131210995Y-97222395D01*
X131042494Y-97211402D01*
X130918520Y-97193760D01*
X130857705Y-97169397D01*
X130846957Y-97146014D01*
X130827180Y-97049421D01*
X130811083Y-96903072D01*
X130801388Y-96728283D01*
X130789483Y-96340681D01*
X129496914Y-96330580D01*
X129320288Y-96329175D01*
X128995564Y-96326210D01*
X128739845Y-96322813D01*
X128544209Y-96318350D01*
X128399734Y-96312187D01*
X128297500Y-96303691D01*
X128228585Y-96292228D01*
X128184067Y-96277166D01*
X128155024Y-96257870D01*
X128132536Y-96233708D01*
X128105488Y-96192044D01*
X128083074Y-96123487D01*
X128069401Y-96019494D01*
X128062581Y-95864542D01*
X128060727Y-95643105D01*
X128060564Y-95590850D01*
X128058948Y-95409994D01*
X128062212Y-95267979D01*
X128078920Y-95160049D01*
X128117639Y-95081445D01*
X128186935Y-95027408D01*
X128295373Y-94993180D01*
X128451520Y-94974003D01*
X128663940Y-94965118D01*
X128941200Y-94961766D01*
X129291865Y-94959190D01*
X129570330Y-94957557D01*
X129838397Y-94958167D01*
X130069802Y-94960956D01*
X130253196Y-94965714D01*
X130377231Y-94972231D01*
X130430557Y-94980296D01*
X130461086Y-95017517D01*
X130481729Y-95104243D01*
X130507962Y-95224672D01*
X130582571Y-95308206D01*
X130689197Y-95328989D01*
X130711382Y-95325516D01*
X130744436Y-95313476D01*
X130767401Y-95283555D01*
X130782860Y-95222923D01*
X130793392Y-95118754D01*
X130801579Y-94958220D01*
X130810000Y-94728493D01*
X130819059Y-94509464D01*
X130830986Y-94328645D01*
X130846127Y-94208325D01*
X130865987Y-94137046D01*
X130892068Y-94103354D01*
X130917099Y-94094721D01*
X131017873Y-94081152D01*
X131171421Y-94071775D01*
X131358496Y-94066589D01*
X131559849Y-94065591D01*
X131756232Y-94068781D01*
G37*
G36*
X133733989Y-108255203D02*
G01*
X133738584Y-108260131D01*
X133752171Y-108310651D01*
X133709605Y-108375100D01*
X133604635Y-108460014D01*
X133431011Y-108571926D01*
X133426422Y-108574717D01*
X133307128Y-108649731D01*
X133222275Y-108707659D01*
X133189968Y-108736167D01*
X133193878Y-108741603D01*
X133245886Y-108782540D01*
X133345726Y-108851832D01*
X133477205Y-108938097D01*
X133613503Y-109031664D01*
X133726691Y-109131893D01*
X133765649Y-109207665D01*
X133732013Y-109261050D01*
X133708851Y-109257604D01*
X133627423Y-109219850D01*
X133504773Y-109150499D01*
X133357088Y-109058302D01*
X133214974Y-108967659D01*
X133090435Y-108896794D01*
X132991571Y-108856948D01*
X132895876Y-108839421D01*
X132780848Y-108835512D01*
X132681159Y-108833020D01*
X132572800Y-108823083D01*
X132519747Y-108808156D01*
X132505788Y-108783594D01*
X132492391Y-108705571D01*
X132499267Y-108670103D01*
X132535243Y-108644785D01*
X132618055Y-108633146D01*
X132765271Y-108630342D01*
X132891361Y-108627920D01*
X132995211Y-108614527D01*
X133091978Y-108581418D01*
X133206690Y-108519849D01*
X133364375Y-108421078D01*
X133433949Y-108377185D01*
X133586716Y-108289363D01*
X133684613Y-108249652D01*
X133733989Y-108255203D01*
G37*
G36*
X131536419Y-103960227D02*
G01*
X131747490Y-103967326D01*
X131945095Y-103981015D01*
X132071139Y-104000577D01*
X132131410Y-104026659D01*
X132143891Y-104050722D01*
X132155743Y-104109666D01*
X132164653Y-104208366D01*
X132170808Y-104353871D01*
X132174395Y-104553231D01*
X132175600Y-104813492D01*
X132174611Y-105141704D01*
X132171613Y-105544914D01*
X132169666Y-105735199D01*
X132164289Y-106100881D01*
X132157342Y-106416518D01*
X132149052Y-106675707D01*
X132139645Y-106872042D01*
X132129348Y-106999120D01*
X132118387Y-107050536D01*
X132112291Y-107054391D01*
X132041065Y-107070370D01*
X131908123Y-107085145D01*
X131729872Y-107097213D01*
X131522716Y-107105072D01*
X131460897Y-107106560D01*
X131220027Y-107109987D01*
X131047391Y-107101902D01*
X130931627Y-107074505D01*
X130861369Y-107019992D01*
X130825255Y-106930562D01*
X130811920Y-106798413D01*
X130810000Y-106615742D01*
X130809363Y-106543674D01*
X130803365Y-106392076D01*
X130792400Y-106282725D01*
X130778136Y-106235525D01*
X130766364Y-106233118D01*
X130685368Y-106226844D01*
X130537099Y-106219610D01*
X130331758Y-106211786D01*
X130079545Y-106203740D01*
X129790661Y-106195840D01*
X129475309Y-106188455D01*
X129121469Y-106179596D01*
X128802801Y-106168963D01*
X128540101Y-106157206D01*
X128339893Y-106144669D01*
X128208702Y-106131697D01*
X128153053Y-106118634D01*
X128150820Y-106116576D01*
X128128440Y-106062304D01*
X128113211Y-105947899D01*
X128104522Y-105766105D01*
X128101761Y-105509670D01*
X128101761Y-105509132D01*
X128103443Y-105272005D01*
X128109380Y-105103633D01*
X128120923Y-104990777D01*
X128139427Y-104920201D01*
X128166243Y-104878669D01*
X128171972Y-104873428D01*
X128206446Y-104854240D01*
X128264590Y-104839591D01*
X128356135Y-104828903D01*
X128490814Y-104821597D01*
X128678359Y-104817095D01*
X128928500Y-104814818D01*
X129250971Y-104814187D01*
X129461840Y-104814997D01*
X129732883Y-104818521D01*
X129971904Y-104824451D01*
X130166393Y-104832359D01*
X130303838Y-104841818D01*
X130371730Y-104852402D01*
X130456138Y-104917398D01*
X130509301Y-105047313D01*
X130540258Y-105147467D01*
X130585721Y-105193741D01*
X130667921Y-105204009D01*
X130789483Y-105204009D01*
X130810000Y-104636406D01*
X130814568Y-104504928D01*
X130825040Y-104288527D01*
X130846714Y-104136642D01*
X130891398Y-104038281D01*
X130970901Y-103982451D01*
X131097033Y-103958160D01*
X131281603Y-103954416D01*
X131536419Y-103960227D01*
G37*
G36*
X131220805Y-109403838D02*
G01*
X131511543Y-109406096D01*
X131739662Y-109410114D01*
X131910594Y-109416003D01*
X132029774Y-109423875D01*
X132102633Y-109433841D01*
X132134606Y-109446011D01*
X132150934Y-109479831D01*
X132172155Y-109600044D01*
X132187801Y-109802095D01*
X132197874Y-110086003D01*
X132201118Y-110236309D01*
X132201902Y-110464141D01*
X132188527Y-110626728D01*
X132152523Y-110735076D01*
X132085422Y-110800189D01*
X131978753Y-110833073D01*
X131824047Y-110844733D01*
X131612833Y-110846174D01*
X131414950Y-110843120D01*
X131210519Y-110828199D01*
X131074051Y-110799164D01*
X130997829Y-110754141D01*
X130974136Y-110691261D01*
X130971731Y-110660485D01*
X130927496Y-110570210D01*
X130847595Y-110524680D01*
X130758419Y-110532176D01*
X130686359Y-110600977D01*
X130663608Y-110676149D01*
X130649753Y-110834516D01*
X130653673Y-111049503D01*
X130675572Y-111307806D01*
X130684154Y-111377104D01*
X130704635Y-111461209D01*
X130742865Y-111495920D01*
X130814113Y-111502717D01*
X130867654Y-111498950D01*
X130928498Y-111463104D01*
X130965255Y-111369357D01*
X130999755Y-111235996D01*
X131550791Y-111224478D01*
X131663935Y-111222329D01*
X131857403Y-111220841D01*
X131989176Y-111224860D01*
X132073171Y-111235752D01*
X132123303Y-111254881D01*
X132153490Y-111283613D01*
X132163116Y-111303127D01*
X132183984Y-111403110D01*
X132198341Y-111557978D01*
X132206235Y-111748211D01*
X132207712Y-111954291D01*
X132202820Y-112156700D01*
X132191608Y-112335919D01*
X132174122Y-112472429D01*
X132150410Y-112546712D01*
X132147240Y-112550846D01*
X132129092Y-112567512D01*
X132099253Y-112581379D01*
X132050686Y-112592729D01*
X131976353Y-112601838D01*
X131869216Y-112608988D01*
X131722237Y-112614457D01*
X131528380Y-112618524D01*
X131280605Y-112621469D01*
X130971876Y-112623571D01*
X130595154Y-112625110D01*
X130143403Y-112626364D01*
X129750985Y-112626631D01*
X129383018Y-112625538D01*
X129048200Y-112623204D01*
X128754686Y-112619749D01*
X128510627Y-112615292D01*
X128324176Y-112609954D01*
X128203485Y-112603855D01*
X128156708Y-112597115D01*
X128153433Y-112592616D01*
X128134213Y-112525384D01*
X128115794Y-112403032D01*
X128101761Y-112248327D01*
X128093738Y-112114857D01*
X128081722Y-111790626D01*
X128085219Y-111542834D01*
X128104176Y-111372874D01*
X128138541Y-111282140D01*
X128142024Y-111278096D01*
X128178791Y-111250303D01*
X128239272Y-111232523D01*
X128338029Y-111223286D01*
X128489626Y-111221121D01*
X128708623Y-111224557D01*
X128747371Y-111225449D01*
X128953590Y-111231989D01*
X129093755Y-111241388D01*
X129181731Y-111255752D01*
X129231383Y-111277190D01*
X129256577Y-111307806D01*
X129276695Y-111348931D01*
X129326711Y-111451425D01*
X129338434Y-111471601D01*
X129415604Y-111528852D01*
X129506495Y-111526913D01*
X129577691Y-111464096D01*
X129584315Y-111447959D01*
X129602627Y-111344795D01*
X129612038Y-111183853D01*
X129611243Y-110983812D01*
X129609654Y-110934099D01*
X129600556Y-110758674D01*
X129585886Y-110645686D01*
X129562609Y-110579125D01*
X129527690Y-110542984D01*
X129526425Y-110542198D01*
X129432357Y-110524709D01*
X129346839Y-110571077D01*
X129298542Y-110665920D01*
X129294442Y-110685640D01*
X129263366Y-110753436D01*
X129200583Y-110799636D01*
X129093569Y-110827991D01*
X128929800Y-110842254D01*
X128696753Y-110846174D01*
X128576683Y-110846313D01*
X128386591Y-110843142D01*
X128252562Y-110825930D01*
X128164822Y-110783346D01*
X128113594Y-110704059D01*
X128089105Y-110576739D01*
X128081580Y-110390053D01*
X128081244Y-110132671D01*
X128081244Y-110129678D01*
X128082961Y-109884390D01*
X128088819Y-109708648D01*
X128099974Y-109590111D01*
X128117581Y-109516442D01*
X128142795Y-109475301D01*
X128164803Y-109461916D01*
X128209329Y-109449646D01*
X128281981Y-109439422D01*
X128389502Y-109431009D01*
X128538634Y-109424170D01*
X128736120Y-109418671D01*
X128988703Y-109414276D01*
X129303126Y-109410749D01*
X129686131Y-109407854D01*
X130144461Y-109405356D01*
X130429738Y-109404161D01*
X130862014Y-109403231D01*
X131220805Y-109403838D01*
G37*
G36*
X133277973Y-109328396D02*
G01*
X133467993Y-109331386D01*
X133596900Y-109338267D01*
X133677050Y-109350349D01*
X133720798Y-109368938D01*
X133740502Y-109395343D01*
X133750968Y-109432782D01*
X133746643Y-109482499D01*
X133724543Y-109487763D01*
X133634500Y-109493647D01*
X133492955Y-109496307D01*
X133318447Y-109495193D01*
X133203082Y-109494766D01*
X133046734Y-109499937D01*
X132934858Y-109511004D01*
X132886220Y-109526605D01*
X132885823Y-109530881D01*
X132922881Y-109574275D01*
X133014940Y-109649735D01*
X133149967Y-109747937D01*
X133315932Y-109859560D01*
X133461904Y-109955334D01*
X133629978Y-110072674D01*
X133729344Y-110159177D01*
X133757774Y-110219825D01*
X133713045Y-110259603D01*
X133592930Y-110283493D01*
X133395204Y-110296479D01*
X133117641Y-110303543D01*
X132981408Y-110305916D01*
X132781526Y-110308209D01*
X132645142Y-110306494D01*
X132560148Y-110299380D01*
X132514431Y-110285476D01*
X132495883Y-110263391D01*
X132492391Y-110231734D01*
X132492639Y-110220283D01*
X132501794Y-110187002D01*
X132534906Y-110165996D01*
X132606501Y-110154461D01*
X132731107Y-110149596D01*
X132923247Y-110148597D01*
X133061146Y-110146971D01*
X133212532Y-110140574D01*
X133315731Y-110130455D01*
X133353807Y-110117822D01*
X133353490Y-110116460D01*
X133315044Y-110080043D01*
X133221683Y-110010113D01*
X133086590Y-109916160D01*
X132922951Y-109807675D01*
X132764917Y-109703313D01*
X132629872Y-109607253D01*
X132546465Y-109535563D01*
X132504152Y-109478947D01*
X132492391Y-109428111D01*
X132492391Y-109327919D01*
X133103510Y-109327919D01*
X133277973Y-109328396D01*
G37*
G36*
X132806422Y-101665109D02*
G01*
X132644558Y-101555702D01*
X132527425Y-101392199D01*
X132514135Y-101361425D01*
X132480383Y-101209706D01*
X132625233Y-101209706D01*
X132689462Y-101360196D01*
X132816508Y-101467774D01*
X132951502Y-101514766D01*
X133133164Y-101528676D01*
X133310950Y-101499251D01*
X133460651Y-101431037D01*
X133558057Y-101328576D01*
X133558219Y-101328273D01*
X133594260Y-101198186D01*
X133594206Y-101043630D01*
X133558057Y-100913691D01*
X133504449Y-100843532D01*
X133375123Y-100761897D01*
X133212417Y-100720286D01*
X133037680Y-100718050D01*
X132872259Y-100754543D01*
X132737504Y-100829114D01*
X132654764Y-100941118D01*
X132628400Y-101031211D01*
X132625233Y-101209706D01*
X132480383Y-101209706D01*
X132469205Y-101159458D01*
X132483863Y-100953010D01*
X132556599Y-100774050D01*
X132640912Y-100687369D01*
X132786330Y-100596943D01*
X132952819Y-100531090D01*
X133107900Y-100505625D01*
X133211497Y-100515622D01*
X133403003Y-100580875D01*
X133569741Y-100693220D01*
X133683747Y-100836586D01*
X133747738Y-101008799D01*
X133752848Y-101207519D01*
X133678507Y-101406480D01*
X133557773Y-101557509D01*
X133388691Y-101666619D01*
X133195659Y-101720780D01*
X133133164Y-101720600D01*
X132995845Y-101720205D01*
X132806422Y-101665109D01*
G37*
G36*
X133003334Y-99151444D02*
G01*
X132796416Y-99150231D01*
X132654457Y-99146204D01*
X132565266Y-99137736D01*
X132516653Y-99123203D01*
X132496425Y-99100979D01*
X132492391Y-99069437D01*
X132496392Y-99034635D01*
X132525146Y-99004092D01*
X132598031Y-98990479D01*
X132733964Y-98987370D01*
X132975537Y-98987370D01*
X133148934Y-98987370D01*
X133351338Y-98987370D01*
X133368699Y-98987316D01*
X133487492Y-98980028D01*
X133550481Y-98954392D01*
X133580922Y-98901734D01*
X133591575Y-98825750D01*
X133582775Y-98691072D01*
X133553226Y-98557038D01*
X133509543Y-98464187D01*
X133471216Y-98434373D01*
X133369697Y-98412703D01*
X133263248Y-98433163D01*
X133191412Y-98492265D01*
X133177957Y-98528154D01*
X133157138Y-98641748D01*
X133148934Y-98779502D01*
X133148934Y-98987370D01*
X132975537Y-98987370D01*
X132992046Y-98695195D01*
X132994084Y-98663529D01*
X133024387Y-98467691D01*
X133086364Y-98339672D01*
X133187375Y-98269890D01*
X133334776Y-98248759D01*
X133485624Y-98265077D01*
X133598843Y-98323166D01*
X133672130Y-98432404D01*
X133711610Y-98602138D01*
X133723409Y-98841713D01*
X133723409Y-99151505D01*
X133107900Y-99151505D01*
X133003334Y-99151444D01*
G37*
G36*
X132987260Y-106695265D02*
G01*
X132858972Y-106668088D01*
X132748350Y-106603426D01*
X132603599Y-106464326D01*
X132508794Y-106302420D01*
X132501722Y-106282190D01*
X132472935Y-106100102D01*
X132634354Y-106100102D01*
X132673711Y-106277919D01*
X132716780Y-106356766D01*
X132804437Y-106440576D01*
X132933402Y-106484112D01*
X133122571Y-106496578D01*
X133302991Y-106477563D01*
X133465314Y-106406954D01*
X133565846Y-106287376D01*
X133600307Y-106122181D01*
X133599882Y-106103014D01*
X133578693Y-105968810D01*
X133535395Y-105861181D01*
X133509132Y-105827601D01*
X133383103Y-105740787D01*
X133217929Y-105694340D01*
X133039336Y-105689831D01*
X132873051Y-105728831D01*
X132744802Y-105812910D01*
X132668889Y-105928186D01*
X132634354Y-106100102D01*
X132472935Y-106100102D01*
X132467629Y-106066539D01*
X132511194Y-105869497D01*
X132628864Y-105699563D01*
X132817087Y-105565232D01*
X132993359Y-105475081D01*
X132753133Y-105462647D01*
X132662903Y-105456851D01*
X132567075Y-105442272D01*
X132523326Y-105415162D01*
X132512908Y-105368145D01*
X132517592Y-105334477D01*
X132543744Y-105307044D01*
X132606572Y-105289065D01*
X132721195Y-105276564D01*
X132902730Y-105265560D01*
X133292553Y-105245043D01*
X133140752Y-105176195D01*
X133055248Y-105139418D01*
X132901055Y-105077504D01*
X132740671Y-105016820D01*
X132623183Y-104969374D01*
X132523809Y-104910267D01*
X132492391Y-104854776D01*
X132493392Y-104839682D01*
X132505846Y-104810205D01*
X132541163Y-104778867D01*
X132610048Y-104740043D01*
X132723210Y-104688111D01*
X132891355Y-104617447D01*
X133125190Y-104522429D01*
X133368166Y-104424365D01*
X132930279Y-104412718D01*
X132884664Y-104411473D01*
X132705227Y-104404967D01*
X132590613Y-104395628D01*
X132526491Y-104380433D01*
X132498527Y-104356362D01*
X132492391Y-104320392D01*
X132492789Y-104307979D01*
X132501779Y-104280469D01*
X132531942Y-104261539D01*
X132595457Y-104249596D01*
X132704503Y-104243040D01*
X132871258Y-104240278D01*
X133107900Y-104239712D01*
X133723409Y-104239712D01*
X133723409Y-104342961D01*
X133723176Y-104357692D01*
X133715499Y-104402640D01*
X133688393Y-104442050D01*
X133630365Y-104482770D01*
X133529927Y-104531652D01*
X133375588Y-104595544D01*
X133155857Y-104681297D01*
X133120321Y-104695274D01*
X132984174Y-104754034D01*
X132887069Y-104804301D01*
X132848103Y-104836449D01*
X132874718Y-104862123D01*
X132963912Y-104911597D01*
X133101354Y-104975891D01*
X133272036Y-105047530D01*
X133361470Y-105083439D01*
X133519360Y-105149541D01*
X133619330Y-105198992D01*
X133674498Y-105240540D01*
X133697980Y-105282935D01*
X133702892Y-105334927D01*
X133699424Y-105392898D01*
X133674757Y-105434193D01*
X133608625Y-105456016D01*
X133480812Y-105470730D01*
X133258731Y-105491247D01*
X133419261Y-105563434D01*
X133437089Y-105571701D01*
X133605040Y-105687465D01*
X133708831Y-105847906D01*
X133755077Y-106062861D01*
X133757326Y-106115802D01*
X133720692Y-106326256D01*
X133611921Y-106500179D01*
X133435353Y-106629874D01*
X133321560Y-106669131D01*
X133154059Y-106694777D01*
X133122571Y-106694869D01*
X132987260Y-106695265D01*
G37*
G36*
X131532159Y-107570651D02*
G01*
X131564964Y-107571522D01*
X131771361Y-107580437D01*
X131943412Y-107593625D01*
X132065211Y-107609572D01*
X132120849Y-107626760D01*
X132123600Y-107630536D01*
X132140463Y-107698193D01*
X132155374Y-107830635D01*
X132167017Y-108012936D01*
X132174075Y-108230167D01*
X132175648Y-108321403D01*
X132177063Y-108526441D01*
X132173038Y-108668725D01*
X132162249Y-108762423D01*
X132143369Y-108821702D01*
X132115074Y-108860732D01*
X132099523Y-108873404D01*
X132068908Y-108887653D01*
X132020260Y-108899321D01*
X131946463Y-108908655D01*
X131840404Y-108915899D01*
X131694967Y-108921298D01*
X131503037Y-108925098D01*
X131257499Y-108927543D01*
X130951240Y-108928879D01*
X130577142Y-108929352D01*
X130128093Y-108929206D01*
X130076694Y-108929165D01*
X129637595Y-108928639D01*
X129272705Y-108927659D01*
X128974923Y-108925951D01*
X128737144Y-108923242D01*
X128552268Y-108919258D01*
X128413192Y-108913725D01*
X128312812Y-108906371D01*
X128244028Y-108896922D01*
X128199735Y-108885103D01*
X128172833Y-108870643D01*
X128156218Y-108853266D01*
X128131062Y-108779090D01*
X128112528Y-108641522D01*
X128101655Y-108462516D01*
X128098378Y-108262578D01*
X128102634Y-108062214D01*
X128114357Y-107881930D01*
X128133483Y-107742233D01*
X128159949Y-107663629D01*
X128164411Y-107657739D01*
X128188247Y-107634655D01*
X128225408Y-107616706D01*
X128285714Y-107603082D01*
X128378985Y-107592975D01*
X128515041Y-107585576D01*
X128703703Y-107580077D01*
X128954790Y-107575668D01*
X129278124Y-107571541D01*
X129441880Y-107569803D01*
X129750643Y-107568044D01*
X129989407Y-107569439D01*
X130166469Y-107574289D01*
X130290125Y-107582895D01*
X130368672Y-107595556D01*
X130410404Y-107612575D01*
X130430204Y-107632750D01*
X130479570Y-107726323D01*
X130513973Y-107850698D01*
X130537817Y-107957426D01*
X130576120Y-108023863D01*
X130638849Y-108048759D01*
X130746179Y-108038078D01*
X130823780Y-107963162D01*
X130851034Y-107828087D01*
X130851688Y-107789955D01*
X130864502Y-107699158D01*
X130902424Y-107635778D01*
X130976802Y-107595527D01*
X131098985Y-107574115D01*
X131280321Y-107567252D01*
X131532159Y-107570651D01*
G37*
G36*
X132574695Y-103224226D02*
G01*
X132606669Y-103249072D01*
X132627187Y-103308856D01*
X132639759Y-103419286D01*
X132647898Y-103596071D01*
X132659786Y-103956838D01*
X132853067Y-103944398D01*
X133046349Y-103931958D01*
X133058382Y-103611278D01*
X133059430Y-103584254D01*
X133068158Y-103432448D01*
X133081851Y-103345314D01*
X133104589Y-103307580D01*
X133140449Y-103303968D01*
X133173012Y-103320255D01*
X133198053Y-103370901D01*
X133213220Y-103471132D01*
X133222510Y-103637180D01*
X133234536Y-103957021D01*
X133407163Y-103944489D01*
X133579790Y-103931958D01*
X133591708Y-103593428D01*
X133598635Y-103450327D01*
X133611901Y-103332539D01*
X133632994Y-103272004D01*
X133664906Y-103254898D01*
X133684259Y-103259932D01*
X133704453Y-103292635D01*
X133715232Y-103367347D01*
X133718095Y-103497372D01*
X133714539Y-103696013D01*
X133702892Y-104137127D01*
X133097641Y-104148483D01*
X132492391Y-104159838D01*
X132492391Y-103683842D01*
X132492478Y-103609266D01*
X132494439Y-103428924D01*
X132500543Y-103313172D01*
X132512838Y-103248822D01*
X132533375Y-103222685D01*
X132564200Y-103221575D01*
X132574695Y-103224226D01*
G37*
G36*
X133253783Y-106743142D02*
G01*
X133452028Y-106745946D01*
X133587553Y-106752588D01*
X133672545Y-106764317D01*
X133719189Y-106782383D01*
X133739669Y-106808035D01*
X133752636Y-106868928D01*
X133723235Y-106916631D01*
X133634216Y-106941071D01*
X133474784Y-106947951D01*
X133231002Y-106947951D01*
X133231002Y-107563460D01*
X133474784Y-107563460D01*
X133611677Y-107568027D01*
X133712252Y-107588979D01*
X133751318Y-107632195D01*
X133739669Y-107703376D01*
X133733027Y-107715839D01*
X133701923Y-107738405D01*
X133638614Y-107753631D01*
X133530642Y-107762854D01*
X133365546Y-107767408D01*
X133130866Y-107768630D01*
X133052465Y-107768384D01*
X132850397Y-107765328D01*
X132683930Y-107759329D01*
X132568551Y-107751080D01*
X132519747Y-107741274D01*
X132505788Y-107716712D01*
X132492391Y-107638689D01*
X132501423Y-107599930D01*
X132540837Y-107576666D01*
X132627838Y-107566011D01*
X132779629Y-107563460D01*
X133066866Y-107563460D01*
X133066866Y-106947951D01*
X132779629Y-106947951D01*
X132703036Y-106947764D01*
X132584055Y-106943774D01*
X132521208Y-106929635D01*
X132496615Y-106898961D01*
X132492391Y-106845366D01*
X132492391Y-106742782D01*
X133103510Y-106742782D01*
X133253783Y-106743142D01*
G37*
G36*
X132593423Y-95196813D02*
G01*
X132623534Y-95223301D01*
X132643462Y-95287800D01*
X132653660Y-95404472D01*
X132656527Y-95588192D01*
X132656527Y-95955356D01*
X133046349Y-95930342D01*
X133058382Y-95609662D01*
X133059430Y-95582639D01*
X133068158Y-95430832D01*
X133081851Y-95343699D01*
X133104589Y-95305964D01*
X133140449Y-95302353D01*
X133172528Y-95318139D01*
X133197837Y-95368267D01*
X133213140Y-95467893D01*
X133222469Y-95633291D01*
X133234454Y-95950859D01*
X133392473Y-95950859D01*
X133414987Y-95950682D01*
X133500080Y-95941488D01*
X133554266Y-95907885D01*
X133584439Y-95835476D01*
X133597489Y-95709862D01*
X133600307Y-95516647D01*
X133601547Y-95406767D01*
X133609970Y-95288892D01*
X133628894Y-95228957D01*
X133661268Y-95212248D01*
X133664709Y-95212456D01*
X133683326Y-95225284D01*
X133697201Y-95264652D01*
X133706823Y-95339813D01*
X133712682Y-95460018D01*
X133715265Y-95634517D01*
X133715062Y-95872561D01*
X133712560Y-96183402D01*
X133709642Y-96418360D01*
X133703718Y-96700433D01*
X133695549Y-96910644D01*
X133684772Y-97055067D01*
X133671028Y-97139778D01*
X133653955Y-97170851D01*
X133641459Y-97171256D01*
X133610163Y-97119902D01*
X133592404Y-96989600D01*
X133579790Y-96792055D01*
X133036091Y-96780605D01*
X132492391Y-96769156D01*
X132492391Y-96568750D01*
X133036091Y-96557301D01*
X133579790Y-96545851D01*
X133592297Y-96350940D01*
X133594467Y-96321555D01*
X133599718Y-96250277D01*
X133593894Y-96200943D01*
X133565171Y-96169431D01*
X133501723Y-96151619D01*
X133391728Y-96143386D01*
X133223361Y-96140608D01*
X132984798Y-96139166D01*
X132512908Y-96135512D01*
X132501131Y-95707430D01*
X132498528Y-95601312D01*
X132497207Y-95410506D01*
X132504035Y-95285725D01*
X132521013Y-95215896D01*
X132550142Y-95189949D01*
X132593423Y-95196813D01*
G37*
G36*
X132916787Y-101793843D02*
G01*
X132943764Y-101854766D01*
X132914001Y-101920746D01*
X132819094Y-101983496D01*
X132745757Y-102022258D01*
X132645051Y-102132902D01*
X132616401Y-102278146D01*
X132662212Y-102450828D01*
X132736508Y-102547437D01*
X132875291Y-102629598D01*
X133047158Y-102672406D01*
X133228562Y-102670482D01*
X133395959Y-102618447D01*
X133452070Y-102584172D01*
X133562595Y-102462335D01*
X133604441Y-102315628D01*
X133575291Y-102162098D01*
X133472828Y-102019792D01*
X133458010Y-102005539D01*
X133382740Y-101909713D01*
X133369506Y-101837758D01*
X133390187Y-101811420D01*
X133455774Y-101808054D01*
X133541395Y-101852477D01*
X133628205Y-101933150D01*
X133697359Y-102038532D01*
X133749235Y-102183107D01*
X133753930Y-102360461D01*
X133686280Y-102548697D01*
X133666795Y-102584000D01*
X133530926Y-102739519D01*
X133344008Y-102832184D01*
X133103809Y-102863199D01*
X133098351Y-102863205D01*
X132945679Y-102854277D01*
X132832879Y-102819347D01*
X132720037Y-102746250D01*
X132682188Y-102714968D01*
X132578565Y-102605986D01*
X132510306Y-102500730D01*
X132472681Y-102395733D01*
X132458561Y-102227350D01*
X132509675Y-102045804D01*
X132565089Y-101955273D01*
X132654091Y-101869766D01*
X132754205Y-101809152D01*
X132847685Y-101781241D01*
X132916787Y-101793843D01*
G37*
%TO.C,R2*%
X132807064Y-75290000D02*
X131352936Y-75290000D01*
X132807064Y-77110000D02*
X131352936Y-77110000D01*
%TO.C,R3*%
X132807064Y-79650000D02*
X131352936Y-79650000D01*
X132807064Y-77830000D02*
X131352936Y-77830000D01*
%TD*%
M02*
