%TF.GenerationSoftware,KiCad,Pcbnew,(6.0.1-0)*%
%TF.CreationDate,2022-02-15T12:12:10-07:00*%
%TF.ProjectId,TMS9118-9128,544d5339-3131-4382-9d39-3132382e6b69,rev?*%
%TF.SameCoordinates,Original*%
%TF.FileFunction,Legend,Top*%
%TF.FilePolarity,Positive*%
%FSLAX46Y46*%
G04 Gerber Fmt 4.6, Leading zero omitted, Abs format (unit mm)*
G04 Created by KiCad (PCBNEW (6.0.1-0)) date 2022-02-15 12:12:10*
%MOMM*%
%LPD*%
G01*
G04 APERTURE LIST*
%ADD10C,0.150000*%
%ADD11C,0.120000*%
G04 APERTURE END LIST*
D10*
X127810000Y-109364190D02*
X127762380Y-109316571D01*
X127667142Y-109268952D01*
X127571904Y-109268952D01*
X127476666Y-109316571D01*
X127429047Y-109364190D01*
X127381428Y-109459428D01*
X127381428Y-109554666D01*
X127429047Y-109649904D01*
X127476666Y-109697523D01*
X127571904Y-109745142D01*
X127667142Y-109745142D01*
X127762380Y-109697523D01*
X127810000Y-109649904D01*
X127810000Y-109268952D02*
X127810000Y-109649904D01*
X127857619Y-109697523D01*
X127905238Y-109697523D01*
X128000476Y-109649904D01*
X128048095Y-109554666D01*
X128048095Y-109316571D01*
X127952857Y-109173714D01*
X127810000Y-109078476D01*
X127619523Y-109030857D01*
X127429047Y-109078476D01*
X127286190Y-109173714D01*
X127190952Y-109316571D01*
X127143333Y-109507047D01*
X127190952Y-109697523D01*
X127286190Y-109840380D01*
X127429047Y-109935619D01*
X127619523Y-109983238D01*
X127810000Y-109935619D01*
X127952857Y-109840380D01*
X128476666Y-109840380D02*
X128476666Y-109173714D01*
X128476666Y-108840380D02*
X128429047Y-108888000D01*
X128476666Y-108935619D01*
X128524285Y-108888000D01*
X128476666Y-108840380D01*
X128476666Y-108935619D01*
X129381428Y-109840380D02*
X129381428Y-109316571D01*
X129333809Y-109221333D01*
X129238571Y-109173714D01*
X129048095Y-109173714D01*
X128952857Y-109221333D01*
X129381428Y-109792761D02*
X129286190Y-109840380D01*
X129048095Y-109840380D01*
X128952857Y-109792761D01*
X128905238Y-109697523D01*
X128905238Y-109602285D01*
X128952857Y-109507047D01*
X129048095Y-109459428D01*
X129286190Y-109459428D01*
X129381428Y-109411809D01*
X129857619Y-109173714D02*
X129857619Y-109840380D01*
X129857619Y-109268952D02*
X129905238Y-109221333D01*
X130000476Y-109173714D01*
X130143333Y-109173714D01*
X130238571Y-109221333D01*
X130286190Y-109316571D01*
X130286190Y-109840380D01*
X130762380Y-109173714D02*
X130762380Y-110173714D01*
X130762380Y-109221333D02*
X130857619Y-109173714D01*
X131048095Y-109173714D01*
X131143333Y-109221333D01*
X131190952Y-109268952D01*
X131238571Y-109364190D01*
X131238571Y-109649904D01*
X131190952Y-109745142D01*
X131143333Y-109792761D01*
X131048095Y-109840380D01*
X130857619Y-109840380D01*
X130762380Y-109792761D01*
X131810000Y-109840380D02*
X131714761Y-109792761D01*
X131667142Y-109745142D01*
X131619523Y-109649904D01*
X131619523Y-109364190D01*
X131667142Y-109268952D01*
X131714761Y-109221333D01*
X131810000Y-109173714D01*
X131952857Y-109173714D01*
X132048095Y-109221333D01*
X132095714Y-109268952D01*
X132143333Y-109364190D01*
X132143333Y-109649904D01*
X132095714Y-109745142D01*
X132048095Y-109792761D01*
X131952857Y-109840380D01*
X131810000Y-109840380D01*
X132714761Y-109840380D02*
X132619523Y-109792761D01*
X132571904Y-109697523D01*
X132571904Y-108840380D01*
X133095714Y-109173714D02*
X133095714Y-110173714D01*
X133095714Y-109221333D02*
X133190952Y-109173714D01*
X133381428Y-109173714D01*
X133476666Y-109221333D01*
X133524285Y-109268952D01*
X133571904Y-109364190D01*
X133571904Y-109649904D01*
X133524285Y-109745142D01*
X133476666Y-109792761D01*
X133381428Y-109840380D01*
X133190952Y-109840380D01*
X133095714Y-109792761D01*
X134143333Y-109840380D02*
X134048095Y-109792761D01*
X134000476Y-109745142D01*
X133952857Y-109649904D01*
X133952857Y-109364190D01*
X134000476Y-109268952D01*
X134048095Y-109221333D01*
X134143333Y-109173714D01*
X134286190Y-109173714D01*
X134381428Y-109221333D01*
X134429047Y-109268952D01*
X134476666Y-109364190D01*
X134476666Y-109649904D01*
X134429047Y-109745142D01*
X134381428Y-109792761D01*
X134286190Y-109840380D01*
X134143333Y-109840380D01*
X129095714Y-110545619D02*
X129143333Y-110498000D01*
X129238571Y-110450380D01*
X129476666Y-110450380D01*
X129571904Y-110498000D01*
X129619523Y-110545619D01*
X129667142Y-110640857D01*
X129667142Y-110736095D01*
X129619523Y-110878952D01*
X129048095Y-111450380D01*
X129667142Y-111450380D01*
X130286190Y-110450380D02*
X130381428Y-110450380D01*
X130476666Y-110498000D01*
X130524285Y-110545619D01*
X130571904Y-110640857D01*
X130619523Y-110831333D01*
X130619523Y-111069428D01*
X130571904Y-111259904D01*
X130524285Y-111355142D01*
X130476666Y-111402761D01*
X130381428Y-111450380D01*
X130286190Y-111450380D01*
X130190952Y-111402761D01*
X130143333Y-111355142D01*
X130095714Y-111259904D01*
X130048095Y-111069428D01*
X130048095Y-110831333D01*
X130095714Y-110640857D01*
X130143333Y-110545619D01*
X130190952Y-110498000D01*
X130286190Y-110450380D01*
X131000476Y-110545619D02*
X131048095Y-110498000D01*
X131143333Y-110450380D01*
X131381428Y-110450380D01*
X131476666Y-110498000D01*
X131524285Y-110545619D01*
X131571904Y-110640857D01*
X131571904Y-110736095D01*
X131524285Y-110878952D01*
X130952857Y-111450380D01*
X131571904Y-111450380D01*
X131952857Y-110545619D02*
X132000476Y-110498000D01*
X132095714Y-110450380D01*
X132333809Y-110450380D01*
X132429047Y-110498000D01*
X132476666Y-110545619D01*
X132524285Y-110640857D01*
X132524285Y-110736095D01*
X132476666Y-110878952D01*
X131905238Y-111450380D01*
X132524285Y-111450380D01*
X127810000Y-112965142D02*
X127762380Y-113012761D01*
X127619523Y-113060380D01*
X127524285Y-113060380D01*
X127381428Y-113012761D01*
X127286190Y-112917523D01*
X127238571Y-112822285D01*
X127190952Y-112631809D01*
X127190952Y-112488952D01*
X127238571Y-112298476D01*
X127286190Y-112203238D01*
X127381428Y-112108000D01*
X127524285Y-112060380D01*
X127619523Y-112060380D01*
X127762380Y-112108000D01*
X127810000Y-112155619D01*
X128238571Y-112536571D02*
X128571904Y-112536571D01*
X128714761Y-113060380D02*
X128238571Y-113060380D01*
X128238571Y-112060380D01*
X128714761Y-112060380D01*
X129714761Y-113060380D02*
X129381428Y-112584190D01*
X129143333Y-113060380D02*
X129143333Y-112060380D01*
X129524285Y-112060380D01*
X129619523Y-112108000D01*
X129667142Y-112155619D01*
X129714761Y-112250857D01*
X129714761Y-112393714D01*
X129667142Y-112488952D01*
X129619523Y-112536571D01*
X129524285Y-112584190D01*
X129143333Y-112584190D01*
X130143333Y-113060380D02*
X130143333Y-112060380D01*
X130714761Y-113060380D01*
X130714761Y-112060380D01*
X132143333Y-112060380D02*
X132333809Y-112060380D01*
X132429047Y-112108000D01*
X132524285Y-112203238D01*
X132571904Y-112393714D01*
X132571904Y-112727047D01*
X132524285Y-112917523D01*
X132429047Y-113012761D01*
X132333809Y-113060380D01*
X132143333Y-113060380D01*
X132048095Y-113012761D01*
X131952857Y-112917523D01*
X131905238Y-112727047D01*
X131905238Y-112393714D01*
X131952857Y-112203238D01*
X132048095Y-112108000D01*
X132143333Y-112060380D01*
X133000476Y-113060380D02*
X133000476Y-112060380D01*
X133000476Y-112536571D02*
X133571904Y-112536571D01*
X133571904Y-113060380D02*
X133571904Y-112060380D01*
X134524285Y-113060380D02*
X134048095Y-113060380D01*
X134048095Y-112060380D01*
X127571904Y-94190380D02*
X128143333Y-94190380D01*
X127857619Y-95190380D02*
X127857619Y-94190380D01*
X128476666Y-95190380D02*
X128476666Y-94190380D01*
X128810000Y-94904666D01*
X129143333Y-94190380D01*
X129143333Y-95190380D01*
X129571904Y-95142761D02*
X129714761Y-95190380D01*
X129952857Y-95190380D01*
X130048095Y-95142761D01*
X130095714Y-95095142D01*
X130143333Y-94999904D01*
X130143333Y-94904666D01*
X130095714Y-94809428D01*
X130048095Y-94761809D01*
X129952857Y-94714190D01*
X129762380Y-94666571D01*
X129667142Y-94618952D01*
X129619523Y-94571333D01*
X129571904Y-94476095D01*
X129571904Y-94380857D01*
X129619523Y-94285619D01*
X129667142Y-94238000D01*
X129762380Y-94190380D01*
X130000476Y-94190380D01*
X130143333Y-94238000D01*
X130619523Y-95190380D02*
X130810000Y-95190380D01*
X130905238Y-95142761D01*
X130952857Y-95095142D01*
X131048095Y-94952285D01*
X131095714Y-94761809D01*
X131095714Y-94380857D01*
X131048095Y-94285619D01*
X131000476Y-94238000D01*
X130905238Y-94190380D01*
X130714761Y-94190380D01*
X130619523Y-94238000D01*
X130571904Y-94285619D01*
X130524285Y-94380857D01*
X130524285Y-94618952D01*
X130571904Y-94714190D01*
X130619523Y-94761809D01*
X130714761Y-94809428D01*
X130905238Y-94809428D01*
X131000476Y-94761809D01*
X131048095Y-94714190D01*
X131095714Y-94618952D01*
X132048095Y-95190380D02*
X131476666Y-95190380D01*
X131762380Y-95190380D02*
X131762380Y-94190380D01*
X131667142Y-94333238D01*
X131571904Y-94428476D01*
X131476666Y-94476095D01*
X132429047Y-94285619D02*
X132476666Y-94238000D01*
X132571904Y-94190380D01*
X132810000Y-94190380D01*
X132905238Y-94238000D01*
X132952857Y-94285619D01*
X133000476Y-94380857D01*
X133000476Y-94476095D01*
X132952857Y-94618952D01*
X132381428Y-95190380D01*
X133000476Y-95190380D01*
X133571904Y-94618952D02*
X133476666Y-94571333D01*
X133429047Y-94523714D01*
X133381428Y-94428476D01*
X133381428Y-94380857D01*
X133429047Y-94285619D01*
X133476666Y-94238000D01*
X133571904Y-94190380D01*
X133762380Y-94190380D01*
X133857619Y-94238000D01*
X133905238Y-94285619D01*
X133952857Y-94380857D01*
X133952857Y-94428476D01*
X133905238Y-94523714D01*
X133857619Y-94571333D01*
X133762380Y-94618952D01*
X133571904Y-94618952D01*
X133476666Y-94666571D01*
X133429047Y-94714190D01*
X133381428Y-94809428D01*
X133381428Y-94999904D01*
X133429047Y-95095142D01*
X133476666Y-95142761D01*
X133571904Y-95190380D01*
X133762380Y-95190380D01*
X133857619Y-95142761D01*
X133905238Y-95095142D01*
X133952857Y-94999904D01*
X133952857Y-94809428D01*
X133905238Y-94714190D01*
X133857619Y-94666571D01*
X133762380Y-94618952D01*
X130000476Y-95800380D02*
X130571904Y-95800380D01*
X130286190Y-96800380D02*
X130286190Y-95800380D01*
X131095714Y-95800380D02*
X131286190Y-95800380D01*
X131381428Y-95848000D01*
X131476666Y-95943238D01*
X131524285Y-96133714D01*
X131524285Y-96467047D01*
X131476666Y-96657523D01*
X131381428Y-96752761D01*
X131286190Y-96800380D01*
X131095714Y-96800380D01*
X131000476Y-96752761D01*
X130905238Y-96657523D01*
X130857619Y-96467047D01*
X130857619Y-96133714D01*
X130905238Y-95943238D01*
X131000476Y-95848000D01*
X131095714Y-95800380D01*
X127571904Y-97410380D02*
X128143333Y-97410380D01*
X127857619Y-98410380D02*
X127857619Y-97410380D01*
X128476666Y-98410380D02*
X128476666Y-97410380D01*
X128810000Y-98124666D01*
X129143333Y-97410380D01*
X129143333Y-98410380D01*
X129571904Y-98362761D02*
X129714761Y-98410380D01*
X129952857Y-98410380D01*
X130048095Y-98362761D01*
X130095714Y-98315142D01*
X130143333Y-98219904D01*
X130143333Y-98124666D01*
X130095714Y-98029428D01*
X130048095Y-97981809D01*
X129952857Y-97934190D01*
X129762380Y-97886571D01*
X129667142Y-97838952D01*
X129619523Y-97791333D01*
X129571904Y-97696095D01*
X129571904Y-97600857D01*
X129619523Y-97505619D01*
X129667142Y-97458000D01*
X129762380Y-97410380D01*
X130000476Y-97410380D01*
X130143333Y-97458000D01*
X130619523Y-98410380D02*
X130810000Y-98410380D01*
X130905238Y-98362761D01*
X130952857Y-98315142D01*
X131048095Y-98172285D01*
X131095714Y-97981809D01*
X131095714Y-97600857D01*
X131048095Y-97505619D01*
X131000476Y-97458000D01*
X130905238Y-97410380D01*
X130714761Y-97410380D01*
X130619523Y-97458000D01*
X130571904Y-97505619D01*
X130524285Y-97600857D01*
X130524285Y-97838952D01*
X130571904Y-97934190D01*
X130619523Y-97981809D01*
X130714761Y-98029428D01*
X130905238Y-98029428D01*
X131000476Y-97981809D01*
X131048095Y-97934190D01*
X131095714Y-97838952D01*
X132048095Y-98410380D02*
X131476666Y-98410380D01*
X131762380Y-98410380D02*
X131762380Y-97410380D01*
X131667142Y-97553238D01*
X131571904Y-97648476D01*
X131476666Y-97696095D01*
X133000476Y-98410380D02*
X132429047Y-98410380D01*
X132714761Y-98410380D02*
X132714761Y-97410380D01*
X132619523Y-97553238D01*
X132524285Y-97648476D01*
X132429047Y-97696095D01*
X133571904Y-97838952D02*
X133476666Y-97791333D01*
X133429047Y-97743714D01*
X133381428Y-97648476D01*
X133381428Y-97600857D01*
X133429047Y-97505619D01*
X133476666Y-97458000D01*
X133571904Y-97410380D01*
X133762380Y-97410380D01*
X133857619Y-97458000D01*
X133905238Y-97505619D01*
X133952857Y-97600857D01*
X133952857Y-97648476D01*
X133905238Y-97743714D01*
X133857619Y-97791333D01*
X133762380Y-97838952D01*
X133571904Y-97838952D01*
X133476666Y-97886571D01*
X133429047Y-97934190D01*
X133381428Y-98029428D01*
X133381428Y-98219904D01*
X133429047Y-98315142D01*
X133476666Y-98362761D01*
X133571904Y-98410380D01*
X133762380Y-98410380D01*
X133857619Y-98362761D01*
X133905238Y-98315142D01*
X133952857Y-98219904D01*
X133952857Y-98029428D01*
X133905238Y-97934190D01*
X133857619Y-97886571D01*
X133762380Y-97838952D01*
X127810000Y-99734666D02*
X128286190Y-99734666D01*
X127714761Y-100020380D02*
X128048095Y-99020380D01*
X128381428Y-100020380D01*
X128714761Y-100020380D02*
X128714761Y-99020380D01*
X128952857Y-99020380D01*
X129095714Y-99068000D01*
X129190952Y-99163238D01*
X129238571Y-99258476D01*
X129286190Y-99448952D01*
X129286190Y-99591809D01*
X129238571Y-99782285D01*
X129190952Y-99877523D01*
X129095714Y-99972761D01*
X128952857Y-100020380D01*
X128714761Y-100020380D01*
X129667142Y-99734666D02*
X130143333Y-99734666D01*
X129571904Y-100020380D02*
X129905238Y-99020380D01*
X130238571Y-100020380D01*
X130571904Y-100020380D02*
X130571904Y-99020380D01*
X130952857Y-99020380D01*
X131048095Y-99068000D01*
X131095714Y-99115619D01*
X131143333Y-99210857D01*
X131143333Y-99353714D01*
X131095714Y-99448952D01*
X131048095Y-99496571D01*
X130952857Y-99544190D01*
X130571904Y-99544190D01*
X131429047Y-99020380D02*
X132000476Y-99020380D01*
X131714761Y-100020380D02*
X131714761Y-99020380D01*
X132333809Y-99496571D02*
X132667142Y-99496571D01*
X132810000Y-100020380D02*
X132333809Y-100020380D01*
X132333809Y-99020380D01*
X132810000Y-99020380D01*
X133810000Y-100020380D02*
X133476666Y-99544190D01*
X133238571Y-100020380D02*
X133238571Y-99020380D01*
X133619523Y-99020380D01*
X133714761Y-99068000D01*
X133762380Y-99115619D01*
X133810000Y-99210857D01*
X133810000Y-99353714D01*
X133762380Y-99448952D01*
X133714761Y-99496571D01*
X133619523Y-99544190D01*
X133238571Y-99544190D01*
X129929047Y-101106571D02*
X129595714Y-101106571D01*
X129595714Y-101630380D02*
X129595714Y-100630380D01*
X130071904Y-100630380D01*
X130643333Y-100630380D02*
X130833809Y-100630380D01*
X130929047Y-100678000D01*
X131024285Y-100773238D01*
X131071904Y-100963714D01*
X131071904Y-101297047D01*
X131024285Y-101487523D01*
X130929047Y-101582761D01*
X130833809Y-101630380D01*
X130643333Y-101630380D01*
X130548095Y-101582761D01*
X130452857Y-101487523D01*
X130405238Y-101297047D01*
X130405238Y-100963714D01*
X130452857Y-100773238D01*
X130548095Y-100678000D01*
X130643333Y-100630380D01*
X132071904Y-101630380D02*
X131738571Y-101154190D01*
X131500476Y-101630380D02*
X131500476Y-100630380D01*
X131881428Y-100630380D01*
X131976666Y-100678000D01*
X132024285Y-100725619D01*
X132071904Y-100820857D01*
X132071904Y-100963714D01*
X132024285Y-101058952D01*
X131976666Y-101106571D01*
X131881428Y-101154190D01*
X131500476Y-101154190D01*
X127357619Y-102240380D02*
X127929047Y-102240380D01*
X127643333Y-103240380D02*
X127643333Y-102240380D01*
X128262380Y-103240380D02*
X128262380Y-102240380D01*
X128595714Y-102954666D01*
X128929047Y-102240380D01*
X128929047Y-103240380D01*
X129357619Y-103192761D02*
X129500476Y-103240380D01*
X129738571Y-103240380D01*
X129833809Y-103192761D01*
X129881428Y-103145142D01*
X129929047Y-103049904D01*
X129929047Y-102954666D01*
X129881428Y-102859428D01*
X129833809Y-102811809D01*
X129738571Y-102764190D01*
X129548095Y-102716571D01*
X129452857Y-102668952D01*
X129405238Y-102621333D01*
X129357619Y-102526095D01*
X129357619Y-102430857D01*
X129405238Y-102335619D01*
X129452857Y-102288000D01*
X129548095Y-102240380D01*
X129786190Y-102240380D01*
X129929047Y-102288000D01*
X130357619Y-102859428D02*
X131119523Y-102859428D01*
X132167142Y-103240380D02*
X131833809Y-102764190D01*
X131595714Y-103240380D02*
X131595714Y-102240380D01*
X131976666Y-102240380D01*
X132071904Y-102288000D01*
X132119523Y-102335619D01*
X132167142Y-102430857D01*
X132167142Y-102573714D01*
X132119523Y-102668952D01*
X132071904Y-102716571D01*
X131976666Y-102764190D01*
X131595714Y-102764190D01*
X133119523Y-102288000D02*
X133024285Y-102240380D01*
X132881428Y-102240380D01*
X132738571Y-102288000D01*
X132643333Y-102383238D01*
X132595714Y-102478476D01*
X132548095Y-102668952D01*
X132548095Y-102811809D01*
X132595714Y-103002285D01*
X132643333Y-103097523D01*
X132738571Y-103192761D01*
X132881428Y-103240380D01*
X132976666Y-103240380D01*
X133119523Y-103192761D01*
X133167142Y-103145142D01*
X133167142Y-102811809D01*
X132976666Y-102811809D01*
X133929047Y-102716571D02*
X134071904Y-102764190D01*
X134119523Y-102811809D01*
X134167142Y-102907047D01*
X134167142Y-103049904D01*
X134119523Y-103145142D01*
X134071904Y-103192761D01*
X133976666Y-103240380D01*
X133595714Y-103240380D01*
X133595714Y-102240380D01*
X133929047Y-102240380D01*
X134024285Y-102288000D01*
X134071904Y-102335619D01*
X134119523Y-102430857D01*
X134119523Y-102526095D01*
X134071904Y-102621333D01*
X134024285Y-102668952D01*
X133929047Y-102716571D01*
X133595714Y-102716571D01*
X130095714Y-104183714D02*
X130333809Y-104850380D01*
X130571904Y-104183714D01*
X131476666Y-104850380D02*
X130905238Y-104850380D01*
X131190952Y-104850380D02*
X131190952Y-103850380D01*
X131095714Y-103993238D01*
X131000476Y-104088476D01*
X130905238Y-104136095D01*
%TO.C,TMS9128*%
X126301904Y-67270380D02*
X126873333Y-67270380D01*
X126587619Y-68270380D02*
X126587619Y-67270380D01*
X127206666Y-68270380D02*
X127206666Y-67270380D01*
X127540000Y-67984666D01*
X127873333Y-67270380D01*
X127873333Y-68270380D01*
X128301904Y-68222761D02*
X128444761Y-68270380D01*
X128682857Y-68270380D01*
X128778095Y-68222761D01*
X128825714Y-68175142D01*
X128873333Y-68079904D01*
X128873333Y-67984666D01*
X128825714Y-67889428D01*
X128778095Y-67841809D01*
X128682857Y-67794190D01*
X128492380Y-67746571D01*
X128397142Y-67698952D01*
X128349523Y-67651333D01*
X128301904Y-67556095D01*
X128301904Y-67460857D01*
X128349523Y-67365619D01*
X128397142Y-67318000D01*
X128492380Y-67270380D01*
X128730476Y-67270380D01*
X128873333Y-67318000D01*
X129349523Y-68270380D02*
X129540000Y-68270380D01*
X129635238Y-68222761D01*
X129682857Y-68175142D01*
X129778095Y-68032285D01*
X129825714Y-67841809D01*
X129825714Y-67460857D01*
X129778095Y-67365619D01*
X129730476Y-67318000D01*
X129635238Y-67270380D01*
X129444761Y-67270380D01*
X129349523Y-67318000D01*
X129301904Y-67365619D01*
X129254285Y-67460857D01*
X129254285Y-67698952D01*
X129301904Y-67794190D01*
X129349523Y-67841809D01*
X129444761Y-67889428D01*
X129635238Y-67889428D01*
X129730476Y-67841809D01*
X129778095Y-67794190D01*
X129825714Y-67698952D01*
X130778095Y-68270380D02*
X130206666Y-68270380D01*
X130492380Y-68270380D02*
X130492380Y-67270380D01*
X130397142Y-67413238D01*
X130301904Y-67508476D01*
X130206666Y-67556095D01*
X131159047Y-67365619D02*
X131206666Y-67318000D01*
X131301904Y-67270380D01*
X131540000Y-67270380D01*
X131635238Y-67318000D01*
X131682857Y-67365619D01*
X131730476Y-67460857D01*
X131730476Y-67556095D01*
X131682857Y-67698952D01*
X131111428Y-68270380D01*
X131730476Y-68270380D01*
X132301904Y-67698952D02*
X132206666Y-67651333D01*
X132159047Y-67603714D01*
X132111428Y-67508476D01*
X132111428Y-67460857D01*
X132159047Y-67365619D01*
X132206666Y-67318000D01*
X132301904Y-67270380D01*
X132492380Y-67270380D01*
X132587619Y-67318000D01*
X132635238Y-67365619D01*
X132682857Y-67460857D01*
X132682857Y-67508476D01*
X132635238Y-67603714D01*
X132587619Y-67651333D01*
X132492380Y-67698952D01*
X132301904Y-67698952D01*
X132206666Y-67746571D01*
X132159047Y-67794190D01*
X132111428Y-67889428D01*
X132111428Y-68079904D01*
X132159047Y-68175142D01*
X132206666Y-68222761D01*
X132301904Y-68270380D01*
X132492380Y-68270380D01*
X132587619Y-68222761D01*
X132635238Y-68175142D01*
X132682857Y-68079904D01*
X132682857Y-67889428D01*
X132635238Y-67794190D01*
X132587619Y-67746571D01*
X132492380Y-67698952D01*
D11*
X136000000Y-115630000D02*
X136000000Y-64710000D01*
X136000000Y-64710000D02*
X130540000Y-64710000D01*
X123080000Y-115630000D02*
X136000000Y-115630000D01*
X128540000Y-64710000D02*
X123080000Y-64710000D01*
X123080000Y-64710000D02*
X123080000Y-115630000D01*
X128540000Y-64710000D02*
G75*
G03*
X130540000Y-64710000I1000000J0D01*
G01*
%TD*%
M02*
