M48
; DRILL file {KiCad (6.0.1-0)} date Tuesday, February 15, 2022 at 12:12:07 PM
; FORMAT={-:-/ absolute / inch / decimal}
; #@! TF.CreationDate,2022-02-15T12:12:07-07:00
; #@! TF.GenerationSoftware,Kicad,Pcbnew,(6.0.1-0)
; #@! TF.FileFunction,Plated,1,2,PTH
FMAT,2
INCH
; #@! TA.AperFunction,Plated,PTH,ComponentDrill
T1C0.0315
%
G90
G05
T1
X4.8Y-2.6
X4.8Y-2.7
X4.8Y-2.8
X4.8Y-2.9
X4.8Y-3.0
X4.8Y-3.1
X4.8Y-3.2
X4.8Y-3.3
X4.8Y-3.4
X4.8Y-3.5
X4.8Y-3.6
X4.8Y-3.7
X4.8Y-3.8
X4.8Y-3.9
X4.8Y-4.0
X4.8Y-4.1
X4.8Y-4.2
X4.8Y-4.3
X4.8Y-4.4
X4.8Y-4.5
X4.9Y-2.6
X4.9Y-2.7
X4.9Y-2.8
X4.9Y-2.9
X4.9Y-3.0
X4.9Y-3.1
X4.9Y-3.2
X4.9Y-3.3
X4.9Y-3.4
X4.9Y-3.5
X4.9Y-3.6
X4.9Y-3.7
X4.9Y-3.8
X4.9Y-3.9
X4.9Y-4.0
X4.9Y-4.1
X4.9Y-4.2
X4.9Y-4.3
X4.9Y-4.4
X4.9Y-4.5
X5.4Y-2.6
X5.4Y-2.7
X5.4Y-2.8
X5.4Y-2.9
X5.4Y-3.0
X5.4Y-3.1
X5.4Y-3.2
X5.4Y-3.3
X5.4Y-3.4
X5.4Y-3.5
X5.4Y-3.6
X5.4Y-3.7
X5.4Y-3.8
X5.4Y-3.9
X5.4Y-4.0
X5.4Y-4.1
X5.4Y-4.2
X5.4Y-4.3
X5.4Y-4.4
X5.4Y-4.5
X5.5Y-2.6
X5.5Y-2.7
X5.5Y-2.8
X5.5Y-2.9
X5.5Y-3.0
X5.5Y-3.1
X5.5Y-3.2
X5.5Y-3.3
X5.5Y-3.4
X5.5Y-3.5
X5.5Y-3.6
X5.5Y-3.7
X5.5Y-3.8
X5.5Y-3.9
X5.5Y-4.0
X5.5Y-4.1
X5.5Y-4.2
X5.5Y-4.3
X5.5Y-4.4
X5.5Y-4.5
T0
M30
