%TF.GenerationSoftware,KiCad,Pcbnew,(6.0.1-0)*%
%TF.CreationDate,2022-02-15T12:12:09-07:00*%
%TF.ProjectId,TMS9118-9128,544d5339-3131-4382-9d39-3132382e6b69,rev?*%
%TF.SameCoordinates,Original*%
%TF.FileFunction,Copper,L1,Top*%
%TF.FilePolarity,Positive*%
%FSLAX46Y46*%
G04 Gerber Fmt 4.6, Leading zero omitted, Abs format (unit mm)*
G04 Created by KiCad (PCBNEW (6.0.1-0)) date 2022-02-15 12:12:09*
%MOMM*%
%LPD*%
G01*
G04 APERTURE LIST*
%TA.AperFunction,ComponentPad*%
%ADD10R,1.600000X1.600000*%
%TD*%
%TA.AperFunction,ComponentPad*%
%ADD11O,1.600000X1.600000*%
%TD*%
%TA.AperFunction,Conductor*%
%ADD12C,0.250000*%
%TD*%
%TA.AperFunction,Conductor*%
%ADD13C,0.500000*%
%TD*%
G04 APERTURE END LIST*
D10*
%TO.P,BOARD SIDE,1*%
%TO.N,N/C*%
X124460000Y-66040000D03*
D11*
%TO.P,BOARD SIDE,2*%
X124460000Y-68580000D03*
%TO.P,BOARD SIDE,3*%
X124460000Y-71120000D03*
%TO.P,BOARD SIDE,4*%
X124460000Y-73660000D03*
%TO.P,BOARD SIDE,5*%
X124460000Y-76200000D03*
%TO.P,BOARD SIDE,6*%
X124460000Y-78740000D03*
%TO.P,BOARD SIDE,7*%
X124460000Y-81280000D03*
%TO.P,BOARD SIDE,8*%
X124460000Y-83820000D03*
%TO.P,BOARD SIDE,9*%
X124460000Y-86360000D03*
%TO.P,BOARD SIDE,10*%
X124460000Y-88900000D03*
%TO.P,BOARD SIDE,11*%
X124460000Y-91440000D03*
%TO.P,BOARD SIDE,12*%
X124460000Y-93980000D03*
%TO.P,BOARD SIDE,13*%
X124460000Y-96520000D03*
%TO.P,BOARD SIDE,14*%
X124460000Y-99060000D03*
%TO.P,BOARD SIDE,15*%
X124460000Y-101600000D03*
%TO.P,BOARD SIDE,16*%
X124460000Y-104140000D03*
%TO.P,BOARD SIDE,17*%
X124460000Y-106680000D03*
%TO.P,BOARD SIDE,18*%
X124460000Y-109220000D03*
%TO.P,BOARD SIDE,19*%
X124460000Y-111760000D03*
%TO.P,BOARD SIDE,20*%
X124460000Y-114300000D03*
%TO.P,BOARD SIDE,21*%
X139700000Y-114300000D03*
%TO.P,BOARD SIDE,22*%
X139700000Y-111760000D03*
%TO.P,BOARD SIDE,23*%
X139700000Y-109220000D03*
%TO.P,BOARD SIDE,24*%
X139700000Y-106680000D03*
%TO.P,BOARD SIDE,25*%
X139700000Y-104140000D03*
%TO.P,BOARD SIDE,26*%
X139700000Y-101600000D03*
%TO.P,BOARD SIDE,27*%
X139700000Y-99060000D03*
%TO.P,BOARD SIDE,28*%
X139700000Y-96520000D03*
%TO.P,BOARD SIDE,29*%
X139700000Y-93980000D03*
%TO.P,BOARD SIDE,30*%
X139700000Y-91440000D03*
%TO.P,BOARD SIDE,31*%
X139700000Y-88900000D03*
%TO.P,BOARD SIDE,32*%
X139700000Y-86360000D03*
%TO.P,BOARD SIDE,33*%
X139700000Y-83820000D03*
%TO.P,BOARD SIDE,34*%
X139700000Y-81280000D03*
%TO.P,BOARD SIDE,35*%
X139700000Y-78740000D03*
%TO.P,BOARD SIDE,36*%
X139700000Y-76200000D03*
%TO.P,BOARD SIDE,37*%
X139700000Y-73660000D03*
%TO.P,BOARD SIDE,38*%
X139700000Y-71120000D03*
%TO.P,BOARD SIDE,39*%
X139700000Y-68580000D03*
%TO.P,BOARD SIDE,40*%
X139700000Y-66040000D03*
%TD*%
D10*
%TO.P,TMS9128,1*%
%TO.N,N/C*%
X121920000Y-66040000D03*
D11*
%TO.P,TMS9128,2*%
X121920000Y-68580000D03*
%TO.P,TMS9128,3*%
X121920000Y-71120000D03*
%TO.P,TMS9128,4*%
X121920000Y-73660000D03*
%TO.P,TMS9128,5*%
X121920000Y-76200000D03*
%TO.P,TMS9128,6*%
X121920000Y-78740000D03*
%TO.P,TMS9128,7*%
X121920000Y-81280000D03*
%TO.P,TMS9128,8*%
X121920000Y-83820000D03*
%TO.P,TMS9128,9*%
X121920000Y-86360000D03*
%TO.P,TMS9128,10*%
X121920000Y-88900000D03*
%TO.P,TMS9128,11*%
X121920000Y-91440000D03*
%TO.P,TMS9128,12*%
X121920000Y-93980000D03*
%TO.P,TMS9128,13*%
X121920000Y-96520000D03*
%TO.P,TMS9128,14*%
X121920000Y-99060000D03*
%TO.P,TMS9128,15*%
X121920000Y-101600000D03*
%TO.P,TMS9128,16*%
X121920000Y-104140000D03*
%TO.P,TMS9128,17*%
X121920000Y-106680000D03*
%TO.P,TMS9128,18*%
X121920000Y-109220000D03*
%TO.P,TMS9128,19*%
X121920000Y-111760000D03*
%TO.P,TMS9128,20*%
X121920000Y-114300000D03*
%TO.P,TMS9128,21*%
X137160000Y-114300000D03*
%TO.P,TMS9128,22*%
X137160000Y-111760000D03*
%TO.P,TMS9128,23*%
X137160000Y-109220000D03*
%TO.P,TMS9128,24*%
X137160000Y-106680000D03*
%TO.P,TMS9128,25*%
X137160000Y-104140000D03*
%TO.P,TMS9128,26*%
X137160000Y-101600000D03*
%TO.P,TMS9128,27*%
X137160000Y-99060000D03*
%TO.P,TMS9128,28*%
X137160000Y-96520000D03*
%TO.P,TMS9128,29*%
X137160000Y-93980000D03*
%TO.P,TMS9128,30*%
X137160000Y-91440000D03*
%TO.P,TMS9128,31*%
X137160000Y-88900000D03*
%TO.P,TMS9128,32*%
X137160000Y-86360000D03*
%TO.P,TMS9128,33*%
X137160000Y-83820000D03*
%TO.P,TMS9128,34*%
X137160000Y-81280000D03*
%TO.P,TMS9128,35*%
X137160000Y-78740000D03*
%TO.P,TMS9128,36*%
X137160000Y-76200000D03*
%TO.P,TMS9128,37*%
X137160000Y-73660000D03*
%TO.P,TMS9128,38*%
X137160000Y-71120000D03*
%TO.P,TMS9128,39*%
X137160000Y-68580000D03*
%TO.P,TMS9128,40*%
X137160000Y-66040000D03*
%TD*%
D12*
%TO.N,*%
X121920000Y-66040000D02*
X124460000Y-66040000D01*
X121920000Y-88900000D02*
X124460000Y-88900000D01*
X137160000Y-83820000D02*
X139700000Y-83820000D01*
X137160000Y-88900000D02*
X139700000Y-88900000D01*
X137160000Y-66040000D02*
X139700000Y-66040000D01*
X137160000Y-99060000D02*
X139700000Y-99060000D01*
X121920000Y-96520000D02*
X124460000Y-96520000D01*
X121920000Y-83820000D02*
X124460000Y-83820000D01*
X121920000Y-114300000D02*
X124460000Y-114300000D01*
X137160000Y-106680000D02*
X139700000Y-106680000D01*
X137160000Y-101600000D02*
X139700000Y-101600000D01*
X137160000Y-68580000D02*
X139700000Y-68580000D01*
X121920000Y-104140000D02*
X124460000Y-104140000D01*
X121920000Y-78740000D02*
X124460000Y-78740000D01*
X121920000Y-99060000D02*
X124460000Y-99060000D01*
X121920000Y-71120000D02*
X124460000Y-71120000D01*
X137160000Y-109220000D02*
X139700000Y-109220000D01*
X137160000Y-104140000D02*
X139700000Y-104140000D01*
X121920000Y-109220000D02*
X124460000Y-109220000D01*
X121920000Y-73660000D02*
X124460000Y-73660000D01*
X137160000Y-96520000D02*
X139700000Y-96520000D01*
X121920000Y-68580000D02*
X124460000Y-68580000D01*
X121920000Y-81280000D02*
X124460000Y-81280000D01*
X121920000Y-106680000D02*
X124460000Y-106680000D01*
X137160000Y-81280000D02*
X139700000Y-81280000D01*
X121920000Y-86360000D02*
X124460000Y-86360000D01*
D13*
X121920000Y-93980000D02*
X124460000Y-93980000D01*
D12*
X137160000Y-114300000D02*
X139700000Y-114300000D01*
X121920000Y-101600000D02*
X124460000Y-101600000D01*
X121920000Y-91440000D02*
X124460000Y-91440000D01*
X137160000Y-86360000D02*
X139700000Y-86360000D01*
X137160000Y-73660000D02*
X139700000Y-71120000D01*
X137160000Y-91440000D02*
X139700000Y-91440000D01*
X121920000Y-111760000D02*
X124460000Y-111760000D01*
X137160000Y-111760000D02*
X139700000Y-111760000D01*
X137160000Y-93980000D02*
X139700000Y-93980000D01*
X121920000Y-76200000D02*
X124460000Y-76200000D01*
%TD*%
M02*
