%TF.GenerationSoftware,KiCad,Pcbnew,(6.0.1-0)*%
%TF.CreationDate,2022-02-15T12:12:10-07:00*%
%TF.ProjectId,TMS9118-9128,544d5339-3131-4382-9d39-3132382e6b69,rev?*%
%TF.SameCoordinates,Original*%
%TF.FileFunction,Copper,L2,Bot*%
%TF.FilePolarity,Positive*%
%FSLAX46Y46*%
G04 Gerber Fmt 4.6, Leading zero omitted, Abs format (unit mm)*
G04 Created by KiCad (PCBNEW (6.0.1-0)) date 2022-02-15 12:12:10*
%MOMM*%
%LPD*%
G01*
G04 APERTURE LIST*
G04 Aperture macros list*
%AMRoundRect*
0 Rectangle with rounded corners*
0 $1 Rounding radius*
0 $2 $3 $4 $5 $6 $7 $8 $9 X,Y pos of 4 corners*
0 Add a 4 corners polygon primitive as box body*
4,1,4,$2,$3,$4,$5,$6,$7,$8,$9,$2,$3,0*
0 Add four circle primitives for the rounded corners*
1,1,$1+$1,$2,$3*
1,1,$1+$1,$4,$5*
1,1,$1+$1,$6,$7*
1,1,$1+$1,$8,$9*
0 Add four rect primitives between the rounded corners*
20,1,$1+$1,$2,$3,$4,$5,0*
20,1,$1+$1,$4,$5,$6,$7,0*
20,1,$1+$1,$6,$7,$8,$9,0*
20,1,$1+$1,$8,$9,$2,$3,0*%
G04 Aperture macros list end*
%TA.AperFunction,ComponentPad*%
%ADD10R,1.600000X1.600000*%
%TD*%
%TA.AperFunction,ComponentPad*%
%ADD11O,1.600000X1.600000*%
%TD*%
%TA.AperFunction,SMDPad,CuDef*%
%ADD12RoundRect,0.250000X0.312500X0.625000X-0.312500X0.625000X-0.312500X-0.625000X0.312500X-0.625000X0*%
%TD*%
%TA.AperFunction,Conductor*%
%ADD13C,0.200000*%
%TD*%
%TA.AperFunction,Conductor*%
%ADD14C,0.500000*%
%TD*%
G04 APERTURE END LIST*
D10*
%TO.P,BOARD SIDE,1*%
%TO.N,N/C*%
X124460000Y-66040000D03*
D11*
%TO.P,BOARD SIDE,2*%
X124460000Y-68580000D03*
%TO.P,BOARD SIDE,3*%
X124460000Y-71120000D03*
%TO.P,BOARD SIDE,4*%
X124460000Y-73660000D03*
%TO.P,BOARD SIDE,5*%
X124460000Y-76200000D03*
%TO.P,BOARD SIDE,6*%
X124460000Y-78740000D03*
%TO.P,BOARD SIDE,7*%
X124460000Y-81280000D03*
%TO.P,BOARD SIDE,8*%
X124460000Y-83820000D03*
%TO.P,BOARD SIDE,9*%
X124460000Y-86360000D03*
%TO.P,BOARD SIDE,10*%
X124460000Y-88900000D03*
%TO.P,BOARD SIDE,11*%
X124460000Y-91440000D03*
%TO.P,BOARD SIDE,12*%
X124460000Y-93980000D03*
%TO.P,BOARD SIDE,13*%
X124460000Y-96520000D03*
%TO.P,BOARD SIDE,14*%
X124460000Y-99060000D03*
%TO.P,BOARD SIDE,15*%
X124460000Y-101600000D03*
%TO.P,BOARD SIDE,16*%
X124460000Y-104140000D03*
%TO.P,BOARD SIDE,17*%
X124460000Y-106680000D03*
%TO.P,BOARD SIDE,18*%
X124460000Y-109220000D03*
%TO.P,BOARD SIDE,19*%
X124460000Y-111760000D03*
%TO.P,BOARD SIDE,20*%
X124460000Y-114300000D03*
%TO.P,BOARD SIDE,21*%
X139700000Y-114300000D03*
%TO.P,BOARD SIDE,22*%
X139700000Y-111760000D03*
%TO.P,BOARD SIDE,23*%
X139700000Y-109220000D03*
%TO.P,BOARD SIDE,24*%
X139700000Y-106680000D03*
%TO.P,BOARD SIDE,25*%
X139700000Y-104140000D03*
%TO.P,BOARD SIDE,26*%
X139700000Y-101600000D03*
%TO.P,BOARD SIDE,27*%
X139700000Y-99060000D03*
%TO.P,BOARD SIDE,28*%
X139700000Y-96520000D03*
%TO.P,BOARD SIDE,29*%
X139700000Y-93980000D03*
%TO.P,BOARD SIDE,30*%
X139700000Y-91440000D03*
%TO.P,BOARD SIDE,31*%
X139700000Y-88900000D03*
%TO.P,BOARD SIDE,32*%
X139700000Y-86360000D03*
%TO.P,BOARD SIDE,33*%
X139700000Y-83820000D03*
%TO.P,BOARD SIDE,34*%
X139700000Y-81280000D03*
%TO.P,BOARD SIDE,35*%
X139700000Y-78740000D03*
%TO.P,BOARD SIDE,36*%
X139700000Y-76200000D03*
%TO.P,BOARD SIDE,37*%
X139700000Y-73660000D03*
%TO.P,BOARD SIDE,38*%
X139700000Y-71120000D03*
%TO.P,BOARD SIDE,39*%
X139700000Y-68580000D03*
%TO.P,BOARD SIDE,40*%
X139700000Y-66040000D03*
%TD*%
D10*
%TO.P,TMS9128,1*%
%TO.N,N/C*%
X121920000Y-66040000D03*
D11*
%TO.P,TMS9128,2*%
X121920000Y-68580000D03*
%TO.P,TMS9128,3*%
X121920000Y-71120000D03*
%TO.P,TMS9128,4*%
X121920000Y-73660000D03*
%TO.P,TMS9128,5*%
X121920000Y-76200000D03*
%TO.P,TMS9128,6*%
X121920000Y-78740000D03*
%TO.P,TMS9128,7*%
X121920000Y-81280000D03*
%TO.P,TMS9128,8*%
X121920000Y-83820000D03*
%TO.P,TMS9128,9*%
X121920000Y-86360000D03*
%TO.P,TMS9128,10*%
X121920000Y-88900000D03*
%TO.P,TMS9128,11*%
X121920000Y-91440000D03*
%TO.P,TMS9128,12*%
X121920000Y-93980000D03*
%TO.P,TMS9128,13*%
X121920000Y-96520000D03*
%TO.P,TMS9128,14*%
X121920000Y-99060000D03*
%TO.P,TMS9128,15*%
X121920000Y-101600000D03*
%TO.P,TMS9128,16*%
X121920000Y-104140000D03*
%TO.P,TMS9128,17*%
X121920000Y-106680000D03*
%TO.P,TMS9128,18*%
X121920000Y-109220000D03*
%TO.P,TMS9128,19*%
X121920000Y-111760000D03*
%TO.P,TMS9128,20*%
X121920000Y-114300000D03*
%TO.P,TMS9128,21*%
X137160000Y-114300000D03*
%TO.P,TMS9128,22*%
X137160000Y-111760000D03*
%TO.P,TMS9128,23*%
X137160000Y-109220000D03*
%TO.P,TMS9128,24*%
X137160000Y-106680000D03*
%TO.P,TMS9128,25*%
X137160000Y-104140000D03*
%TO.P,TMS9128,26*%
X137160000Y-101600000D03*
%TO.P,TMS9128,27*%
X137160000Y-99060000D03*
%TO.P,TMS9128,28*%
X137160000Y-96520000D03*
%TO.P,TMS9128,29*%
X137160000Y-93980000D03*
%TO.P,TMS9128,30*%
X137160000Y-91440000D03*
%TO.P,TMS9128,31*%
X137160000Y-88900000D03*
%TO.P,TMS9128,32*%
X137160000Y-86360000D03*
%TO.P,TMS9128,33*%
X137160000Y-83820000D03*
%TO.P,TMS9128,34*%
X137160000Y-81280000D03*
%TO.P,TMS9128,35*%
X137160000Y-78740000D03*
%TO.P,TMS9128,36*%
X137160000Y-76200000D03*
%TO.P,TMS9128,37*%
X137160000Y-73660000D03*
%TO.P,TMS9128,38*%
X137160000Y-71120000D03*
%TO.P,TMS9128,39*%
X137160000Y-68580000D03*
%TO.P,TMS9128,40*%
X137160000Y-66040000D03*
%TD*%
D12*
%TO.P,R1,1*%
%TO.N,N/C*%
X133542500Y-73660000D03*
%TO.P,R1,2*%
X130617500Y-73660000D03*
%TD*%
%TO.P,R2,1*%
%TO.N,N/C*%
X133542500Y-76200000D03*
%TO.P,R2,2*%
X130617500Y-76200000D03*
%TD*%
%TO.P,R3,1*%
%TO.N,N/C*%
X133542500Y-78740000D03*
%TO.P,R3,2*%
X130617500Y-78740000D03*
%TD*%
D13*
%TO.N,*%
X137160000Y-76200000D02*
X133542500Y-76200000D01*
D14*
X130617500Y-73660000D02*
X130617500Y-76200000D01*
D13*
X137160000Y-71120000D02*
X134620000Y-73660000D01*
X134620000Y-73660000D02*
X133542500Y-73660000D01*
D14*
X130617500Y-92902500D02*
X129540000Y-93980000D01*
X130617500Y-78740000D02*
X130617500Y-92902500D01*
X129540000Y-93980000D02*
X124460000Y-93980000D01*
D13*
X137160000Y-78740000D02*
X133542500Y-78740000D01*
D14*
X130617500Y-76200000D02*
X130617500Y-78740000D01*
%TD*%
M02*
